<svg width="64" height="64" viewBox="0 0 64 64" fill="none" xmlns="http://www.w3.org/2000/svg">
<rect width="64" height="64" fill="#82B1FF"/>
<path d="M26.7031 35.1406C28.5469 34.3906 30.3125 34.0156 32 34.0156C33.6875 34.0156 35.4375 34.3906 37.25 35.1406C39.0938 35.8594 40.0156 36.8125 40.0156 38V40.0156H23.9844V38C23.9844 36.8125 24.8906 35.8594 26.7031 35.1406ZM34.8125 30.8281C34.0312 31.6094 33.0938 32 32 32C30.9062 32 29.9688 31.6094 29.1875 30.8281C28.4062 30.0469 28.0156 29.1094 28.0156 28.0156C28.0156 26.9219 28.4062 25.9844 29.1875 25.2031C29.9688 24.3906 30.9062 23.9844 32 23.9844C33.0938 23.9844 34.0312 24.3906 34.8125 25.2031C35.5938 25.9844 35.9844 26.9219 35.9844 28.0156C35.9844 29.1094 35.5938 30.0469 34.8125 30.8281Z" fill="white"/>
</svg>
