<svg width="42" height="42" viewBox="0 0 42 42" fill="none" xmlns="http://www.w3.org/2000/svg">
<path d="M18.124 9.94109C22.0876 8.38637 26.014 10.0756 27.8519 12.9169C28.6864 14.207 29.0634 15.6304 29.1913 17.1411C29.4216 19.8617 29.6244 22.5855 29.9127 25.3001C30.0433 26.5299 30.7901 27.3962 31.9326 27.8988C32.806 28.2831 33.6208 28.71 34.0258 29.6763C34.7622 31.433 33.6026 33.4379 31.7169 33.6148C27.6631 33.995 23.6021 34.2413 19.5292 34.1459C16.5423 34.0759 13.5577 33.9241 10.5852 33.606C9.29869 33.4683 8.36726 32.5096 8.13805 31.1526C7.944 30.0039 8.63368 28.7323 9.75597 28.2175C10.2578 27.9873 10.7838 27.8025 11.2252 27.4634C11.9996 26.8684 12.4076 26.0439 12.5007 25.0988C12.7211 22.8612 12.9132 20.6202 13.0776 18.3777C13.2512 16.0096 13.5613 13.7071 15.3271 11.8896C16.1246 11.0687 17.0267 10.4164 18.124 9.94109Z" fill="#FFC301"/>
<path d="M19.287 6.03187C20.3293 5.14216 21.3997 4.96394 22.4342 5.52599C23.4886 6.09891 23.7834 7.08128 23.7815 8.20067C23.7808 8.65832 23.6189 8.86564 23.1063 8.76737C21.8352 8.52372 20.5553 8.49572 19.2835 8.77798C18.7725 8.8914 18.6238 8.64778 18.612 8.19359C18.5918 7.4125 18.7481 6.69046 19.287 6.03187Z" fill="#FFC301"/>
<path d="M21.1314 36.4387C19.8581 36.3396 18.8521 35.8708 18.1881 34.8088C17.8405 34.2528 17.9687 34.0111 18.622 34.0075C20.3238 33.9984 22.0257 33.9969 23.7275 34.007C24.3699 34.0108 24.5034 34.2648 24.149 34.8197C23.463 35.8943 22.4444 36.385 21.1314 36.4387Z" fill="#FFC301"/>
</svg>
