<?xml version="1.0" encoding="UTF-8"?><svg id="a" xmlns="http://www.w3.org/2000/svg" xmlns:xlink="http://www.w3.org/1999/xlink" viewBox="0 0 1000 816.2"><defs><style>.i{fill:#154c75;}.j{fill:url(#c);}.k{fill:url(#f);}.l{fill:url(#g);}.m{fill:url(#b);}.n{fill:url(#h);}.o{fill:url(#d);}.p{fill:url(#e);}</style><linearGradient id="b" x1="742.99" y1="288.29" x2="665.97" y2="643.1" gradientTransform="matrix(1, 0, 0, 1, 0, 0)" gradientUnits="userSpaceOnUse"><stop offset="0" stop-color="#00a9e6"/><stop offset=".3" stop-color="#00a6e3"/><stop offset=".51" stop-color="#029fd9"/><stop offset=".69" stop-color="#0592ca"/><stop offset=".85" stop-color="#0980b4"/><stop offset="1" stop-color="#0f6a9a"/></linearGradient><linearGradient id="c" x1="600.84" y1="343.15" x2="141.24" y2="357.04" xlink:href="#b"/><linearGradient id="d" x1="149.85" y1="153.95" x2="519.17" y2="553.58" xlink:href="#b"/><linearGradient id="e" x1="317.43" y1="684.26" x2="355.3" y2="372.39" xlink:href="#b"/><linearGradient id="f" x1="453.83" y1="385.86" x2="193.72" y2="363.13" xlink:href="#b"/><linearGradient id="g" x1="559.53" y1="621.28" x2="810.79" y2="125.05" xlink:href="#b"/><linearGradient id="h" x1="900.26" y1="303.77" x2="100.98" y2="303.77" xlink:href="#b"/></defs><rect class="i" x="0" y="-1.39" width="1000" height="818.98"/><g><path class="m" d="M1000,349.19c0,96.1-34.35,179.23-102.15,247-3.91,3.91-7.84,7.68-11.85,11.34-65.07,59.83-143.39,90.36-233.11,90.81l-10.57,.05v109.83c0,4.4-3.57,7.97-7.97,7.97h-101.38c-4.4,0-7.97-3.57-7.97-7.97V302.35c0-4.4,3.57-7.97,7.97-7.97h101.38c4.4,0,7.97,3.57,7.97,7.97v269.64c0,5.87,4.73,10.6,10.57,10.63h.13c31.51-.24,60.97-6.14,88.15-17.59,27.21-11.45,52.13-28.45,74.58-50.9,45.48-45.11,68.55-100.61,68.55-164.94s-23.06-119.82-68.57-164.96c-45.43-45.46-100.93-68.52-164.91-68.52l-117.88-.7c-4.38-.03-7.92-3.59-7.92-7.97V7.97c0-4.4,3.57-7.97,7.97-7.97h117.83c96.12,0,179.23,34.38,247.03,102.15,67.8,67.8,102.15,150.91,102.15,247.03Z"/><path class="j" d="M475.01,307.66v374.77c0,8.81-7.14,15.94-15.94,15.94l-111.98-.02c-67.56-.35-128.7-17.75-182.55-51.91-22.03-13.95-42.83-30.71-62.36-50.24C34.38,528.42,0,445.28,0,349.19S34.38,169.96,102.18,102.15C169.98,34.38,253.09,0,349.19,0h117.83c4.4,0,7.97,3.57,7.97,7.97V107.04c0,4.38-3.54,7.94-7.92,7.97l-117.93,.7c-63.92,0-119.42,23.06-164.88,68.55-45.46,45.11-68.52,100.61-68.52,164.94,0,48.25,12.97,91.53,38.66,129.2,.35,.53,.72,1.04,1.09,1.54,8.29,11.98,17.91,23.41,28.8,34.22,40.86,40.86,98.75,63.71,156.35,67.88,9.22,.66,17.08-6.67,17.08-15.94v-155.34c0-7.34-5.95-13.28-13.28-13.28h-89.56c-4.4,0-7.97-3.57-7.97-7.97v-87.14c0-4.4,3.57-7.97,7.97-7.97h206.86c7.34,0,13.28,5.95,13.28,13.28Z"/><path class="o" d="M475.01,307.66v374.77c0,8.81-7.14,15.94-15.94,15.94l-111.98-.02c-67.56-.35-128.7-17.75-182.55-51.91-22.03-13.95-42.83-30.71-62.36-50.24C34.38,528.42,0,445.28,0,349.19S34.38,169.96,102.18,102.15C169.98,34.38,253.09,0,349.19,0h115.17C103.81,0,50.67,335.21,154.39,478.39c.35,.53,.72,1.04,1.09,1.54,8.29,11.98,17.91,23.41,28.8,34.22,40.86,40.86,98.75,63.71,156.35,67.88,9.22,.66,17.08-6.67,17.08-15.94v-155.34c0-7.34-5.95-13.28-13.28-13.28h-89.56c-4.4,0-7.97-3.57-7.97-7.97v-87.14c0-4.4,3.57-7.97,7.97-7.97h206.86c7.34,0,13.28,5.95,13.28,13.28Z"/><path class="p" d="M475.01,307.66v374.77c0,8.81-7.14,15.94-15.94,15.94l-111.98-.02c-67.56-.35-128.7-17.75-182.55-51.91,103.03,62.33,193.18-20.62,193.18-80.34v-155.34c0-7.34-5.95-13.28-13.28-13.28h-89.56c-4.4,0-7.97-3.57-7.97-7.97v-87.14c0-4.4,3.57-7.97,7.97-7.97h206.86c7.34,0,13.28,5.95,13.28,13.28Z"/><path class="k" d="M461.73,294.38c7.34,0,13.28,5.95,13.28,13.28v172.27c0-74.82-71.63-82.47-130.58-82.47h-89.56c-4.4,0-7.97-3.57-7.97-7.97v-87.14c0-4.4,3.57-7.97,7.97-7.97h206.86Z"/><path class="l" d="M1000,349.19c0,96.1-34.35,179.23-102.15,247-3.91,3.91-7.84,7.68-11.85,11.34-65.07,59.83-143.39,90.36-233.11,90.81l-10.57,.05v109.83c0,4.4-3.57,7.97-7.97,7.97h-101.38c-4.4,0-7.97-3.57-7.97-7.97V484.4c0,66.28,54.84,98.22,127.9,98.22h.13c31.51-.24,60.97-6.14,88.15-17.59,27.21-11.45,52.13-28.45,74.58-50.9,45.48-45.11,68.55-100.61,68.55-164.94s-23.06-119.82-68.57-164.96c-45.43-45.46-100.93-68.52-164.91-68.52l-117.88-.7c-4.38-.03-7.92-3.59-7.92-7.97V7.97c0-4.4,3.57-7.97,7.97-7.97h117.83c96.12,0,179.23,34.38,247.03,102.15,67.8,67.8,102.15,150.91,102.15,247.03Z"/><path class="n" d="M1000,349.19c0,96.1-34.35,179.23-102.15,247-3.91,3.91-7.84,7.68-11.85,11.34,174.26-168.84,72.96-491.83-235.18-491.83l-117.88-.7c-4.38-.03-7.92-3.59-7.92-7.97V7.97c0-4.4,3.57-7.97,7.97-7.97h117.83c96.12,0,179.23,34.38,247.03,102.15,67.8,67.8,102.15,150.91,102.15,247.03Z"/></g></svg>