<svg width="254" height="85" viewBox="0 0 254 85" fill="none" xmlns="http://www.w3.org/2000/svg">
<g clip-path="url(#clip0_676_1350)">
<path d="M114.934 26.0363C112.017 29.1176 109.832 31.3519 108.379 32.739C107.248 33.8556 106.049 34.8999 104.789 35.8658C103.007 37.2279 101.032 38.3109 98.9287 39.0779C96.9281 39.7558 94.8295 40.0939 92.7188 40.0785C89.6063 40.0785 87.0639 39.1859 85.0918 37.4008C84.1247 36.5489 83.3557 35.493 82.8396 34.308C82.3234 33.123 82.0727 31.8381 82.1054 30.5446C82.0939 29.1495 82.3792 27.7682 82.942 26.4934C83.5048 25.2186 84.3322 24.0799 85.3684 23.154C87.498 21.1213 90.3386 20.0179 93.272 20.084C95.5652 20.04 97.7983 20.8246 99.5667 22.2955C101.351 23.7736 102.243 25.4128 102.243 27.2131C102.271 27.6563 102.148 28.096 101.893 28.4582C101.77 28.6021 101.616 28.7155 101.443 28.7895C101.269 28.8634 101.081 28.896 100.893 28.8845C100.711 28.8887 100.531 28.8484 100.368 28.7672C100.205 28.6861 100.064 28.5664 99.9562 28.4184C99.7076 28.0678 99.5824 27.6436 99.6006 27.2131C99.6201 26.8482 99.6769 26.4862 99.7699 26.133C99.8712 25.7619 99.93 25.3804 99.9449 24.9959C99.9406 24.4238 99.7911 23.8622 99.5104 23.3646C99.2298 22.8671 98.8274 22.4501 98.3416 22.1534C97.1293 21.3566 95.7009 20.9592 94.2543 21.0164C92.9293 21.0176 91.6195 21.3003 90.4103 21.846C89.2011 22.3916 88.1199 23.1879 87.2371 24.183C86.2793 25.1387 85.52 26.2769 85.0034 27.5311C84.4868 28.7853 84.2232 30.1305 84.228 31.4883C84.1814 32.5695 84.3723 33.6478 84.787 34.6462C85.2018 35.6446 85.8301 36.5386 86.6274 37.2644C88.2307 38.7084 90.3816 39.4304 93.0801 39.4304C96.4626 39.3839 99.7613 38.3641 102.587 36.4912C105.699 34.528 109.68 30.8592 114.527 25.4849C114.184 25.0299 113.759 24.6442 113.274 24.3478C112.844 24.1072 112.36 23.9838 111.868 23.9897C110.592 23.9897 109.559 24.723 108.763 26.2012C108.554 26.5764 108.407 26.7697 108.317 26.7697C108.264 26.7733 108.212 26.7571 108.17 26.7242C108.139 26.6818 108.123 26.6295 108.125 26.5764C108.16 26.1124 108.295 25.6617 108.521 25.2561C108.748 24.8504 109.059 24.4997 109.435 24.2284C110.268 23.483 111.347 23.0775 112.461 23.0914C113.027 23.0797 113.588 23.1963 114.104 23.4325C114.618 23.6915 115.073 24.0578 115.436 24.507L121.127 18.5831C122.933 16.6556 124.838 14.8244 126.834 13.097C128.302 11.8766 129.329 11.2645 129.917 11.2607C130.028 11.254 130.14 11.2707 130.245 11.3099C130.35 11.349 130.446 11.4097 130.526 11.4881C130.6 11.5624 130.659 11.6512 130.697 11.7489C130.736 11.8467 130.755 11.9514 130.752 12.0566C130.752 12.5645 129.693 14.5069 127.574 17.8839C125.455 21.2608 123.622 24.4445 122.075 27.4348H122.498C123.872 27.3725 125.214 27.8612 126.23 28.7936C126.699 29.2565 127.065 29.8138 127.305 30.429C127.546 31.0441 127.654 31.7034 127.624 32.3638C127.574 34.2938 126.802 36.1335 125.462 37.5145C124.017 39.148 122.457 39.9648 120.782 39.9648C120.231 39.9914 119.681 39.8946 119.171 39.6812C118.662 39.4679 118.205 39.1434 117.835 38.7311C117.068 37.7678 116.682 36.5528 116.751 35.3201C116.769 34.3005 116.919 33.2876 117.197 32.307C117.555 31.0322 118.02 29.7903 118.586 28.5946C117.968 28.8434 117.371 29.1439 116.802 29.4928C116.305 29.7964 115.843 30.1548 115.425 30.5616C115.022 31.8255 114.48 33.0402 113.81 34.1831C113.319 34.9392 112.822 35.3201 112.337 35.3201C112.216 35.3278 112.096 35.3089 111.984 35.2647C111.872 35.2205 111.771 35.1521 111.687 35.0642C111.527 34.8533 111.448 34.5904 111.467 34.3252C111.467 33.8761 111.789 33.2393 112.433 32.4264C113.199 31.4846 114.066 30.6305 115.018 29.8794C115.158 29.5557 115.271 29.2211 115.357 28.8789C115.422 28.5954 115.456 28.3056 115.459 28.0147C115.46 27.6768 115.417 27.3403 115.329 27.0141C115.236 26.6737 115.103 26.3455 114.934 26.0363ZM115.628 29.6463C116.086 29.2457 116.588 28.8986 117.124 28.6117C117.724 28.2863 118.353 28.0197 119.004 27.8157C121.085 24.4047 123.364 21.041 125.841 17.7247C128.317 14.4084 129.555 12.6555 129.555 12.466C129.561 12.3635 129.545 12.261 129.51 12.1647C129.495 12.1377 129.473 12.1146 129.448 12.0969C129.423 12.0792 129.394 12.0674 129.363 12.0623C129.013 12.0623 128.183 12.6498 126.874 13.8247C125.564 14.9996 123.821 16.7222 121.646 18.9925L115.803 25.0755C115.967 25.412 116.09 25.767 116.17 26.133C116.25 26.5199 116.288 26.9145 116.283 27.3098C116.281 27.6946 116.226 28.0773 116.119 28.4468C116 28.8638 115.835 29.2662 115.628 29.6463ZM121.669 28.191C120.85 29.7876 120.159 31.4472 119.602 33.1541C119.186 34.3458 118.946 35.5929 118.891 36.8551C118.835 37.5285 119.011 38.2007 119.388 38.7596C119.586 38.9713 119.829 39.1355 120.099 39.2398C120.368 39.3441 120.658 39.3859 120.946 39.3622C122.207 39.3622 123.319 38.7084 124.282 37.4008C125.263 36.0419 125.771 34.3954 125.728 32.7163C125.728 31.2003 125.393 30.0765 124.723 29.345C124.322 28.9481 123.843 28.6403 123.317 28.4415C122.791 28.2427 122.229 28.1573 121.669 28.191Z" fill="#5F6EC9"/>
<path d="M132.717 31.1641C132.02 31.9032 131.296 32.718 130.543 33.6087C129.781 34.5069 129.335 34.9504 129.194 34.9504C129.145 34.9512 129.097 34.9352 129.058 34.9049C129.041 34.8925 129.026 34.8765 129.016 34.8578C129.005 34.8391 128.998 34.8183 128.996 34.7969C129.018 34.6402 129.083 34.4926 129.183 34.3705C129.401 34.0687 129.635 33.7784 129.883 33.5007L131.136 32.1249C131.934 31.2532 132.656 30.4402 133.304 29.686C133.953 28.9298 134.376 28.4125 134.568 28.1396L142.365 15.9337L144.928 15.5869L132.756 35.03C131.921 36.3603 131.39 37.2585 131.164 37.7076C130.976 38.0353 130.861 38.3998 130.825 38.7764C130.821 38.9745 130.894 39.1664 131.029 39.3108C131.093 39.3831 131.173 39.4403 131.261 39.4786C131.35 39.5169 131.446 39.5353 131.542 39.5326C132.127 39.4949 132.687 39.2832 133.151 38.9243C134.266 38.0583 135.313 37.108 136.285 36.0817C136.584 35.7804 136.928 35.4052 137.329 34.9447C137.73 34.4842 137.984 34.2568 138.102 34.2568C138.162 34.2558 138.22 34.276 138.266 34.3136C138.285 34.3311 138.3 34.3521 138.311 34.3755C138.322 34.399 138.327 34.4243 138.328 34.4501C138.274 34.6666 138.16 34.8635 138.001 35.0186C137.786 35.2915 137.289 35.8316 136.516 36.6332C135.593 37.6338 134.586 38.5525 133.507 39.3791C132.981 39.7955 132.34 40.0396 131.672 40.0783C131.379 40.0888 131.088 40.033 130.819 39.9149C130.55 39.7969 130.311 39.6196 130.12 39.3961C129.715 38.8785 129.514 38.2287 129.555 37.5712C129.555 36.5251 130.507 34.5581 132.412 31.6701L132.717 31.1641Z" fill="#5F6EC9"/>
<path d="M138.735 34.1149C138.575 34.3342 138.398 34.5396 138.204 34.7289C138.117 34.8264 137.999 34.8906 137.871 34.9108C137.823 34.925 137.772 34.925 137.724 34.9108C137.69 34.9108 137.673 34.8483 137.673 34.7858C137.761 34.5414 137.9 34.3186 138.08 34.132C138.351 33.7909 138.729 33.3531 139.209 32.8244C140.266 31.613 141.506 30.577 142.884 29.7544C143.949 29.0935 145.168 28.725 146.418 28.6856C146.992 28.6563 147.557 28.8405 148.004 29.203C148.193 29.3627 148.345 29.5619 148.449 29.7867C148.554 30.0116 148.608 30.2567 148.609 30.5049C148.609 31.604 147.888 32.6652 146.446 33.6885C144.686 34.8455 142.722 35.6503 140.66 36.0592C140.581 36.5368 140.53 36.8892 140.507 37.1053C140.482 37.2937 140.469 37.4836 140.468 37.6738C140.437 38.1621 140.583 38.6451 140.88 39.0325C141.026 39.197 141.207 39.3263 141.409 39.4109C141.611 39.4955 141.83 39.5333 142.049 39.5214C142.808 39.4918 143.546 39.2604 144.188 38.8506C145.183 38.2055 146.096 37.442 146.909 36.5766C147.344 36.1388 147.813 35.6328 148.309 35.07C148.806 34.5072 149.1 34.2286 149.207 34.2286C149.266 34.2277 149.324 34.2478 149.371 34.2855C149.39 34.3029 149.405 34.3239 149.415 34.3474C149.426 34.3708 149.432 34.3961 149.433 34.4219C149.37 34.6575 149.245 34.8716 149.071 35.0416C148.823 35.3429 148.281 35.9285 147.429 36.8097C146.522 37.772 145.498 38.6145 144.38 39.3168C143.62 39.7877 142.749 40.0485 141.857 40.0729C141.388 40.08 140.924 39.9737 140.505 39.763C140.085 39.5523 139.722 39.2433 139.446 38.862C138.79 37.9721 138.457 36.8823 138.503 35.775C138.505 35.5047 138.526 35.2349 138.565 34.9677C138.605 34.6804 138.662 34.3956 138.735 34.1149ZM140.88 35.4395C142.557 35.0931 144.115 34.3089 145.396 33.1655C146.661 32.0285 147.288 30.9597 147.288 29.9648C147.294 29.7561 147.222 29.5528 147.084 29.3963C147.026 29.3219 146.951 29.2621 146.866 29.2216C146.781 29.1812 146.687 29.1612 146.593 29.1632C145.735 29.1632 144.726 29.7715 143.567 30.9881C142.374 32.2674 141.458 33.7835 140.88 35.4395Z" fill="#5F6EC9"/>
<path d="M153.898 29.6295C152.882 30.6642 151.836 31.8107 150.759 33.069C149.687 34.3254 149.066 34.9508 148.919 34.9508C148.87 34.9504 148.823 34.9345 148.783 34.9053C148.767 34.8919 148.754 34.8755 148.745 34.857C148.735 34.8384 148.729 34.8182 148.727 34.7973C148.727 34.5851 149.762 33.3419 151.832 31.0679L153.859 28.8734C154.03 28.4118 154.285 27.9859 154.61 27.617C154.718 27.4913 154.852 27.3895 155.001 27.3181C155.151 27.2467 155.314 27.2072 155.479 27.202C155.685 27.1927 155.886 27.2617 156.044 27.3953C156.115 27.4705 156.17 27.56 156.205 27.6579C156.24 27.7558 156.254 27.86 156.247 27.9638C156.253 28.1725 156.181 28.3758 156.044 28.5323C155.87 28.7243 155.656 28.874 155.417 28.9701C155.329 29.0088 155.238 29.0411 155.146 29.0667C154.672 29.2486 154.435 29.6978 154.435 30.4084C154.475 31.2037 154.598 31.9926 154.802 32.762C155.004 33.5357 155.127 34.3282 155.168 35.127C155.175 35.9393 155.004 36.743 154.666 37.4807C155.272 36.8743 155.917 36.1845 156.602 35.4113C157.291 34.6381 157.686 34.2743 157.788 34.2743C157.848 34.2712 157.906 34.2916 157.952 34.3311C157.972 34.3473 157.989 34.368 158.001 34.3916C158.013 34.4152 158.019 34.4412 158.019 34.4676C157.962 34.6964 157.842 34.9048 157.675 35.0702C157.466 35.3146 157.077 35.7751 156.512 36.3437C155.525 37.4539 154.404 38.4355 153.176 39.2658C152.379 39.7777 151.456 40.0571 150.511 40.0731C149.817 40.1058 149.132 39.9059 148.563 39.5046C148.335 39.3382 148.148 39.1195 148.02 38.8665C147.891 38.6135 147.824 38.3334 147.824 38.0492C147.823 37.8838 147.854 37.7198 147.916 37.5666C147.978 37.4135 148.069 37.2741 148.185 37.1566C148.291 37.0336 148.422 36.9349 148.569 36.8672C148.716 36.7995 148.876 36.7645 149.038 36.7644C149.247 36.7672 149.448 36.8482 149.602 36.9918C149.678 37.058 149.739 37.14 149.781 37.2323C149.823 37.3245 149.845 37.4247 149.845 37.5262C149.808 37.778 149.726 38.0208 149.602 38.2425C149.466 38.4872 149.383 38.7586 149.359 39.0384C149.358 39.1001 149.373 39.1611 149.402 39.2157C149.43 39.2703 149.472 39.3169 149.523 39.3511C149.654 39.4314 149.805 39.471 149.958 39.4648C150.861 39.4648 151.747 38.6404 152.628 36.9918C153.544 35.1866 153.998 33.1797 153.949 31.1532C153.949 30.9997 153.949 30.812 153.949 30.5846C153.949 30.3572 153.921 30.0446 153.898 29.6295Z" fill="#5F6EC9"/>
<path d="M162.496 29.6295C161.48 30.6642 160.436 31.8107 159.363 33.069C158.29 34.3273 157.677 34.9546 157.523 34.9508C157.474 34.9504 157.426 34.9345 157.387 34.9053C157.37 34.893 157.356 34.8768 157.346 34.858C157.336 34.8393 157.331 34.8185 157.331 34.7973C157.331 34.5851 158.366 33.3419 160.436 31.0679L162.462 28.8734C162.634 28.4118 162.889 27.9859 163.213 27.617C163.322 27.4913 163.455 27.3895 163.605 27.3181C163.755 27.2467 163.917 27.2072 164.083 27.202C164.288 27.1927 164.49 27.2617 164.647 27.3953C164.719 27.4705 164.774 27.56 164.809 27.6579C164.844 27.7558 164.858 27.86 164.85 27.9638C164.857 28.1725 164.784 28.3758 164.647 28.5323C164.474 28.7243 164.26 28.874 164.021 28.9701C163.932 29.0079 163.842 29.0402 163.75 29.0667C163.275 29.2486 163.033 29.6978 163.033 30.4084C163.076 31.2034 163.199 31.992 163.4 32.762C163.605 33.5351 163.728 34.3279 163.766 35.127C163.77 35.526 163.732 35.9242 163.654 36.3152C163.563 36.7061 163.435 37.0869 163.27 37.4522C163.868 36.8439 164.517 36.156 165.206 35.3829C165.895 34.6097 166.29 34.2459 166.392 34.2459C166.451 34.2439 166.51 34.2641 166.555 34.3027C166.576 34.3189 166.593 34.3395 166.605 34.3632C166.616 34.3868 166.623 34.4127 166.623 34.4391C166.563 34.6669 166.444 34.8747 166.279 35.0418C166.042 35.326 165.646 35.7638 165.082 36.3607C164.095 37.4709 162.974 38.4526 161.745 39.2829C160.948 39.7948 160.026 40.0742 159.081 40.0901C158.387 40.1229 157.702 39.9229 157.133 39.5216C156.9 39.3507 156.711 39.1254 156.583 38.865C156.456 38.6046 156.392 38.3168 156.399 38.0264C156.399 37.8607 156.432 37.6966 156.495 37.5434C156.557 37.3903 156.65 37.2511 156.766 37.1339C156.871 37.0116 157.001 36.9133 157.147 36.8456C157.294 36.778 157.452 36.7425 157.613 36.7416C157.832 36.739 158.044 36.8202 158.206 36.969C158.281 37.0355 158.342 37.1178 158.382 37.21C158.423 37.3023 158.444 37.4024 158.443 37.5034C158.409 37.7551 158.329 37.9981 158.206 38.2197C158.069 38.4645 157.986 38.7359 157.963 39.0156C157.962 39.0774 157.977 39.1384 158.005 39.193C158.034 39.2476 158.076 39.2941 158.127 39.3283C158.257 39.4093 158.408 39.449 158.561 39.442C159.457 39.442 160.347 38.6177 161.232 36.969C162.148 35.1639 162.602 33.157 162.553 31.1304C162.553 30.9769 162.553 30.7893 162.553 30.5619C162.553 30.3345 162.524 30.0446 162.496 29.6295Z" fill="#5F6EC9"/>
<path d="M176.836 31.3745L178.456 28.9868L181.058 28.8333L176.717 35.7065C176.271 36.3804 175.865 37.0809 175.503 37.8043C175.356 38.1222 175.272 38.4659 175.255 38.8163C175.246 38.8921 175.253 38.969 175.274 39.0422C175.295 39.1155 175.331 39.1836 175.379 39.2427C175.518 39.3381 175.686 39.3804 175.853 39.3621C176.46 39.2343 177.021 38.9413 177.474 38.515C178.412 37.7613 179.295 36.9405 180.116 36.059C180.426 35.7463 180.782 35.3654 181.183 34.922C181.583 34.4786 181.837 34.2455 181.928 34.2455C181.988 34.2417 182.048 34.2534 182.103 34.2796C182.12 34.294 182.135 34.3122 182.144 34.3328C182.154 34.3535 182.159 34.3761 182.159 34.399C182.083 34.6876 181.928 34.9493 181.713 35.1551C181.42 35.5189 180.962 36.0135 180.347 36.6332C179.411 37.6641 178.381 38.6043 177.27 39.4417C176.725 39.8344 176.077 40.0595 175.407 40.0898C175.182 40.1039 174.956 40.0657 174.748 39.9779C174.539 39.8902 174.353 39.7553 174.205 39.5838C173.901 39.1564 173.753 38.636 173.787 38.1113C173.788 37.9212 173.801 37.7312 173.827 37.5428C173.827 37.3268 173.906 37.0141 173.979 36.5991C173.237 37.5862 172.354 38.4578 171.36 39.1858C170.68 39.7143 169.857 40.0217 169 40.067C168.644 40.0697 168.296 39.9692 167.995 39.7777C167.695 39.5862 167.456 39.3116 167.306 38.9868C166.859 38.0609 166.651 37.0362 166.702 36.0079C166.702 35.6958 166.725 35.3842 166.77 35.0755C166.813 34.7672 166.873 34.4616 166.95 34.1602C166.828 34.3691 166.678 34.5603 166.504 34.7287C166.414 34.8406 166.285 34.9138 166.143 34.9334C166.078 34.9405 166.013 34.9265 165.957 34.8936C165.94 34.8801 165.927 34.8626 165.92 34.8427C165.912 34.8228 165.909 34.8011 165.912 34.7799C166.02 34.4941 166.19 34.236 166.409 34.0237C166.747 33.6201 167.193 33.1255 167.763 32.5456C168.854 31.4085 170.104 30.4376 171.472 29.6633C172.5 29.0447 173.664 28.693 174.86 28.64C175.409 28.6124 175.949 28.7929 176.373 29.1459C176.559 29.3137 176.707 29.521 176.804 29.753C176.902 29.985 176.947 30.2359 176.937 30.4876C176.936 30.6229 176.925 30.7578 176.903 30.8913C176.89 31.0535 176.867 31.2148 176.836 31.3745ZM168.367 38.1341C168.35 38.4537 168.439 38.7701 168.622 39.0323C168.703 39.1392 168.808 39.2249 168.929 39.2823C169.05 39.3396 169.182 39.367 169.316 39.3621C169.912 39.3016 170.478 39.0708 170.947 38.6969C171.697 38.1689 172.38 37.5503 172.98 36.8549C173.948 35.8156 174.781 34.6559 175.458 33.4041C175.977 32.5221 176.279 31.528 176.339 30.5047C176.341 30.3384 176.309 30.1734 176.244 30.0206C176.178 29.8678 176.082 29.7305 175.961 29.6178C175.839 29.5005 175.696 29.4085 175.539 29.3471C175.382 29.2856 175.214 29.2559 175.046 29.2596C174.279 29.3078 173.546 29.5982 172.952 30.0897C172.085 30.7637 171.324 31.5647 170.693 32.466C170.012 33.4196 169.444 34.4499 169 35.536C168.629 36.3543 168.414 37.2357 168.367 38.1341Z" fill="#5F6EC9"/>
<path d="M182.368 39.9249L187.494 32.1761C187.57 32.0472 187.655 31.9237 187.748 31.8066C188.415 30.806 188.748 30.1352 188.748 29.7827C188.756 29.7157 188.751 29.6476 188.731 29.5829C188.712 29.5182 188.679 29.4584 188.635 29.4075C188.511 29.3215 188.361 29.2832 188.211 29.2995C187.575 29.3887 186.982 29.6771 186.518 30.1238C185.484 31.0168 184.513 31.9798 183.61 33.0062C183.339 33.2961 183.018 33.66 182.645 34.1148C182.193 34.6833 181.9 34.9505 181.759 34.9505C181.71 34.9501 181.662 34.9342 181.623 34.905C181.606 34.8926 181.592 34.8765 181.582 34.8577C181.572 34.839 181.567 34.8182 181.567 34.797C181.589 34.6413 181.651 34.4942 181.747 34.3706C181.872 34.1887 182.114 33.8874 182.47 33.4724L183.723 32.0966C184.583 31.1092 185.528 30.1999 186.546 29.3791C187.064 28.9524 187.702 28.6999 188.369 28.6571C188.583 28.6478 188.795 28.6876 188.991 28.7733C189.186 28.859 189.36 28.9884 189.498 29.1517C189.794 29.538 189.942 30.0179 189.916 30.5047C189.902 31.1625 189.774 31.8126 189.538 32.4263C189.217 33.2559 188.812 34.0502 188.33 34.797C189.765 33.1025 191.309 31.5053 192.953 30.0158C194.026 29.1138 194.884 28.6609 195.528 28.6571C195.736 28.6517 195.942 28.6963 196.13 28.7873C196.317 28.8783 196.481 29.0129 196.606 29.1801C196.894 29.587 197.037 30.0797 197.013 30.5786C197.013 31.5792 196.363 32.9721 195.065 34.7572C194.845 35.0528 194.687 35.2802 194.579 35.4394C194.051 36.137 193.564 36.866 193.123 37.6225C192.914 37.9679 192.787 38.3568 192.75 38.7595C192.738 38.9501 192.792 39.1391 192.903 39.2939C192.964 39.3603 193.04 39.4117 193.124 39.4442C193.208 39.4767 193.298 39.4894 193.388 39.4815C193.988 39.3463 194.538 39.0473 194.98 38.6174C195.922 37.8354 196.812 36.9922 197.645 36.0932C197.95 35.7805 198.305 35.3939 198.706 34.9562C199.107 34.5184 199.367 34.2569 199.457 34.2569C199.52 34.2572 199.581 34.2816 199.626 34.3251C199.647 34.3395 199.665 34.358 199.679 34.3795C199.692 34.401 199.701 34.425 199.705 34.4502C199.705 34.6549 199.141 35.3465 198.012 36.5253L197.78 36.7583C196.933 37.6667 196.017 38.5087 195.042 39.2768C194.568 39.7101 193.98 39.9963 193.349 40.1012C193.072 40.1034 192.8 40.0327 192.56 39.896C192.319 39.7594 192.118 39.5616 191.977 39.3223C191.606 38.7113 191.425 38.0025 191.457 37.2871C191.471 36.625 191.631 35.9744 191.926 35.3825C192.51 34.3115 193.196 33.3004 193.975 32.3638C194.116 32.1818 194.32 31.9374 194.574 31.6247C195.336 30.681 195.703 30.0499 195.703 29.7372C195.715 29.6136 195.681 29.4898 195.607 29.3904C195.506 29.3159 195.381 29.2815 195.257 29.2938C194.643 29.2938 193.426 30.2186 191.604 32.0681C189.307 34.475 187.139 37.0048 185.112 39.6464L182.368 39.9249Z" fill="#5F6EC9"/>
<path d="M209.89 31.3744L218.668 15.7006L221.231 15.5869L210.449 34.4273C209.906 35.3294 209.411 36.2592 208.964 37.213C208.712 37.6996 208.555 38.2303 208.501 38.7764C208.5 38.8504 208.516 38.9235 208.548 38.9904C208.579 39.0573 208.625 39.1163 208.682 39.163C208.809 39.2714 208.972 39.3282 209.139 39.3222C209.421 39.3222 209.941 39.0095 210.697 38.3899C211.661 37.5726 212.577 36.6994 213.441 35.7747C213.672 35.5416 213.943 35.246 214.248 34.8822C214.553 34.5183 214.88 34.2227 214.982 34.2227C215.042 34.2189 215.102 34.2306 215.157 34.2568C215.175 34.2712 215.189 34.2894 215.199 34.31C215.208 34.3307 215.213 34.3533 215.213 34.3762C215.137 34.6648 214.982 34.9265 214.767 35.1323C214.474 35.4961 214.017 35.9907 213.401 36.6104C212.465 37.6413 211.435 38.5815 210.324 39.4189C209.779 39.8116 209.132 40.0367 208.461 40.067C208.236 40.0811 208.01 40.0429 207.802 39.9551C207.593 39.8674 207.407 39.7325 207.259 39.561C206.955 39.1336 206.807 38.6132 206.841 38.0885C206.842 37.8984 206.855 37.7085 206.881 37.52C206.881 37.304 206.96 36.9913 207.033 36.5763C206.295 37.5731 205.414 38.4543 204.419 39.1915C203.74 39.7199 202.917 40.0273 202.06 40.0726C201.704 40.0753 201.355 39.9749 201.055 39.7833C200.755 39.5918 200.515 39.3172 200.366 38.9925C199.919 38.0666 199.711 37.0419 199.762 36.0135C199.762 35.7015 199.785 35.3898 199.83 35.0811C199.872 34.7728 199.933 34.4672 200.01 34.1658C199.888 34.3747 199.738 34.566 199.564 34.7343C199.474 34.8462 199.345 34.9194 199.203 34.939C199.138 34.9461 199.073 34.9322 199.017 34.8992C199.001 34.8848 198.989 34.8672 198.981 34.8475C198.973 34.8278 198.97 34.8066 198.971 34.7855C199.08 34.4998 199.25 34.2416 199.468 34.0294C199.807 33.6257 200.253 33.1311 200.823 32.5513C201.914 31.4142 203.163 30.4432 204.532 29.6689C205.56 29.0503 206.724 28.6987 207.919 28.6456C208.469 28.618 209.009 28.7985 209.432 29.1516C209.619 29.3193 209.767 29.5267 209.864 29.7586C209.962 29.9906 210.007 30.2415 209.997 30.4933C209.996 30.6285 209.985 30.7634 209.963 30.8969C209.948 31.0573 209.923 31.2168 209.89 31.3744ZM201.422 38.134C201.404 38.4537 201.493 38.77 201.676 39.0323C201.757 39.1388 201.863 39.2242 201.983 39.2816C202.104 39.3389 202.237 39.3665 202.37 39.362C202.966 39.3015 203.532 39.0707 204.002 38.6969C204.751 38.1689 205.434 37.5503 206.034 36.8549C207.003 35.8156 207.835 34.6559 208.512 33.404C209.031 32.5221 209.333 31.528 209.393 30.5046C209.395 30.3383 209.363 30.1734 209.298 30.0206C209.233 29.8677 209.136 29.7305 209.015 29.6177C208.893 29.5005 208.75 29.4085 208.593 29.347C208.436 29.2856 208.268 29.2559 208.1 29.2596C207.335 29.3089 206.604 29.5993 206.011 30.0896C205.145 30.7636 204.384 31.5646 203.753 32.466C203.072 33.4195 202.504 34.4498 202.06 35.5359C201.692 36.355 201.482 37.2364 201.439 38.134H201.422Z" fill="#5F6EC9"/>
<path d="M215.428 39.8852L220.554 32.1762L220.712 31.9203C221.446 30.8345 221.807 30.1238 221.807 29.7827C221.818 29.639 221.773 29.4968 221.683 29.3848C221.568 29.2899 221.419 29.245 221.271 29.2597C220.648 29.3529 220.071 29.6437 219.623 30.0897C218.566 30.9985 217.57 31.9766 216.642 33.0176C216.371 33.3075 216.049 33.6713 215.676 34.1262C215.225 34.6947 214.931 34.9619 214.79 34.9619C214.741 34.9615 214.694 34.9455 214.655 34.9164C214.637 34.904 214.624 34.8878 214.614 34.8691C214.604 34.8503 214.599 34.8295 214.598 34.8084C214.62 34.6527 214.682 34.5056 214.779 34.382C214.903 34.2001 215.146 33.8987 215.501 33.4837L216.755 32.1079C217.636 31.1041 218.601 30.1779 219.64 29.3393C220.148 28.9144 220.776 28.6618 221.435 28.6173C221.647 28.6098 221.859 28.6498 222.054 28.7343C222.249 28.8188 222.423 28.9458 222.564 29.1062C222.858 29.4431 223.013 29.8802 222.999 30.3285C222.991 30.9928 222.869 31.6507 222.637 32.2728C222.211 33.3107 221.699 34.311 221.107 35.2632L221.147 35.2234C222.569 33.8362 223.693 32.7958 224.5 32.0966C224.81 31.0967 225.302 30.1637 225.951 29.345C226.182 29.1057 226.46 28.9174 226.767 28.7921C227.074 28.6668 227.404 28.6073 227.735 28.6173C227.969 28.6074 228.199 28.6753 228.39 28.8106C228.471 28.8716 228.536 28.9517 228.579 29.0439C228.623 29.136 228.643 29.2375 228.638 29.3393C228.638 29.7373 227.887 30.4763 226.38 31.6133C226.109 31.8237 225.906 31.9772 225.759 32.0795C225.247 32.4381 224.818 32.9035 224.5 33.4439C224.241 33.9333 224.111 34.4813 224.122 35.0358C224.116 35.1771 224.137 35.3182 224.186 35.451C224.234 35.5838 224.308 35.7055 224.404 35.8089C224.493 35.9058 224.602 35.9823 224.722 36.0333C224.843 36.0844 224.973 36.1086 225.104 36.1046C225.861 36.0535 226.57 35.7092 227.08 35.1438C227.752 34.5127 228.091 34.1944 228.102 34.1944C228.166 34.1998 228.226 34.2234 228.277 34.2626C228.295 34.2776 228.31 34.2967 228.32 34.3184C228.33 34.3401 228.334 34.3638 228.333 34.3877C228.333 34.7003 227.961 35.1495 227.204 35.735C226.645 36.2446 225.935 36.5561 225.183 36.6219C224.737 36.654 224.297 36.5115 223.953 36.224C223.808 36.0742 223.695 35.8958 223.623 35.7001C223.55 35.5044 223.518 35.2956 223.529 35.0869C223.538 34.837 223.576 34.5889 223.642 34.3479C223.721 34.0466 223.851 33.66 224.026 33.1824C223.108 33.969 222.242 34.816 221.435 35.718C220.494 36.7565 219.41 38.0546 218.183 39.6123L215.428 39.8852Z" fill="#5F6EC9"/>
<path d="M238.495 31.3744L240.115 28.9867L242.718 28.8332L238.371 35.7065C237.924 36.3803 237.519 37.0808 237.157 37.8043C237.01 38.1221 236.925 38.4658 236.909 38.8162C236.9 38.892 236.906 38.9689 236.928 39.0421C236.949 39.1154 236.985 39.1836 237.033 39.2426C237.172 39.338 237.34 39.3804 237.507 39.362C238.114 39.2343 238.674 38.9413 239.127 38.5149C240.062 37.7608 240.941 36.94 241.758 36.0589C242.063 35.7463 242.424 35.3654 242.825 34.9219C243.226 34.4785 243.48 34.2454 243.57 34.2454C243.63 34.2423 243.691 34.254 243.745 34.2795C243.763 34.2939 243.777 34.3121 243.787 34.3328C243.797 34.3534 243.802 34.376 243.802 34.3989C243.725 34.6875 243.571 34.9492 243.356 35.155C243.062 35.5189 242.605 36.0135 241.99 36.6331C241.06 37.659 240.037 38.5954 238.935 39.4302C238.39 39.8229 237.743 40.0481 237.072 40.0783C236.847 40.0925 236.621 40.0542 236.413 39.9665C236.204 39.8787 236.018 39.7439 235.87 39.5723C235.566 39.1449 235.418 38.6246 235.452 38.0999C235.453 37.9097 235.466 37.7198 235.492 37.5314C235.52 37.3154 235.571 37.0027 235.644 36.5877C234.904 37.5831 234.024 38.4642 233.03 39.2028C232.351 39.7313 231.528 40.0386 230.67 40.084C230.315 40.0867 229.966 39.9862 229.666 39.7947C229.366 39.6031 229.126 39.3286 228.977 39.0038C228.529 38.0779 228.322 37.0532 228.373 36.0248C228.373 35.7128 228.396 35.4012 228.441 35.0925C228.483 34.7842 228.544 34.4786 228.621 34.1772C228.499 34.3861 228.349 34.5773 228.175 34.7457C228.085 34.8576 227.956 34.9307 227.814 34.9504C227.749 34.9575 227.684 34.9435 227.628 34.9106C227.61 34.8974 227.597 34.8801 227.588 34.8602C227.579 34.8403 227.575 34.8186 227.577 34.7969C227.697 34.52 227.874 34.2719 228.096 34.0692C228.429 33.6655 228.881 33.1709 229.451 32.591C230.542 31.454 231.791 30.483 233.16 29.7087C234.187 29.0901 235.351 28.7385 236.547 28.6854C237.097 28.6578 237.636 28.8383 238.06 29.1913C238.247 29.3591 238.394 29.5664 238.492 29.7984C238.59 30.0304 238.635 30.2813 238.625 30.533C238.624 30.6683 238.613 30.8032 238.591 30.9367C238.567 31.0842 238.534 31.2303 238.495 31.3744ZM230.027 38.134C230.009 38.4536 230.099 38.77 230.281 39.0323C230.362 39.1391 230.467 39.2248 230.588 39.2822C230.709 39.3396 230.842 39.3669 230.975 39.362C231.571 39.3015 232.137 39.0707 232.607 38.6968C233.357 38.1689 234.039 37.5503 234.639 36.8549C235.608 35.8155 236.441 34.6559 237.118 33.404C237.636 32.5221 237.938 31.528 237.998 30.5046C238.001 30.3383 237.968 30.1734 237.903 30.0205C237.838 29.8677 237.741 29.7305 237.62 29.6177C237.498 29.5005 237.355 29.4085 237.198 29.347C237.041 29.2855 236.874 29.2558 236.705 29.2596C235.94 29.3089 235.209 29.5992 234.617 30.0896C233.75 30.7637 232.989 31.5647 232.358 32.466C231.679 33.4207 231.111 34.4507 230.665 35.5359C230.298 36.355 230.087 37.2364 230.044 38.134H230.027Z" fill="#5F6EC9"/>
<path d="M97.1109 69.9708C98.7567 71.0368 100.601 71.7544 102.531 72.08C104.45 72.3926 105.41 72.6485 105.41 72.7508C105.41 73.0066 105.229 73.1772 104.873 73.2625C104.028 73.3773 103.174 73.4191 102.322 73.3875C100.312 73.3875 98.447 73.3136 96.727 73.1658C95.1209 73.0332 93.5241 72.8034 91.9454 72.4779C90.6695 72.7849 89.642 73.0066 88.8573 73.126C88.15 73.2445 87.4347 73.3073 86.7177 73.3136C85.5615 73.3649 84.4076 73.1712 83.3304 72.7451C82.4949 72.3642 82.0771 71.8696 82.0771 71.2556C82.08 71.0737 82.13 70.8957 82.222 70.7392C82.3141 70.5827 82.4451 70.453 82.6022 70.3631C83.0133 70.1134 83.4889 69.9926 83.9684 70.0163C84.7023 70.0163 86.7459 70.4502 90.0993 71.3182L91.8381 71.7616C92.3826 71.6332 92.9152 71.4582 93.4301 71.2386C94.1382 70.9324 94.8298 70.5889 95.502 70.2096C93.5983 69.2552 91.9767 67.8143 90.7993 66.031C89.7363 64.2733 89.1992 62.2441 89.2525 60.1867C89.2464 58.0683 89.8102 55.9878 90.884 54.1662C92.1016 52.1418 93.7289 50.3985 95.6601 49.0496C97.5875 47.6312 99.7252 46.528 101.994 45.7807C104.246 45.045 106.599 44.6746 108.966 44.6835C110.16 44.6756 111.35 44.7976 112.517 45.0473C113.573 45.28 114.596 45.6468 115.56 46.1389C116.644 45.6045 117.378 45.269 117.762 45.1269C118.044 45.0089 118.343 44.9379 118.648 44.9166C118.679 44.9159 118.71 44.9221 118.738 44.9349C118.767 44.9477 118.792 44.9667 118.812 44.9905C118.858 45.0442 118.882 45.1131 118.88 45.1838C118.88 45.3827 118.564 45.5988 117.937 45.8489C117.375 46.0581 116.833 46.3168 116.317 46.6221C117.12 47.1684 117.799 47.8794 118.31 48.7085C118.752 49.4582 118.982 50.3153 118.976 51.1872C119.011 52.4164 118.627 53.6205 117.886 54.5983C117.156 55.542 115.763 56.6032 113.708 57.7819C111.142 59.298 109.48 60.5544 108.724 61.5512C107.962 62.5894 107.564 63.8535 107.595 65.1441C107.552 66.9965 108.231 68.7921 109.486 70.147C110.079 70.8085 110.806 71.3336 111.619 71.6868C112.431 72.0399 113.309 72.2128 114.194 72.1937C114.856 72.2231 115.517 72.1169 116.137 71.8814C116.757 71.6459 117.324 71.286 117.801 70.8236C118.615 69.9169 119.095 68.7561 119.159 67.5357C119.224 66.3153 118.87 65.1096 118.157 64.1208C117.85 63.7236 117.456 63.4038 117.005 63.1867C116.555 62.9696 116.06 62.8612 115.56 62.8701C114.405 62.8701 113.364 63.4595 112.438 64.6382C112.207 64.9224 112.054 65.0646 111.975 65.0646C111.908 65.0625 111.842 65.0386 111.789 64.9963C111.733 64.9509 111.704 64.9111 111.704 64.8713C111.704 64.3558 112.212 63.7153 113.229 62.9497C114.159 62.2173 115.305 61.8173 116.486 61.8127C117.084 61.7975 117.678 61.904 118.234 62.1258C118.79 62.3475 119.296 62.68 119.721 63.1032C120.145 63.5209 120.48 64.0223 120.703 64.5759C120.926 65.1295 121.034 65.7236 121.019 66.321C121.019 68.1554 120.129 69.8002 118.349 71.2556C116.646 72.6775 114.498 73.4468 112.286 73.4273C111.37 73.4576 110.457 73.3004 109.603 72.9652C108.749 72.6301 107.972 72.1239 107.318 71.4773C106.67 70.8459 106.16 70.0856 105.82 69.2449C105.48 68.4042 105.317 67.5013 105.342 66.5938C105.342 63.7286 107.566 60.9182 112.015 58.1628L112.918 57.5943C113.902 56.9725 114.72 56.1176 115.301 55.1043C115.867 54.1523 116.169 53.0645 116.176 51.9547C116.186 51.1086 116.033 50.2686 115.724 49.4817C115.452 48.7671 115.012 48.1294 114.442 47.6227C113.001 48.5071 111.725 49.6384 110.671 50.9655C108.845 53.3084 107.185 55.7781 105.703 58.3561C105.483 58.7313 105.139 59.2942 104.698 60.0617C101.778 64.9092 99.2487 68.2122 97.1109 69.9708ZM96.4391 69.4478C97.7978 68.3828 99.6551 65.832 102.011 61.7956C103.016 60.0863 103.806 58.7598 104.382 57.816C105.845 55.3658 107.525 53.0539 109.401 50.9087C110.724 49.4553 112.265 48.2199 113.968 47.2474C113.203 46.601 112.31 46.1262 111.349 45.8546C110.17 45.5208 108.949 45.3618 107.724 45.3827C105.789 45.3763 103.868 45.7072 102.045 46.3606C100.265 46.9912 98.6143 47.9428 97.173 49.169C95.5204 50.5828 94.1751 52.3246 93.2212 54.2856C92.2994 56.1229 91.8143 58.1509 91.8042 60.2095C91.7715 62.0464 92.174 63.8647 92.9785 65.5137C93.7928 67.092 94.9815 68.4433 96.4391 69.4478ZM96.2472 70.5848C95.7347 70.9143 95.2052 71.216 94.6608 71.4887C94.1642 71.7331 93.6488 71.9365 93.1196 72.097C93.9905 72.2965 94.8729 72.4408 95.7617 72.5291C96.8123 72.6336 97.8674 72.6848 98.9231 72.6826C99.2223 72.6826 99.5836 72.6826 100.013 72.6428C100.442 72.603 101.018 72.5632 101.706 72.4893C100.736 72.2895 99.7799 72.0255 98.8441 71.6991C97.9535 71.3851 97.0858 71.009 96.2472 70.5734V70.5848Z" fill="#5F6EC9"/>
<path d="M133.53 64.7235L135.15 62.3358L137.752 62.1823L133.411 69.0556C132.962 69.728 132.557 70.4287 132.197 71.1534C132.047 71.4703 131.963 71.8145 131.949 72.1653C131.94 72.2411 131.947 72.318 131.968 72.3912C131.989 72.4645 132.025 72.5327 132.073 72.5917C132.21 72.6872 132.376 72.7296 132.542 72.7111C133.15 72.587 133.711 72.2936 134.162 71.864C135.101 71.1118 135.984 70.2909 136.804 69.408C137.114 69.0954 137.47 68.7145 137.877 68.271C138.283 67.8276 138.531 67.5945 138.622 67.5945C138.681 67.5891 138.74 67.603 138.791 67.6343C138.811 67.6457 138.827 67.6623 138.838 67.6824C138.849 67.7024 138.854 67.7251 138.853 67.748C138.773 68.0349 138.619 68.2957 138.407 68.5041C138.114 68.8679 137.656 69.3626 137.041 69.9822C136.105 71.0131 135.075 71.9533 133.964 72.7907C133.418 73.1825 132.771 73.4075 132.101 73.4388C131.875 73.453 131.648 73.4147 131.439 73.327C131.23 73.2393 131.043 73.1045 130.893 72.9328C130.591 72.5046 130.445 71.9844 130.481 71.4604C130.482 71.2702 130.495 71.0803 130.521 70.8918C130.521 70.6758 130.594 70.3631 130.673 69.9481C129.933 70.9436 129.052 71.8246 128.059 72.5633C127.378 73.0921 126.553 73.3995 125.694 73.4445C125.343 73.4417 125 73.3387 124.706 73.1475C124.411 72.9563 124.176 72.6847 124.028 72.3643C123.576 71.4399 123.366 70.4144 123.419 69.3853C123.419 69.0733 123.441 68.7617 123.486 68.4529C123.531 68.1445 123.593 67.8389 123.673 67.5376C123.548 67.7453 123.399 67.9363 123.227 68.1061C123.135 68.2193 123.004 68.2926 122.86 68.3108C122.797 68.3188 122.733 68.3048 122.679 68.271C122.662 68.2578 122.648 68.2405 122.639 68.2207C122.63 68.2008 122.627 68.179 122.628 68.1573C122.74 67.8718 122.911 67.6139 123.131 67.4012C123.464 66.9975 123.915 66.5029 124.48 65.9231C125.574 64.787 126.825 63.8162 128.195 63.0407C129.222 62.4221 130.386 62.0705 131.582 62.0174C132.131 61.9898 132.671 62.1703 133.095 62.5234C133.282 62.6911 133.429 62.8985 133.527 63.1304C133.624 63.3624 133.67 63.6133 133.659 63.8651C133.66 64.0006 133.647 64.1358 133.62 64.2687C133.601 64.4223 133.57 64.5743 133.53 64.7235ZM125.061 71.4831C125.044 71.8027 125.133 72.1191 125.316 72.3813C125.396 72.4945 125.503 72.5856 125.627 72.6462C125.752 72.7068 125.889 72.735 126.027 72.7281C126.62 72.6673 127.183 72.4387 127.653 72.0687C128.402 71.5356 129.086 70.9154 129.691 70.221C130.658 69.1826 131.491 68.025 132.169 66.7758C132.683 65.8902 132.983 64.8949 133.044 63.8707C133.048 63.7048 133.016 63.54 132.952 63.3872C132.888 63.2343 132.792 63.0969 132.672 62.9839C132.424 62.7472 132.093 62.6185 131.751 62.6257C130.98 62.6756 130.244 62.9724 129.651 63.4728C128.784 64.1454 128.022 64.9467 127.393 65.8492C126.714 66.804 126.146 67.8341 125.699 68.9191C125.338 69.7283 125.128 70.5974 125.078 71.4831H125.061Z" fill="#5F6EC9"/>
<path d="M139.011 73.2966L144.177 65.5478L144.335 65.292C145.063 64.2061 145.43 63.4955 145.43 63.1544C145.44 63.0107 145.396 62.8684 145.306 62.7564C145.19 62.6616 145.042 62.6166 144.894 62.6314C144.27 62.721 143.691 63.0077 143.24 63.45C142.187 64.3607 141.193 65.3387 140.265 66.3778C139.994 66.6659 139.672 67.0354 139.299 67.4864C138.848 68.0549 138.554 68.3221 138.413 68.3221C138.364 68.323 138.316 68.307 138.277 68.2767C138.26 68.2643 138.245 68.2482 138.235 68.2296C138.224 68.2109 138.217 68.1901 138.215 68.1686C138.237 68.0119 138.302 67.8644 138.402 67.7423C138.627 67.4302 138.868 67.1304 139.124 66.844L140.378 65.4682C141.258 64.463 142.223 63.5366 143.262 62.6996C143.769 62.281 144.393 62.0325 145.046 61.9889C145.26 61.9802 145.474 62.0213 145.67 62.1091C145.865 62.1968 146.038 62.3289 146.175 62.4949C146.471 62.8919 146.617 63.3813 146.588 63.8764C146.576 64.5339 146.45 65.1843 146.215 65.798C145.891 66.6264 145.486 67.4205 145.007 68.1686C146.287 66.465 147.699 64.8663 149.23 63.3875C150.276 62.4551 151.157 61.9889 151.872 61.9889C152.083 61.9835 152.292 62.0232 152.487 62.1055C152.682 62.1879 152.857 62.3109 153.001 62.4665C153.297 62.7914 153.457 63.2193 153.447 63.6604C153.442 64.3821 153.306 65.0969 153.046 65.7695C152.722 66.5914 152.299 67.3704 151.787 68.0891C153.222 66.3821 154.758 64.7646 156.388 63.2453C157.353 62.4096 158.144 61.9889 158.748 61.9889C158.96 61.9852 159.171 62.0353 159.359 62.1347C159.547 62.234 159.708 62.3794 159.826 62.5574C160.114 62.9708 160.257 63.4688 160.233 63.973C160.233 64.9736 159.578 66.3665 158.268 68.1516C158.059 68.4472 157.901 68.6746 157.782 68.8338C157.261 69.5316 156.782 70.2607 156.348 71.0169C156.136 71.361 156.007 71.7504 155.97 72.1539C155.957 72.3446 156.011 72.534 156.123 72.6883C156.185 72.754 156.26 72.805 156.344 72.8374C156.428 72.8699 156.518 72.883 156.608 72.8759C157.211 72.7396 157.765 72.4363 158.206 72.0004C159.148 71.2184 160.038 70.3752 160.87 69.4762C161.181 69.1635 161.531 68.7769 161.932 68.3392C162.333 67.9014 162.621 67.6115 162.722 67.6115C162.787 67.612 162.849 67.6363 162.897 67.6797C162.918 67.6941 162.935 67.7127 162.947 67.7343C162.96 67.7559 162.968 67.7799 162.971 67.8048C162.971 68.0095 162.406 68.7011 161.277 69.8799L161.045 70.1129C160.198 71.0213 159.282 71.8633 158.307 72.6314C157.833 73.0647 157.245 73.3509 156.614 73.4558C156.338 73.4575 156.066 73.3865 155.825 73.2499C155.585 73.1133 155.383 72.9158 155.242 72.6769C154.871 72.0659 154.69 71.3571 154.723 70.6417C154.736 69.9789 154.898 69.3277 155.197 68.7372C155.782 67.6744 156.47 66.6727 157.252 65.7468C157.393 65.5649 157.59 65.3204 157.85 65.0077C158.607 64.064 158.979 63.433 158.979 63.126C158.987 62.994 158.949 62.8633 158.872 62.7564C158.781 62.6744 158.661 62.6315 158.539 62.637C157.974 62.637 156.811 63.5637 155.056 65.4171C153.3 67.2704 151.183 69.806 148.699 73.0294L145.944 73.3023L151.07 65.5535C151.44 65.0258 151.779 64.4773 152.086 63.9105C152.216 63.6683 152.291 63.4005 152.306 63.126C152.315 63.0572 152.308 62.9874 152.286 62.9216C152.265 62.8557 152.229 62.7955 152.182 62.7451C152.054 62.6601 151.9 62.6219 151.747 62.637C150.72 62.637 147.801 65.6217 142.991 71.5911L141.834 73.001L139.011 73.2966Z" fill="#5F6EC9"/>
<path d="M171.41 69.6183C171.47 69.6271 171.528 69.6404 171.585 69.6581C171.736 69.7036 171.891 69.7303 172.048 69.7377C172.627 69.7205 173.194 69.5604 173.697 69.2715C174.308 68.9382 174.86 68.5039 175.328 67.9867L175.825 67.4182C175.867 67.38 175.917 67.3526 175.972 67.3386C176.029 67.3135 176.09 67.3 176.153 67.2988C176.176 67.2968 176.199 67.301 176.22 67.311C176.24 67.321 176.258 67.3364 176.271 67.3557C176.302 67.4089 176.316 67.4705 176.311 67.5319C176.315 67.5773 176.315 67.623 176.311 67.6683C176.307 67.6897 176.297 67.7095 176.282 67.7252L175.836 68.2482C175.332 68.8846 174.699 69.4059 173.979 69.7775C173.306 70.1242 172.562 70.3072 171.806 70.3119C171.591 70.3119 171.41 70.3119 171.275 70.3119C171.139 70.3119 171.021 70.3119 170.919 70.2721C170.109 71.186 169.178 71.9836 168.153 72.6428C167.423 73.1418 166.572 73.4308 165.692 73.4785C165.3 73.4919 164.912 73.3999 164.568 73.2121C164.224 73.0242 163.935 72.7472 163.733 72.4097C163.223 71.4715 162.986 70.4074 163.05 69.3398C163.053 69.067 163.08 68.795 163.129 68.5268C163.187 68.1855 163.265 67.8477 163.36 67.5148C163.199 67.7327 163.021 67.938 162.829 68.1288C162.741 68.2275 162.621 68.2918 162.491 68.3108C162.443 68.3244 162.392 68.3244 162.344 68.3108C162.327 68.2952 162.314 68.2757 162.306 68.2539C162.298 68.2321 162.296 68.2087 162.299 68.1857C162.36 67.9968 162.462 67.824 162.598 67.6797C162.797 67.4258 163.238 66.9141 163.919 66.1447C164.968 64.9605 166.183 63.9377 167.526 63.1089C168.509 62.4201 169.658 62.0115 170.852 61.9264C171.218 61.9086 171.585 61.9688 171.927 62.103C172.27 62.2371 172.58 62.4424 172.839 62.7052C173.347 63.2804 173.611 64.0339 173.573 64.803C173.555 65.5571 173.38 66.299 173.059 66.9804C172.61 67.9193 172.057 68.8042 171.41 69.6183ZM164.777 71.3693C164.746 71.7503 164.852 72.1298 165.076 72.4381C165.193 72.5612 165.336 72.6563 165.494 72.7163C165.653 72.7764 165.822 72.7998 165.991 72.7849C166.602 72.7236 167.187 72.5 167.684 72.1368C168.431 71.6579 169.114 71.0848 169.717 70.4313C170.543 69.5539 171.232 68.5552 171.76 67.4694C172.221 66.5907 172.479 65.6194 172.517 64.6268C172.544 64.108 172.405 63.5941 172.122 63.16C171.993 62.9834 171.822 62.8421 171.624 62.7488C171.427 62.6555 171.21 62.6131 170.993 62.6257C170.289 62.67 169.622 62.9548 169.101 63.4329C168.282 64.1364 167.562 64.9493 166.962 65.8491C166.31 66.7741 165.766 67.7718 165.342 68.8224C165.001 69.6295 164.809 70.4928 164.777 71.3693Z" fill="#5F6EC9"/>
<path d="M180.533 62.978C179.517 64.0127 178.473 65.1592 177.4 66.4175C176.328 67.6758 175.714 68.303 175.56 68.2993C175.511 68.3001 175.463 68.2841 175.424 68.2538C175.407 68.2414 175.392 68.2254 175.381 68.2067C175.371 68.188 175.364 68.1672 175.362 68.1458C175.362 67.9335 176.397 66.6904 178.467 64.4163L180.494 62.2219C180.667 61.7598 180.924 61.3339 181.25 60.9655C181.358 60.8399 181.49 60.7382 181.639 60.6668C181.788 60.5953 181.95 60.5557 182.114 60.5505C182.32 60.5394 182.522 60.6086 182.679 60.7438C182.75 60.819 182.805 60.9084 182.84 61.0063C182.875 61.1042 182.889 61.2085 182.882 61.3123C182.886 61.5206 182.814 61.7232 182.679 61.8808C182.505 62.0707 182.291 62.2184 182.052 62.3128C181.966 62.3508 181.877 62.3831 181.787 62.4095C181.307 62.5914 181.07 63.0405 181.07 63.7512C181.113 64.5462 181.236 65.3347 181.437 66.1048C181.639 66.8785 181.762 67.6709 181.804 68.4698C181.804 68.8686 181.767 69.2666 181.691 69.658C181.603 70.0594 181.472 70.4501 181.301 70.8234C181.905 70.2151 182.555 69.5272 183.238 68.7541C183.921 67.9809 184.322 67.617 184.429 67.617C184.489 67.6151 184.547 67.6353 184.593 67.6739C184.613 67.6901 184.63 67.7107 184.642 67.7344C184.654 67.758 184.66 67.7839 184.66 67.8103C184.599 68.0391 184.478 68.2472 184.31 68.413C184.079 68.6972 183.678 69.135 183.113 69.7319C182.127 70.8421 181.006 71.8238 179.777 72.654C178.982 73.1666 178.062 73.4461 177.118 73.4613C176.424 73.4958 175.738 73.2957 175.17 72.8928C174.936 72.7226 174.747 72.4974 174.619 72.2369C174.491 71.9763 174.429 71.6882 174.436 71.3976C174.435 71.2317 174.467 71.0672 174.53 70.9139C174.593 70.7605 174.686 70.6215 174.803 70.5051C174.909 70.3828 175.039 70.2845 175.185 70.2168C175.331 70.1492 175.489 70.1137 175.65 70.1128C175.86 70.1145 176.062 70.1957 176.215 70.3402C176.292 70.4057 176.354 70.4876 176.396 70.58C176.438 70.6724 176.459 70.773 176.457 70.8746C176.441 71.1232 176.378 71.3663 176.271 71.5909C176.139 71.8369 176.058 72.1079 176.034 72.3868C176.032 72.4488 176.046 72.5101 176.075 72.5649C176.104 72.6197 176.146 72.6661 176.198 72.6995C176.325 72.7825 176.475 72.8224 176.627 72.8132C177.53 72.8132 178.422 71.9889 179.303 70.3402C180.219 68.5351 180.673 66.5282 180.624 64.5016C180.624 64.3481 180.624 64.1605 180.624 63.9331C180.624 63.7057 180.562 63.393 180.533 62.978Z" fill="#5F6EC9"/>
<path d="M201.23 54.6663C201.279 54.7192 201.32 54.7785 201.354 54.8425C201.393 54.9221 201.45 55.0301 201.518 55.1722V60.0273C201.519 60.1245 201.496 60.2204 201.45 60.3059C201.431 60.3389 201.406 60.3677 201.376 60.3902C201.346 60.4127 201.311 60.4286 201.275 60.4367L200.84 60.5674V60.9199H202.658V60.5731L202.257 60.4367C202.127 60.3969 202.099 60.3343 202.093 60.3173C202.057 60.2251 202.04 60.1264 202.043 60.0273V55.917L205.633 60.8915L205.678 60.9483H206.457V54.8368C206.455 54.7293 206.468 54.622 206.497 54.5185C206.497 54.5185 206.497 54.4446 206.621 54.4048L206.994 54.2797V53.9329H205.266V54.2854L205.706 54.4104C205.743 54.4149 205.778 54.4288 205.807 54.4507C205.837 54.4726 205.861 54.5018 205.876 54.5355C205.913 54.6354 205.933 54.7414 205.932 54.8482V58.2593L202.839 53.967L202.799 53.9102H200.801V54.2172L201.015 54.4332C201.091 54.5064 201.163 54.5843 201.23 54.6663Z" fill="white"/>
<path d="M214.705 54.6663C214.4 54.3633 214.037 54.1255 213.638 53.967C212.847 53.6562 211.968 53.6562 211.177 53.967C210.764 54.1324 210.389 54.3819 210.076 54.6998C209.764 55.0178 209.519 55.3973 209.359 55.8147C208.998 56.8447 208.998 57.9683 209.359 58.9983C209.526 59.4243 209.777 59.8113 210.099 60.1353C210.405 60.4378 210.77 60.6739 211.171 60.8289C211.565 60.9837 211.985 61.0627 212.408 61.062C212.831 61.062 213.251 60.981 213.644 60.8232C214.058 60.6598 214.432 60.4103 214.744 60.0909C215.055 59.7715 215.296 59.3895 215.45 58.9699C215.812 57.9398 215.812 56.8163 215.45 55.7862C215.281 55.3656 215.027 54.9844 214.705 54.6663ZM211.007 57.4235C210.994 56.7628 211.043 56.1022 211.154 55.4508C211.212 55.1064 211.371 54.7875 211.612 54.5355C211.835 54.3503 212.119 54.2551 212.408 54.2683C212.699 54.2496 212.986 54.3454 213.209 54.5355C213.454 54.7946 213.612 55.1247 213.661 55.4792C213.864 56.7845 213.864 58.1137 213.661 59.419C213.611 59.7747 213.453 60.1063 213.209 60.3684C212.983 60.552 212.698 60.6451 212.408 60.6299C212.12 60.6421 211.837 60.5493 211.612 60.3684C211.366 60.1064 211.207 59.7751 211.154 59.419C211.041 58.7602 210.992 58.0919 211.007 57.4235Z" fill="white"/>
<path d="M219.589 60.4312L219.069 60.5619V60.9201H222.53V60.5619L221.999 60.4312C221.956 60.4276 221.913 60.4153 221.874 60.395C221.836 60.3747 221.801 60.3467 221.773 60.3128C221.745 60.2789 221.725 60.2397 221.712 60.1975C221.699 60.1554 221.695 60.1111 221.7 60.0673V54.422H222.417C222.494 54.4137 222.572 54.4226 222.645 54.4482C222.718 54.4737 222.785 54.5153 222.84 54.5698C222.965 54.7296 223.071 54.9032 223.156 55.0872L223.557 55.8774H223.89L223.845 53.9331H217.748L217.692 55.8774H218.047L218.448 55.0872C218.542 54.9057 218.652 54.7326 218.776 54.5698C218.831 54.5153 218.898 54.4737 218.971 54.4482C219.044 54.4226 219.122 54.4137 219.199 54.422H219.916V60.0673C219.921 60.1134 219.916 60.16 219.901 60.204C219.887 60.248 219.864 60.2885 219.833 60.3229C219.802 60.3572 219.764 60.3846 219.722 60.4032C219.68 60.4219 219.635 60.4314 219.589 60.4312Z" fill="white"/>
<path d="M231.303 60.34C231.234 60.2543 231.182 60.1558 231.151 60.0501L229.101 54.0068L229.073 53.9102H228.012L225.9 60.0103C225.87 60.1129 225.818 60.2078 225.748 60.2888C225.675 60.359 225.589 60.4132 225.494 60.448L225.144 60.5731V60.9199H226.837V60.5788L226.527 60.448C226.442 60.4139 226.386 60.3741 226.38 60.3457C226.369 60.2491 226.383 60.1512 226.42 60.0614L226.871 58.7254H228.904L229.344 60.0842C229.369 60.1715 229.369 60.2641 229.344 60.3514C229.344 60.4082 229.271 60.4537 229.18 60.4878L228.932 60.5731V60.9199H231.755V60.5731L231.54 60.4992C231.45 60.465 231.369 60.4105 231.303 60.34ZM227.024 58.2365L227.904 55.6725L228.729 58.2365H227.024Z" fill="white"/>
<path d="M236.677 60.573L236.333 60.4479C236.264 60.4336 236.203 60.3928 236.164 60.3342C236.13 60.2553 236.115 60.1698 236.119 60.084V57.7247H236.576L238.066 60.9198H240.104V60.5843L239.884 60.4991C239.787 60.4628 239.697 60.4089 239.619 60.3399C239.546 60.2721 239.487 60.1911 239.444 60.1011L238.111 57.4462C238.491 57.3125 238.825 57.0741 239.077 56.7583C239.3 56.4809 239.427 56.1374 239.438 55.7804C239.446 55.5117 239.386 55.2454 239.265 55.006C239.143 54.7666 238.964 54.5618 238.744 54.4103C238.171 54.0587 237.505 53.8921 236.836 53.9328H233.81V54.2739L234.137 54.4046C234.203 54.423 234.26 54.4631 234.301 54.5183C234.335 54.599 234.351 54.6865 234.346 54.7742V60.084C234.35 60.1753 234.334 60.2663 234.301 60.3512C234.255 60.4087 234.191 60.4488 234.12 60.4649L233.81 60.573V60.9198H236.677V60.573ZM236.113 54.4217H236.508C236.674 54.4026 236.841 54.4224 236.998 54.4796C237.155 54.5369 237.296 54.6299 237.411 54.7514C237.617 55.0676 237.712 55.4436 237.682 55.8202C237.711 56.201 237.609 56.5802 237.394 56.8947C237.272 57.0163 237.125 57.1093 236.963 57.1673C236.801 57.2252 236.628 57.2467 236.457 57.2301H236.113V54.4217Z" fill="white"/>
<path d="M245.038 60.579L244.745 60.4596C244.667 60.4374 244.599 60.3893 244.553 60.3232C244.514 60.248 244.496 60.1634 244.502 60.0787V54.7745C244.51 54.69 244.537 54.6084 244.581 54.5358C244.629 54.471 244.7 54.4265 244.778 54.4107L245.066 54.2913V53.9502H242.193V54.2913L242.492 54.4107C242.628 54.4562 242.667 54.5073 242.678 54.5358C242.712 54.6168 242.727 54.704 242.724 54.7916V60.0958C242.726 60.1833 242.711 60.2705 242.678 60.3516C242.629 60.4148 242.559 60.459 242.481 60.4767L242.193 60.5961V60.9372H245.066L245.038 60.579Z" fill="white"/>
<path d="M253.484 60.4992C253.387 60.4686 253.3 60.4139 253.23 60.34C253.161 60.2543 253.109 60.1558 253.077 60.0501L251.028 54.0068L250.994 53.9102H249.938L247.827 60.0103C247.796 60.1129 247.744 60.2078 247.675 60.2888C247.601 60.3603 247.512 60.4146 247.415 60.448L247.071 60.5731V60.9199H248.764V60.5788L248.454 60.448C248.363 60.4139 248.307 60.3741 248.307 60.3457C248.296 60.2491 248.309 60.1512 248.346 60.0614L248.798 58.7254H250.791L251.237 60.0842C251.262 60.1715 251.262 60.2641 251.237 60.3514C251.222 60.3851 251.199 60.415 251.171 60.4386C251.142 60.4622 251.109 60.4791 251.073 60.4878L250.825 60.5731V60.9199H253.647V60.5731L253.484 60.4992ZM248.967 58.2251L249.831 55.6725L250.655 58.2365L248.967 58.2251Z" fill="white"/>
<path d="M205.509 66.8326C204.915 66.5417 204.261 66.3993 203.601 66.4176H200.778V66.7587L201.083 66.8781C201.19 66.9122 201.314 66.9918 201.314 67.259V72.5575C201.324 72.6386 201.306 72.7206 201.264 72.7905C201.222 72.8604 201.159 72.9144 201.083 72.9441L200.778 73.0578V73.4046H203.398C204.078 73.4174 204.753 73.2775 205.373 72.9952C205.922 72.733 206.381 72.3138 206.694 71.79C207.026 71.216 207.192 70.5605 207.174 69.8968C207.192 69.249 207.04 68.608 206.734 68.0378C206.452 67.5236 206.026 67.1044 205.509 66.8326ZM203.132 66.9065H203.46C203.832 66.8883 204.201 66.9813 204.521 67.1737C204.805 67.397 205.005 67.7122 205.086 68.0662C205.349 69.2799 205.349 70.5365 205.086 71.7502C204.998 72.1099 204.788 72.4276 204.493 72.6484C204.16 72.8392 203.78 72.9299 203.398 72.91H203.11L203.132 66.9065Z" fill="white"/>
<path d="M213.689 72.6029C213.661 72.6941 213.613 72.7776 213.548 72.8473C213.487 72.8948 213.41 72.9171 213.333 72.9099H211.437V70.0673H212.402C212.437 70.0624 212.474 70.0655 212.508 70.0763C212.542 70.0871 212.573 70.1054 212.6 70.1299C212.668 70.2046 212.725 70.2888 212.769 70.38L213.006 70.886H213.339V68.7484H212.967L212.724 69.243C212.684 69.3321 212.631 69.4146 212.566 69.4874C212.537 69.5113 212.503 69.5291 212.467 69.5398C212.432 69.5506 212.394 69.554 212.357 69.55H211.42V66.9064H213.113C213.149 66.9029 213.184 66.9067 213.218 66.9175C213.252 66.9282 213.284 66.9457 213.311 66.9689C213.38 67.047 213.437 67.1352 213.48 67.2305L213.949 68.2651H214.293L214.22 66.4175H209.139V66.7586L209.466 66.8893C209.557 66.8893 209.613 66.9576 209.63 67.003C209.666 67.0831 209.682 67.1711 209.675 67.2589V72.5574C209.68 72.6438 209.663 72.73 209.624 72.8075C209.587 72.8685 209.529 72.9131 209.461 72.9326L209.139 73.0577V73.4045H214.451L214.525 71.5511H214.18L213.689 72.6029Z" fill="white"/>
<path d="M225.443 72.2845C225.365 72.4624 225.26 72.6273 225.132 72.7734C225.005 72.8764 224.843 72.9253 224.681 72.9099H223.275V67.2702C223.271 67.1803 223.289 67.0906 223.326 67.0087C223.375 66.9429 223.445 66.895 223.523 66.8723L223.789 66.7529V66.4175H220.932V66.7586L221.237 66.878C221.333 66.9121 221.401 66.9519 221.418 66.9974C221.455 67.0792 221.472 67.1689 221.468 67.2589V72.5574C221.475 72.6451 221.459 72.7331 221.423 72.8132C221.423 72.8132 221.378 72.8871 221.237 72.944L220.932 73.0577V73.4045H226.109L226.216 71.3521H225.872L225.443 72.2845Z" fill="white"/>
<path d="M228.3 66.7586L228.599 66.878C228.675 66.8936 228.743 66.9359 228.791 66.9974C228.823 67.0805 228.839 67.1695 228.836 67.2589V72.5574C228.841 72.6457 228.824 72.7339 228.785 72.8132C228.785 72.8644 228.695 72.9042 228.593 72.944L228.3 73.0634V73.4045H231.179V73.0634L230.885 72.944C230.808 72.9217 230.74 72.8736 230.693 72.8075C230.655 72.73 230.638 72.6438 230.642 72.5574V67.2589C230.639 67.1708 230.657 67.0832 230.693 67.003C230.74 66.9395 230.808 66.8951 230.885 66.878L231.179 66.7586V66.4175H228.3V66.7586Z" fill="white"/>
<path d="M237.281 71.0619L235.554 66.5138L235.52 66.4229H233.33V66.7583L233.68 66.9175C233.77 66.9572 233.826 67.0027 233.838 67.0425C233.868 67.13 233.882 67.2227 233.877 67.3154V72.5116C233.877 72.8356 233.736 72.9209 233.629 72.955L233.33 73.063V73.4098H234.95V73.0574L234.628 72.955C234.592 72.9476 234.558 72.9326 234.527 72.9111C234.497 72.8896 234.472 72.8619 234.453 72.83C234.415 72.7364 234.397 72.6354 234.402 72.5343V69.976V68.2705L236.316 73.3302L236.356 73.4269H237.056L238.913 68.2307V72.5798C238.918 72.6669 238.904 72.7542 238.873 72.8356C238.873 72.8356 238.828 72.9039 238.704 72.955L238.405 73.0858V73.4269H241.194V73.0858L240.906 72.955C240.838 72.9343 240.779 72.8925 240.736 72.8356C240.709 72.7533 240.698 72.6665 240.703 72.5798V67.2699C240.7 67.1818 240.717 67.0943 240.753 67.0141C240.797 66.9474 240.863 66.8989 240.94 66.8777L241.194 66.781V66.4399H238.935L237.281 71.0619Z" fill="white"/>
<path d="M249.357 72.8248C249.29 72.7377 249.238 72.6396 249.204 72.5349L247.161 66.4746L247.127 66.3779H246.066L243.954 72.478C243.925 72.5796 243.873 72.673 243.802 72.7509C243.729 72.823 243.643 72.8792 243.548 72.9158L243.203 73.0409V73.3877H244.897V73.0466L244.581 72.9158C244.479 72.876 244.44 72.8362 244.434 72.8078C244.421 72.713 244.435 72.6166 244.474 72.5292L244.925 71.1932H246.958L247.398 72.5519C247.425 72.6389 247.425 72.7322 247.398 72.8191C247.381 72.8531 247.358 72.8829 247.328 72.9065C247.299 72.9301 247.265 72.9468 247.229 72.9556L246.98 73.0352V73.3877H249.803V73.0409L249.594 72.967C249.505 72.9381 249.424 72.8895 249.357 72.8248ZM245.078 70.7213L245.958 68.1574L246.788 70.7213H245.078Z" fill="white"/>
<path d="M193.208 54.0864H192.067V73.3248H193.208V54.0864Z" fill="white"/>
<path d="M34.8135 15.394V69.3172C46.6689 69.3172 56.2661 59.9141 56.2661 48.3278V15.394H34.8135Z" fill="#5F6EC9"/>
<path d="M51.1176 39.8516H49.04V40.6702H51.1176V39.8516Z" fill="white"/>
<path d="M52.128 35.9399H50.6094V36.7586H52.128V35.9399Z" fill="white"/>
<path d="M52.1224 34.6382H49.644V35.4568H52.1224V34.6382Z" fill="white"/>
<path d="M52.1166 38.5439H49.6213V39.3626H52.1166V38.5439Z" fill="white"/>
<path d="M52.9184 30.7266H52.1055V31.5452H52.9184V30.7266Z" fill="white"/>
<path d="M51.2756 30.7266H50.4626V31.5452H51.2756V30.7266Z" fill="white"/>
<path d="M49.6384 30.7266H48.8254V31.5452H49.6384V30.7266Z" fill="white"/>
<path d="M52.1167 32.0283H51.3037V32.847H52.1167V32.0283Z" fill="white"/>
<path d="M50.4343 32.0283H49.6213V32.847H50.4343V32.0283Z" fill="white"/>
<path d="M52.1167 37.2417H51.3037V38.0604H52.1167V37.2417Z" fill="white"/>
<path d="M50.4343 37.2417H49.6213V38.0604H50.4343V37.2417Z" fill="white"/>
<path d="M51.4449 33.3306H50.2876V34.1492H51.4449V33.3306Z" fill="white"/>
<path d="M51.1006 43.7627H49.04V44.5813H51.1006V43.7627Z" fill="white"/>
<path d="M51.1006 45.0645H49.04V45.8831H51.1006V45.0645Z" fill="white"/>
<path d="M51.1006 46.3662H49.04V47.1849H51.1006V46.3662Z" fill="white"/>
<path d="M53.0707 51.5854H50.2988V52.4041H53.0707V51.5854Z" fill="white"/>
<path d="M53.0707 54.189H50.2988V55.0076H53.0707V54.189Z" fill="white"/>
<path d="M53.0708 52.8872H52.2578V53.7059H53.0708V52.8872Z" fill="white"/>
<path d="M47.7529 28.3901H43.2422V29.9535H47.7529V28.3901Z" fill="white"/>
<path d="M42.0397 39.8516H39.9622V40.6702H42.0397V39.8516Z" fill="white"/>
<path d="M45.0599 39.8516H43.2646V40.6702H45.0599V39.8516Z" fill="white"/>
<path d="M45.0655 41.1533H39.9846V41.972H45.0655V41.1533Z" fill="white"/>
<path d="M45.0655 42.4551H39.9846V43.2737H45.0655V42.4551Z" fill="white"/>
<path d="M42.0396 43.7627H39.979V44.5813H42.0396V43.7627Z" fill="white"/>
<path d="M42.0396 45.0645H39.979V45.8831H42.0396V45.0645Z" fill="white"/>
<path d="M42.0396 46.3662H39.979V47.1849H42.0396V46.3662Z" fill="white"/>
<path d="M45.0599 43.7627H42.9993V44.5813H45.0599V43.7627Z" fill="white"/>
<path d="M45.0599 45.0645H42.9993V45.8831H45.0599V45.0645Z" fill="white"/>
<path d="M45.0599 46.3662H42.9993V47.1849H45.0599V46.3662Z" fill="white"/>
<path d="M45.0599 48.9761H39.9846V49.7947H45.0599V48.9761Z" fill="white"/>
<path d="M45.0599 47.6738H39.9846V48.4925H45.0599V47.6738Z" fill="white"/>
<path d="M42.4178 50.2778H39.9846V51.0965H42.4178V50.2778Z" fill="white"/>
<path d="M45.0599 35.9399H42.9993V36.7586H45.0599V35.9399Z" fill="white"/>
<path d="M45.0599 34.6382H43.2646V35.4568H45.0599V34.6382Z" fill="white"/>
<path d="M41.43 34.6382H38.9517V35.4568H41.43V34.6382Z" fill="white"/>
<path d="M41.4526 38.5439H38.9573V39.3626H41.4526V38.5439Z" fill="white"/>
<path d="M45.0598 38.5439H42.4121V39.3626H45.0598V38.5439Z" fill="white"/>
<path d="M38.9741 30.7266H38.1611V31.5452H38.9741V30.7266Z" fill="white"/>
<path d="M40.6169 30.7266H39.804V31.5452H40.6169V30.7266Z" fill="white"/>
<path d="M42.2541 30.7266H41.4412V31.5452H42.2541V30.7266Z" fill="white"/>
<path d="M45.0599 30.7266H43.9026V31.5452H45.0599V30.7266Z" fill="white"/>
<path d="M39.7758 32.0283H38.9629V32.847H39.7758V32.0283Z" fill="white"/>
<path d="M41.4526 32.0283H40.6396V32.847H41.4526V32.0283Z" fill="white"/>
<path d="M45.0599 37.2417H42.7114V38.0604H45.0599V37.2417Z" fill="white"/>
<path d="M39.7758 37.2417H38.9629V38.0604H39.7758V37.2417Z" fill="white"/>
<path d="M41.4526 37.2417H40.6396V38.0604H41.4526V37.2417Z" fill="white"/>
<path d="M45.0599 32.0283H43.9026V32.847H45.0599V32.0283Z" fill="white"/>
<path d="M45.0599 33.3306H43.9026V34.1492H45.0599V33.3306Z" fill="white"/>
<path d="M40.7865 33.3306H39.6292V34.1492H40.7865V33.3306Z" fill="white"/>
<path d="M40.7807 51.5854H38.0088V52.4041H40.7807V51.5854Z" fill="white"/>
<path d="M42.4235 51.5854H41.6106V52.4041H42.4235V51.5854Z" fill="white"/>
<path d="M40.7807 54.189H38.0088V55.0076H40.7807V54.189Z" fill="white"/>
<path d="M42.4235 54.189H41.6106V55.0076H42.4235V54.189Z" fill="white"/>
<path d="M42.4235 52.8872H39.6516V53.7059H42.4235V52.8872Z" fill="white"/>
<path d="M38.8217 52.8872H38.0088V53.7059H38.8217V52.8872Z" fill="white"/>
<path d="M42.4235 55.4912H39.6516V56.3099H42.4235V55.4912Z" fill="white"/>
<path d="M38.8217 55.4912H38.0088V56.3099H38.8217V55.4912Z" fill="white"/>
<path d="M47.8092 39.8516H46.0139V40.6702H47.8092V39.8516Z" fill="white"/>
<path d="M51.0948 41.1533H46.0139V41.972H51.0948V41.1533Z" fill="white"/>
<path d="M51.0948 42.4551H46.0139V43.2737H51.0948V42.4551Z" fill="white"/>
<path d="M48.0804 43.7627H46.0198V44.5813H48.0804V43.7627Z" fill="white"/>
<path d="M48.0804 45.0645H46.0198V45.8831H48.0804V45.0645Z" fill="white"/>
<path d="M48.0804 46.3662H46.0198V47.1849H48.0804V46.3662Z" fill="white"/>
<path d="M51.0892 48.9761H46.0139V49.7947H51.0892V48.9761Z" fill="white"/>
<path d="M51.0892 47.6738H46.0139V48.4925H51.0892V47.6738Z" fill="white"/>
<path d="M51.0892 50.2778H48.656V51.0965H51.0892V50.2778Z" fill="white"/>
<path d="M48.0745 35.9399H46.0139V36.7586H48.0745V35.9399Z" fill="white"/>
<path d="M47.8092 34.6382H46.0139V35.4568H47.8092V34.6382Z" fill="white"/>
<path d="M48.6616 38.5439H46.0139V39.3626H48.6616V38.5439Z" fill="white"/>
<path d="M47.1712 30.7266H46.0139V31.5452H47.1712V30.7266Z" fill="white"/>
<path d="M48.3624 37.2417H46.0139V38.0604H48.3624V37.2417Z" fill="white"/>
<path d="M47.1712 32.0283H46.0139V32.847H47.1712V32.0283Z" fill="white"/>
<path d="M47.1712 33.3306H46.0139V34.1492H47.1712V33.3306Z" fill="white"/>
<path d="M49.4633 51.5854H48.6504V52.4041H49.4633V51.5854Z" fill="white"/>
<path d="M49.4633 54.189H48.6504V55.0076H49.4633V54.189Z" fill="white"/>
<path d="M51.4223 52.8872H48.6504V53.7059H51.4223V52.8872Z" fill="white"/>
<path d="M51.4223 55.4912H48.6504V56.3099H51.4223V55.4912Z" fill="white"/>
<path d="M53.0708 55.4912H52.2578V56.3099H53.0708V55.4912Z" fill="white"/>
<path d="M40.4703 35.9399H38.9517V36.7586H40.4703V35.9399Z" fill="white"/>
<path d="M13.3892 15.394V48.3221C13.3892 59.9027 22.9864 69.3002 34.8418 69.3115V15.394H13.3892Z" fill="white"/>
<path d="M26.413 28.4413C26.1308 28.8961 25.9106 29.26 25.6735 29.6295C25.6349 29.7169 25.572 29.7912 25.4923 29.8434C25.4126 29.8955 25.3197 29.9232 25.2247 29.9232C25.1297 29.9232 25.0367 29.8955 24.957 29.8434C24.8774 29.7912 24.8145 29.7169 24.7759 29.6295C24.567 29.2486 24.3637 28.862 24.1097 28.4072C23.8782 28.845 23.6694 29.2316 23.4661 29.5954C23.4355 29.6903 23.3771 29.7736 23.2986 29.8345C23.2201 29.8954 23.1252 29.9309 23.0262 29.9364C22.9273 29.942 22.8291 29.9173 22.7443 29.8655C22.6596 29.8138 22.5924 29.7375 22.5516 29.6466C22.3145 29.277 22.0943 28.9132 21.812 28.4754V31.0565H26.413V28.4413Z" fill="#021D49"/>
<path d="M29.4391 35.474C29.3064 35.4572 29.1793 35.4101 29.0674 35.3365C28.9555 35.2628 28.8617 35.1644 28.7931 35.0488C28.7246 34.9332 28.6831 34.8034 28.6717 34.6692C28.6604 34.5351 28.6796 34.4001 28.7278 34.2745C28.7896 34.0945 28.9054 33.9383 29.059 33.8273C29.2127 33.7163 29.3968 33.6561 29.5859 33.6548C30.3593 33.6264 31.9005 33.8481 32.9449 33.3194C32.819 33.6088 32.6217 33.8611 32.3717 34.0521C32.1217 34.2432 31.8273 34.3667 31.5166 34.4109C31.5166 34.4109 32.5441 34.9794 32.4255 37.3956V46.3098L30.1052 43.797C30.3669 44.325 30.4838 44.9138 30.444 45.5025C30.3964 45.8483 30.3247 46.1902 30.2294 46.5259C30.0682 46.244 29.879 45.9792 29.6649 45.7356C29.3092 45.332 28.7447 44.7578 28.1406 44.9966C27.9978 45.0571 27.8801 45.1656 27.8075 45.3036C27.497 45.9062 28.0164 46.56 28.4342 46.9579C29.185 47.6629 30.2181 47.9358 31.0875 48.4588C31.4559 48.6758 31.7767 48.9659 32.0303 49.3116C32.2784 49.7126 32.431 50.1659 32.4763 50.6362L31.1835 49.8801C31.2851 50.7783 31.6521 51.6311 30.6867 52.2223C30.6867 52.2223 30.5174 51.0853 29.9302 50.7669C29.9302 50.7669 29.8117 52.0916 28.0785 51.5174C28.3563 51.2028 28.5419 50.8167 28.6147 50.4022C28.6874 49.9876 28.6445 49.5609 28.4906 49.1694C28.2464 48.7982 27.9148 48.4935 27.5253 48.2826L25.5776 46.9522C25.4986 52.5805 28.9649 53.0126 28.9649 53.0126C28.8181 53.3935 28.4398 54.1098 27.9543 54.178C27.4396 54.2031 26.9246 54.1318 26.4357 53.9677C26.1591 54.7465 26.5373 55.3321 27.0002 55.9347C26.3115 56.145 25.8147 55.73 25.3066 55.4685C25.1485 55.7471 24.9848 56.0086 24.8098 56.3042L24.0759 54.8488L23.3477 56.3042C23.1726 56.0086 23.0089 55.7357 22.8509 55.4685C22.371 55.73 21.8742 56.145 21.1855 55.9347C21.654 55.3321 22.0323 54.7465 21.75 53.9677C21.2617 54.1352 20.7468 54.2104 20.2314 54.1894C19.7459 54.1212 19.3676 53.4048 19.2208 53.0239C19.2208 53.0239 22.6871 52.5919 22.6081 46.9636L20.6999 48.2826C20.3181 48.4924 19.9911 48.7905 19.7459 49.1524C19.5928 49.5443 19.5507 49.9714 19.6245 50.3859C19.6983 50.8005 19.8849 51.1863 20.1636 51.5003C18.4305 52.0688 18.3119 50.7499 18.3119 50.7499C17.7474 51.0796 17.5554 52.2053 17.5554 52.2053C16.5901 51.6368 16.9514 50.7613 17.0586 49.863L15.7433 50.6134C15.7885 50.1432 15.9412 49.6898 16.1892 49.2888C16.4429 48.9432 16.7637 48.6531 17.132 48.4361C18.0014 47.913 19.0345 47.6401 19.7854 46.9352C20.2032 46.5372 20.7225 45.8834 20.4064 45.2808C20.3376 45.142 20.2213 45.033 20.079 44.9738C19.4749 44.7351 18.9103 45.3092 18.5547 45.7129C18.3405 45.9565 18.1514 46.2212 17.9901 46.5031C17.8949 46.1675 17.8232 45.8256 17.7756 45.4798C17.7357 44.8911 17.8527 44.3023 18.1143 43.7743L15.7884 46.2871V37.3728C15.6699 34.9567 16.6973 34.3882 16.6973 34.3882C16.3866 34.344 16.0923 34.2205 15.8423 34.0294C15.5923 33.8384 15.395 33.5861 15.269 33.2966C16.3134 33.8253 17.8547 33.6036 18.6563 33.6321C18.8454 33.6333 19.0295 33.6936 19.1831 33.8046C19.3368 33.9156 19.4525 34.0718 19.5144 34.2517C19.5675 34.3814 19.5892 34.522 19.5778 34.6618C19.5665 34.8016 19.5223 34.9367 19.449 35.056C19.3758 35.1753 19.2754 35.2754 19.1562 35.3481C19.0371 35.4207 18.9025 35.4639 18.7636 35.474C18.8162 35.7563 18.9074 36.0299 19.0345 36.287C19.2591 36.6826 19.609 36.9909 20.0281 37.1625C20.954 37.5548 22.6194 37.2591 22.6533 36.0255C22.6521 35.8332 22.5892 35.6464 22.4741 35.493C22.359 35.3396 22.1977 35.2277 22.0143 35.174C21.831 35.1204 21.6353 35.1278 21.4564 35.1951C21.2776 35.2625 21.1251 35.3862 21.0217 35.5479C20.799 35.4003 20.6259 35.1882 20.5252 34.9396C20.4244 34.691 20.4007 34.4175 20.4572 34.1551C20.6124 33.6314 20.9167 33.1649 21.3322 32.8134C22.108 32.1605 23.0935 31.8149 24.1041 31.8412C25.0668 31.8522 26.0208 32.0251 26.9269 32.3529L25.5889 33.6946V35.9686C25.5847 36.235 25.657 36.497 25.7972 36.723C25.9375 36.9489 26.1396 37.1292 26.3793 37.2421C26.8986 37.4809 28.6374 37.4695 29.202 36.2586C29.3279 36.0092 29.4245 35.7459 29.4899 35.474C29.3572 35.4572 29.2301 35.4101 29.1182 35.3365C29.0063 35.2628 28.9125 35.1644 28.8439 35.0488C28.7754 34.9332 28.7339 34.8034 28.7225 34.6692C28.7112 34.5351 28.7304 34.4001 28.7786 34.2745C28.8404 34.0945 28.9562 33.9383 29.1098 33.8273C29.2635 33.7163 29.4476 33.6561 29.6367 33.6548" fill="#021D49"/>
<path d="M34.8475 84.1722C16.0199 84.1722 0.698242 69.9424 0.698242 52.4494V0.527344H68.9515V52.4494C68.9515 60.9315 65.4062 68.9021 58.9591 74.8941C52.371 80.9377 43.7588 84.2516 34.8475 84.1722ZM1.48296 1.31757V52.4494C1.48296 69.5047 16.449 83.3877 34.8475 83.3877C53.2459 83.3877 68.1555 69.5104 68.1555 52.4494V1.31757H1.48296Z" fill="white"/>
<path d="M64.6496 6.64469C64.3141 6.48809 63.9519 6.3974 63.5826 6.37749H63.5431V6.33769C63.3038 5.5061 62.8338 4.76057 62.1882 4.18872L62.0697 4.06934L61.9511 4.18872C61.3056 4.76057 60.8355 5.5061 60.5962 6.33769V6.37749H60.5397C60.1704 6.3974 59.8083 6.48809 59.4728 6.64469C59.2406 6.77438 59.042 6.9572 58.893 7.17841C58.7439 7.39962 58.6486 7.65301 58.6146 7.91815C58.5851 8.25479 58.6498 8.59303 58.8015 8.8945C58.9532 9.19596 59.1857 9.44858 59.4728 9.62368L59.7494 9.2712L59.7945 9.30531C59.8104 9.31553 59.8239 9.32911 59.8341 9.34511L59.8736 9.24278V9.20867C59.9696 8.91304 60.0825 8.7368 60.201 8.68564C60.2287 8.67788 60.258 8.67788 60.2857 8.68564C60.3266 8.67616 60.369 8.67616 60.4099 8.68564C60.4477 8.70112 60.4816 8.72501 60.509 8.75553C60.5363 8.78605 60.5565 8.8224 60.568 8.86188V8.93578H60.5397C60.4909 8.93113 60.4416 8.9376 60.3956 8.9547C60.3496 8.9718 60.308 8.99909 60.2738 9.03457C60.2397 9.07004 60.2139 9.11279 60.1983 9.15966C60.1828 9.20652 60.1779 9.2563 60.1841 9.30531V10.1922C60.1787 10.242 60.1845 10.2925 60.2011 10.3397C60.2176 10.387 60.2445 10.43 60.2797 10.4654C60.3149 10.5009 60.3576 10.5279 60.4045 10.5446C60.4515 10.5613 60.5015 10.5671 60.551 10.5617H61.1156L61.0478 10.6584C60.9521 10.7921 60.8264 10.9012 60.6809 10.9767C60.6246 11.0019 60.5758 11.0413 60.5392 11.0911C60.5026 11.1409 60.4794 11.1995 60.472 11.261C60.4707 11.3192 60.484 11.3768 60.5107 11.4284C60.5373 11.4801 60.5764 11.5242 60.6244 11.5566C60.8502 11.7272 61.093 11.8977 61.3075 12.0512L61.3527 12.0853C61.5503 12.2218 61.7704 12.381 61.9737 12.5345L62.0753 12.6084L62.1769 12.5345C62.3858 12.3753 62.6116 12.2161 62.8092 12.074L62.8544 12.0455L63.5262 11.5566C63.5742 11.5242 63.6133 11.4801 63.6399 11.4284C63.6666 11.3768 63.6799 11.3192 63.6786 11.261C63.6712 11.1995 63.648 11.1409 63.6114 11.0911C63.5748 11.0413 63.526 11.0019 63.4697 10.9767C63.3252 10.8997 63.1998 10.7909 63.1028 10.6584L63.035 10.5617H63.5996C63.6458 10.5612 63.6915 10.5509 63.7336 10.5316C63.7757 10.5123 63.8134 10.4844 63.8442 10.4496C63.875 10.4149 63.8983 10.374 63.9125 10.3297C63.9268 10.2854 63.9317 10.2385 63.927 10.1922V9.31668C63.9331 9.26767 63.9283 9.21789 63.9127 9.17103C63.8972 9.12416 63.8714 9.08141 63.8373 9.04594C63.8031 9.01046 63.7615 8.98317 63.7155 8.96607C63.6694 8.94897 63.6202 8.9425 63.5713 8.94715H63.4979V8.87325C63.5094 8.83377 63.5296 8.79742 63.5569 8.7669C63.5843 8.73638 63.6182 8.71249 63.656 8.69701C63.6887 8.68173 63.7244 8.67382 63.7605 8.67382C63.7965 8.67382 63.8322 8.68173 63.8649 8.69701C63.9891 8.74817 64.0964 8.92441 64.1923 9.22004V9.25415L64.2319 9.35648L64.2714 9.31668L64.3165 9.28257L64.5932 9.63505C64.8802 9.45995 65.1127 9.20733 65.2644 8.90587C65.4161 8.6044 65.4808 8.26616 65.4513 7.92952C65.4252 7.66758 65.3392 7.41528 65.2001 7.19238C65.0611 6.96947 64.8726 6.78202 64.6496 6.64469ZM64.6496 9.16887L64.5819 9.23141L64.5536 9.14613V9.10633C64.484 8.80523 64.2994 8.54383 64.0399 8.37864C63.9656 8.34401 63.8847 8.32607 63.8028 8.32607C63.7209 8.32607 63.64 8.34401 63.5657 8.37864C63.4269 8.4438 63.3146 8.55513 63.2478 8.69388C63.181 8.83263 63.1636 8.99034 63.1987 9.14045V9.27689H63.5883V10.1922H62.7245H62.4874L62.5777 10.4139C62.7001 10.7353 62.9243 11.0071 63.2157 11.1871L63.2891 11.2326L63.2213 11.2894L62.589 11.7385L62.0753 12.1081H62.0414H62.0076L61.5333 11.767L61.443 11.7044L60.8785 11.278L60.8107 11.2269L60.8841 11.1814C61.1752 11.0011 61.3994 10.7294 61.522 10.4082L61.6124 10.1865H61.3753H60.5397V10.1297V9.28257H60.9293V9.14613C60.9655 8.996 60.9487 8.83785 60.8817 8.69884C60.8147 8.55983 60.7018 8.44863 60.5623 8.38433C60.488 8.34969 60.4071 8.33175 60.3252 8.33175C60.2433 8.33175 60.1624 8.34969 60.0881 8.38433C59.9598 8.46437 59.8487 8.5695 59.7614 8.69351C59.6742 8.81752 59.6125 8.9579 59.58 9.10633V9.13476L59.5461 9.20867L59.484 9.15182C59.3016 9.01363 59.1586 8.82945 59.0694 8.61785C58.9802 8.40625 58.948 8.17472 58.976 7.94657C59.0016 7.7309 59.0779 7.5245 59.1987 7.34453C59.3195 7.16457 59.4812 7.01624 59.6703 6.91189C60.0141 6.77412 60.3789 6.69719 60.7486 6.68448H60.901V6.53098C61.0558 5.77103 61.4522 5.08252 62.0301 4.56962L62.0697 4.52414L62.1092 4.56962C62.6871 5.08252 63.0835 5.77103 63.2383 6.53098V6.6788H63.385C63.7566 6.69142 64.1233 6.76834 64.469 6.9062C64.6581 7.01056 64.8198 7.15888 64.9406 7.33885C65.0614 7.51881 65.1377 7.72521 65.1633 7.94089C65.1961 8.17211 65.1668 8.40795 65.0785 8.6239C64.9901 8.83986 64.8459 9.02803 64.6609 9.16887H64.6496Z" fill="white"/>
<path d="M64.6498 40.7038C64.3142 40.5472 63.9521 40.4565 63.5828 40.4366H63.5432V40.3968C63.3039 39.5652 62.8339 38.8197 62.1883 38.2478L62.0698 38.1284L61.9512 38.2478C61.3057 38.8197 60.8356 39.5652 60.5963 40.3968V40.4366H60.5399C60.171 40.4593 59.8094 40.5498 59.4729 40.7038C59.2411 40.8347 59.0432 41.0187 58.8951 41.2409C58.747 41.4631 58.6529 41.7173 58.6204 41.9829C58.5922 42.3194 58.6575 42.6571 58.8091 42.9584C58.9606 43.2596 59.1924 43.5124 59.4785 43.6884L59.7552 43.3303L59.8003 43.3644L59.8398 43.4042L59.8794 43.3019V43.2678C59.9753 42.9778 60.0882 42.7959 60.2068 42.7447C60.2345 42.737 60.2638 42.737 60.2915 42.7447C60.3323 42.7352 60.3748 42.7352 60.4157 42.7447C60.4535 42.7602 60.4874 42.7841 60.5148 42.8146C60.5421 42.8451 60.5623 42.8815 60.5738 42.921V42.9949H60.5399C60.4913 42.9913 60.4425 42.9985 60.3969 43.0159C60.3514 43.0334 60.3102 43.0607 60.2763 43.0959C60.2424 43.1312 60.2166 43.1735 60.2007 43.2199C60.1847 43.2663 60.1791 43.3156 60.1842 43.3644V44.2285C60.1789 44.2784 60.1847 44.3288 60.2012 44.3761C60.2178 44.4234 60.2446 44.4663 60.2798 44.5018C60.315 44.5372 60.3577 44.5643 60.4047 44.5809C60.4516 44.5976 60.5017 44.6035 60.5512 44.5981H61.1157L61.048 44.6947C60.9523 44.8285 60.8265 44.9376 60.681 45.0131C60.6247 45.0382 60.5759 45.0776 60.5393 45.1274C60.5027 45.1773 60.4795 45.2358 60.4721 45.2973C60.4709 45.3555 60.4842 45.4131 60.5108 45.4648C60.5374 45.5164 60.5766 45.5605 60.6246 45.593C60.8504 45.7635 61.0931 45.9341 61.3077 46.0876L61.3528 46.1217C61.5504 46.2581 61.7706 46.4173 61.9738 46.5708L62.0754 46.6447L62.1771 46.5708C62.3859 46.4116 62.6118 46.2524 62.8093 46.1103H62.8545L63.5263 45.6214C63.5743 45.5889 63.6134 45.5449 63.6401 45.4932C63.6667 45.4415 63.68 45.384 63.6787 45.3258C63.6713 45.2642 63.6482 45.2057 63.6116 45.1559C63.575 45.106 63.5261 45.0666 63.4699 45.0415C63.3254 44.9645 63.2 44.8556 63.1029 44.7231L63.0352 44.6265H63.5997C63.6492 44.6319 63.6993 44.626 63.7462 44.6094C63.7932 44.5927 63.8358 44.5656 63.871 44.5302C63.9062 44.4947 63.9331 44.4518 63.9496 44.4045C63.9662 44.3572 63.972 44.3068 63.9667 44.257V43.3758C63.9717 43.327 63.9661 43.2776 63.9502 43.2312C63.9343 43.1849 63.9085 43.1425 63.8746 43.1073C63.8407 43.0721 63.7995 43.0448 63.7539 43.0273C63.7084 43.0098 63.6596 43.0026 63.611 43.0062H63.5376V42.9323C63.5491 42.8929 63.5692 42.8565 63.5966 42.826C63.624 42.7955 63.6578 42.7716 63.6957 42.7561C63.7284 42.7408 63.764 42.7329 63.8001 42.7329C63.8362 42.7329 63.8718 42.7408 63.9046 42.7561C64.0288 42.8129 64.136 42.9835 64.232 43.2791V43.3132L64.2715 43.4156L64.311 43.3758L64.3562 43.3417L64.6328 43.6998C64.9189 43.5237 65.1507 43.2709 65.3023 42.9697C65.4539 42.6685 65.5192 42.3308 65.4909 41.9943C65.4614 41.7277 65.3698 41.4719 65.2236 41.2477C65.0775 41.0235 64.8809 40.8371 64.6498 40.7038ZM64.6498 43.2336L64.582 43.2905L64.5538 43.2052V43.1654C64.4841 42.8643 64.2996 42.6029 64.04 42.4377C63.9657 42.4031 63.8848 42.3852 63.8029 42.3852C63.7211 42.3852 63.6401 42.4031 63.5658 42.4377C63.427 42.5029 63.3148 42.6142 63.2479 42.753C63.1811 42.8917 63.1638 43.0494 63.1989 43.1995V43.336H63.5884V44.3024H62.7247H62.4876L62.5779 44.5242C62.702 44.846 62.9257 45.1191 63.2158 45.303L63.2892 45.3428L63.2215 45.3997L62.5892 45.8545L62.0754 46.224H62.0416H62.0077L61.5335 45.8829L61.4431 45.8204L60.8786 45.3997L60.8109 45.3428L60.8843 45.2973C61.1753 45.117 61.3995 44.8454 61.5222 44.5242L61.6125 44.3024H61.3754H60.5399V44.2456V43.3417H60.9294V43.2052C60.9656 43.0551 60.9488 42.8969 60.8818 42.7579C60.8149 42.6189 60.702 42.5077 60.5625 42.4434C60.4881 42.4088 60.4072 42.3908 60.3254 42.3908C60.2435 42.3908 60.1626 42.4088 60.0882 42.4434C59.9593 42.5241 59.8479 42.6301 59.7606 42.7551C59.6733 42.8802 59.6119 43.0216 59.5802 43.1711L59.5463 43.2507L59.4842 43.1938C59.3017 43.0544 59.1588 42.8692 59.0697 42.6567C58.9805 42.4442 58.9482 42.2119 58.9761 41.9829C59.0021 41.7674 59.0787 41.5612 59.1994 41.3813C59.3202 41.2014 59.4816 41.0529 59.6705 40.9482C60.0142 40.8105 60.379 40.7335 60.7488 40.7208H60.9012V40.5673C61.056 39.8074 61.4523 39.1189 62.0303 38.606L62.0698 38.5605L62.1093 38.606C62.6873 39.1189 63.0836 39.8074 63.2384 40.5673V40.7151H63.3852C63.7568 40.7278 64.1234 40.8047 64.4691 40.9425C64.6656 41.0514 64.8324 41.2075 64.9545 41.397C65.0766 41.5864 65.1504 41.8033 65.1691 42.0284C65.196 42.2565 65.1632 42.4876 65.0741 42.699C64.985 42.9104 64.8426 43.0947 64.661 43.2336H64.6498Z" fill="white"/>
<path d="M37.3145 74.6154C36.9789 74.4588 36.6168 74.3681 36.2475 74.3482H36.208V74.3084C35.9687 73.4768 35.4986 72.7313 34.8531 72.1594L34.7345 72.04L34.616 72.1594C33.9704 72.7313 33.5004 73.4768 33.2611 74.3084V74.3482H33.2159C32.8484 74.3683 32.4882 74.459 32.1546 74.6154C31.9228 74.7463 31.7248 74.9303 31.5768 75.1525C31.4287 75.3747 31.3346 75.6289 31.3021 75.8945C31.2733 76.2305 31.3378 76.5678 31.4883 76.869C31.6388 77.1701 31.8695 77.4233 32.1546 77.6001L32.4312 77.2419L32.4764 77.276C32.4922 77.2862 32.5057 77.2998 32.5159 77.3158L32.5554 77.2135V77.1794C32.6514 76.8837 32.7643 76.7075 32.8828 76.6563C32.9105 76.6486 32.9398 76.6486 32.9675 76.6563C33.0106 76.6555 33.0532 76.6653 33.0917 76.6848C33.13 76.6995 33.1643 76.7231 33.1918 76.7538C33.2192 76.7844 33.2391 76.8212 33.2498 76.861L33.278 76.9349H33.199C33.1504 76.9313 33.1016 76.9385 33.056 76.956C33.0105 76.9734 32.9693 77.0007 32.9354 77.036C32.9015 77.0712 32.8757 77.1135 32.8597 77.1599C32.8438 77.2063 32.8382 77.2556 32.8433 77.3044V78.1686C32.838 78.2184 32.8438 78.2688 32.8603 78.3161C32.8769 78.3634 32.9037 78.4064 32.9389 78.4418C32.9741 78.4773 33.0168 78.5043 33.0637 78.521C33.1107 78.5376 33.1608 78.5435 33.2103 78.5381H33.7748L33.7071 78.6348C33.6114 78.7685 33.4856 78.8776 33.3401 78.9531C33.2877 78.9769 33.2424 79.0142 33.2088 79.0612C33.1752 79.1082 33.1545 79.1633 33.1488 79.221C33.1431 79.2786 33.1525 79.3367 33.1762 79.3895C33.1999 79.4423 33.2369 79.4879 33.2837 79.5216C33.5095 79.6922 33.7522 79.8627 33.9668 80.0162L34.0119 80.0503C34.2095 80.1868 34.4297 80.346 34.6329 80.4995L34.7345 80.5734L34.8362 80.4995C35.045 80.3403 35.2708 80.1811 35.4684 80.039H35.5136L36.1911 79.5501C36.2376 79.5158 36.2743 79.4699 36.2976 79.4168C36.3208 79.3637 36.3297 79.3054 36.3234 79.2477C36.3171 79.19 36.2958 79.135 36.2617 79.0883C36.2275 79.0416 36.1818 79.0048 36.129 78.9815C35.985 78.906 35.8611 78.7968 35.7676 78.6632L35.6943 78.5665H36.2588C36.3083 78.5719 36.3584 78.5661 36.4053 78.5494C36.4523 78.5327 36.4949 78.5057 36.5301 78.4702C36.5653 78.4348 36.5922 78.3918 36.6087 78.3445C36.6253 78.2973 36.6311 78.2468 36.6258 78.197V77.276C36.6319 77.227 36.627 77.1772 36.6115 77.1304C36.5959 77.0835 36.5702 77.0407 36.536 77.0053C36.5019 76.9698 36.4602 76.9425 36.4142 76.9254C36.3682 76.9083 36.3189 76.9018 36.2701 76.9065H36.1967V76.8326C36.2092 76.7936 36.2298 76.7578 36.257 76.7274C36.2842 76.697 36.3176 76.6728 36.3548 76.6563C36.3875 76.6411 36.4231 76.6332 36.4592 76.6332C36.4953 76.6332 36.5309 76.6411 36.5637 76.6563C36.6879 76.7075 36.7951 76.8837 36.8967 77.1794V77.2135C36.9063 77.2481 36.9176 77.2823 36.9306 77.3158L36.9701 77.276L37.0153 77.2419L37.2919 77.6001C37.578 77.424 37.8098 77.1712 37.9614 76.87C38.1129 76.5688 38.1783 76.231 38.15 75.8945C38.1194 75.6305 38.0279 75.3773 37.8828 75.1552C37.7377 74.9331 37.5431 74.7483 37.3145 74.6154ZM37.3145 77.1396L37.2467 77.2021L37.2185 77.1168V77.077C37.1488 76.7759 36.9643 76.5145 36.7048 76.3493C36.6305 76.3147 36.5496 76.2968 36.4677 76.2968C36.3858 76.2968 36.3049 76.3147 36.2306 76.3493C36.0918 76.4145 35.9795 76.5258 35.9127 76.6646C35.8458 76.8033 35.8285 76.961 35.8636 77.1112V77.2476H36.2644V78.1799H35.412H35.1749L35.2652 78.4017C35.3897 78.7218 35.6134 78.993 35.9031 79.1748L35.9765 79.2203L35.9088 79.2772L35.2765 79.7263L34.7628 80.0958H34.7289H34.695L34.2208 79.7547L34.1305 79.6922C33.9385 79.5501 33.7353 79.4136 33.5659 79.2658L33.4982 79.2146L33.5716 79.1692C33.8493 78.9886 34.0628 78.7238 34.1813 78.413L34.2716 78.1913H34.0345H33.182V78.1345C33.182 77.8616 33.182 77.566 33.182 77.3215V77.276H33.5659V77.1396C33.6021 76.9894 33.5853 76.8313 33.5184 76.6923C33.4514 76.5533 33.3385 76.4421 33.199 76.3778C33.1247 76.3431 33.0438 76.3252 32.9619 76.3252C32.88 76.3252 32.7991 76.3431 32.7248 76.3778C32.5958 76.4584 32.4844 76.5645 32.3971 76.6895C32.3098 76.8145 32.2484 76.956 32.2167 77.1055L32.1828 77.1794L32.1207 77.1225C31.9383 76.9843 31.7953 76.8002 31.7061 76.5886C31.6169 76.377 31.5846 76.1454 31.6126 75.9173C31.6422 75.7044 31.721 75.5014 31.8425 75.3247C31.9641 75.148 32.1251 75.0024 32.3126 74.8996C32.6564 74.7619 33.0212 74.6849 33.3909 74.6722H33.5433V74.5187C33.6981 73.7588 34.0945 73.0703 34.6724 72.5574L34.712 72.5119L34.7571 72.5574C35.3357 73.0697 35.7322 73.7585 35.8862 74.5187V74.6666H36.033C36.4046 74.6792 36.7712 74.7561 37.1169 74.894C37.3058 74.9987 37.4672 75.1471 37.588 75.327C37.7087 75.5069 37.7852 75.7131 37.8113 75.9287C37.8429 76.1556 37.8146 76.387 37.7294 76.5995C37.6442 76.812 37.505 76.9983 37.3258 77.1396H37.3145Z" fill="white"/>
<path d="M10.0641 6.64451C9.73052 6.48809 9.37026 6.39739 9.00279 6.37731H8.95763V6.33752C8.71832 5.50593 8.24827 4.7604 7.60272 4.18855L7.47288 4.06348L7.35433 4.18286C6.70878 4.75471 6.23873 5.50024 5.99942 6.33183V6.37163H5.95426C5.58496 6.39154 5.22282 6.48223 4.88727 6.63883C4.65549 6.76974 4.45755 6.95374 4.30946 7.17596C4.16137 7.39817 4.06728 7.65236 4.03481 7.91797C4.00525 8.25461 4.06998 8.59286 4.22166 8.89432C4.37333 9.19579 4.60588 9.4484 4.89292 9.62351L5.16954 9.27103L5.21471 9.30514L5.25423 9.34494L5.2881 9.2426V9.20849C5.38407 8.91287 5.49133 8.73663 5.61553 8.68546C5.64323 8.67771 5.67251 8.67771 5.70021 8.68546C5.74108 8.67598 5.78355 8.67598 5.82441 8.68546C5.86162 8.70194 5.89495 8.72616 5.92219 8.75654C5.94943 8.78691 5.96998 8.82275 5.98249 8.8617V8.93561H5.94297C5.89458 8.93186 5.84596 8.939 5.80064 8.9565C5.75533 8.97399 5.71444 9.00142 5.68094 9.03679C5.64744 9.07215 5.62217 9.11458 5.60695 9.16099C5.59173 9.2074 5.58695 9.25664 5.59295 9.30514V10.192C5.5876 10.2419 5.59341 10.2923 5.60996 10.3396C5.62651 10.3868 5.65337 10.4298 5.68858 10.4652C5.72378 10.5007 5.76643 10.5278 5.81339 10.5444C5.86034 10.5611 5.91041 10.5669 5.9599 10.5615H6.52445L6.45106 10.6582C6.35687 10.7933 6.23076 10.9027 6.0841 10.9766C6.02889 11.0025 5.98121 11.0422 5.94563 11.092C5.91004 11.1417 5.88774 11.1999 5.88087 11.2608C5.87948 11.3184 5.89213 11.3755 5.91772 11.427C5.94331 11.4786 5.98105 11.523 6.02765 11.5564C6.25347 11.727 6.50187 11.8975 6.71639 12.051L6.76156 12.0852C6.95915 12.2216 7.17932 12.3808 7.38255 12.5343L7.48417 12.6082L7.58014 12.5343L8.21808 12.0738L8.26324 12.0454L8.93505 11.5564C8.98177 11.5227 9.01884 11.4771 9.04251 11.4243C9.06619 11.3715 9.07564 11.3134 9.06992 11.2558C9.0642 11.1981 9.0435 11.143 9.00991 11.096C8.97633 11.049 8.93103 11.0117 8.87859 10.9879C8.73307 10.9124 8.60734 10.8033 8.51164 10.6696L8.44389 10.5729H9.00844C9.05794 10.5783 9.108 10.5725 9.15496 10.5558C9.20191 10.5391 9.24456 10.5121 9.27976 10.4766C9.31497 10.4412 9.34183 10.3982 9.35838 10.3509C9.37493 10.3037 9.38074 10.2532 9.37539 10.2034V9.31651C9.38048 9.2677 9.37487 9.21837 9.35896 9.17198C9.34305 9.1256 9.31722 9.08329 9.2833 9.04805C9.24939 9.01281 9.20821 8.9855 9.16266 8.96803C9.11712 8.95057 9.06833 8.94338 9.01973 8.94698H8.94069L8.96892 8.87307C8.97959 8.83322 8.99947 8.79647 9.02694 8.76584C9.05442 8.73521 9.0887 8.71156 9.12699 8.69683C9.15972 8.68156 9.19536 8.67365 9.23143 8.67365C9.2675 8.67365 9.30314 8.68156 9.33587 8.69683C9.45443 8.748 9.56734 8.92424 9.66331 9.21986V9.25397L9.70283 9.3563L9.74234 9.31651L9.78751 9.2824L10.0641 9.63488C10.3506 9.45953 10.5824 9.20668 10.7331 8.90514C10.8838 8.6036 10.9474 8.2655 10.9166 7.92935C10.885 7.66273 10.7913 7.4074 10.6431 7.18413C10.495 6.96087 10.2966 6.77598 10.0641 6.64451ZM10.0641 9.1687L9.99639 9.23123L9.96816 9.14596C9.901 8.84528 9.71832 8.58364 9.46007 8.41826C9.38576 8.38363 9.30485 8.36569 9.22296 8.36569C9.14108 8.36569 9.06017 8.38363 8.98586 8.41826C8.84997 8.47847 8.73819 8.58301 8.66854 8.71504C8.59889 8.84706 8.57544 8.99887 8.60197 9.14596V9.2824H8.98586V10.192H8.16727H7.93016L8.02049 10.4137C8.14093 10.7363 8.36563 11.0086 8.65842 11.1869L8.73181 11.2324L8.65842 11.2892L8.03742 11.7782L7.52933 12.1477H7.49546H7.46159L6.98737 11.8066L6.8914 11.744L6.32686 11.3177L6.25911 11.2665L6.3325 11.221C6.60115 11.0339 6.80301 10.7649 6.90834 10.4535L7.00431 10.2318H6.7672H5.93732V10.175V9.2824H6.34379V9.14596C6.3789 8.99585 6.36158 8.83814 6.29474 8.69939C6.2279 8.56064 6.11564 8.44931 5.97684 8.38415C5.90253 8.34952 5.82162 8.33158 5.73973 8.33158C5.65785 8.33158 5.57694 8.34952 5.50262 8.38415C5.37326 8.46363 5.26111 8.56851 5.17285 8.69255C5.08459 8.81659 5.02203 8.95726 4.98889 9.10616V9.13459V9.20849L4.92679 9.15164C4.74437 9.01345 4.60135 8.82928 4.51215 8.61768C4.42295 8.40608 4.39071 8.17454 4.4187 7.9464C4.44293 7.73031 4.51875 7.52333 4.63967 7.34315C4.76059 7.16297 4.92302 7.01494 5.11309 6.91171C5.45683 6.77395 5.82162 6.69701 6.19137 6.68431H6.34379V6.53081C6.49778 5.77056 6.89426 5.08181 7.47288 4.56945V4.54103L7.5124 4.58651C8.09037 5.0994 8.48672 5.78791 8.64148 6.54787V6.69568H8.78827C9.15985 6.7083 9.52651 6.78522 9.87219 6.92308C10.0608 7.02816 10.222 7.17669 10.3427 7.35652C10.4634 7.53634 10.5401 7.74237 10.5666 7.95777C10.597 8.18469 10.5682 8.41567 10.4831 8.62799C10.398 8.84031 10.2594 9.02666 10.0811 9.1687H10.0641Z" fill="white"/>
<path d="M10.0641 40.5503C9.72955 40.3964 9.36978 40.3058 9.00272 40.2831H8.95755V40.2376C8.71825 39.406 8.2482 38.6605 7.60265 38.0886L7.47281 37.9692L7.35425 38.0886C6.7087 38.6605 6.23866 39.406 5.99935 40.2376V40.2831H5.95419C5.5853 40.3058 5.22367 40.3963 4.8872 40.5503C4.65541 40.6812 4.45747 40.8652 4.30938 41.0874C4.16129 41.3096 4.06721 41.5638 4.03474 41.8294C4.0065 42.1659 4.07181 42.5036 4.22336 42.8049C4.37491 43.1061 4.60672 43.3589 4.89284 43.535L5.16947 43.1654L5.21463 43.1995C5.22919 43.2113 5.24244 43.2247 5.25415 43.2393C5.26637 43.2151 5.27766 43.1905 5.28802 43.1654V43.1313C5.384 42.8414 5.49126 42.6651 5.61546 42.6083C5.64347 42.6033 5.67213 42.6033 5.70014 42.6083C5.74282 42.6107 5.7848 42.6203 5.82434 42.6367C5.86099 42.654 5.89384 42.6786 5.92098 42.7088C5.94812 42.7391 5.96901 42.7745 5.98241 42.8129V42.8869H5.94289C5.89475 42.8841 5.84659 42.892 5.80175 42.9098C5.7569 42.9277 5.71644 42.9551 5.68316 42.9902C5.64987 43.0254 5.62457 43.0674 5.60898 43.1133C5.59339 43.1593 5.5879 43.2081 5.59288 43.2564V44.1205C5.58641 44.1706 5.59144 44.2215 5.6076 44.2693C5.62375 44.3171 5.65059 44.3605 5.68604 44.3962C5.7215 44.4319 5.76462 44.459 5.81209 44.4752C5.85956 44.4915 5.91011 44.4966 5.95983 44.4901H6.52437L6.45098 44.5867C6.35679 44.7218 6.23069 44.8312 6.08403 44.9051C6.03004 44.9326 5.98341 44.9728 5.94804 45.0223C5.91268 45.0717 5.88962 45.129 5.8808 45.1893C5.8794 45.2469 5.89205 45.304 5.91764 45.3555C5.94323 45.4071 5.98098 45.4515 6.02758 45.4849C6.25339 45.6555 6.50179 45.826 6.71632 45.9795L6.76148 46.0137C6.95907 46.1558 7.17924 46.3093 7.38248 46.4628L7.4841 46.5367L7.58007 46.4628L8.218 46.0023L8.26317 45.9739C8.48898 45.8147 8.72045 45.6498 8.93497 45.4849C8.98231 45.4522 9.02062 45.4079 9.04629 45.3562C9.07197 45.3045 9.08417 45.2471 9.08175 45.1893C9.07542 45.1282 9.05333 45.0698 9.01768 45.02C8.98203 44.9701 8.93406 44.9305 8.87852 44.9051C8.733 44.8295 8.60726 44.7205 8.51157 44.5867L8.44382 44.4901H9.00836C9.05786 44.4954 9.10793 44.4896 9.15488 44.4729C9.20184 44.4563 9.24449 44.4292 9.27969 44.3938C9.31489 44.3583 9.34176 44.3154 9.35831 44.2681C9.37486 44.2208 9.38067 44.1704 9.37532 44.1205V43.2223C9.3804 43.1735 9.37479 43.1241 9.35888 43.0777C9.34297 43.0314 9.31715 42.9891 9.28323 42.9538C9.24931 42.9186 9.20813 42.8913 9.16259 42.8738C9.11705 42.8563 9.06826 42.8491 9.01965 42.8527H8.94062L8.96885 42.7788C8.9803 42.7394 9.00047 42.703 9.02785 42.6725C9.05522 42.642 9.08909 42.6181 9.12692 42.6026C9.15965 42.5873 9.19529 42.5794 9.23136 42.5794C9.26743 42.5794 9.30307 42.5873 9.3358 42.6026C9.45435 42.6594 9.56726 42.83 9.66323 43.1313L9.70275 43.2336C9.71446 43.219 9.72771 43.2056 9.74227 43.1938L9.78743 43.1654L10.0641 43.5236C10.3491 43.3468 10.5798 43.0937 10.7303 42.7925C10.8809 42.4913 10.9453 42.154 10.9165 41.8181C10.8824 41.5545 10.7875 41.3025 10.6395 41.0824C10.4915 40.8623 10.2944 40.6801 10.0641 40.5503ZM10.0641 43.0801L9.99631 43.137L9.96809 43.0517C9.90093 42.751 9.71824 42.4894 9.46 42.324C9.38568 42.2894 9.30478 42.2715 9.22289 42.2715C9.141 42.2715 9.0601 42.2894 8.98578 42.324C8.84859 42.3825 8.73557 42.4868 8.66567 42.6193C8.59577 42.7518 8.57325 42.9045 8.60189 43.0517V43.1938H8.98578V44.1205H8.16719H7.93009L8.02041 44.3422C8.14241 44.6653 8.36658 44.939 8.65835 45.1211L8.73174 45.1666L8.65835 45.2177C8.45511 45.3712 8.24058 45.5247 8.0317 45.6726L7.52362 46.0364H7.48974H7.45587L6.98165 45.6953L6.88568 45.6328L6.32114 45.2121L6.25339 45.1552L6.32678 45.1154C6.59508 44.9316 6.79864 44.6669 6.90826 44.3593L7.00424 44.1376H6.76713H5.93725V44.0864V43.1938H6.34372V43.0517C6.37961 42.9024 6.36258 42.7451 6.29558 42.6071C6.22859 42.469 6.11582 42.3588 5.97677 42.2956C5.90245 42.261 5.82155 42.243 5.73966 42.243C5.65777 42.243 5.57687 42.261 5.50255 42.2956C5.2426 42.4603 5.05792 42.7219 4.98882 43.0233V43.1029L4.92672 43.046C4.74427 42.9066 4.60134 42.7213 4.51219 42.5089C4.42303 42.2964 4.39077 42.0641 4.41863 41.8351C4.44327 41.6199 4.5193 41.4139 4.64023 41.2347C4.76115 41.0555 4.92337 40.9084 5.11302 40.8061C5.45568 40.664 5.82091 40.5851 6.19129 40.573H6.34372V40.4195C6.4977 39.6593 6.89419 38.9705 7.47281 38.4582V38.4468L7.51232 38.4923C8.09029 39.0052 8.48665 39.6937 8.64141 40.4536V40.6014H8.78819C9.16041 40.6134 9.5275 40.6924 9.87211 40.8345C10.0603 40.9387 10.2213 41.0862 10.342 41.2651C10.4627 41.4439 10.5396 41.649 10.5665 41.8635C10.5962 42.0912 10.5672 42.3228 10.4821 42.5359C10.3971 42.749 10.2589 42.9365 10.081 43.0801H10.0641Z" fill="white"/>
</g>
<defs>
<clipPath id="clip0_676_1350">
<rect width="253" height="83.6449" fill="white" transform="translate(0.698242 0.527344)"/>
</clipPath>
</defs>
</svg>
