<svg width="202" height="68" viewBox="0 0 202 68" fill="none" xmlns="http://www.w3.org/2000/svg">
<g clip-path="url(#clip0_850_5424)">
<path d="M91.2075 20.9328C88.8787 23.401 87.1343 25.1906 85.9744 26.3017C85.0714 27.1961 84.1139 28.0326 83.1077 28.8063C81.6855 29.8974 80.108 30.7648 78.429 31.3792C76.8317 31.9222 75.1561 32.193 73.4708 32.1807C70.9857 32.1807 68.9559 31.4658 67.3813 30.0359C66.6091 29.3535 65.9952 28.5076 65.5831 27.5585C65.171 26.6093 64.9708 25.5801 64.9969 24.544C64.9877 23.4265 65.2155 22.32 65.6649 21.2989C66.1143 20.2778 66.7748 19.3658 67.6022 18.624C69.3024 16.9959 71.5705 16.1121 73.9126 16.165C75.7435 16.1298 77.5264 16.7582 78.9383 17.9364C80.3627 19.1204 81.0748 20.4334 81.0748 21.8755C81.0979 22.2304 80.9992 22.5826 80.7954 22.8727C80.6975 22.988 80.5746 23.0789 80.4362 23.1381C80.2977 23.1974 80.1476 23.2234 79.9976 23.2143C79.8523 23.2176 79.7084 23.1853 79.5781 23.1203C79.4478 23.0553 79.335 22.9594 79.2493 22.8409C79.0508 22.56 78.9509 22.2202 78.9654 21.8755C78.981 21.5831 79.0263 21.2932 79.1006 21.0102C79.1815 20.713 79.2284 20.4075 79.2403 20.0995C79.2369 19.6412 79.1175 19.1913 78.8934 18.7928C78.6694 18.3943 78.3481 18.0603 77.9602 17.8226C76.9923 17.1843 75.8518 16.866 74.6968 16.9118C73.6389 16.9128 72.5931 17.1393 71.6277 17.5763C70.6623 18.0134 69.799 18.6513 69.0941 19.4483C68.3294 20.2138 67.7232 21.1255 67.3107 22.1301C66.8983 23.1348 66.6878 24.2123 66.6917 25.2999C66.6545 26.166 66.8069 27.0297 67.138 27.8294C67.4691 28.6291 67.9708 29.3452 68.6073 29.9266C69.8874 31.0832 71.6048 31.6616 73.7593 31.6616C76.46 31.6243 79.0937 30.8074 81.3498 29.3073C83.8349 27.7347 87.0126 24.796 90.883 20.4911C90.609 20.1267 90.2696 19.8177 89.8823 19.5803C89.5393 19.3876 89.1525 19.2887 88.76 19.2935C87.7413 19.2935 86.9165 19.8809 86.2809 21.0649C86.1141 21.3654 85.997 21.5203 85.9248 21.5203C85.8827 21.5231 85.8409 21.5102 85.8076 21.4838C85.7823 21.4498 85.7695 21.4079 85.7716 21.3654C85.7993 20.9938 85.9072 20.6328 86.0879 20.3079C86.2686 19.9829 86.5176 19.702 86.8173 19.4847C87.4822 18.8876 88.3438 18.5628 89.2333 18.574C89.6852 18.5646 90.1335 18.6579 90.5449 18.8472C90.9559 19.0547 91.3185 19.348 91.6087 19.7079L96.1522 14.9628C97.5944 13.4188 99.1154 11.952 100.709 10.5684C101.881 9.59083 102.701 9.10054 103.17 9.09751C103.259 9.09211 103.349 9.10552 103.433 9.13688C103.516 9.16824 103.593 9.21686 103.657 9.27966C103.716 9.33916 103.763 9.41024 103.794 9.48855C103.825 9.56685 103.84 9.65073 103.837 9.73504C103.837 10.1418 102.991 11.6977 101.3 14.4027C99.6079 17.1076 98.1444 19.6578 96.9094 22.0531H97.2475C98.344 22.0032 99.4155 22.3945 100.227 23.1414C100.601 23.5122 100.894 23.9586 101.085 24.4514C101.277 24.9441 101.364 25.4722 101.34 26.0012C101.3 27.5471 100.684 29.0207 99.6139 30.1269C98.46 31.4354 97.2144 32.0896 95.8772 32.0896C95.4371 32.1109 94.9978 32.0333 94.5909 31.8625C94.1841 31.6916 93.8198 31.4317 93.5243 31.1014C92.912 30.3298 92.6038 29.3566 92.6589 28.3692C92.6733 27.5525 92.793 26.7411 93.015 25.9557C93.3008 24.9346 93.6717 23.9398 94.1238 22.982C93.63 23.1813 93.1536 23.422 92.6995 23.7015C92.3025 23.9446 91.9336 24.2318 91.5997 24.5576C91.2781 25.57 90.8457 26.543 90.3106 27.4584C89.9184 28.0641 89.5218 28.3692 89.1341 28.3692C89.0381 28.3754 88.942 28.3602 88.8524 28.3248C88.7629 28.2894 88.6821 28.2346 88.6158 28.1642C88.4874 27.9953 88.4249 27.7847 88.44 27.5723C88.44 27.2125 88.6969 26.7025 89.2107 26.0513C89.8228 25.2969 90.5151 24.6128 91.2751 24.0112C91.3866 23.7519 91.477 23.4838 91.5456 23.2097C91.5976 22.9827 91.6248 22.7506 91.6267 22.5175C91.628 22.2469 91.5932 21.9773 91.5231 21.7161C91.4487 21.4434 91.3428 21.1805 91.2075 20.9328ZM91.7619 23.8245C92.1279 23.5036 92.5286 23.2255 92.9564 22.9957C93.4353 22.7351 93.938 22.5216 94.4574 22.3582C96.1191 19.6259 97.9386 16.9316 99.9159 14.2752C101.893 11.6188 102.882 10.2147 102.882 10.0629C102.886 9.98082 102.874 9.8987 102.846 9.82156C102.833 9.8 102.816 9.78146 102.796 9.76729C102.776 9.75312 102.753 9.74366 102.728 9.73959C102.449 9.73959 101.786 10.2102 100.741 11.1513C99.695 12.0924 98.3037 13.4722 96.5669 15.2907L91.9017 20.1632C92.0325 20.4327 92.1309 20.7171 92.1947 21.0102C92.2587 21.3202 92.289 21.6363 92.2848 21.9529C92.2832 22.2611 92.2392 22.5676 92.1541 22.8636C92.0592 23.1977 91.9277 23.5199 91.7619 23.8245ZM96.5849 22.6587C95.9316 23.9376 95.3799 25.2669 94.9352 26.6342C94.6025 27.5887 94.4112 28.5877 94.3672 29.5987C94.3226 30.1381 94.4627 30.6766 94.7639 31.1242C94.9221 31.2938 95.1161 31.4253 95.3314 31.5089C95.5468 31.5924 95.778 31.6259 96.0079 31.6069C97.0146 31.6069 97.9025 31.0832 98.6718 30.0359C99.4545 28.9474 99.8601 27.6285 99.8257 26.2835C99.8257 25.0692 99.5583 24.1691 99.0234 23.5831C98.7036 23.2652 98.3213 23.0186 97.9013 22.8594C97.4812 22.7001 97.0327 22.6318 96.5849 22.6587Z" fill="#5F6EC9"/>
<path d="M105.406 25.0403C104.85 25.6323 104.272 26.285 103.671 26.9984C103.062 27.7179 102.706 28.0731 102.593 28.0731C102.554 28.0738 102.516 28.061 102.485 28.0367C102.471 28.0268 102.459 28.0139 102.451 27.999C102.442 27.984 102.437 27.9674 102.436 27.9502C102.453 27.8247 102.505 27.7065 102.584 27.6086C102.759 27.3669 102.945 27.1344 103.143 26.9119L104.144 25.8099C104.781 25.1116 105.358 24.4604 105.875 23.8563C106.393 23.2507 106.731 22.8363 106.884 22.6177L113.109 12.8407L115.155 12.5629L105.437 28.1369C104.77 29.2025 104.347 29.922 104.166 30.2817C104.017 30.5442 103.924 30.8362 103.896 31.1378C103.892 31.2965 103.951 31.4502 104.058 31.5659C104.11 31.6237 104.173 31.6696 104.244 31.7002C104.315 31.7309 104.391 31.7457 104.468 31.7435C104.935 31.7134 105.382 31.5437 105.753 31.2562C106.643 30.5626 107.479 29.8014 108.255 28.9793C108.494 28.738 108.768 28.4374 109.089 28.0686C109.409 27.6997 109.611 27.5176 109.706 27.5176C109.754 27.5168 109.8 27.5329 109.837 27.5631C109.852 27.5771 109.864 27.5939 109.872 27.6127C109.881 27.6315 109.886 27.6518 109.886 27.6724C109.843 27.8458 109.752 28.0035 109.625 28.1278C109.454 28.3464 109.057 28.779 108.439 29.421C107.703 30.2226 106.899 30.9584 106.037 31.6205C105.617 31.9541 105.106 32.1496 104.572 32.1806C104.338 32.1891 104.105 32.1443 103.891 32.0498C103.676 31.9552 103.485 31.8132 103.333 31.6342C103.009 31.2196 102.849 30.6991 102.882 30.1724C102.882 29.3345 103.642 27.7589 105.163 25.4456L105.406 25.0403Z" fill="#5F6EC9"/>
<path d="M110.211 27.4037C110.084 27.5794 109.942 27.7439 109.787 27.8955C109.718 27.9736 109.624 28.0251 109.521 28.0413C109.483 28.0526 109.442 28.0526 109.404 28.0413C109.377 28.0413 109.364 27.9912 109.364 27.9411C109.434 27.7453 109.545 27.5669 109.688 27.4174C109.904 27.1442 110.206 26.7935 110.59 26.37C111.434 25.3997 112.424 24.5698 113.524 23.911C114.374 23.3816 115.347 23.0864 116.346 23.0549C116.804 23.0314 117.254 23.1789 117.612 23.4693C117.763 23.5971 117.884 23.7567 117.967 23.9368C118.051 24.117 118.094 24.3133 118.094 24.5121C118.094 25.3925 117.519 26.2425 116.368 27.0622C114.963 27.9889 113.394 28.6336 111.748 28.9611C111.685 29.3436 111.644 29.626 111.626 29.799C111.606 29.95 111.595 30.1021 111.595 30.2544C111.57 30.6455 111.687 31.0325 111.924 31.3428C112.04 31.4745 112.185 31.5781 112.346 31.6458C112.508 31.7136 112.682 31.7439 112.857 31.7344C113.463 31.7107 114.053 31.5253 114.565 31.197C115.359 30.6803 116.089 30.0687 116.738 29.3755C117.085 29.0249 117.459 28.6196 117.856 28.1688C118.252 27.7179 118.487 27.4948 118.572 27.4948C118.62 27.494 118.666 27.5102 118.703 27.5403C118.718 27.5543 118.73 27.5712 118.739 27.5899C118.747 27.6087 118.752 27.629 118.752 27.6496C118.702 27.8383 118.603 28.0098 118.464 28.146C118.266 28.3873 117.833 28.8564 117.152 29.5622C116.428 30.3331 115.611 31.0079 114.718 31.5705C114.111 31.9477 113.416 32.1566 112.704 32.1761C112.329 32.1818 111.959 32.0966 111.624 31.9278C111.289 31.7591 110.999 31.5116 110.779 31.2062C110.255 30.4934 109.989 29.6205 110.026 28.7334C110.027 28.517 110.044 28.3009 110.076 28.0868C110.108 27.8566 110.153 27.6286 110.211 27.4037ZM111.924 28.4648C113.263 28.1872 114.506 27.5591 115.53 26.6432C116.539 25.7325 117.04 24.8764 117.04 24.0795C117.045 23.9123 116.987 23.7494 116.877 23.6241C116.831 23.5645 116.771 23.5166 116.703 23.4842C116.635 23.4518 116.56 23.4358 116.485 23.4374C115.8 23.4374 114.995 23.9246 114.069 24.8991C113.116 25.9238 112.385 27.1383 111.924 28.4648Z" fill="#5F6EC9"/>
<path d="M122.318 23.8108C121.506 24.6396 120.671 25.558 119.812 26.5659C118.955 27.5723 118.459 28.0732 118.342 28.0732C118.303 28.0729 118.265 28.0601 118.234 28.0368C118.221 28.026 118.211 28.0129 118.203 27.998C118.195 27.9832 118.19 27.9669 118.189 27.9502C118.189 27.7802 119.015 26.7845 120.668 24.9629L122.286 23.2052C122.423 22.8354 122.627 22.4943 122.886 22.1988C122.973 22.0981 123.079 22.0166 123.198 21.9594C123.318 21.9022 123.448 21.8705 123.58 21.8664C123.744 21.8589 123.905 21.9142 124.031 22.0212C124.088 22.0814 124.132 22.1531 124.16 22.2315C124.187 22.3099 124.199 22.3934 124.193 22.4766C124.198 22.6437 124.14 22.8066 124.031 22.932C123.892 23.0857 123.721 23.2057 123.53 23.2826C123.46 23.3136 123.388 23.3395 123.314 23.36C122.935 23.5057 122.746 23.8655 122.746 24.4347C122.778 25.0717 122.876 25.7036 123.039 26.32C123.2 26.9397 123.299 27.5745 123.332 28.2144C123.337 28.865 123.2 29.5087 122.931 30.0996C123.415 29.6139 123.93 29.0614 124.477 28.442C125.027 27.8227 125.342 27.5313 125.423 27.5313C125.471 27.5288 125.518 27.5451 125.554 27.5768C125.571 27.5898 125.584 27.6063 125.593 27.6253C125.603 27.6442 125.608 27.665 125.608 27.6861C125.562 27.8694 125.467 28.0364 125.333 28.1688C125.166 28.3646 124.855 28.7335 124.405 29.1889C123.617 30.0781 122.722 30.8645 121.741 31.5295C121.104 31.9396 120.368 32.1634 119.613 32.1762C119.059 32.2024 118.512 32.0422 118.058 31.7208C117.876 31.5875 117.727 31.4123 117.624 31.2097C117.522 31.007 117.468 30.7827 117.468 30.555C117.467 30.4225 117.492 30.2912 117.541 30.1685C117.591 30.0458 117.664 29.9342 117.756 29.8401C117.841 29.7415 117.945 29.6624 118.063 29.6082C118.18 29.554 118.308 29.5259 118.437 29.5259C118.604 29.5281 118.765 29.593 118.888 29.708C118.949 29.7611 118.997 29.8268 119.031 29.9007C119.064 29.9745 119.082 30.0548 119.081 30.1361C119.052 30.3378 118.987 30.5323 118.888 30.7098C118.779 30.9059 118.713 31.1233 118.694 31.3474C118.693 31.3968 118.705 31.4457 118.728 31.4894C118.75 31.5332 118.784 31.5704 118.825 31.5978C118.929 31.6622 119.05 31.6939 119.172 31.6889C119.893 31.6889 120.6 31.0286 121.304 29.708C122.035 28.2621 122.398 26.6546 122.358 25.0313C122.358 24.9083 122.358 24.758 122.358 24.5759C122.358 24.3937 122.336 24.1433 122.318 23.8108Z" fill="#5F6EC9"/>
<path d="M129.183 23.8108C128.371 24.6396 127.537 25.558 126.681 26.5659C125.825 27.5738 125.335 28.0762 125.212 28.0732C125.173 28.0729 125.135 28.0601 125.103 28.0368C125.09 28.0269 125.079 28.0139 125.071 27.9989C125.063 27.9839 125.059 27.9672 125.058 27.9502C125.058 27.7802 125.885 26.7845 127.537 24.9629L129.156 23.2052C129.293 22.8354 129.496 22.4943 129.755 22.1988C129.842 22.0981 129.948 22.0166 130.068 21.9594C130.187 21.9022 130.317 21.8705 130.449 21.8664C130.613 21.8589 130.774 21.9142 130.9 22.0212C130.957 22.0814 131.001 22.1531 131.029 22.2315C131.057 22.3099 131.068 22.3934 131.062 22.4766C131.068 22.6437 131.01 22.8066 130.9 22.932C130.762 23.0857 130.591 23.2057 130.4 23.2826C130.329 23.3129 130.257 23.3387 130.183 23.36C129.805 23.5057 129.611 23.8655 129.611 24.4347C129.645 25.0715 129.744 25.7031 129.904 26.32C130.067 26.9392 130.166 27.5742 130.197 28.2144C130.2 28.5339 130.169 28.8529 130.107 29.1661C130.034 29.4792 129.932 29.7842 129.8 30.0769C130.278 29.5896 130.796 29.0386 131.346 28.4193C131.896 27.8 132.212 27.5085 132.293 27.5085C132.34 27.5069 132.387 27.5232 132.423 27.5541C132.44 27.567 132.453 27.5836 132.463 27.6025C132.472 27.6214 132.477 27.6422 132.478 27.6633C132.429 27.8458 132.334 28.0122 132.203 28.146C132.013 28.3737 131.698 28.7244 131.247 29.2025C130.459 30.0918 129.564 30.8781 128.583 31.5432C127.947 31.9532 127.21 32.177 126.456 32.1898C125.902 32.216 125.355 32.0559 124.901 31.7344C124.714 31.5975 124.564 31.4171 124.462 31.2085C124.36 30.9999 124.309 30.7694 124.315 30.5368C124.315 30.404 124.34 30.2725 124.391 30.1499C124.441 30.0272 124.515 29.9157 124.608 29.8218C124.692 29.7239 124.795 29.6451 124.912 29.591C125.029 29.5368 125.155 29.5084 125.284 29.5076C125.459 29.5055 125.628 29.5706 125.757 29.6898C125.817 29.7431 125.865 29.8089 125.898 29.8828C125.931 29.9567 125.947 30.0369 125.946 30.1178C125.919 30.3194 125.855 30.5141 125.757 30.6916C125.648 30.8877 125.582 31.1051 125.563 31.3292C125.563 31.3786 125.574 31.4274 125.597 31.4712C125.62 31.5149 125.653 31.5522 125.694 31.5796C125.798 31.6445 125.919 31.6762 126.041 31.6707C126.756 31.6707 127.467 31.0104 128.173 29.6898C128.904 28.2439 129.267 26.6363 129.228 25.013C129.228 24.8901 129.228 24.7398 129.228 24.5577C129.228 24.3755 129.205 24.1433 129.183 23.8108Z" fill="#5F6EC9"/>
<path d="M140.631 25.2088L141.925 23.2963L144.003 23.1733L140.537 28.6788C140.18 29.2186 139.857 29.7797 139.568 30.3592C139.45 30.6138 139.383 30.8891 139.369 31.1698C139.362 31.2305 139.367 31.292 139.385 31.3507C139.402 31.4094 139.43 31.464 139.468 31.5113C139.579 31.5877 139.714 31.6216 139.847 31.6069C140.332 31.5046 140.779 31.2699 141.141 30.9284C141.89 30.3247 142.595 29.6673 143.25 28.9612C143.498 28.7107 143.782 28.4056 144.102 28.0504C144.422 27.6952 144.625 27.5085 144.697 27.5085C144.745 27.5055 144.793 27.5149 144.837 27.5358C144.851 27.5474 144.862 27.562 144.87 27.5785C144.878 27.595 144.882 27.6131 144.882 27.6315C144.821 27.8627 144.698 28.0723 144.526 28.2371C144.291 28.5286 143.926 28.9247 143.435 29.4211C142.688 30.2468 141.865 31 140.978 31.6707C140.543 31.9853 140.026 32.1656 139.491 32.1898C139.311 32.2012 139.131 32.1705 138.964 32.1002C138.798 32.03 138.649 31.9219 138.531 31.7845C138.288 31.4422 138.17 31.0254 138.197 30.6051C138.198 30.4528 138.208 30.3006 138.229 30.1497C138.229 29.9767 138.292 29.7262 138.351 29.3938C137.758 30.1844 137.053 30.8826 136.259 31.4658C135.717 31.889 135.06 32.1353 134.375 32.1716C134.091 32.1737 133.813 32.0933 133.573 31.9399C133.333 31.7864 133.142 31.5665 133.023 31.3064C132.666 30.5647 132.5 29.7439 132.541 28.9202C132.541 28.6703 132.559 28.4207 132.595 28.1734C132.629 27.9264 132.677 27.6816 132.739 27.4402C132.641 27.6075 132.521 27.7607 132.383 27.8956C132.311 27.9852 132.208 28.0438 132.094 28.0595C132.043 28.0652 131.991 28.054 131.946 28.0276C131.932 28.0169 131.922 28.0028 131.916 27.9869C131.909 27.9709 131.907 27.9536 131.91 27.9366C131.996 27.7077 132.132 27.5009 132.306 27.3309C132.577 27.0076 132.933 26.6114 133.388 26.1469C134.259 25.2361 135.256 24.4584 136.349 23.8382C137.17 23.3427 138.099 23.061 139.054 23.0185C139.492 22.9964 139.923 23.141 140.262 23.4238C140.411 23.5581 140.529 23.7242 140.606 23.91C140.684 24.0958 140.721 24.2968 140.713 24.4985C140.712 24.6068 140.703 24.7149 140.685 24.8218C140.675 24.9517 140.657 25.0809 140.631 25.2088ZM133.87 30.6233C133.856 30.8793 133.928 31.1328 134.073 31.3428C134.138 31.4284 134.222 31.4971 134.319 31.543C134.415 31.589 134.521 31.6109 134.628 31.6069C135.103 31.5585 135.555 31.3736 135.93 31.0741C136.529 30.6512 137.074 30.1557 137.553 29.5987C138.326 28.7662 138.991 27.8373 139.532 26.8346C139.946 26.1281 140.187 25.3318 140.235 24.5121C140.237 24.3789 140.211 24.2468 140.159 24.1244C140.107 24.002 140.03 23.892 139.933 23.8017C139.836 23.7078 139.721 23.6341 139.596 23.5849C139.471 23.5356 139.337 23.5118 139.203 23.5148C138.59 23.5534 138.005 23.786 137.53 24.1797C136.839 24.7196 136.231 25.3612 135.727 26.0832C135.184 26.847 134.73 27.6722 134.375 28.5422C134.079 29.1977 133.907 29.9037 133.87 30.6233Z" fill="#5F6EC9"/>
<path d="M145.049 32.0577L149.141 25.8509C149.202 25.7475 149.27 25.6486 149.344 25.5549C149.876 24.7534 150.142 24.216 150.142 23.9337C150.149 23.88 150.145 23.8255 150.129 23.7737C150.113 23.7218 150.087 23.674 150.052 23.6332C149.953 23.5643 149.833 23.5336 149.714 23.5466C149.206 23.6181 148.733 23.8491 148.362 24.2069C147.537 24.9222 146.761 25.6936 146.04 26.5157C145.824 26.748 145.567 27.0394 145.27 27.4037C144.909 27.8591 144.675 28.0731 144.562 28.0731C144.523 28.0728 144.485 28.06 144.454 28.0367C144.44 28.0268 144.429 28.0138 144.421 27.9988C144.413 27.9838 144.409 27.9671 144.409 27.9502C144.426 27.8255 144.476 27.7076 144.553 27.6086C144.652 27.4629 144.846 27.2215 145.13 26.8891L146.131 25.7871C146.817 24.9962 147.571 24.2678 148.384 23.6104C148.798 23.2686 149.307 23.0663 149.84 23.0321C150.01 23.0247 150.18 23.0565 150.336 23.1251C150.492 23.1938 150.631 23.2974 150.742 23.4282C150.977 23.7377 151.096 24.1221 151.075 24.512C151.063 25.0389 150.961 25.5597 150.773 26.0512C150.516 26.7157 150.193 27.352 149.809 27.9502C150.954 26.5929 152.188 25.3135 153.5 24.1204C154.357 23.3979 155.042 23.0351 155.556 23.0321C155.722 23.0278 155.886 23.0635 156.036 23.1364C156.186 23.2092 156.316 23.3171 156.416 23.451C156.646 23.777 156.76 24.1716 156.741 24.5712C156.741 25.3727 156.223 26.4884 155.186 27.9183C155.01 28.1551 154.884 28.3372 154.798 28.4647C154.376 29.0235 153.988 29.6074 153.635 30.2134C153.469 30.4901 153.367 30.8016 153.338 31.1242C153.328 31.2768 153.371 31.4282 153.46 31.5522C153.509 31.6054 153.569 31.6465 153.636 31.6726C153.703 31.6986 153.776 31.7088 153.847 31.7025C154.326 31.5942 154.766 31.3547 155.118 31.0103C155.87 30.3839 156.581 29.7085 157.246 28.9884C157.489 28.738 157.773 28.4283 158.093 28.0777C158.413 27.727 158.621 27.5175 158.693 27.5175C158.743 27.5178 158.791 27.5373 158.828 27.5722C158.845 27.5837 158.859 27.5985 158.87 27.6157C158.881 27.6329 158.888 27.6522 158.891 27.6724C158.891 27.8363 158.44 28.3904 157.539 29.3345L157.354 29.5212C156.677 30.2488 155.946 30.9232 155.168 31.5385C154.789 31.8856 154.32 32.1148 153.816 32.1988C153.595 32.2006 153.378 32.144 153.186 32.0345C152.993 31.9251 152.833 31.7666 152.72 31.575C152.424 31.0856 152.28 30.5178 152.306 29.9447C152.317 29.4144 152.444 28.8933 152.68 28.4192C153.146 27.5613 153.694 26.7514 154.316 26.0011C154.429 25.8554 154.591 25.6596 154.794 25.4091C155.402 24.6532 155.695 24.1477 155.695 23.8973C155.705 23.7982 155.678 23.6991 155.619 23.6195C155.538 23.5598 155.439 23.5322 155.339 23.5421C154.849 23.5421 153.877 24.2828 152.423 25.7643C150.588 27.6923 148.858 29.7186 147.239 31.8345L145.049 32.0577Z" fill="#5F6EC9"/>
<path d="M167.022 25.2088L174.031 12.654L176.078 12.5629L167.469 27.6542C167.035 28.3767 166.64 29.1215 166.283 29.8855C166.082 30.2753 165.956 30.7004 165.913 31.1378C165.913 31.1971 165.926 31.2556 165.951 31.3092C165.976 31.3628 166.012 31.41 166.058 31.4475C166.159 31.5343 166.29 31.5798 166.423 31.575C166.648 31.575 167.063 31.3245 167.667 30.8282C168.437 30.1736 169.168 29.4741 169.857 28.7334C170.042 28.5467 170.259 28.3099 170.502 28.0185C170.745 27.727 171.007 27.4902 171.088 27.4902C171.136 27.4872 171.184 27.4966 171.228 27.5176C171.242 27.5291 171.253 27.5437 171.261 27.5602C171.269 27.5768 171.273 27.5949 171.273 27.6132C171.212 27.8444 171.088 28.054 170.917 28.2188C170.682 28.5103 170.317 28.9065 169.826 29.4028C169.078 30.2286 168.256 30.9817 167.369 31.6524C166.934 31.967 166.417 32.1473 165.882 32.1715C165.702 32.1829 165.522 32.1522 165.355 32.082C165.189 32.0117 165.04 31.9037 164.922 31.7663C164.679 31.4239 164.561 31.0071 164.588 30.5868C164.589 30.4345 164.599 30.2824 164.62 30.1314C164.62 29.9584 164.683 29.7079 164.742 29.3755C164.152 30.1739 163.449 30.8798 162.655 31.4703C162.112 31.8935 161.455 32.1398 160.77 32.1761C160.487 32.1782 160.208 32.0978 159.968 31.9444C159.729 31.7909 159.538 31.571 159.418 31.3109C159.061 30.5692 158.895 29.7484 158.936 28.9247C158.936 28.6747 158.954 28.4251 158.99 28.1779C159.024 27.9309 159.072 27.6861 159.134 27.4447C159.036 27.612 158.917 27.7652 158.778 27.9001C158.706 27.9897 158.603 28.0483 158.49 28.064C158.438 28.0697 158.386 28.0585 158.341 28.0321C158.329 28.0206 158.319 28.0065 158.313 27.9907C158.307 27.975 158.304 27.958 158.305 27.9411C158.391 27.7122 158.527 27.5054 158.702 27.3354C158.972 27.0121 159.328 26.6159 159.783 26.1514C160.654 25.2406 161.652 24.4629 162.745 23.8426C163.565 23.3472 164.494 23.0655 165.449 23.023C165.888 23.0009 166.319 23.1454 166.657 23.4283C166.806 23.5626 166.924 23.7287 167.002 23.9145C167.08 24.1003 167.116 24.3013 167.108 24.5029C167.107 24.6113 167.098 24.7194 167.081 24.8263C167.068 24.9548 167.049 25.0825 167.022 25.2088ZM160.261 30.6233C160.247 30.8793 160.318 31.1327 160.464 31.3428C160.529 31.4281 160.613 31.4965 160.71 31.5424C160.806 31.5884 160.912 31.6105 161.018 31.6069C161.494 31.5584 161.946 31.3736 162.321 31.0741C162.92 30.6512 163.465 30.1557 163.944 29.5986C164.717 28.7661 165.382 27.8372 165.922 26.8345C166.337 26.128 166.578 25.3318 166.626 24.5121C166.628 24.3788 166.602 24.2467 166.55 24.1243C166.498 24.0019 166.421 23.892 166.324 23.8017C166.227 23.7077 166.112 23.634 165.987 23.5848C165.861 23.5356 165.728 23.5118 165.593 23.5148C164.982 23.5543 164.399 23.7869 163.926 24.1796C163.234 24.7195 162.626 25.3611 162.123 26.0831C161.579 26.8469 161.125 27.6722 160.77 28.5422C160.477 29.1982 160.309 29.9042 160.275 30.6233H160.261Z" fill="#5F6EC9"/>
<path d="M171.444 32.0258L175.537 25.8509L175.663 25.6459C176.249 24.7762 176.537 24.2069 176.537 23.9337C176.546 23.8186 176.51 23.7047 176.438 23.615C176.346 23.539 176.228 23.503 176.109 23.5148C175.612 23.5894 175.151 23.8223 174.793 24.1796C173.95 24.9075 173.154 25.691 172.413 26.5248C172.197 26.7571 171.94 27.0485 171.642 27.4128C171.282 27.8682 171.047 28.0822 170.935 28.0822C170.896 28.0819 170.858 28.0692 170.827 28.0458C170.813 28.0359 170.802 28.0229 170.794 28.0079C170.786 27.9929 170.782 27.9762 170.781 27.9593C170.799 27.8346 170.849 27.7168 170.926 27.6177C171.025 27.472 171.219 27.2307 171.503 26.8982L172.503 25.7962C173.207 24.9922 173.978 24.2502 174.807 23.5785C175.212 23.2382 175.714 23.0358 176.24 23.0002C176.41 22.9942 176.578 23.0262 176.734 23.0939C176.89 23.1616 177.029 23.2634 177.141 23.3918C177.376 23.6617 177.5 24.0118 177.489 24.3709C177.483 24.903 177.385 25.43 177.2 25.9283C176.86 26.7597 176.451 27.5609 175.979 28.3236L176.01 28.2917C177.146 27.1806 178.043 26.3472 178.687 25.7871C178.935 24.9862 179.328 24.2388 179.846 23.5831C180.03 23.3914 180.252 23.2406 180.497 23.1402C180.743 23.0399 181.006 22.9922 181.27 23.0002C181.457 22.9922 181.64 23.0467 181.793 23.155C181.858 23.2039 181.91 23.2681 181.944 23.3419C181.979 23.4157 181.995 23.4969 181.991 23.5785C181.991 23.8973 181.392 24.4893 180.188 25.4C179.972 25.5685 179.81 25.6915 179.693 25.7735C179.284 26.0607 178.941 26.4334 178.687 26.8664C178.481 27.2583 178.377 27.6973 178.386 28.1414C178.38 28.2546 178.398 28.3677 178.436 28.474C178.475 28.5804 178.534 28.6779 178.611 28.7607C178.682 28.8383 178.768 28.8996 178.865 28.9405C178.961 28.9813 179.065 29.0008 179.17 28.9975C179.774 28.9567 180.34 28.6808 180.747 28.228C181.284 27.7225 181.554 27.4675 181.563 27.4675C181.614 27.4718 181.663 27.4907 181.703 27.5221C181.718 27.5341 181.729 27.5494 181.737 27.5668C181.745 27.5842 181.749 27.6032 181.748 27.6223C181.748 27.8728 181.451 28.2325 180.847 28.7015C180.4 29.1097 179.833 29.3592 179.233 29.4119C178.877 29.4377 178.525 29.3235 178.25 29.0932C178.135 28.9732 178.045 28.8303 177.987 28.6736C177.929 28.5168 177.903 28.3496 177.912 28.1824C177.919 27.9822 177.949 27.7835 178.002 27.5904C178.065 27.3491 178.169 27.0394 178.309 26.6569C177.576 27.2869 176.884 27.9654 176.24 28.6879C175.489 29.5197 174.623 30.5595 173.644 31.8072L171.444 32.0258Z" fill="#5F6EC9"/>
<path d="M189.861 25.2088L191.155 23.2962L193.233 23.1732L189.762 28.6788C189.406 29.2185 189.082 29.7796 188.793 30.3591C188.675 30.6137 188.608 30.889 188.595 31.1697C188.588 31.2304 188.593 31.292 188.61 31.3506C188.627 31.4093 188.656 31.4639 188.694 31.5112C188.805 31.5876 188.939 31.6216 189.073 31.6068C189.557 31.5045 190.005 31.2698 190.366 30.9283C191.112 30.3243 191.814 29.6669 192.467 28.9611C192.71 28.7106 192.999 28.4055 193.319 28.0503C193.639 27.6951 193.841 27.5084 193.914 27.5084C193.962 27.506 194.01 27.5154 194.053 27.5358C194.067 27.5473 194.079 27.5619 194.087 27.5784C194.094 27.595 194.098 27.6131 194.098 27.6314C194.037 27.8626 193.914 28.0722 193.742 28.237C193.508 28.5285 193.143 28.9247 192.652 29.421C191.909 30.2427 191.093 30.9928 190.213 31.6615C189.777 31.9761 189.261 32.1564 188.726 32.1806C188.545 32.192 188.365 32.1613 188.199 32.091C188.032 32.0208 187.884 31.9127 187.765 31.7753C187.523 31.433 187.405 31.0162 187.432 30.5959C187.432 30.4436 187.443 30.2914 187.463 30.1405C187.486 29.9675 187.527 29.717 187.585 29.3846C186.994 30.1819 186.291 30.8877 185.498 31.4793C184.956 31.9026 184.299 32.1488 183.614 32.1852C183.33 32.1873 183.052 32.1069 182.812 31.9534C182.572 31.8 182.381 31.5801 182.262 31.32C181.905 30.5783 181.739 29.7575 181.78 28.9338C181.78 28.6838 181.798 28.4342 181.834 28.1869C181.868 27.94 181.916 27.6952 181.978 27.4538C181.88 27.6211 181.76 27.7743 181.622 27.9092C181.55 27.9988 181.447 28.0574 181.333 28.0731C181.282 28.0788 181.23 28.0676 181.185 28.0412C181.171 28.0307 181.16 28.0168 181.153 28.0009C181.146 27.985 181.143 27.9675 181.144 27.9501C181.24 27.7284 181.381 27.5297 181.559 27.3673C181.825 27.0439 182.185 26.6478 182.641 26.1833C183.511 25.2725 184.509 24.4947 185.602 23.8745C186.422 23.379 187.352 23.0973 188.306 23.0548C188.745 23.0327 189.176 23.1773 189.514 23.4601C189.663 23.5945 189.781 23.7606 189.859 23.9464C189.937 24.1322 189.973 24.3332 189.965 24.5348C189.965 24.6431 189.955 24.7512 189.938 24.8581C189.919 24.9763 189.893 25.0933 189.861 25.2088ZM183.1 30.6232C183.086 30.8793 183.158 31.1327 183.303 31.3427C183.368 31.4283 183.452 31.497 183.549 31.5429C183.645 31.5889 183.751 31.6108 183.858 31.6068C184.333 31.5584 184.785 31.3735 185.16 31.0741C185.759 30.6511 186.304 30.1556 186.783 29.5986C187.556 28.7661 188.221 27.8372 188.762 26.8345C189.176 26.128 189.417 25.3317 189.465 24.512C189.467 24.3788 189.441 24.2467 189.389 24.1243C189.337 24.0019 189.26 23.8919 189.163 23.8016C189.066 23.7077 188.951 23.634 188.826 23.5848C188.701 23.5356 188.567 23.5118 188.433 23.5148C187.821 23.5543 187.238 23.7868 186.765 24.1796C186.073 24.7196 185.465 25.3612 184.962 26.0831C184.419 26.8478 183.966 27.6729 183.61 28.5421C183.316 29.1982 183.148 29.9042 183.114 30.6232H183.1Z" fill="#5F6EC9"/>
<path d="M76.9776 56.1245C78.2916 56.9783 79.7639 57.5531 81.3048 57.8139C82.8373 58.0644 83.6035 58.2693 83.6035 58.3513C83.6035 58.5562 83.4593 58.6928 83.1753 58.7611C82.5003 58.8531 81.8187 58.8866 81.138 58.8613C79.5333 58.8613 78.0444 58.8021 76.6711 58.6837C75.3888 58.5774 74.1139 58.3934 72.8533 58.1327C71.8347 58.3786 71.0143 58.5562 70.3878 58.6518C69.8231 58.7468 69.2519 58.797 68.6795 58.8021C67.7564 58.8431 66.835 58.688 65.975 58.3467C65.3079 58.0416 64.9744 57.6454 64.9744 57.1536C64.9767 57.0079 65.0165 56.8653 65.0901 56.74C65.1636 56.6146 65.2682 56.5107 65.3936 56.4387C65.7218 56.2387 66.1015 56.142 66.4844 56.1609C67.0703 56.1609 68.702 56.5085 71.3794 57.2037L72.7677 57.5589C73.2024 57.4561 73.6277 57.3159 74.0388 57.14C74.6041 56.8947 75.1563 56.6196 75.693 56.3157C74.1731 55.5513 72.8784 54.3971 71.9383 52.9687C71.0896 51.5607 70.6608 49.9353 70.7033 48.2874C70.6985 46.5905 71.1486 44.9241 72.0059 43.4649C72.978 41.8434 74.2773 40.4469 75.8192 39.3665C77.3581 38.2303 79.0649 37.3466 80.8765 36.7481C82.6742 36.1588 84.5533 35.8621 86.4432 35.8692C87.3959 35.8629 88.3465 35.9606 89.2784 36.1606C90.1216 36.347 90.9379 36.6408 91.7079 37.035C92.5733 36.6069 93.1593 36.3382 93.4658 36.2244C93.6911 36.1299 93.9301 36.073 94.1734 36.0559C94.1982 36.0553 94.2228 36.0604 94.2454 36.0706C94.268 36.0808 94.2881 36.096 94.3041 36.1151C94.3406 36.1581 94.3599 36.2133 94.3582 36.2699C94.3582 36.4293 94.1058 36.6023 93.6055 36.8027C93.1571 36.9702 92.7242 37.1775 92.3119 37.422C92.9529 37.8596 93.4951 38.4292 93.903 39.0933C94.256 39.6938 94.4399 40.3803 94.4349 41.0787C94.4633 42.0633 94.1562 43.0278 93.5649 43.811C92.982 44.5669 91.8701 45.417 90.2294 46.3611C88.1801 47.5755 86.8534 48.5819 86.2494 49.3803C85.641 50.212 85.3239 51.2245 85.3479 52.2583C85.314 53.742 85.8559 55.1803 86.8579 56.2656C87.3313 56.7955 87.9121 57.2161 88.5607 57.499C89.2094 57.7818 89.9107 57.9203 90.6171 57.905C91.1457 57.9286 91.6736 57.8435 92.1687 57.6549C92.6638 57.4662 93.1158 57.1779 93.4973 56.8075C94.1471 56.0813 94.5299 55.1515 94.5816 54.1739C94.6333 53.1964 94.3507 52.2306 93.7813 51.4386C93.5364 51.1205 93.2215 50.8643 92.8616 50.6904C92.5018 50.5165 92.1067 50.4297 91.7079 50.4368C90.7854 50.4368 89.9545 50.9089 89.2153 51.853C89.0305 52.0807 88.9088 52.1945 88.8457 52.1945C88.7916 52.1929 88.7394 52.1738 88.6969 52.1399C88.6518 52.1035 88.6293 52.0716 88.6293 52.0397C88.6293 51.6268 89.035 51.1138 89.8463 50.5005C90.5892 49.9139 91.5042 49.5935 92.4471 49.5898C92.9243 49.5776 93.399 49.663 93.8428 49.8406C94.2866 50.0182 94.6903 50.2845 95.0298 50.6235C95.3686 50.9581 95.6356 51.3597 95.8139 51.8031C95.9923 52.2466 96.0783 52.7224 96.0665 53.2009C96.0665 54.6703 95.3559 55.9879 93.9345 57.1536C92.5747 58.2926 90.8599 58.9088 89.0936 58.8932C88.3622 58.9174 87.6336 58.7915 86.9518 58.523C86.27 58.2546 85.6492 57.8491 85.127 57.3312C84.6099 56.8254 84.2025 56.2165 83.9309 55.543C83.6593 54.8696 83.5294 54.1464 83.5494 53.4195C83.5494 51.1244 85.3254 48.8733 88.8772 46.6662L89.5984 46.2109C90.384 45.7128 91.0371 45.028 91.5005 44.2163C91.9528 43.4537 92.1941 42.5825 92.1992 41.6935C92.2076 41.0158 92.0851 40.3429 91.8386 39.7126C91.6212 39.1402 91.2702 38.6294 90.8154 38.2235C89.6649 38.9319 88.6459 39.8381 87.8044 40.9011C86.3462 42.7778 85.0207 44.756 83.8379 46.8211C83.6621 47.1216 83.3872 47.5724 83.0356 48.1872C80.7038 52.0701 78.6844 54.7158 76.9776 56.1245ZM76.4412 55.7055C77.526 54.8524 79.009 52.8093 80.8901 49.5761C81.6924 48.2069 82.3234 47.1444 82.7832 46.3885C83.9509 44.4258 85.2921 42.574 86.7903 40.8556C87.8466 39.6915 89.077 38.7019 90.4368 37.9229C89.826 37.4052 89.113 37.0248 88.3453 36.8073C87.4041 36.5399 86.4292 36.4126 85.4516 36.4293C83.9067 36.4242 82.3726 36.6892 80.9171 37.2126C79.4961 37.7177 78.1779 38.4799 77.0272 39.4621C75.7077 40.5945 74.6336 41.9898 73.872 43.5605C73.136 45.0323 72.7487 46.6567 72.7407 48.3056C72.7145 49.777 73.0359 51.2335 73.6782 52.5543C74.3284 53.8185 75.2775 54.901 76.4412 55.7055ZM76.288 56.6163C75.8788 56.8802 75.456 57.1219 75.0214 57.3403C74.6249 57.536 74.2134 57.699 73.7909 57.8276C74.4862 57.9874 75.1907 58.1029 75.9004 58.1737C76.7392 58.2574 77.5816 58.2984 78.4245 58.2966C78.6634 58.2966 78.9519 58.2966 79.2944 58.2648C79.637 58.2329 80.0968 58.201 80.6467 58.1418C79.872 57.9817 79.1086 57.7703 78.3614 57.5088C77.6503 57.2574 76.9575 56.9561 76.288 56.6072V56.6163Z" fill="#5F6EC9"/>
<path d="M106.055 51.9214L107.349 50.0088L109.426 49.8858L105.96 55.3914C105.602 55.93 105.278 56.4912 104.991 57.0717C104.871 57.3255 104.804 57.6013 104.793 57.8823C104.786 57.943 104.791 58.0046 104.808 58.0632C104.825 58.1219 104.854 58.1765 104.892 58.2238C105.001 58.3003 105.134 58.3343 105.266 58.3195C105.752 58.2201 106.2 57.985 106.56 57.6409C107.31 57.0384 108.015 56.3809 108.669 55.6737C108.917 55.4232 109.201 55.1181 109.526 54.7629C109.85 54.4077 110.049 54.221 110.121 54.221C110.168 54.2167 110.215 54.2279 110.256 54.2529C110.272 54.2621 110.285 54.2754 110.293 54.2914C110.302 54.3075 110.306 54.3257 110.305 54.344C110.241 54.5738 110.118 54.7827 109.949 54.9496C109.715 55.2411 109.35 55.6373 108.859 56.1336C108.111 56.9594 107.289 57.7125 106.402 58.3832C105.966 58.6971 105.449 58.8773 104.915 58.9023C104.734 58.9137 104.553 58.8831 104.386 58.8128C104.218 58.7426 104.069 58.6346 103.95 58.497C103.709 58.1541 103.593 57.7374 103.621 57.3176C103.621 57.1653 103.632 57.0132 103.652 56.8622C103.652 56.6892 103.711 56.4387 103.774 56.1063C103.183 56.9037 102.48 57.6094 101.687 58.2011C101.143 58.6247 100.485 58.8709 99.7986 58.9069C99.5187 58.9047 99.245 58.8222 99.0096 58.669C98.7743 58.5159 98.5868 58.2983 98.469 58.0417C98.108 57.3012 97.9404 56.4798 97.9822 55.6555C97.9822 55.4055 98.0003 55.1559 98.0362 54.9087C98.0719 54.6616 98.1216 54.4168 98.185 54.1755C98.0857 54.3418 97.9661 54.4948 97.8289 54.6309C97.7557 54.7215 97.6508 54.7802 97.5359 54.7948C97.4856 54.8012 97.4347 54.79 97.3917 54.7629C97.378 54.7524 97.3671 54.7385 97.36 54.7226C97.3529 54.7067 97.3498 54.6893 97.3511 54.6719C97.4401 54.4432 97.577 54.2366 97.7523 54.0662C98.0182 53.7429 98.3788 53.3467 98.8295 52.8822C99.7029 51.9723 100.702 51.1946 101.795 50.5734C102.616 50.078 103.545 49.7963 104.5 49.7538C104.939 49.7317 105.369 49.8762 105.708 50.159C105.857 50.2934 105.975 50.4595 106.053 50.6453C106.131 50.8311 106.167 51.0321 106.159 51.2337C106.159 51.3423 106.148 51.4506 106.127 51.5571C106.112 51.6801 106.088 51.8018 106.055 51.9214ZM99.2938 57.3358C99.2796 57.5919 99.3511 57.8453 99.4967 58.0553C99.5607 58.146 99.6463 58.2189 99.7455 58.2675C99.8448 58.316 99.9545 58.3386 100.065 58.3331C100.538 58.2844 100.988 58.1013 101.363 57.8049C101.961 57.3779 102.507 56.8811 102.99 56.3249C103.762 55.4931 104.427 54.5659 104.969 53.5653C105.379 52.8559 105.619 52.0587 105.667 51.2383C105.67 51.1054 105.645 50.9734 105.594 50.851C105.543 50.7285 105.466 50.6184 105.37 50.5279C105.172 50.3383 104.908 50.2353 104.635 50.241C104.019 50.281 103.431 50.5187 102.958 50.9195C102.266 51.4583 101.658 52.1001 101.155 52.823C100.613 53.5879 100.16 54.4129 99.8032 55.2821C99.5149 55.9302 99.3468 56.6264 99.3073 57.3358H99.2938Z" fill="#5F6EC9"/>
<path d="M110.432 58.7885L114.556 52.5816L114.682 52.3767C115.264 51.5069 115.557 50.9377 115.557 50.6645C115.565 50.5494 115.529 50.4354 115.457 50.3457C115.365 50.2697 115.247 50.2337 115.128 50.2455C114.631 50.3174 114.168 50.547 113.808 50.9013C112.967 51.6307 112.174 52.4141 111.432 53.2465C111.216 53.4772 110.959 53.7732 110.662 54.1345C110.301 54.5899 110.067 54.8039 109.954 54.8039C109.915 54.8046 109.877 54.7917 109.846 54.7675C109.832 54.7576 109.82 54.7447 109.811 54.7297C109.803 54.7148 109.798 54.6981 109.796 54.6809C109.814 54.5554 109.865 54.4372 109.945 54.3394C110.125 54.0895 110.317 53.8493 110.522 53.6199L111.522 52.5179C112.225 51.7127 112.996 50.9707 113.826 50.3002C114.23 49.9649 114.728 49.7659 115.25 49.731C115.421 49.724 115.591 49.7569 115.748 49.8272C115.904 49.8975 116.042 50.0032 116.152 50.1362C116.387 50.4542 116.504 50.8463 116.481 51.2428C116.471 51.7695 116.371 52.2904 116.183 52.782C115.925 53.4456 115.601 54.0817 115.219 54.6809C116.24 53.3163 117.368 52.0357 118.59 50.8512C119.425 50.1044 120.129 49.731 120.7 49.731C120.868 49.7266 121.036 49.7584 121.191 49.8244C121.346 49.8903 121.486 49.9888 121.601 50.1135C121.838 50.3737 121.965 50.7165 121.957 51.0698C121.953 51.6479 121.845 52.2205 121.637 52.7592C121.378 53.4176 121.041 54.0415 120.632 54.6172C121.778 53.2499 123.004 51.9542 124.306 50.7373C125.076 50.0679 125.707 49.731 126.19 49.731C126.359 49.728 126.527 49.7681 126.678 49.8477C126.828 49.9273 126.956 50.0437 127.051 50.1863C127.28 50.5174 127.394 50.9164 127.375 51.3202C127.375 52.1217 126.852 53.2374 125.806 54.6673C125.64 54.9041 125.514 55.0862 125.419 55.2137C125.003 55.7727 124.62 56.3567 124.274 56.9624C124.104 57.238 124.001 57.5499 123.972 57.8731C123.961 58.0259 124.004 58.1776 124.094 58.3012C124.143 58.3538 124.204 58.3946 124.271 58.4206C124.338 58.4466 124.41 58.4572 124.481 58.4515C124.963 58.3423 125.405 58.0994 125.757 57.7502C126.509 57.1238 127.22 56.4484 127.884 55.7283C128.132 55.4778 128.412 55.1682 128.732 54.8175C129.052 54.4669 129.282 54.2347 129.363 54.2347C129.414 54.2351 129.464 54.2545 129.503 54.2893C129.519 54.3008 129.532 54.3157 129.543 54.333C129.553 54.3503 129.559 54.3695 129.561 54.3895C129.561 54.5534 129.11 55.1075 128.209 56.0516L128.024 56.2383C127.347 56.966 126.616 57.6404 125.838 58.2557C125.46 58.6027 124.99 58.8319 124.486 58.916C124.265 58.9173 124.048 58.8605 123.856 58.751C123.664 58.6416 123.504 58.4834 123.391 58.2921C123.094 57.8027 122.95 57.2349 122.976 56.6618C122.986 56.1309 123.116 55.6094 123.354 55.1363C123.822 54.2851 124.371 53.4827 124.995 52.741C125.108 52.5953 125.266 52.3995 125.473 52.149C126.077 51.3931 126.374 50.8876 126.374 50.6417C126.381 50.536 126.351 50.4313 126.289 50.3457C126.216 50.28 126.12 50.2457 126.023 50.2501C125.572 50.2501 124.644 50.9924 123.242 52.4769C121.84 53.9614 120.15 55.9924 118.166 58.5744L115.967 58.793L120.06 52.5862C120.355 52.1635 120.626 51.7241 120.871 51.2701C120.974 51.0762 121.034 50.8617 121.047 50.6417C121.053 50.5866 121.048 50.5307 121.031 50.478C121.014 50.4253 120.985 50.377 120.947 50.3366C120.845 50.2685 120.723 50.238 120.6 50.2501C119.78 50.2501 117.45 52.6408 113.609 57.4223L112.685 58.5517L110.432 58.7885Z" fill="#5F6EC9"/>
<path d="M136.3 55.8422C136.347 55.8492 136.394 55.8599 136.439 55.874C136.56 55.9104 136.684 55.9319 136.809 55.9378C137.271 55.924 137.723 55.7958 138.125 55.5644C138.613 55.2974 139.054 54.9495 139.428 54.5352L139.825 54.0798C139.858 54.0492 139.898 54.0273 139.942 54.0161C139.987 53.996 140.036 53.9852 140.086 53.9842C140.104 53.9826 140.123 53.986 140.139 53.994C140.156 54.002 140.17 54.0143 140.181 54.0297C140.205 54.0724 140.216 54.1217 140.212 54.1709C140.216 54.2073 140.216 54.2439 140.212 54.2802C140.209 54.2973 140.201 54.3132 140.19 54.3257L139.834 54.7447C139.431 55.2545 138.925 55.672 138.351 55.9697C137.813 56.2474 137.219 56.394 136.615 56.3977C136.444 56.3977 136.3 56.3977 136.192 56.3977C136.083 56.3977 135.989 56.3977 135.908 56.3658C135.261 57.0978 134.518 57.7368 133.699 58.2648C133.116 58.6645 132.437 58.896 131.734 58.9342C131.421 58.9449 131.112 58.8712 130.837 58.7208C130.562 58.5703 130.331 58.3484 130.17 58.0781C129.763 57.3265 129.573 56.4742 129.624 55.619C129.627 55.4006 129.648 55.1827 129.687 54.9678C129.734 54.6945 129.796 54.4239 129.872 54.1573C129.743 54.3318 129.602 54.4962 129.448 54.6491C129.378 54.7281 129.282 54.7796 129.178 54.7948C129.14 54.8057 129.099 54.8057 129.061 54.7948C129.047 54.7823 129.037 54.7667 129.03 54.7492C129.024 54.7318 129.022 54.713 129.025 54.6946C129.074 54.5433 129.155 54.4049 129.264 54.2893C129.423 54.0859 129.774 53.6761 130.318 53.0598C131.156 52.1113 132.126 51.292 133.199 50.6281C133.983 50.0763 134.9 49.749 135.853 49.6809C136.146 49.6666 136.439 49.7148 136.712 49.8223C136.986 49.9298 137.234 50.0942 137.44 50.3047C137.846 50.7654 138.057 51.369 138.026 51.9851C138.012 52.5891 137.872 53.1834 137.616 53.7292C137.257 54.4813 136.816 55.19 136.3 55.8422ZM131.004 57.2447C130.978 57.5499 131.063 57.8539 131.242 58.1008C131.336 58.1994 131.45 58.2756 131.576 58.3237C131.703 58.3718 131.838 58.3905 131.973 58.3786C132.461 58.3295 132.928 58.1504 133.325 57.8595C133.921 57.4759 134.467 57.0168 134.948 56.4934C135.607 55.7906 136.157 54.9906 136.579 54.1208C136.947 53.4171 137.153 52.639 137.183 51.8439C137.205 51.4283 137.094 51.0167 136.868 50.669C136.764 50.5276 136.628 50.4144 136.471 50.3396C136.313 50.2649 136.14 50.231 135.966 50.241C135.405 50.2765 134.872 50.5046 134.456 50.8876C133.802 51.4511 133.227 52.1023 132.748 52.823C132.227 53.5639 131.793 54.3631 131.454 55.2046C131.182 55.8511 131.029 56.5426 131.004 57.2447Z" fill="#5F6EC9"/>
<path d="M143.584 50.5234C142.772 51.3522 141.938 52.2706 141.082 53.2785C140.226 54.2864 139.736 54.7888 139.613 54.7858C139.573 54.7865 139.535 54.7736 139.504 54.7493C139.49 54.7394 139.479 54.7266 139.47 54.7116C139.462 54.6967 139.456 54.68 139.455 54.6628C139.455 54.4928 140.281 53.4971 141.934 51.6755L143.552 49.9178C143.69 49.5477 143.895 49.2065 144.156 48.9114C144.242 48.8108 144.348 48.7293 144.466 48.6721C144.585 48.6149 144.714 48.5832 144.846 48.579C145.01 48.5701 145.171 48.6255 145.296 48.7338C145.353 48.794 145.397 48.8657 145.425 48.9441C145.453 49.0225 145.465 49.106 145.459 49.1892C145.462 49.356 145.404 49.5183 145.296 49.6445C145.158 49.7967 144.987 49.915 144.796 49.9906C144.727 50.021 144.656 50.0469 144.584 50.068C144.201 50.2138 144.012 50.5735 144.012 51.1427C144.046 51.7795 144.145 52.4112 144.305 53.028C144.466 53.6477 144.564 54.2825 144.598 54.9224C144.598 55.2418 144.568 55.5606 144.508 55.8741C144.437 56.1957 144.333 56.5086 144.197 56.8077C144.679 56.3204 145.197 55.7694 145.743 55.1501C146.288 54.5308 146.608 54.2393 146.694 54.2393C146.741 54.2377 146.788 54.254 146.824 54.2849C146.841 54.2978 146.854 54.3144 146.864 54.3333C146.873 54.3522 146.878 54.373 146.879 54.3941C146.83 54.5774 146.733 54.7441 146.599 54.8769C146.414 55.1045 146.094 55.4552 145.644 55.9333C144.856 56.8226 143.961 57.6089 142.98 58.274C142.345 58.6845 141.61 58.9084 140.857 58.9206C140.303 58.9482 139.755 58.7879 139.302 58.4652C139.115 58.3289 138.964 58.1485 138.862 57.9398C138.76 57.7311 138.709 57.5003 138.716 57.2676C138.715 57.1347 138.74 57.0029 138.79 56.8801C138.841 56.7573 138.915 56.6459 139.009 56.5526C139.093 56.4547 139.196 56.376 139.313 56.3218C139.43 56.2676 139.556 56.2392 139.685 56.2384C139.852 56.2398 140.013 56.3048 140.135 56.4206C140.197 56.4731 140.246 56.5386 140.28 56.6127C140.313 56.6867 140.33 56.7673 140.329 56.8486C140.316 57.0477 140.266 57.2425 140.181 57.4224C140.075 57.6195 140.01 57.8365 139.991 58.06C139.99 58.1096 140.001 58.1587 140.024 58.2026C140.047 58.2465 140.081 58.2837 140.122 58.3104C140.224 58.3769 140.344 58.4088 140.464 58.4015C141.186 58.4015 141.898 57.7412 142.601 56.4206C143.332 54.9747 143.695 53.3672 143.656 51.7438C143.656 51.6209 143.656 51.4706 143.656 51.2885C143.656 51.1063 143.606 50.8558 143.584 50.5234Z" fill="#5F6EC9"/>
<path d="M160.108 43.8657C160.147 43.9081 160.18 43.9556 160.207 44.0069C160.239 44.0706 160.284 44.1571 160.338 44.271V48.1599C160.339 48.2378 160.32 48.3146 160.284 48.3831C160.269 48.4095 160.249 48.4325 160.225 48.4506C160.201 48.4686 160.173 48.4813 160.144 48.4878L159.797 48.5925V48.8749H161.248V48.5971L160.928 48.4878C160.825 48.4559 160.802 48.4058 160.798 48.3922C160.769 48.3183 160.755 48.2393 160.757 48.1599V44.8675L163.624 48.8521L163.66 48.8976H164.282V44.0023C164.28 43.9162 164.29 43.8303 164.313 43.7473C164.313 43.7473 164.313 43.6881 164.413 43.6562L164.71 43.556V43.2783H163.331V43.5606L163.682 43.6608C163.711 43.6644 163.739 43.6755 163.763 43.693C163.787 43.7105 163.805 43.7339 163.818 43.761C163.848 43.841 163.863 43.9259 163.863 44.0114V46.7437L161.393 43.3056L161.361 43.26H159.765V43.5059L159.937 43.679C159.997 43.7377 160.055 43.8 160.108 43.8657Z" fill="white"/>
<path d="M170.867 43.8657C170.623 43.623 170.334 43.4325 170.015 43.3056C169.383 43.0566 168.682 43.0566 168.05 43.3056C167.72 43.4381 167.421 43.6379 167.171 43.8926C166.922 44.1472 166.727 44.4512 166.599 44.7855C166.31 45.6106 166.31 46.5106 166.599 47.3357C166.732 47.6769 166.933 47.9869 167.189 48.2464C167.434 48.4887 167.725 48.6778 168.045 48.802C168.36 48.9259 168.695 48.9893 169.033 48.9887C169.371 48.9887 169.706 48.9238 170.02 48.7974C170.35 48.6665 170.649 48.4666 170.898 48.2108C171.146 47.955 171.339 47.649 171.462 47.3129C171.75 46.4878 171.75 45.5879 171.462 44.7628C171.326 44.4258 171.124 44.1205 170.867 43.8657ZM167.915 46.0743C167.904 45.545 167.943 45.0159 168.032 44.4941C168.078 44.2182 168.205 43.9628 168.397 43.7609C168.575 43.6126 168.802 43.5363 169.033 43.5469C169.265 43.5319 169.495 43.6086 169.673 43.7609C169.868 43.9685 169.995 44.2329 170.033 44.5169C170.196 45.5624 170.196 46.6271 170.033 47.6727C169.993 47.9576 169.867 48.2232 169.673 48.4331C169.492 48.5802 169.264 48.6548 169.033 48.6426C168.803 48.6524 168.577 48.578 168.397 48.4331C168.201 48.2233 168.074 47.9579 168.032 47.6727C167.942 47.1449 167.903 46.6096 167.915 46.0743Z" fill="white"/>
<path d="M174.766 48.4833L174.352 48.588V48.8749H177.115V48.588L176.691 48.4833C176.656 48.4805 176.622 48.4706 176.591 48.4543C176.56 48.4381 176.533 48.4157 176.511 48.3885C176.488 48.3613 176.472 48.3299 176.462 48.2962C176.452 48.2624 176.448 48.2269 176.452 48.1919V43.6699H177.024C177.086 43.6633 177.148 43.6704 177.207 43.6909C177.265 43.7113 177.318 43.7446 177.362 43.7883C177.462 43.9163 177.547 44.0553 177.615 44.2027L177.935 44.8357H178.201L178.165 43.2783H173.297L173.252 44.8357H173.536L173.856 44.2027C173.931 44.0574 174.018 43.9187 174.117 43.7883C174.161 43.7446 174.215 43.7113 174.273 43.6909C174.331 43.6704 174.394 43.6633 174.455 43.6699H175.028V48.1919C175.031 48.2288 175.027 48.2661 175.016 48.3013C175.005 48.3366 174.986 48.3691 174.961 48.3966C174.937 48.4241 174.907 48.446 174.873 48.4609C174.839 48.4759 174.803 48.4835 174.766 48.4833Z" fill="white"/>
<path d="M184.119 48.4104C184.064 48.3417 184.023 48.2628 183.997 48.1781L182.361 43.3375L182.339 43.26H181.491L179.805 48.1463C179.781 48.2285 179.739 48.3045 179.684 48.3694C179.626 48.4256 179.556 48.469 179.481 48.4969L179.201 48.5971V48.8749H180.554V48.6016L180.306 48.4969C180.238 48.4696 180.193 48.4377 180.189 48.4149C180.18 48.3376 180.19 48.2592 180.22 48.1872L180.581 47.1171H182.203L182.555 48.2055C182.575 48.2754 182.575 48.3496 182.555 48.4195C182.555 48.465 182.496 48.5015 182.424 48.5288L182.226 48.5971V48.8749H184.48V48.5971L184.308 48.5379C184.236 48.5105 184.172 48.4669 184.119 48.4104ZM180.702 46.7255L181.406 44.6717L182.064 46.7255H180.702Z" fill="white"/>
<path d="M188.41 48.5971L188.135 48.4969C188.08 48.4854 188.032 48.4528 188 48.4058C187.973 48.3426 187.961 48.2741 187.964 48.2055V46.3156H188.329L189.519 48.8749H191.146V48.6062L190.97 48.5379C190.893 48.5089 190.821 48.4656 190.758 48.4104C190.7 48.3561 190.653 48.2912 190.619 48.2191L189.555 46.0925C189.858 45.9854 190.125 45.7945 190.326 45.5415C190.504 45.3193 190.606 45.0442 190.614 44.7582C190.62 44.543 190.573 44.3297 190.476 44.1379C190.379 43.9462 190.236 43.7821 190.06 43.6608C189.603 43.3791 189.071 43.2457 188.536 43.2783H186.12V43.5515L186.382 43.6562C186.434 43.671 186.48 43.703 186.513 43.7473C186.54 43.8119 186.552 43.882 186.549 43.9522V48.2055C186.551 48.2786 186.539 48.3515 186.513 48.4195C186.476 48.4655 186.425 48.4976 186.368 48.5106L186.12 48.5971V48.8749H188.41V48.5971ZM187.959 43.6699H188.275C188.407 43.6546 188.541 43.6705 188.666 43.7163C188.791 43.7621 188.904 43.8366 188.996 43.934C189.16 44.1873 189.236 44.4884 189.212 44.7901C189.235 45.0951 189.154 45.3988 188.983 45.6508C188.885 45.7481 188.767 45.8227 188.638 45.8691C188.509 45.9155 188.371 45.9327 188.234 45.9195H187.959V43.6699Z" fill="white"/>
<path d="M195.085 48.6016L194.851 48.506C194.789 48.4882 194.735 48.4496 194.698 48.3967C194.667 48.3365 194.653 48.2687 194.657 48.2009V43.9522C194.664 43.8845 194.685 43.8191 194.72 43.7609C194.759 43.7091 194.815 43.6734 194.878 43.6608L195.108 43.5651V43.2919H192.814V43.5651L193.053 43.6608C193.161 43.6972 193.192 43.7382 193.201 43.7609C193.228 43.8258 193.24 43.8957 193.237 43.9659V48.2146C193.24 48.2847 193.227 48.3545 193.201 48.4195C193.162 48.4701 193.106 48.5055 193.044 48.5197L192.814 48.6153V48.8885H195.108L195.085 48.6016Z" fill="white"/>
<path d="M201.829 48.5379C201.751 48.5134 201.682 48.4696 201.626 48.4104C201.571 48.3417 201.529 48.2628 201.504 48.1781L199.868 43.3375L199.841 43.26H198.998L197.312 48.1463C197.288 48.2285 197.246 48.3045 197.191 48.3694C197.131 48.4266 197.061 48.4701 196.983 48.4969L196.708 48.5971V48.8749H198.06V48.6016L197.813 48.4969C197.74 48.4696 197.695 48.4377 197.695 48.4149C197.686 48.3376 197.697 48.2592 197.727 48.1872L198.088 47.1171H199.679L200.035 48.2055C200.055 48.2754 200.055 48.3496 200.035 48.4195C200.023 48.4465 200.004 48.4704 199.982 48.4894C199.959 48.5083 199.933 48.5218 199.904 48.5288L199.706 48.5971V48.8749H201.959V48.5971L201.829 48.5379ZM198.223 46.7164L198.912 44.6717L199.57 46.7255L198.223 46.7164Z" fill="white"/>
<path d="M163.525 53.6109C163.051 53.3779 162.528 53.2638 162.001 53.2784H159.748V53.5517L159.991 53.6473C160.077 53.6746 160.176 53.7384 160.176 53.9524V58.1965C160.183 58.2615 160.169 58.3272 160.136 58.3832C160.102 58.4392 160.051 58.4825 159.991 58.5062L159.748 58.5973V58.8751H161.839C162.382 58.8853 162.921 58.7733 163.417 58.5472C163.854 58.3371 164.221 58.0013 164.471 57.5818C164.736 57.122 164.869 56.597 164.854 56.0654C164.868 55.5465 164.747 55.033 164.503 54.5763C164.278 54.1644 163.938 53.8286 163.525 53.6109ZM161.627 53.6701H161.889C162.186 53.6555 162.481 53.73 162.736 53.8841C162.963 54.063 163.122 54.3155 163.187 54.599C163.397 55.5712 163.397 56.5778 163.187 57.5499C163.117 57.8381 162.949 58.0925 162.713 58.2694C162.448 58.4222 162.144 58.4949 161.839 58.4789H161.609L161.627 53.6701Z" fill="white"/>
<path d="M170.056 58.233C170.033 58.306 169.995 58.373 169.943 58.4288C169.894 58.4668 169.833 58.4847 169.772 58.4789H168.257V56.202H169.028C169.056 56.1981 169.085 56.2005 169.113 56.2092C169.14 56.2179 169.165 56.2325 169.186 56.2521C169.24 56.312 169.286 56.3794 169.321 56.4525L169.51 56.8578H169.776V55.1455H169.479L169.285 55.5417C169.253 55.6131 169.211 55.6792 169.159 55.7375C169.136 55.7566 169.109 55.7709 169.08 55.7795C169.052 55.7881 169.022 55.7908 168.992 55.7876H168.244V53.6701H169.596C169.624 53.6673 169.653 53.6703 169.68 53.679C169.707 53.6876 169.732 53.7016 169.754 53.7202C169.809 53.7827 169.855 53.8534 169.889 53.9297L170.263 54.7585H170.538L170.48 53.2785H166.423V53.5517L166.684 53.6564C166.756 53.6564 166.801 53.7111 166.815 53.7475C166.844 53.8117 166.856 53.8821 166.851 53.9524V58.1966C166.855 58.2658 166.841 58.3348 166.81 58.3969C166.781 58.4457 166.734 58.4815 166.68 58.4971L166.423 58.5973V58.8751H170.664L170.723 57.3906H170.448L170.056 58.233Z" fill="white"/>
<path d="M179.44 57.978C179.378 58.1205 179.294 58.2526 179.192 58.3696C179.091 58.4521 178.961 58.4913 178.832 58.4789H177.709V53.9615C177.706 53.8895 177.72 53.8177 177.75 53.7521C177.789 53.6993 177.845 53.661 177.908 53.6428L178.12 53.5471V53.2785H175.839V53.5517L176.082 53.6473C176.159 53.6747 176.213 53.7065 176.227 53.743C176.256 53.8086 176.27 53.8803 176.267 53.9524V58.1966C176.272 58.2669 176.26 58.3373 176.231 58.4015C176.231 58.4015 176.195 58.4607 176.082 58.5062L175.839 58.5973V58.8751H179.972L180.058 57.2312H179.783L179.44 57.978Z" fill="white"/>
<path d="M181.721 53.5517L181.96 53.6473C182.021 53.6599 182.075 53.6937 182.113 53.743C182.139 53.8096 182.152 53.8809 182.149 53.9524V58.1966C182.154 58.2673 182.14 58.3379 182.109 58.4015C182.109 58.4425 182.037 58.4744 181.956 58.5062L181.721 58.6019V58.8751H184.02V58.6019L183.786 58.5062C183.724 58.4884 183.67 58.4499 183.632 58.3969C183.602 58.3348 183.588 58.2658 183.592 58.1966V53.9524C183.589 53.8819 183.603 53.8117 183.632 53.7475C183.67 53.6966 183.724 53.661 183.786 53.6473L184.02 53.5517V53.2785H181.721V53.5517Z" fill="white"/>
<path d="M188.892 56.9989L187.513 53.3558L187.486 53.283H185.737V53.5516L186.017 53.6791C186.089 53.711 186.134 53.7474 186.143 53.7793C186.168 53.8494 186.178 53.9237 186.175 53.9979V58.1601C186.175 58.4196 186.062 58.4879 185.976 58.5153L185.737 58.6018V58.8796H187.031V58.5972L186.774 58.5153C186.745 58.5093 186.718 58.4973 186.694 58.4801C186.67 58.4628 186.649 58.4407 186.634 58.4151C186.604 58.3401 186.59 58.2593 186.594 58.1783V56.1291V54.7629L188.122 58.8158L188.153 58.8932H188.712L190.195 54.7311V58.2147C190.199 58.2845 190.188 58.3544 190.164 58.4196C190.164 58.4196 190.128 58.4743 190.028 58.5153L189.789 58.62V58.8932H192.016V58.62L191.786 58.5153C191.732 58.4987 191.685 58.4652 191.651 58.4196C191.629 58.3537 191.62 58.2841 191.624 58.2147V53.9615C191.622 53.8909 191.635 53.8208 191.665 53.7566C191.699 53.7031 191.752 53.6643 191.813 53.6473L192.016 53.5698V53.2966H190.213L188.892 56.9989Z" fill="white"/>
<path d="M198.534 58.4106C198.48 58.3408 198.439 58.2622 198.412 58.1783L196.78 53.324L196.753 53.2466H195.906L194.22 58.1328C194.197 58.2141 194.155 58.2889 194.098 58.3514C194.041 58.4091 193.972 58.4541 193.896 58.4834L193.621 58.5836V58.8614H194.973V58.5882L194.72 58.4834C194.639 58.4516 194.608 58.4197 194.603 58.3969C194.593 58.321 194.604 58.2438 194.635 58.1738L194.995 57.1036H196.618L196.97 58.192C196.991 58.2617 196.991 58.3364 196.97 58.406C196.956 58.4332 196.938 58.4571 196.914 58.476C196.891 58.4949 196.864 58.5083 196.834 58.5153L196.636 58.5791V58.8614H198.89V58.5836L198.723 58.5244C198.652 58.5013 198.588 58.4624 198.534 58.4106ZM195.117 56.7257L195.82 54.6719L196.483 56.7257H195.117Z" fill="white"/>
<path d="M153.703 43.4012H152.792V58.8113H153.703V43.4012Z" fill="white"/>
<path d="M27.2383 12.4081V55.6009C36.7039 55.6009 44.3665 48.0689 44.3665 38.7882V12.4081H27.2383Z" fill="#5F6EC9"/>
<path d="M40.2559 31.9985H38.5972V32.6543H40.2559V31.9985Z" fill="white"/>
<path d="M41.0626 28.8655H39.8501V29.5212H41.0626V28.8655Z" fill="white"/>
<path d="M41.0581 27.8227H39.0793V28.4784H41.0581V27.8227Z" fill="white"/>
<path d="M41.0536 30.9511H39.0613V31.6069H41.0536V30.9511Z" fill="white"/>
<path d="M41.6937 24.6896H41.0447V25.3454H41.6937V24.6896Z" fill="white"/>
<path d="M40.382 24.6896H39.7329V25.3454H40.382V24.6896Z" fill="white"/>
<path d="M39.0749 24.6896H38.4258V25.3454H39.0749V24.6896Z" fill="white"/>
<path d="M41.0536 25.7325H40.4045V26.3882H41.0536V25.7325Z" fill="white"/>
<path d="M39.7103 25.7325H39.0613V26.3882H39.7103V25.7325Z" fill="white"/>
<path d="M41.0536 29.9083H40.4045V30.564H41.0536V29.9083Z" fill="white"/>
<path d="M39.7103 29.9083H39.0613V30.564H39.7103V29.9083Z" fill="white"/>
<path d="M40.5173 26.7753H39.5933V27.431H40.5173V26.7753Z" fill="white"/>
<path d="M40.2424 35.1316H38.5972V35.7873H40.2424V35.1316Z" fill="white"/>
<path d="M40.2424 36.1744H38.5972V36.8301H40.2424V36.1744Z" fill="white"/>
<path d="M40.2424 37.2172H38.5972V37.8729H40.2424V37.2172Z" fill="white"/>
<path d="M41.8154 41.3975H39.6023V42.0533H41.8154V41.3975Z" fill="white"/>
<path d="M41.8154 43.4832H39.6023V44.1389H41.8154V43.4832Z" fill="white"/>
<path d="M41.8153 42.4403H41.1663V43.0961H41.8153V42.4403Z" fill="white"/>
<path d="M37.5694 22.8181H33.968V24.0703H37.5694V22.8181Z" fill="white"/>
<path d="M33.0079 31.9985H31.3491V32.6543H33.0079V31.9985Z" fill="white"/>
<path d="M35.4192 31.9985H33.9858V32.6543H35.4192V31.9985Z" fill="white"/>
<path d="M35.4239 33.0413H31.3672V33.6971H35.4239V33.0413Z" fill="white"/>
<path d="M35.4239 34.0841H31.3672V34.7399H35.4239V34.0841Z" fill="white"/>
<path d="M33.0078 35.1316H31.3625V35.7873H33.0078V35.1316Z" fill="white"/>
<path d="M33.0078 36.1744H31.3625V36.8301H33.0078V36.1744Z" fill="white"/>
<path d="M33.0078 37.2172H31.3625V37.8729H33.0078V37.2172Z" fill="white"/>
<path d="M35.4194 35.1316H33.7742V35.7873H35.4194V35.1316Z" fill="white"/>
<path d="M35.4194 36.1744H33.7742V36.8301H35.4194V36.1744Z" fill="white"/>
<path d="M35.4194 37.2172H33.7742V37.8729H35.4194V37.2172Z" fill="white"/>
<path d="M35.4194 39.3074H31.3672V39.9632H35.4194V39.3074Z" fill="white"/>
<path d="M35.4194 38.2645H31.3672V38.9202H35.4194V38.2645Z" fill="white"/>
<path d="M33.3099 40.3502H31.3672V41.006H33.3099V40.3502Z" fill="white"/>
<path d="M35.4194 28.8655H33.7742V29.5212H35.4194V28.8655Z" fill="white"/>
<path d="M35.4192 27.8227H33.9858V28.4784H35.4192V27.8227Z" fill="white"/>
<path d="M32.521 27.8227H30.5422V28.4784H32.521V27.8227Z" fill="white"/>
<path d="M32.5392 30.9511H30.5469V31.6069H32.5392V30.9511Z" fill="white"/>
<path d="M35.4194 30.9511H33.3054V31.6069H35.4194V30.9511Z" fill="white"/>
<path d="M30.5602 24.6896H29.9111V25.3454H30.5602V24.6896Z" fill="white"/>
<path d="M31.872 24.6896H31.2229V25.3454H31.872V24.6896Z" fill="white"/>
<path d="M33.1791 24.6896H32.53V25.3454H33.1791V24.6896Z" fill="white"/>
<path d="M35.4194 24.6896H34.4954V25.3454H35.4194V24.6896Z" fill="white"/>
<path d="M31.2003 25.7325H30.5513V26.3882H31.2003V25.7325Z" fill="white"/>
<path d="M32.539 25.7325H31.8899V26.3882H32.539V25.7325Z" fill="white"/>
<path d="M35.4193 29.9083H33.5442V30.564H35.4193V29.9083Z" fill="white"/>
<path d="M31.2003 29.9083H30.5513V30.564H31.2003V29.9083Z" fill="white"/>
<path d="M32.539 29.9083H31.8899V30.564H32.539V29.9083Z" fill="white"/>
<path d="M35.4194 25.7325H34.4954V26.3882H35.4194V25.7325Z" fill="white"/>
<path d="M35.4194 26.7753H34.4954V27.431H35.4194V26.7753Z" fill="white"/>
<path d="M32.0073 26.7753H31.0833V27.431H32.0073V26.7753Z" fill="white"/>
<path d="M32.0027 41.3975H29.7896V42.0533H32.0027V41.3975Z" fill="white"/>
<path d="M33.3144 41.3975H32.6653V42.0533H33.3144V41.3975Z" fill="white"/>
<path d="M32.0027 43.4832H29.7896V44.1389H32.0027V43.4832Z" fill="white"/>
<path d="M33.3144 43.4832H32.6653V44.1389H33.3144V43.4832Z" fill="white"/>
<path d="M33.3145 42.4403H31.1013V43.0961H33.3145V42.4403Z" fill="white"/>
<path d="M30.4386 42.4403H29.7896V43.0961H30.4386V42.4403Z" fill="white"/>
<path d="M33.3145 44.526H31.1013V45.1817H33.3145V44.526Z" fill="white"/>
<path d="M30.4386 44.526H29.7896V45.1817H30.4386V44.526Z" fill="white"/>
<path d="M37.6145 31.9985H36.1812V32.6543H37.6145V31.9985Z" fill="white"/>
<path d="M40.2378 33.0413H36.1812V33.6971H40.2378V33.0413Z" fill="white"/>
<path d="M40.2378 34.0841H36.1812V34.7399H40.2378V34.0841Z" fill="white"/>
<path d="M37.8308 35.1316H36.1855V35.7873H37.8308V35.1316Z" fill="white"/>
<path d="M37.8308 36.1744H36.1855V36.8301H37.8308V36.1744Z" fill="white"/>
<path d="M37.8308 37.2172H36.1855V37.8729H37.8308V37.2172Z" fill="white"/>
<path d="M40.2333 39.3074H36.1812V39.9632H40.2333V39.3074Z" fill="white"/>
<path d="M40.2333 38.2645H36.1812V38.9202H40.2333V38.2645Z" fill="white"/>
<path d="M40.2332 40.3502H38.2905V41.006H40.2332V40.3502Z" fill="white"/>
<path d="M37.8264 28.8655H36.1812V29.5212H37.8264V28.8655Z" fill="white"/>
<path d="M37.6145 27.8227H36.1812V28.4784H37.6145V27.8227Z" fill="white"/>
<path d="M38.2951 30.9511H36.1812V31.6069H38.2951V30.9511Z" fill="white"/>
<path d="M37.1052 24.6896H36.1812V25.3454H37.1052V24.6896Z" fill="white"/>
<path d="M38.0562 29.9083H36.1812V30.564H38.0562V29.9083Z" fill="white"/>
<path d="M37.1052 25.7325H36.1812V26.3882H37.1052V25.7325Z" fill="white"/>
<path d="M37.1052 26.7753H36.1812V27.431H37.1052V26.7753Z" fill="white"/>
<path d="M38.9352 41.3975H38.2861V42.0533H38.9352V41.3975Z" fill="white"/>
<path d="M38.9352 43.4832H38.2861V44.1389H38.9352V43.4832Z" fill="white"/>
<path d="M40.4993 42.4403H38.2861V43.0961H40.4993V42.4403Z" fill="white"/>
<path d="M40.4993 44.526H38.2861V45.1817H40.4993V44.526Z" fill="white"/>
<path d="M41.8153 44.526H41.1663V45.1817H41.8153V44.526Z" fill="white"/>
<path d="M31.7547 28.8655H30.5422V29.5212H31.7547V28.8655Z" fill="white"/>
<path d="M10.1326 12.4081V38.7837C10.1326 48.0597 17.7952 55.5872 27.2608 55.5963V12.4081H10.1326Z" fill="#E8E9E9"/>
<path d="M20.5312 22.859C20.3058 23.2234 20.1301 23.5148 19.9407 23.8108C19.9099 23.8808 19.8597 23.9403 19.7961 23.9821C19.7325 24.0238 19.6583 24.0461 19.5824 24.0461C19.5065 24.0461 19.4323 24.0238 19.3687 23.9821C19.3051 23.9403 19.2549 23.8808 19.2241 23.8108C19.0573 23.5057 18.895 23.196 18.6922 22.8317C18.5074 23.1824 18.3406 23.492 18.1783 23.7835C18.1539 23.8595 18.1073 23.9262 18.0446 23.975C17.9819 24.0237 17.9061 24.0522 17.8271 24.0566C17.7482 24.0611 17.6697 24.0413 17.6021 23.9998C17.5344 23.9584 17.4808 23.8973 17.4481 23.8245C17.2588 23.5285 17.083 23.237 16.8577 22.8864V24.9538H20.5312V22.859Z" fill="#021D49"/>
<path d="M22.9472 28.4921C22.8412 28.4786 22.7398 28.4409 22.6504 28.3819C22.561 28.3229 22.4862 28.2441 22.4314 28.1515C22.3767 28.0589 22.3435 27.9549 22.3345 27.8474C22.3255 27.74 22.3408 27.6318 22.3792 27.5312C22.4286 27.3871 22.521 27.262 22.6437 27.1731C22.7664 27.0842 22.9134 27.0359 23.0644 27.0349C23.6819 27.0121 24.9124 27.1897 25.7463 26.7662C25.6457 26.9981 25.4882 27.2001 25.2886 27.3532C25.089 27.5062 24.854 27.6051 24.6059 27.6405C24.6059 27.6405 25.4262 28.0959 25.3316 30.0313V37.1716L23.479 35.1588C23.688 35.5818 23.7813 36.0534 23.7495 36.525C23.7115 36.8019 23.6543 37.0758 23.5782 37.3447C23.4495 37.1189 23.2984 36.9068 23.1275 36.7117C22.8435 36.3884 22.3928 35.9284 21.9105 36.1197C21.7964 36.1682 21.7024 36.2551 21.6445 36.3656C21.3966 36.8483 21.8113 37.372 22.1448 37.6907C22.7443 38.2554 23.5692 38.474 24.2633 38.8929C24.5575 39.0668 24.8135 39.2992 25.0161 39.576C25.2141 39.8972 25.336 40.2604 25.3722 40.6371L24.34 40.0314C24.4211 40.7509 24.7141 41.434 23.9433 41.9076C23.9433 41.9076 23.8081 40.9968 23.3393 40.7418C23.3393 40.7418 23.2447 41.8028 21.8609 41.3429C22.0827 41.0909 22.2308 40.7817 22.2889 40.4496C22.347 40.1175 22.3128 39.7757 22.1899 39.4622C21.9949 39.1648 21.7301 38.9207 21.4192 38.7518L19.8641 37.6862C19.801 42.1945 22.5685 42.5405 22.5685 42.5405C22.4514 42.8456 22.1494 43.4194 21.7617 43.4741C21.3507 43.4942 20.9396 43.437 20.5492 43.3056C20.3284 43.9294 20.6304 44.3985 21 44.8812C20.4501 45.0497 20.0534 44.7173 19.6477 44.5078C19.5215 44.7309 19.3908 44.9404 19.2511 45.1772L18.6651 44.0114L18.0837 45.1772C17.9439 44.9404 17.8132 44.7218 17.687 44.5078C17.3039 44.7173 16.9072 45.0497 16.3573 44.8812C16.7314 44.3985 17.0334 43.9294 16.8081 43.3056C16.4182 43.4398 16.0071 43.5 15.5956 43.4832C15.2079 43.4285 14.9059 42.8547 14.7887 42.5496C14.7887 42.5496 17.5563 42.2036 17.4932 37.6953L15.9697 38.7518C15.6648 38.9199 15.4037 39.1587 15.2079 39.4485C15.0857 39.7625 15.0521 40.1045 15.111 40.4366C15.1699 40.7687 15.3189 41.0777 15.5415 41.3292C14.1577 41.7846 14.063 40.7281 14.063 40.7281C13.6123 40.9922 13.4591 41.8939 13.4591 41.8939C12.6883 41.4385 12.9768 40.7372 13.0624 40.0177L12.0122 40.6188C12.0483 40.2422 12.1702 39.879 12.3683 39.5578C12.5708 39.2809 12.8269 39.0486 13.121 38.8747C13.8151 38.4558 14.64 38.2372 15.2395 37.6725C15.573 37.3538 15.9877 36.8301 15.7353 36.3474C15.6804 36.2362 15.5875 36.1489 15.4739 36.1015C14.9916 35.9102 14.5408 36.3701 14.2569 36.6935C14.0859 36.8886 13.9349 37.1006 13.8061 37.3264C13.7301 37.0576 13.6728 36.7837 13.6348 36.5068C13.603 36.0352 13.6964 35.5636 13.9053 35.1406L12.0482 37.1534V30.013C11.9536 28.0777 12.7739 27.6223 12.7739 27.6223C12.5258 27.5869 12.2908 27.488 12.0912 27.3349C11.8916 27.1819 11.7341 26.9799 11.6335 26.748C12.4674 27.1715 13.6979 26.9939 14.338 27.0167C14.489 27.0177 14.6359 27.066 14.7586 27.1548C14.8813 27.2437 14.9737 27.3689 15.0231 27.513C15.0655 27.6169 15.0828 27.7295 15.0738 27.8415C15.0647 27.9535 15.0294 28.0617 14.9709 28.1573C14.9124 28.2528 14.8323 28.333 14.7372 28.3912C14.642 28.4494 14.5346 28.484 14.4236 28.4921C14.4657 28.7182 14.5385 28.9373 14.64 29.1433C14.8193 29.4602 15.0986 29.7071 15.4333 29.8446C16.1725 30.1588 17.5022 29.922 17.5292 28.9338C17.5283 28.7798 17.4781 28.6302 17.3862 28.5073C17.2943 28.3844 17.1655 28.2948 17.0191 28.2518C16.8727 28.2088 16.7165 28.2147 16.5737 28.2687C16.4309 28.3227 16.3091 28.4218 16.2266 28.5513C16.0488 28.433 15.9106 28.2631 15.8301 28.064C15.7497 27.8649 15.7308 27.6458 15.7759 27.4356C15.8998 27.0161 16.1427 26.6425 16.4745 26.3609C17.0939 25.838 17.8807 25.5611 18.6877 25.5822C19.4563 25.591 20.218 25.7295 20.9414 25.992L19.8731 27.0667V28.8883C19.8697 29.1017 19.9275 29.3115 20.0395 29.4925C20.1514 29.6735 20.3128 29.8179 20.5041 29.9083C20.9188 30.0996 22.3071 30.0905 22.7579 29.1205C22.8584 28.9208 22.9355 28.7099 22.9877 28.4921C22.8818 28.4786 22.7803 28.4409 22.691 28.3819C22.6016 28.3229 22.5267 28.2441 22.472 28.1515C22.4173 28.0589 22.3841 27.9549 22.3751 27.8474C22.366 27.74 22.3813 27.6318 22.4198 27.5312C22.4692 27.3871 22.5616 27.262 22.6843 27.1731C22.807 27.0842 22.9539 27.0359 23.1049 27.0349" fill="#021D49"/>
<path d="M27.2654 67.4999C12.2331 67.4999 0 56.1018 0 42.0897V0.499908H54.4947V42.0897C54.4947 48.884 51.664 55.2684 46.5166 60.0681C41.2565 64.909 34.3804 67.5635 27.2654 67.4999ZM0.626531 1.13289V42.0897C0.626531 55.7511 12.5757 66.8715 27.2654 66.8715C41.9551 66.8715 53.8592 55.7557 53.8592 42.0897V1.13289H0.626531Z" fill="white"/>
<path d="M51.0601 5.39978C50.7922 5.27435 50.503 5.20171 50.2082 5.18575H50.1766V5.15388C49.9856 4.48777 49.6103 3.8906 49.0949 3.43254L49.0002 3.33691L48.9055 3.43254C48.3901 3.8906 48.0148 4.48777 47.8238 5.15388V5.18575H47.7787C47.4838 5.20171 47.1947 5.27435 46.9268 5.39978C46.7414 5.50367 46.5829 5.65011 46.4639 5.8273C46.3449 6.00449 46.2687 6.20746 46.2417 6.41983C46.2181 6.68948 46.2697 6.96042 46.3908 7.20189C46.5119 7.44337 46.6976 7.64571 46.9268 7.78597L47.1476 7.50364L47.1837 7.53096C47.1964 7.53914 47.2072 7.55002 47.2153 7.56284L47.2468 7.48087V7.45355C47.3234 7.21675 47.4136 7.07558 47.5082 7.0346C47.5304 7.02838 47.5537 7.02838 47.5759 7.0346C47.6085 7.027 47.6424 7.027 47.675 7.0346C47.7052 7.047 47.7323 7.06614 47.7541 7.09058C47.776 7.11503 47.7921 7.14415 47.8012 7.17576V7.23496H47.7787C47.7397 7.23124 47.7004 7.23642 47.6636 7.25011C47.6269 7.26381 47.5936 7.28568 47.5664 7.31409C47.5391 7.34251 47.5185 7.37675 47.5061 7.41429C47.4937 7.45182 47.4898 7.4917 47.4947 7.53096V8.24135C47.4904 8.28128 47.4951 8.32166 47.5083 8.35954C47.5215 8.39741 47.543 8.43182 47.5711 8.46021C47.5992 8.48861 47.6332 8.51028 47.6707 8.52363C47.7082 8.53698 47.7482 8.54166 47.7877 8.53735H48.2384L48.1844 8.61476C48.108 8.7219 48.0076 8.80928 47.8914 8.86977C47.8465 8.8899 47.8075 8.92147 47.7782 8.96138C47.749 9.00129 47.7305 9.04818 47.7246 9.09746C47.7236 9.14408 47.7342 9.19021 47.7555 9.23159C47.7767 9.27297 47.808 9.30828 47.8463 9.33426C48.0266 9.47088 48.2204 9.60749 48.3917 9.73044L48.4278 9.75776C48.5855 9.86706 48.7613 9.99456 48.9236 10.1175L49.0047 10.1767L49.0858 10.1175C49.2526 9.99001 49.4329 9.8625 49.5907 9.74866L49.6267 9.72589L50.1631 9.33426C50.2014 9.30828 50.2327 9.27297 50.2539 9.23159C50.2752 9.19021 50.2858 9.14408 50.2848 9.09746C50.2789 9.04818 50.2604 9.00129 50.2312 8.96138C50.2019 8.92147 50.163 8.8899 50.118 8.86977C50.0027 8.80806 49.9025 8.7209 49.8251 8.61476L49.771 8.53735H50.2217C50.2586 8.53691 50.2951 8.5287 50.3287 8.51324C50.3623 8.49779 50.3924 8.47542 50.417 8.44757C50.4416 8.41972 50.4602 8.387 50.4716 8.3515C50.483 8.31599 50.4869 8.27848 50.4831 8.24135V7.54007C50.488 7.5008 50.4841 7.46093 50.4717 7.42339C50.4593 7.38586 50.4387 7.35161 50.4115 7.3232C50.3842 7.29478 50.351 7.27292 50.3142 7.25922C50.2775 7.24553 50.2382 7.24035 50.1992 7.24407H50.1406V7.18487C50.1497 7.15325 50.1658 7.12413 50.1877 7.09969C50.2095 7.07524 50.2366 7.0561 50.2668 7.0437C50.2929 7.03147 50.3214 7.02513 50.3502 7.02513C50.379 7.02513 50.4074 7.03147 50.4336 7.0437C50.5327 7.08469 50.6184 7.22585 50.695 7.46265V7.48998L50.7265 7.57194L50.7581 7.54007L50.7942 7.51274L51.015 7.79508C51.2442 7.65482 51.4299 7.45247 51.551 7.211C51.6721 6.96952 51.7237 6.69859 51.7001 6.42894C51.6793 6.21913 51.6107 6.01703 51.4996 5.83849C51.3886 5.65994 51.2382 5.50979 51.0601 5.39978ZM51.0601 7.42167L51.006 7.47176L50.9835 7.40345V7.37158C50.9278 7.13039 50.7805 6.92101 50.5733 6.78869C50.514 6.76095 50.4494 6.74658 50.384 6.74658C50.3186 6.74658 50.254 6.76095 50.1947 6.78869C50.0838 6.84088 49.9942 6.93006 49.9408 7.0412C49.8875 7.15234 49.8737 7.27866 49.9017 7.3989V7.50819H50.2127V8.24135H49.5231H49.3337L49.4059 8.41895C49.5035 8.67641 49.6826 8.8941 49.9152 9.03827L49.9738 9.0747L49.9197 9.12023L49.4149 9.47998L49.0047 9.77598H48.9777H48.9506L48.572 9.50275L48.4999 9.45266L48.0491 9.11113L47.995 9.07014L48.0536 9.03371C48.2861 8.88929 48.465 8.67168 48.563 8.4144L48.6351 8.2368H48.4458H47.7787V8.19126V7.51274H48.0897V7.40345C48.1186 7.28319 48.1052 7.15652 48.0517 7.04517C47.9983 6.93382 47.9081 6.84475 47.7967 6.79324C47.7374 6.7655 47.6728 6.75113 47.6074 6.75113C47.542 6.75113 47.4774 6.7655 47.4181 6.79324C47.3156 6.85736 47.227 6.94157 47.1573 7.0409C47.0876 7.14024 47.0384 7.25268 47.0124 7.37158V7.39435L46.9854 7.45355L46.9358 7.40801C46.7902 7.29732 46.676 7.14979 46.6047 6.9803C46.5335 6.81081 46.5078 6.62534 46.5301 6.4426C46.5506 6.26985 46.6115 6.10452 46.708 5.96036C46.8044 5.81621 46.9335 5.6974 47.0845 5.61381C47.359 5.50346 47.6503 5.44184 47.9455 5.43166H48.0672V5.30871C48.1907 4.69998 48.5072 4.14848 48.9686 3.73765L49.0002 3.70122L49.0318 3.73765C49.4932 4.14848 49.8097 4.69998 49.9332 5.30871V5.42711H50.0504C50.3471 5.43722 50.6399 5.49883 50.9159 5.60926C51.0669 5.69285 51.196 5.81166 51.2924 5.95581C51.3889 6.09996 51.4498 6.26529 51.4703 6.43805C51.4964 6.62326 51.473 6.81217 51.4025 6.98515C51.332 7.15813 51.2168 7.30885 51.0691 7.42167H51.0601Z" fill="white"/>
<path d="M51.06 32.6816C50.7921 32.5561 50.503 32.4835 50.2081 32.4676H50.1766V32.4357C49.9855 31.7696 49.6102 31.1724 49.0948 30.7143L49.0001 30.6187L48.9055 30.7143C48.3901 31.1724 48.0148 31.7696 47.8237 32.4357V32.4676H47.7786C47.4841 32.4857 47.1954 32.5583 46.9267 32.6816C46.7417 32.7864 46.5836 32.9338 46.4654 33.1118C46.3471 33.2898 46.272 33.4934 46.2461 33.7062C46.2235 33.9757 46.2757 34.2462 46.3967 34.4875C46.5177 34.7288 46.7028 34.9313 46.9312 35.0723L47.1521 34.7854L47.1881 34.8128L47.2197 34.8446L47.2512 34.7627V34.7353C47.3279 34.5031 47.418 34.3574 47.5127 34.3164C47.5348 34.3102 47.5582 34.3102 47.5803 34.3164C47.6129 34.3088 47.6468 34.3088 47.6795 34.3164C47.7097 34.3288 47.7367 34.3479 47.7586 34.3724C47.7804 34.3968 47.7965 34.4259 47.8057 34.4576V34.5168H47.7786C47.7398 34.5139 47.7009 34.5196 47.6645 34.5336C47.6281 34.5476 47.5953 34.5695 47.5682 34.5977C47.5411 34.626 47.5205 34.6598 47.5078 34.697C47.4951 34.7341 47.4906 34.7737 47.4946 34.8128V35.5049C47.4904 35.5449 47.495 35.5853 47.5082 35.6231C47.5214 35.661 47.5429 35.6954 47.571 35.7238C47.5991 35.7522 47.6332 35.7739 47.6706 35.7872C47.7081 35.8006 47.7481 35.8052 47.7876 35.8009H48.2384L48.1843 35.8783C48.1079 35.9855 48.0075 36.0729 47.8913 36.1334C47.8464 36.1535 47.8074 36.1851 47.7782 36.225C47.7489 36.2649 47.7304 36.3118 47.7245 36.3611C47.7235 36.4077 47.7341 36.4538 47.7554 36.4952C47.7767 36.5366 47.8079 36.5719 47.8462 36.5978C48.0265 36.7345 48.2203 36.8711 48.3916 36.994L48.4277 37.0213C48.5854 37.1306 48.7612 37.2581 48.9235 37.3811L49.0046 37.4403L49.0858 37.3811C49.2525 37.2536 49.4328 37.1261 49.5906 37.0122H49.6267L50.163 36.6206C50.2014 36.5946 50.2326 36.5593 50.2539 36.5179C50.2751 36.4766 50.2858 36.4304 50.2847 36.3838C50.2788 36.3345 50.2603 36.2876 50.2311 36.2477C50.2019 36.2078 50.1629 36.1763 50.118 36.1561C50.0026 36.0944 49.9025 36.0073 49.825 35.9011L49.7709 35.8237H50.2216C50.2612 35.828 50.3011 35.8233 50.3386 35.81C50.3761 35.7966 50.4102 35.775 50.4383 35.7466C50.4664 35.7182 50.4878 35.6838 50.501 35.6459C50.5143 35.608 50.5189 35.5676 50.5146 35.5277V34.8219C50.5187 34.7828 50.5142 34.7433 50.5015 34.7061C50.4888 34.6689 50.4682 34.6351 50.4411 34.6068C50.414 34.5786 50.3811 34.5567 50.3448 34.5427C50.3084 34.5287 50.2695 34.523 50.2307 34.5259H50.1721V34.4667C50.1812 34.4351 50.1973 34.4059 50.2192 34.3815C50.241 34.357 50.2681 34.3379 50.2983 34.3255C50.3244 34.3133 50.3528 34.3069 50.3817 34.3069C50.4105 34.3069 50.4389 34.3133 50.465 34.3255C50.5642 34.371 50.6498 34.5077 50.7265 34.7445V34.7718L50.758 34.8537L50.7896 34.8219L50.8256 34.7945L51.0465 35.0814C51.2749 34.9404 51.46 34.7379 51.581 34.4966C51.702 34.2553 51.7542 33.9848 51.7316 33.7153C51.708 33.5018 51.6349 33.2969 51.5182 33.1173C51.4015 32.9377 51.2445 32.7884 51.06 32.6816ZM51.06 34.708L51.0059 34.7536L50.9834 34.6853V34.6534C50.9278 34.4122 50.7804 34.2028 50.5732 34.0705C50.5139 34.0427 50.4493 34.0284 50.3839 34.0284C50.3185 34.0284 50.2539 34.0427 50.1946 34.0705C50.0838 34.1227 49.9941 34.2119 49.9408 34.323C49.8874 34.4341 49.8736 34.5605 49.9016 34.6807V34.79H50.2126V35.5641H49.523H49.3337L49.4058 35.7417C49.5049 35.9995 49.6835 36.2182 49.9151 36.3656L49.9737 36.3975L49.9196 36.443L49.4148 36.8073L49.0046 37.1033H48.9776H48.9505L48.5719 36.8301L48.4998 36.78L48.0491 36.443L47.995 36.3975L48.0536 36.3611C48.286 36.2166 48.4649 35.999 48.5629 35.7417L48.635 35.5641H48.4457H47.7786V35.5186V34.7945H48.0896V34.6853C48.1185 34.565 48.1051 34.4383 48.0516 34.327C47.9982 34.2156 47.908 34.1266 47.7966 34.075C47.7373 34.0473 47.6727 34.0329 47.6073 34.0329C47.542 34.0329 47.4774 34.0473 47.418 34.075C47.3151 34.1397 47.2261 34.2246 47.1564 34.3247C47.0867 34.4249 47.0377 34.5382 47.0124 34.6579L46.9853 34.7217L46.9357 34.6761C46.7901 34.5644 46.6759 34.4161 46.6048 34.2459C46.5336 34.0757 46.5078 33.8896 46.5301 33.7062C46.5509 33.5335 46.612 33.3684 46.7084 33.2243C46.8048 33.0802 46.9337 32.9613 47.0845 32.8774C47.3589 32.767 47.6502 32.7054 47.9454 32.6952H48.0671V32.5723C48.1907 31.9636 48.5071 31.4121 48.9686 31.0012L49.0001 30.9648L49.0317 31.0012C49.4931 31.4121 49.8096 31.9636 49.9332 32.5723V32.6907H50.0504C50.347 32.7008 50.6398 32.7624 50.9158 32.8728C51.0727 32.96 51.2058 33.0851 51.3033 33.2368C51.4009 33.3886 51.4597 33.5623 51.4747 33.7426C51.4961 33.9253 51.47 34.1104 51.3988 34.2798C51.3277 34.4491 51.214 34.5967 51.069 34.708H51.06Z" fill="white"/>
<path d="M29.2352 59.845C28.9673 59.7195 28.6782 59.6469 28.3833 59.6309H28.3517V59.5991C28.1607 58.933 27.7854 58.3358 27.27 57.8777L27.1753 57.7821L27.0806 57.8777C26.5652 58.3358 26.1899 58.933 25.9989 59.5991V59.6309H25.9628C25.6694 59.647 25.3818 59.7197 25.1154 59.845C24.9304 59.9498 24.7723 60.0972 24.6541 60.2752C24.5358 60.4532 24.4607 60.6568 24.4348 60.8696C24.4118 61.1386 24.4633 61.4089 24.5834 61.6501C24.7036 61.8913 24.8878 62.0941 25.1154 62.2357L25.3363 61.9488L25.3723 61.9761C25.385 61.9843 25.3958 61.9952 25.4039 62.008L25.4354 61.9261V61.8987C25.5121 61.6619 25.6022 61.5208 25.6969 61.4798C25.719 61.4736 25.7424 61.4736 25.7645 61.4798C25.7989 61.4791 25.8329 61.4869 25.8636 61.5026C25.8942 61.5144 25.9216 61.5333 25.9435 61.5578C25.9655 61.5824 25.9813 61.6118 25.9899 61.6437L26.0124 61.7029H25.9493C25.9105 61.7 25.8715 61.7058 25.8352 61.7198C25.7988 61.7338 25.7659 61.7557 25.7388 61.7839C25.7118 61.8121 25.6911 61.846 25.6784 61.8832C25.6657 61.9203 25.6613 61.9598 25.6653 61.9989V62.6911C25.661 62.731 25.6657 62.7714 25.6789 62.8093C25.6921 62.8472 25.7136 62.8816 25.7417 62.91C25.7698 62.9384 25.8038 62.96 25.8413 62.9734C25.8788 62.9867 25.9188 62.9914 25.9583 62.9871H26.409L26.355 63.0645C26.2785 63.1716 26.1782 63.259 26.062 63.3195C26.0201 63.3386 25.9839 63.3684 25.9571 63.4061C25.9303 63.4438 25.9138 63.4879 25.9092 63.5341C25.9046 63.5802 25.9122 63.6268 25.9311 63.6691C25.95 63.7113 25.9796 63.7478 26.0169 63.7749C26.1972 63.9115 26.391 64.0481 26.5623 64.1711L26.5984 64.1984C26.7561 64.3077 26.9319 64.4352 27.0942 64.5582L27.1753 64.6174L27.2564 64.5582C27.4232 64.4306 27.6035 64.3031 27.7613 64.1893H27.7973L28.3382 63.7977C28.3754 63.7703 28.4047 63.7334 28.4233 63.6909C28.4418 63.6484 28.449 63.6017 28.4439 63.5555C28.4389 63.5093 28.4219 63.4652 28.3946 63.4278C28.3674 63.3904 28.3308 63.3609 28.2886 63.3423C28.1737 63.2818 28.0748 63.1943 28.0002 63.0873L27.9416 63.0099H28.3923C28.4318 63.0142 28.4718 63.0095 28.5093 62.9961C28.5468 62.9828 28.5808 62.9611 28.6089 62.9327C28.637 62.9043 28.6585 62.8699 28.6717 62.832C28.6849 62.7942 28.6896 62.7538 28.6853 62.7139V61.9761C28.6902 61.9369 28.6863 61.897 28.6739 61.8595C28.6615 61.8219 28.6409 61.7877 28.6136 61.7593C28.5864 61.7309 28.5531 61.709 28.5164 61.6953C28.4796 61.6816 28.4403 61.6764 28.4013 61.6802H28.3427V61.621C28.3527 61.5898 28.3691 61.561 28.3909 61.5367C28.4126 61.5124 28.4392 61.493 28.4689 61.4798C28.4951 61.4676 28.5235 61.4612 28.5523 61.4612C28.5811 61.4612 28.6096 61.4676 28.6357 61.4798C28.7349 61.5208 28.8205 61.6619 28.9016 61.8987V61.9261C28.9093 61.9538 28.9183 61.9812 28.9287 62.008L28.9602 61.9761L28.9963 61.9488L29.2172 62.2357C29.4456 62.0947 29.6307 61.8922 29.7517 61.6509C29.8727 61.4096 29.9248 61.1391 29.9023 60.8696C29.8778 60.6581 29.8048 60.4553 29.6889 60.2774C29.5731 60.0995 29.4177 59.9514 29.2352 59.845ZM29.2352 61.8669L29.1811 61.9169L29.1586 61.8486V61.8168C29.1029 61.5756 28.9556 61.3662 28.7484 61.2339C28.6891 61.2061 28.6245 61.1918 28.5591 61.1918C28.4937 61.1918 28.4291 61.2061 28.3698 61.2339C28.259 61.2861 28.1693 61.3752 28.116 61.4864C28.0626 61.5975 28.0488 61.7239 28.0768 61.8441V61.9534H28.3968V62.7002H27.7162H27.5269L27.599 62.8778C27.6984 63.1342 27.877 63.3514 28.1083 63.4971L28.1669 63.5335L28.1128 63.5791L27.608 63.9388L27.1978 64.2348H27.1708H27.1438L26.7651 63.9616L26.693 63.9115C26.5398 63.7977 26.3775 63.6884 26.2423 63.57L26.1882 63.529L26.2468 63.4926C26.4685 63.348 26.639 63.1359 26.7336 62.8869L26.8057 62.7093H26.6164H25.9358V62.6638C25.9358 62.4452 25.9358 62.2084 25.9358 62.0126V61.9761H26.2423V61.8669C26.2712 61.7466 26.2578 61.6199 26.2043 61.5086C26.1508 61.3972 26.0607 61.3082 25.9493 61.2566C25.89 61.2289 25.8254 61.2145 25.76 61.2145C25.6946 61.2145 25.63 61.2289 25.5707 61.2566C25.4677 61.3213 25.3788 61.4062 25.3091 61.5064C25.2394 61.6065 25.1904 61.7198 25.165 61.8395L25.138 61.8987L25.0884 61.8532C24.9427 61.7425 24.8285 61.595 24.7573 61.4255C24.6861 61.256 24.6604 61.0705 24.6827 60.8878C24.7063 60.7173 24.7692 60.5547 24.8663 60.4131C24.9634 60.2716 25.0919 60.155 25.2416 60.0727C25.5161 59.9623 25.8073 59.9007 26.1025 59.8905H26.2242V59.7676C26.3478 59.1588 26.6643 58.6073 27.1257 58.1965L27.1573 58.1601L27.1933 58.1965C27.6553 58.6069 27.9719 59.1586 28.0948 59.7676V59.886H28.212C28.5087 59.8961 28.8014 59.9577 29.0774 60.0681C29.2282 60.152 29.3571 60.2709 29.4535 60.415C29.5499 60.5591 29.611 60.7243 29.6318 60.8969C29.657 61.0787 29.6345 61.264 29.5665 61.4343C29.4984 61.6045 29.3873 61.7537 29.2442 61.8669H29.2352Z" fill="white"/>
<path d="M7.4777 5.39979C7.21133 5.27449 6.9237 5.20185 6.63031 5.18576H6.59425V5.15389C6.40318 4.48778 6.02788 3.89061 5.51247 3.43255L5.40879 3.33237L5.31414 3.428C4.79872 3.88605 4.42343 4.48322 4.23236 5.14933V5.18121H4.1963C3.90144 5.19716 3.61231 5.2698 3.3444 5.39524C3.15934 5.5001 3.0013 5.64748 2.88306 5.82548C2.76482 6.00347 2.6897 6.20708 2.66378 6.41984C2.64017 6.68949 2.69185 6.96042 2.81296 7.2019C2.93406 7.44337 3.11973 7.64572 3.3489 7.78598L3.56977 7.50364L3.60583 7.53097L3.63738 7.56284L3.66442 7.48087V7.45355C3.74105 7.21675 3.82669 7.07559 3.92585 7.0346C3.94797 7.02839 3.97135 7.02839 3.99346 7.0346C4.02609 7.02701 4.06 7.02701 4.09263 7.0346C4.12234 7.0478 4.14894 7.0672 4.17069 7.09153C4.19245 7.11586 4.20885 7.14457 4.21884 7.17577V7.23497H4.18728C4.14865 7.23197 4.10983 7.23768 4.07365 7.2517C4.03747 7.26572 4.00482 7.28769 3.97808 7.31601C3.95133 7.34434 3.93115 7.37833 3.919 7.4155C3.90685 7.45268 3.90303 7.49212 3.90782 7.53097V8.24136C3.90355 8.28128 3.90819 8.32167 3.92141 8.35955C3.93462 8.39742 3.95607 8.43182 3.98417 8.46022C4.01228 8.48862 4.04633 8.51029 4.08382 8.52363C4.12131 8.53698 4.16129 8.54167 4.20081 8.53735H4.65155L4.59295 8.61477C4.51775 8.72302 4.41706 8.81066 4.29997 8.86978C4.25589 8.89052 4.21782 8.92235 4.18941 8.96222C4.16099 9.00209 4.14319 9.04866 4.1377 9.09747C4.13659 9.14361 4.14669 9.18933 4.16712 9.23061C4.18755 9.27189 4.21769 9.30748 4.2549 9.33427C4.43519 9.47088 4.63352 9.6075 4.8048 9.73045L4.84086 9.75777C4.99862 9.86706 5.17441 9.99457 5.33668 10.1175L5.41781 10.1767L5.49444 10.1175L6.00377 9.74866L6.03983 9.7259L6.57622 9.33427C6.61352 9.30722 6.64312 9.27071 6.66202 9.22843C6.68092 9.18615 6.68847 9.13959 6.6839 9.09342C6.67933 9.04726 6.66281 9.00313 6.63599 8.96547C6.60917 8.9278 6.57301 8.89794 6.53114 8.87889C6.41496 8.8184 6.31457 8.73102 6.23816 8.62388L6.18407 8.54646H6.63481C6.67433 8.55078 6.71431 8.54609 6.7518 8.53274C6.78929 8.51939 6.82334 8.49772 6.85144 8.46933C6.87955 8.44093 6.901 8.40653 6.91421 8.36865C6.92743 8.33078 6.93207 8.29039 6.9278 8.25047V7.54007C6.93186 7.50098 6.92738 7.46146 6.91467 7.42431C6.90197 7.38715 6.88135 7.35327 6.85427 7.32504C6.82719 7.29681 6.79431 7.27493 6.75795 7.26094C6.72159 7.24695 6.68263 7.2412 6.64383 7.24408H6.58072L6.60326 7.18488C6.61178 7.15295 6.62765 7.12352 6.64959 7.09899C6.67153 7.07445 6.6989 7.05551 6.72947 7.04371C6.7556 7.03148 6.78406 7.02514 6.81286 7.02514C6.84166 7.02514 6.87011 7.03148 6.89624 7.04371C6.9909 7.08469 7.08105 7.22586 7.15767 7.46266V7.48998L7.18923 7.57195L7.22078 7.54007L7.25684 7.51275L7.4777 7.79509C7.70641 7.65463 7.89147 7.4521 8.01181 7.21057C8.13214 6.96903 8.18291 6.69821 8.15832 6.42895C8.13307 6.21539 8.05827 6.01086 7.93999 5.83203C7.82172 5.65319 7.66333 5.5051 7.4777 5.39979ZM7.4777 7.42167L7.42361 7.47177L7.40107 7.40346C7.34745 7.16262 7.20159 6.95304 6.99541 6.82057C6.93607 6.79283 6.87148 6.77846 6.8061 6.77846C6.74072 6.77846 6.67612 6.79283 6.61678 6.82057C6.50829 6.8688 6.41904 6.95254 6.36343 7.05829C6.30782 7.16404 6.2891 7.28564 6.31028 7.40346V7.51275H6.61678V8.24136H5.96321H5.7739L5.84601 8.41896C5.94218 8.6773 6.12158 8.89544 6.35535 9.03827L6.41395 9.0747L6.35535 9.12024L5.85954 9.51187L5.45387 9.80786H5.42682H5.39978L5.02116 9.53464L4.94453 9.48454L4.49379 9.14301L4.4397 9.10203L4.4983 9.0656C4.71279 8.91573 4.87396 8.70023 4.95805 8.45083L5.03468 8.27323H4.84537H4.18278V8.2277V7.51275H4.50731V7.40346C4.53534 7.28322 4.52151 7.1569 4.46815 7.04576C4.41478 6.93462 4.32515 6.84544 4.21433 6.79325C4.15499 6.76551 4.0904 6.75114 4.02502 6.75114C3.95964 6.75114 3.89504 6.76551 3.83571 6.79325C3.73242 6.85691 3.64288 6.94092 3.57241 7.04028C3.50194 7.13964 3.45199 7.25231 3.42553 7.37158V7.39435V7.45355L3.37595 7.40801C3.2303 7.29732 3.11611 7.1498 3.04489 6.98031C2.97367 6.81082 2.94794 6.62535 2.97028 6.44261C2.98963 6.26952 3.05016 6.10373 3.14671 5.9594C3.24325 5.81508 3.37294 5.69651 3.52469 5.61382C3.79914 5.50347 4.0904 5.44184 4.38561 5.43167H4.50731V5.30871C4.63025 4.69975 4.94682 4.14806 5.40879 3.73765V3.71489L5.44035 3.75132C5.90181 4.16215 6.21826 4.71365 6.34183 5.32238V5.44077H6.45902C6.75571 5.45088 7.04845 5.5125 7.32445 5.62293C7.47502 5.7071 7.60374 5.82607 7.7001 5.97011C7.79645 6.11415 7.85771 6.27918 7.87886 6.45172C7.90314 6.63348 7.88017 6.8185 7.8122 6.98857C7.74424 7.15864 7.63362 7.3079 7.49122 7.42167H7.4777Z" fill="white"/>
<path d="M7.47774 32.5586C7.21066 32.4354 6.92341 32.3628 6.63035 32.3446H6.59429V32.3082C6.40322 31.6421 6.02792 31.0449 5.51251 30.5868L5.40883 30.4912L5.31418 30.5868C4.79876 31.0449 4.42347 31.6421 4.2324 32.3082V32.3446H4.19634C3.90182 32.3628 3.61308 32.4353 3.34444 32.5586C3.15938 32.6635 3.00134 32.8109 2.8831 32.9889C2.76486 33.1669 2.68974 33.3705 2.66382 33.5832C2.64127 33.8528 2.69342 34.1233 2.81442 34.3646C2.93542 34.6058 3.1205 34.8083 3.34894 34.9494L3.56981 34.6534L3.60587 34.6807C3.61749 34.6902 3.62807 34.7008 3.63742 34.7126C3.64717 34.6932 3.65619 34.6735 3.66446 34.6534V34.6261C3.74109 34.3938 3.82673 34.2526 3.92589 34.2071C3.94826 34.2031 3.97114 34.2031 3.9935 34.2071C4.02758 34.2091 4.0611 34.2168 4.09267 34.2299C4.12193 34.2438 4.14816 34.2634 4.16983 34.2876C4.1915 34.3119 4.20817 34.3402 4.21888 34.371V34.4302H4.18732C4.14888 34.4281 4.11043 34.4343 4.07463 34.4486C4.03882 34.4629 4.00652 34.4849 3.97994 34.5131C3.95337 34.5412 3.93316 34.5748 3.92072 34.6116C3.90827 34.6485 3.90389 34.6876 3.90786 34.7262V35.4184C3.9027 35.4585 3.90672 35.4993 3.91961 35.5376C3.93251 35.5759 3.95394 35.6107 3.98225 35.6393C4.01056 35.6679 4.04499 35.6895 4.08289 35.7025C4.12079 35.7156 4.16115 35.7196 4.20085 35.7144H4.65159L4.59299 35.7918C4.51779 35.9001 4.4171 35.9877 4.30001 36.0468C4.2569 36.0689 4.21967 36.1011 4.19143 36.1407C4.1632 36.1803 4.14479 36.2262 4.13774 36.2745C4.13663 36.3207 4.14673 36.3664 4.16716 36.4077C4.18759 36.449 4.21773 36.4845 4.25493 36.5113C4.43523 36.6479 4.63356 36.7846 4.80484 36.9075L4.8409 36.9348C4.99866 37.0487 5.17445 37.1716 5.33672 37.2946L5.41785 37.3538L5.49448 37.2946L6.00381 36.9257L6.03987 36.903C6.22017 36.7755 6.40497 36.6434 6.57626 36.5113C6.61405 36.4851 6.64464 36.4496 6.66514 36.4082C6.68564 36.3668 6.69538 36.3208 6.69345 36.2745C6.68839 36.2256 6.67075 36.1788 6.64229 36.1389C6.61383 36.0989 6.57553 36.0672 6.53118 36.0468C6.415 35.9863 6.31461 35.899 6.2382 35.7918L6.18411 35.7144H6.63485C6.67437 35.7187 6.71435 35.714 6.75184 35.7007C6.78933 35.6873 6.82338 35.6657 6.85148 35.6373C6.87959 35.6089 6.90104 35.5745 6.91425 35.5366C6.92747 35.4987 6.93211 35.4583 6.92783 35.4184V34.6989C6.9319 34.6598 6.92742 34.6203 6.91471 34.5832C6.90201 34.546 6.88139 34.5121 6.85431 34.4839C6.82723 34.4557 6.79435 34.4338 6.75799 34.4198C6.72163 34.4058 6.68267 34.4 6.64387 34.4029H6.58076L6.6033 34.3437C6.61245 34.3121 6.62855 34.283 6.65041 34.2585C6.67226 34.2341 6.6993 34.215 6.72951 34.2026C6.75564 34.1903 6.78409 34.184 6.8129 34.184C6.8417 34.184 6.87015 34.1903 6.89628 34.2026C6.99094 34.2481 7.08109 34.3847 7.15771 34.6261L7.18927 34.708C7.19862 34.6963 7.2092 34.6856 7.22082 34.6762L7.25688 34.6534L7.47774 34.9403C7.70535 34.7986 7.88953 34.5959 8.00971 34.3547C8.1299 34.1134 8.18136 33.8432 8.15836 33.5741C8.13109 33.363 8.05535 33.1612 7.93718 32.9849C7.81901 32.8086 7.66167 32.6626 7.47774 32.5586ZM7.47774 34.5851L7.42365 34.6306L7.40111 34.5623C7.34749 34.3215 7.20163 34.1119 6.99545 33.9794C6.93611 33.9517 6.87151 33.9373 6.80613 33.9373C6.74075 33.9373 6.67616 33.9517 6.61682 33.9794C6.50729 34.0263 6.41705 34.1098 6.36124 34.2159C6.30543 34.3221 6.28745 34.4444 6.31032 34.5623V34.6762H6.61682V35.4184H5.96325H5.77394L5.84605 35.596C5.94346 35.8548 6.12244 36.074 6.35539 36.2199L6.41399 36.2563L6.35539 36.2973C6.19313 36.4203 6.02184 36.5432 5.85507 36.6616L5.4494 36.953H5.42236H5.39531L5.01669 36.6798L4.94006 36.6297L4.48932 36.2927L4.43523 36.2472L4.49383 36.2153C4.70804 36.0681 4.87057 35.8561 4.95809 35.6097L5.03472 35.4321H4.84541H4.18282V35.3911V34.6762H4.50735V34.5623C4.536 34.4427 4.52241 34.3167 4.46892 34.2061C4.41543 34.0955 4.32539 34.0073 4.21437 33.9567C4.15503 33.9289 4.09044 33.9145 4.02506 33.9145C3.95968 33.9145 3.89508 33.9289 3.83575 33.9567C3.6282 34.0886 3.48075 34.2981 3.42557 34.5395V34.6033L3.37599 34.5578C3.23032 34.446 3.1162 34.2977 3.04502 34.1275C2.97384 33.9573 2.94808 33.7712 2.97032 33.5878C2.98999 33.4154 3.0507 33.2504 3.14725 33.1068C3.2438 32.9633 3.37332 32.8455 3.52473 32.7636C3.79832 32.6497 4.08993 32.5865 4.38565 32.5769H4.50735V32.4539C4.63029 31.8449 4.94686 31.2932 5.40883 30.8828V30.8737L5.44039 30.9102C5.90185 31.321 6.2183 31.8725 6.34187 32.4812V32.5996H6.45906C6.75625 32.6092 7.04934 32.6724 7.32449 32.7863C7.47472 32.8698 7.60327 32.9879 7.69963 33.1312C7.79599 33.2745 7.85742 33.4387 7.8789 33.6106C7.90265 33.793 7.87945 33.9785 7.81155 34.1492C7.74365 34.3199 7.63334 34.47 7.49126 34.5851H7.47774Z" fill="white"/>
</g>
<defs>
<clipPath id="clip0_850_5424">
<rect width="202" height="67" fill="white" transform="translate(0 0.499908)"/>
</clipPath>
</defs>
</svg>
