<svg width="9" height="12" viewBox="0 0 9 12" fill="none" xmlns="http://www.w3.org/2000/svg">
<path d="M4.5 0.215332C2.08125 0.215332 0.125 2.03293 0.125 4.28024C0.125 7.32892 4.5 11.8293 4.5 11.8293C4.5 11.8293 8.875 7.32892 8.875 4.28024C8.875 2.03293 6.91875 0.215332 4.5 0.215332ZM1.375 4.28024C1.375 2.6775 2.775 1.37673 4.5 1.37673C6.225 1.37673 7.625 2.6775 7.625 4.28024C7.625 5.95266 5.825 8.45548 4.5 10.0176C3.2 8.46709 1.375 5.93523 1.375 4.28024Z" fill="#F8F8F9"/>
<path d="M4.5 5.73199C5.36295 5.73199 6.0625 5.08202 6.0625 4.28024C6.0625 3.47846 5.36295 2.82849 4.5 2.82849C3.63706 2.82849 2.9375 3.47846 2.9375 4.28024C2.9375 5.08202 3.63706 5.73199 4.5 5.73199Z" fill="#F8F8F9"/>
</svg>
