<svg width="30" height="29" viewBox="0 0 30 29" fill="none" xmlns="http://www.w3.org/2000/svg">
<g clip-path="url(#clip0_2665_8018)">
<path d="M20.5 1.81006H15.875V19.3756C15.875 21.4835 14.0625 23.1815 11.875 23.1815C9.6875 23.1815 7.875 21.4835 7.875 19.3756C7.875 17.2678 9.625 15.6283 11.75 15.5698V11.1784C7.0625 11.2369 3.25 14.8671 3.25 19.3756C3.25 23.8841 7.125 27.5729 11.9375 27.5729C16.75 27.5729 20.625 23.8841 20.625 19.3756V10.3586C22.375 11.5297 24.5 12.2909 26.75 12.2909V7.89946C23.25 7.78236 20.5 5.08897 20.5 1.81006Z" fill="black"/>
<path d="M20.5 0.63916H15.875V18.2047C15.875 20.3126 14.0625 22.0106 11.875 22.0106C9.6875 22.0106 7.875 20.3126 7.875 18.2047C7.875 16.0969 9.625 14.4574 11.75 14.3989V10.0075C7.0625 10.066 3.25 13.6962 3.25 18.2047C3.25 22.7132 7.125 26.402 11.9375 26.402C16.75 26.402 20.625 22.7132 20.625 18.2047V9.18774C22.375 10.3588 24.5 11.12 26.75 11.12V6.72856C23.25 6.61146 20.5 3.91807 20.5 0.63916Z" fill="white"/>
</g>
<defs>
<clipPath id="clip0_2665_8018">
<rect width="30" height="28.1049" fill="white" transform="translate(0 0.0537109)"/>
</clipPath>
</defs>
</svg>
