<svg width="30" height="29" viewBox="0 0 30 29" fill="none" xmlns="http://www.w3.org/2000/svg">
<g clip-path="url(#clip0_2665_8004)">
<mask id="mask0_2665_8004" style="mask-type:luminance" maskUnits="userSpaceOnUse" x="1" y="1" width="28" height="27">
<path d="M28.6875 1.81006H1.25V27.5144H28.6875V1.81006Z" fill="white"/>
</mask>
<g mask="url(#mask0_2665_8004)">
<path d="M26.6875 1.81006H3.3125C2.1875 1.81006 1.3125 2.62979 1.3125 3.68372V25.6993C1.3125 26.6946 2.1875 27.5729 3.3125 27.5729H26.6875C27.8125 27.5729 28.75 26.7532 28.75 25.6993V3.68372C28.75 2.68834 27.8125 1.81006 26.6875 1.81006ZM9.4375 23.767H5.375V11.4711H9.4375V23.767ZM7.375 9.77313C6.0625 9.77313 5 8.77774 5 7.54815C5 6.31856 6.0625 5.32318 7.375 5.32318C8.6875 5.32318 9.75 6.31856 9.75 7.54815C9.75 8.77774 8.6875 9.77313 7.375 9.77313ZM24.6875 23.767H20.625V17.7947C20.625 16.3895 20.625 14.5158 18.5 14.5158C16.375 14.5158 16.0625 16.0967 16.0625 17.6776V23.767H12V11.4711H15.875V13.1691C16.4375 12.2323 17.75 11.1784 19.75 11.1784C23.875 11.1784 24.625 13.6961 24.625 17.0336V23.767H24.6875Z" fill="black"/>
</g>
<mask id="mask1_2665_8004" style="mask-type:luminance" maskUnits="userSpaceOnUse" x="1" y="0" width="31" height="29">
<path d="M31.25 0.63916H1.25V28.7441H31.25V0.63916Z" fill="white"/>
</mask>
<g mask="url(#mask1_2665_8004)">
<path d="M29.0632 0.63916H3.50515C2.27508 0.63916 1.31836 1.53545 1.31836 2.68781V26.7595C1.31836 27.8478 2.27508 28.8081 3.50515 28.8081H29.0632C30.2933 28.8081 31.3184 27.9118 31.3184 26.7595V2.68781C31.3184 1.59947 30.2933 0.63916 29.0632 0.63916ZM10.2022 24.6468H5.76027V11.2025H10.2022V24.6468ZM7.94706 9.34593C6.51198 9.34593 5.35025 8.25759 5.35025 6.91316C5.35025 5.56873 6.51198 4.48038 7.94706 4.48038C9.38214 4.48038 10.5439 5.56873 10.5439 6.91316C10.5439 8.25759 9.38214 9.34593 7.94706 9.34593ZM26.8764 24.6468H22.4345V18.1167C22.4345 16.5802 22.4345 14.5316 20.1111 14.5316C17.7876 14.5316 17.4459 16.2601 17.4459 17.9887V24.6468H13.004V11.2025H17.2409V13.0591C17.8559 12.0348 19.291 10.8824 21.4778 10.8824C25.9881 10.8824 26.8081 13.6353 26.8081 17.2845V24.6468H26.8764Z" fill="white"/>
</g>
</g>
<defs>
<clipPath id="clip0_2665_8004">
<rect width="30" height="28.1049" fill="white" transform="translate(0 0.0537109)"/>
</clipPath>
</defs>
</svg>
