<svg width="30" height="29" viewBox="0 0 30 29" fill="none" xmlns="http://www.w3.org/2000/svg">
<path d="M28.625 9.48056C28.625 9.48056 28.375 7.66545 27.5 6.90427C26.4375 5.85034 25.25 5.85034 24.75 5.79178C20.875 5.49902 15.0625 5.49902 15.0625 5.49902C15.0625 5.49902 9.25 5.49902 5.375 5.79178C4.8125 5.85034 3.625 5.85034 2.625 6.90427C1.8125 7.66545 1.5 9.48056 1.5 9.48056C1.5 9.48056 1.1875 11.5884 1.1875 13.6963V15.6871C1.1875 17.7949 1.4375 19.9028 1.4375 19.9028C1.4375 19.9028 1.6875 21.7179 2.5625 22.4791C3.625 23.533 5 23.4745 5.625 23.5916C7.875 23.7672 15.0625 23.8258 15.0625 23.8258C15.0625 23.8258 20.875 23.8258 24.75 23.533C25.3125 23.4745 26.5 23.4745 27.5 22.4205C28.3125 21.6594 28.625 19.8443 28.625 19.8443C28.625 19.8443 28.875 17.7364 28.875 15.6285V13.6377C28.875 11.5299 28.625 9.42201 28.625 9.42201V9.48056ZM12.125 18.0877V10.7687L19.625 14.4575L12.125 18.0877Z" fill="black"/>
<path d="M28.625 8.30966C28.625 8.30966 28.375 6.49455 27.5 5.73337C26.4375 4.67944 25.25 4.67944 24.75 4.62088C20.875 4.32812 15.0625 4.32812 15.0625 4.32812C15.0625 4.32812 9.25 4.32812 5.375 4.62088C4.8125 4.67944 3.625 4.67944 2.625 5.73337C1.8125 6.49455 1.5 8.30966 1.5 8.30966C1.5 8.30966 1.1875 10.4175 1.1875 12.5254V14.5162C1.1875 16.624 1.4375 18.7319 1.4375 18.7319C1.4375 18.7319 1.6875 20.547 2.5625 21.3082C3.625 22.3621 5 22.3036 5.625 22.4207C7.875 22.5963 15.0625 22.6549 15.0625 22.6549C15.0625 22.6549 20.875 22.6549 24.75 22.3621C25.3125 22.3036 26.5 22.3036 27.5 21.2496C28.3125 20.4885 28.625 18.6734 28.625 18.6734C28.625 18.6734 28.875 16.5655 28.875 14.4576V12.4669C28.875 10.359 28.625 8.25111 28.625 8.25111V8.30966ZM12.125 16.9168V9.5978L19.625 13.2866L12.125 16.9168Z" fill="white"/>
</svg>
