<svg width="13" height="15" viewBox="0 0 13 15" fill="none" xmlns="http://www.w3.org/2000/svg">
<path d="M3.0875 1.925C3.125 2.6141 3.21875 3.28771 3.36875 3.93035L2.61875 4.85947C2.3625 3.93035 2.2 2.94703 2.14375 1.925H3.0875ZM9.25 11.2317C9.78125 11.4175 10.325 11.5337 10.875 11.5801V12.7338C10.05 12.6641 9.25625 12.4628 8.5 12.1531L9.25 11.2317ZM3.6875 0.376465H1.5C1.15625 0.376465 0.875 0.724885 0.875 1.15073C0.875 8.42111 5.63125 14.3133 11.5 14.3133C11.8438 14.3133 12.125 13.9649 12.125 13.539V10.8368C12.125 10.411 11.8438 10.0626 11.5 10.0626C10.725 10.0626 9.96875 9.9077 9.26875 9.62122C9.20625 9.59025 9.1375 9.58251 9.075 9.58251C8.9125 9.58251 8.75625 9.65994 8.63125 9.80705L7.25625 11.5104C5.4875 10.3877 4.0375 8.59919 3.1375 6.40801L4.5125 4.70462C4.6875 4.48783 4.7375 4.18586 4.66875 3.91487C4.4375 3.04769 4.3125 2.11857 4.3125 1.15073C4.3125 0.724885 4.03125 0.376465 3.6875 0.376465Z" fill="#F8F8F9"/>
</svg>
