<svg width="30" height="29" viewBox="0 0 30 29" fill="none" xmlns="http://www.w3.org/2000/svg">
<g clip-path="url(#clip0_2665_7987)">
<mask id="mask0_2665_7987" style="mask-type:luminance" maskUnits="userSpaceOnUse" x="1" y="1" width="28" height="27">
<path d="M29 1.63477H1.0625V27.8075H29V1.63477Z" fill="white"/>
</mask>
<g mask="url(#mask0_2665_7987)">
<path d="M15.0625 3.97684C18.8125 3.97684 19.25 3.97685 20.6875 4.0354C22.0625 4.0354 22.8125 4.32816 23.25 4.50381C23.875 4.73802 24.375 5.03078 24.875 5.4992C25.375 5.96761 25.6875 6.37748 25.9375 7.02155C26.125 7.48996 26.375 8.19259 26.4375 9.42218C26.5 10.8274 26.5 11.2373 26.5 14.6919C26.5 18.1464 26.5 18.6148 26.4375 19.9615C26.4375 21.2497 26.125 21.9523 25.9375 22.3622C25.6875 22.9477 25.375 23.4161 24.875 23.8845C24.375 24.3529 23.9375 24.6457 23.25 24.8799C22.75 25.0556 22 25.2898 20.6875 25.3483C19.1875 25.4069 18.75 25.4069 15.0625 25.4069C11.375 25.4069 10.875 25.4069 9.4375 25.3483C8.0625 25.3483 7.3125 25.0556 6.875 24.8799C6.25 24.6457 5.75 24.3529 5.25 23.8845C4.75 23.4161 4.4375 23.0062 4.1875 22.3622C4 21.8937 3.75 21.1911 3.6875 19.9615C3.625 18.5563 3.625 18.1464 3.625 14.6919C3.625 11.2373 3.625 10.7689 3.6875 9.42218C3.6875 8.13404 4 7.43141 4.1875 7.02155C4.4375 6.43603 4.75 5.96761 5.25 5.4992C5.75 5.03078 6.1875 4.73802 6.875 4.50381C7.375 4.32816 8.125 4.09395 9.4375 4.0354C10.875 3.97685 11.375 3.97684 15.0625 3.97684ZM15.0625 1.63477C11.25 1.63477 10.8125 1.63477 9.3125 1.69332C7.8125 1.75187 6.8125 1.98608 5.9375 2.27884C5 2.63015 4.25 3.04001 3.4375 3.80119C2.6875 4.50381 2.1875 5.26499 1.8125 6.14327C1.5 6.963 1.25 7.89983 1.1875 9.30508C1.125 10.7103 1.125 11.1202 1.125 14.6919C1.125 18.2635 1.125 18.6734 1.1875 20.0786C1.25 21.4839 1.5 22.4207 1.8125 23.2404C2.1875 24.1187 2.625 24.8213 3.4375 25.5825C4.1875 26.2851 5 26.7536 5.9375 27.1049C6.8125 27.3976 7.8125 27.6318 9.3125 27.6904C10.8125 27.7489 11.25 27.7489 15.0625 27.7489C18.875 27.7489 19.3125 27.7489 20.8125 27.6904C22.3125 27.6318 23.3125 27.3976 24.1875 27.1049C25.125 26.7536 25.875 26.3437 26.6875 25.5825C27.4375 24.8799 27.9375 24.1187 28.3125 23.2404C28.625 22.4207 28.875 21.4839 28.9375 20.0786C29 18.6734 29 18.2635 29 14.6919C29 11.1202 29 10.7103 28.9375 9.30508C28.875 7.89983 28.625 6.963 28.3125 6.14327C28 5.26499 27.5 4.56236 26.6875 3.80119C25.9375 3.09857 25.125 2.63015 24.1875 2.27884C23.3125 1.98608 22.3125 1.75187 20.8125 1.69332C19.3125 1.63477 18.875 1.63477 15.0625 1.63477Z" fill="black"/>
<path d="M15.0625 7.9585C11.125 7.9585 7.875 10.9446 7.875 14.692C7.875 18.4393 11.0625 21.4255 15.0625 21.4255C19.0625 21.4255 22.25 18.4393 22.25 14.692C22.25 10.9446 19.0625 7.9585 15.0625 7.9585ZM15.0625 19.0248C12.5 19.0248 10.4375 17.0926 10.4375 14.692C10.4375 12.2913 12.5 10.3591 15.0625 10.3591C17.625 10.3591 19.6875 12.2913 19.6875 14.692C19.6875 17.0926 17.625 19.0248 15.0625 19.0248Z" fill="black"/>
<path d="M24.1875 7.72397C24.1875 8.60225 23.4375 9.30487 22.5 9.30487C21.5625 9.30487 20.8125 8.60225 20.8125 7.72397C20.8125 6.84569 21.5625 6.14307 22.5 6.14307C23.4375 6.14307 24.1875 6.84569 24.1875 7.72397Z" fill="black"/>
</g>
<mask id="mask1_2665_7987" style="mask-type:luminance" maskUnits="userSpaceOnUse" x="1" y="0" width="28" height="27">
<path d="M28.9375 0.463379H1V26.6361H28.9375V0.463379Z" fill="white"/>
</mask>
<g mask="url(#mask1_2665_7987)">
<path d="M14.9375 2.80546C18.6875 2.80546 19.125 2.80546 20.5625 2.86401C21.9375 2.86401 22.6875 3.15677 23.125 3.33243C23.75 3.56663 24.25 3.85939 24.75 4.32781C25.25 4.79623 25.5625 5.20609 25.8125 5.85016C26 6.31858 26.25 7.0212 26.3125 8.25079C26.375 9.65604 26.375 10.0659 26.375 13.5205C26.375 16.975 26.375 17.4435 26.3125 18.7901C26.3125 20.0783 26 20.7809 25.8125 21.1908C25.5625 21.7763 25.25 22.2447 24.75 22.7131C24.25 23.1815 23.8125 23.4743 23.125 23.7085C22.625 23.8842 21.875 24.1184 20.5625 24.1769C19.0625 24.2355 18.625 24.2355 14.9375 24.2355C11.25 24.2355 10.75 24.2355 9.3125 24.1769C7.9375 24.1769 7.1875 23.8842 6.75 23.7085C6.125 23.4743 5.625 23.1815 5.125 22.7131C4.625 22.2447 4.3125 21.8349 4.0625 21.1908C3.875 20.7224 3.625 20.0197 3.5625 18.7901C3.5 17.3849 3.5 16.975 3.5 13.5205C3.5 10.0659 3.5 9.59749 3.5625 8.25079C3.5625 6.96265 3.875 6.26002 4.0625 5.85016C4.3125 5.26464 4.625 4.79623 5.125 4.32781C5.625 3.85939 6.0625 3.56663 6.75 3.33243C7.25 3.15677 8 2.92256 9.3125 2.86401C10.75 2.80546 11.25 2.80546 14.9375 2.80546ZM14.9375 0.463379C11.125 0.463379 10.6875 0.463379 9.1875 0.521931C7.6875 0.580483 6.6875 0.814691 5.8125 1.10745C4.875 1.45876 4.125 1.86863 3.3125 2.6298C2.5625 3.33243 2.0625 4.0936 1.6875 4.97188C1.375 5.79161 1.125 6.72844 1.0625 8.13369C1 9.53894 1 9.9488 1 13.5205C1 17.0921 1 17.502 1.0625 18.9073C1.125 20.3125 1.375 21.2493 1.6875 22.0691C2.0625 22.9473 2.5 23.65 3.3125 24.4111C4.0625 25.1138 4.875 25.5822 5.8125 25.9335C6.6875 26.2262 7.6875 26.4605 9.1875 26.519C10.6875 26.5776 11.125 26.5776 14.9375 26.5776C18.75 26.5776 19.1875 26.5776 20.6875 26.519C22.1875 26.4605 23.1875 26.2262 24.0625 25.9335C25 25.5822 25.75 25.1723 26.5625 24.4111C27.3125 23.7085 27.8125 22.9473 28.1875 22.0691C28.5 21.2493 28.75 20.3125 28.8125 18.9073C28.875 17.502 28.875 17.0921 28.875 13.5205C28.875 9.9488 28.875 9.53894 28.8125 8.13369C28.75 6.72844 28.5 5.79161 28.1875 4.97188C27.875 4.0936 27.375 3.39098 26.5625 2.6298C25.8125 1.92718 25 1.45876 24.0625 1.10745C23.1875 0.814691 22.1875 0.580483 20.6875 0.521931C19.1875 0.463379 18.75 0.463379 14.9375 0.463379Z" fill="white"/>
<path d="M14.9375 6.78711C11 6.78711 7.75 9.77326 7.75 13.5206C7.75 17.2679 10.9375 20.2541 14.9375 20.2541C18.9375 20.2541 22.125 17.2679 22.125 13.5206C22.125 9.77326 18.9375 6.78711 14.9375 6.78711ZM14.9375 17.8534C12.375 17.8534 10.3125 15.9212 10.3125 13.5206C10.3125 11.12 12.375 9.18774 14.9375 9.18774C17.5 9.18774 19.5625 11.12 19.5625 13.5206C19.5625 15.9212 17.5 17.8534 14.9375 17.8534Z" fill="white"/>
<path d="M24.0625 6.55258C24.0625 7.43086 23.3125 8.13349 22.375 8.13349C21.4375 8.13349 20.6875 7.43086 20.6875 6.55258C20.6875 5.6743 21.4375 4.97168 22.375 4.97168C23.3125 4.97168 24.0625 5.6743 24.0625 6.55258Z" fill="white"/>
</g>
</g>
<defs>
<clipPath id="clip0_2665_7987">
<rect width="30" height="28.1049" fill="white" transform="translate(0 0.0537109)"/>
</clipPath>
</defs>
</svg>
