<svg width="30" height="29" viewBox="0 0 30 29" fill="none" xmlns="http://www.w3.org/2000/svg">
<g clip-path="url(#clip0_2665_7976)">
<mask id="mask0_2665_7976" style="mask-type:luminance" maskUnits="userSpaceOnUse" x="1" y="1" width="28" height="27">
<path d="M28.75 1.81006H1.25V27.5729H28.75V1.81006Z" fill="white"/>
</mask>
<g mask="url(#mask0_2665_7976)">
<path d="M15 1.81006C7.375 1.81006 1.25 7.54815 1.25 14.6915C1.25 21.8348 5.6875 25.8164 11.6875 27.2216V18.673H8.875V14.75H11.6875V13.052C11.6875 8.66064 13.8125 6.61132 18.375 6.61132C22.9375 6.61132 20.75 6.78698 21.375 6.90408V10.4758C21.0625 10.4758 20.5 10.4758 19.8125 10.4758C17.5625 10.4758 16.6875 11.2955 16.6875 13.3448V14.75H21.1875L20.4375 18.673H16.6875V27.5144C23.5 26.7532 28.75 21.3079 28.75 14.75C28.75 7.6067 22.5625 1.86861 15 1.86861V1.81006Z" fill="black"/>
</g>
<mask id="mask1_2665_7976" style="mask-type:luminance" maskUnits="userSpaceOnUse" x="1" y="0" width="28" height="27">
<path d="M28.75 0.63916H1.25V26.402H28.75V0.63916Z" fill="white"/>
</mask>
<g mask="url(#mask1_2665_7976)">
<path d="M15 0.63916C7.375 0.63916 1.25 6.37725 1.25 13.5206C1.25 20.6639 5.6875 24.6455 11.6875 26.0507V17.5021H8.875V13.5791H11.6875V11.8811C11.6875 7.48974 13.8125 5.44042 18.375 5.44042C22.9375 5.44042 20.75 5.61608 21.375 5.73318V9.30485C21.0625 9.30485 20.5 9.30485 19.8125 9.30485C17.5625 9.30485 16.6875 10.1246 16.6875 12.1739V13.5791H21.1875L20.4375 17.5021H16.6875V26.3435C23.5 25.5823 28.75 20.137 28.75 13.5791C28.75 6.43581 22.5625 0.697712 15 0.697712V0.63916Z" fill="white"/>
</g>
</g>
<defs>
<clipPath id="clip0_2665_7976">
<rect width="30" height="28.1049" fill="white" transform="translate(0 0.0537109)"/>
</clipPath>
</defs>
</svg>
