<svg width="19" height="16" viewBox="0 0 19 16" fill="none" xmlns="http://www.w3.org/2000/svg">
<path d="M13.013 10.3748H12.1901L11.8984 10.1404C12.9193 9.15082 13.5339 7.8661 13.5339 6.46853C13.5339 3.35221 10.5026 0.826172 6.76302 0.826172C3.02344 0.826172 -0.0078125 3.35221 -0.0078125 6.46853C-0.0078125 9.58485 3.02344 12.1109 6.76302 12.1109C8.4401 12.1109 9.98177 11.5987 11.1693 10.748L11.4505 10.9911V11.6769L16.6589 16.0085L18.2109 14.7151L13.013 10.3748ZM6.76302 10.3748C4.16927 10.3748 2.07552 8.62999 2.07552 6.46853C2.07552 4.30707 4.16927 2.56228 6.76302 2.56228C9.35677 2.56228 11.4505 4.30707 11.4505 6.46853C11.4505 8.62999 9.35677 10.3748 6.76302 10.3748Z" fill="#081836"/>
</svg>
