<svg width="40" height="40" viewBox="0 0 40 40" fill="none" xmlns="http://www.w3.org/2000/svg">
<path d="M1 20C1 9.50659 9.50659 1 20 1C30.4934 1 39 9.50659 39 20C39 30.4934 30.4934 39 20 39C9.50659 39 1 30.4934 1 20Z" fill="#00BB2D" stroke="white" stroke-width="2"/>
<path d="M8.66406 32L10.2649 25.837C9.27709 24.033 8.75801 21.988 8.75896 19.891C8.7618 13.335 13.8245 8 20.0448 8C23.0635 8.001 25.897 9.24 28.0284 11.488C30.1588 13.736 31.3317 16.724 31.3307 19.902C31.3279 26.459 26.2652 31.794 20.0448 31.794C18.1564 31.793 16.2955 31.294 14.6472 30.346L8.66406 32ZM14.9243 28.193C16.5147 29.188 18.0331 29.784 20.041 29.785C25.2109 29.785 29.4224 25.351 29.4252 19.9C29.4271 14.438 25.2356 10.01 20.0486 10.008C14.875 10.008 10.6664 14.442 10.6645 19.892C10.6635 22.117 11.2822 23.783 12.3213 25.526L11.3733 29.174L14.9243 28.193ZM25.73 22.729C25.6598 22.605 25.4719 22.531 25.1891 22.382C24.9073 22.233 23.5209 21.514 23.2618 21.415C23.0037 21.316 22.8158 21.266 22.6269 21.564C22.439 21.861 21.8981 22.531 21.734 22.729C21.5698 22.927 21.4047 22.952 21.1229 22.803C20.841 22.654 19.9319 22.341 18.8549 21.328C18.0169 20.54 17.4504 19.567 17.2862 19.269C17.1221 18.972 17.2692 18.811 17.4096 18.663C17.5368 18.53 17.6914 18.316 17.8328 18.142C17.9761 17.97 18.0226 17.846 18.1175 17.647C18.2115 17.449 18.165 17.275 18.0938 17.126C18.0226 16.978 17.4589 15.515 17.2246 14.92C16.9949 14.341 16.7624 14.419 16.5897 14.41L16.0488 14.4C15.8609 14.4 15.5554 14.474 15.2972 14.772C15.0391 15.07 14.3103 15.788 14.3103 17.251C14.3103 18.714 15.321 20.127 15.4614 20.325C15.6028 20.523 17.4495 23.525 20.2783 24.812C20.9511 25.118 21.4768 25.301 21.8858 25.438C22.5615 25.664 23.1764 25.632 23.6622 25.556C24.2041 25.471 25.3305 24.837 25.5658 24.143C25.8012 23.448 25.8012 22.853 25.73 22.729Z" fill="#F8F8F9"/>
</svg>
