<svg width="24" height="24" viewBox="0 0 24 24" fill="none" xmlns="http://www.w3.org/2000/svg">
<path d="M0.664062 24L2.26494 17.837C1.27709 16.033 0.758009 13.988 0.758958 11.891C0.761805 5.335 5.82446 0 12.0448 0C15.0635 0.001 17.897 1.24 20.0284 3.488C22.1588 5.736 23.3317 8.724 23.3307 11.902C23.3279 18.459 18.2652 23.794 12.0448 23.794C10.1564 23.793 8.29553 23.294 6.6472 22.346L0.664062 24ZM6.9243 20.193C8.51474 21.188 10.0331 21.784 12.041 21.785C17.2109 21.785 21.4224 17.351 21.4252 11.9C21.4271 6.438 17.2356 2.01 12.0486 2.008C6.87495 2.008 2.66635 6.442 2.66445 11.892C2.6635 14.117 3.28222 15.783 4.32132 17.526L3.37332 21.174L6.9243 20.193ZM17.73 14.729C17.6598 14.605 17.4719 14.531 17.1891 14.382C16.9073 14.233 15.5209 13.514 15.2618 13.415C15.0037 13.316 14.8158 13.266 14.6269 13.564C14.439 13.861 13.8981 14.531 13.734 14.729C13.5698 14.927 13.4047 14.952 13.1229 14.803C12.841 14.654 11.9319 14.341 10.8549 13.328C10.0169 12.54 9.45041 11.567 9.28624 11.269C9.12207 10.972 9.26916 10.811 9.4096 10.663C9.53676 10.53 9.69144 10.316 9.83284 10.142C9.97613 9.97 10.0226 9.846 10.1175 9.647C10.2115 9.449 10.165 9.275 10.0938 9.126C10.0226 8.978 9.45895 7.515 9.22456 6.92C8.99491 6.341 8.76242 6.419 8.58971 6.41L8.04881 6.4C7.86091 6.4 7.55535 6.474 7.29724 6.772C7.03912 7.07 6.31033 7.788 6.31033 9.251C6.31033 10.714 7.32096 12.127 7.4614 12.325C7.6028 12.523 9.44946 15.525 12.2783 16.812C12.9511 17.118 13.4768 17.301 13.8858 17.438C14.5615 17.664 15.1764 17.632 15.6622 17.556C16.2041 17.471 17.3305 16.837 17.5658 16.143C17.8012 15.448 17.8012 14.853 17.73 14.729Z" fill="#F8F8F9"/>
</svg>
