<svg width="26" height="11" viewBox="0 0 26 11" fill="none" xmlns="http://www.w3.org/2000/svg">
<path fill-rule="evenodd" clip-rule="evenodd" d="M8.4739 0.839844H7.32941L6.4761 3.3588L5.56032 0.839844H4.4365V4.33986L3.25022 0.839844H2.20968L0.960938 4.55207H1.71015L1.98066 3.72997H3.43745L3.70796 4.55207H5.12326V1.63542L6.14298 4.55207H6.74646L7.76633 1.63542V4.55207H8.4739V0.839844ZM23.9998 4.55207H23.0011L21.6899 1.76785V4.55207H20.2749L20.0041 3.72997H18.5473L18.2768 4.55207H17.4649C17.132 4.55207 16.6949 4.44597 16.4454 4.12766C16.2163 3.80955 16.0914 3.38533 16.0914 2.72239C16.0914 2.16554 16.1539 1.66175 16.4659 1.26406C16.6739 0.972279 17.0487 0.839844 17.5272 0.839844H18.1932V1.63542H17.5272C17.2777 1.63542 17.1318 1.68847 16.9862 1.84762C16.8613 2.00677 16.7988 2.29836 16.7988 2.69605C16.7988 3.09374 16.8613 3.38552 16.9862 3.5712C17.0902 3.70364 17.2777 3.75669 17.4648 3.75669H17.7771L18.776 0.840036H19.8167L20.9821 4.34006V0.839844H22.0645L23.2924 3.41186V0.839844H23.9998V4.55207ZM23.0011 8.98029C22.8345 8.79442 22.5847 8.68851 22.1892 8.68851H21.8148C21.7123 8.68851 21.6298 8.66255 21.5478 8.63677L21.5443 8.63565C21.4608 8.58241 21.3987 8.50283 21.3987 8.3702C21.3987 8.23758 21.4194 8.158 21.5026 8.07842C21.5651 8.02556 21.6482 8.02556 21.7731 8.02556H23.0635V7.22999H21.6692C20.9198 7.22999 20.67 7.81336 20.67 8.34387C20.67 9.43568 21.3814 9.45914 22.0016 9.47959C22.0439 9.48099 22.0858 9.48237 22.1271 9.48408C22.2517 9.48408 22.3351 9.51041 22.3766 9.56366C22.4181 9.61652 22.46 9.72243 22.46 9.82872C22.46 9.93463 22.4183 10.0142 22.3766 10.0674C22.3142 10.1203 22.231 10.1466 22.1061 10.1466H20.7533V10.9422H22.1061C22.8135 10.9422 23.2091 10.5712 23.2091 9.77586C23.2091 9.4047 23.126 9.16578 23.0011 8.98029ZM25.9356 9.77586C25.9356 10.5714 25.5402 10.9422 24.8325 10.9422H23.4799V10.1466H24.8325C24.9574 10.1466 25.0615 10.1203 25.1033 10.0674C25.1448 10.0142 25.1864 9.93463 25.1864 9.82872C25.1864 9.72243 25.1449 9.61652 25.1033 9.56366C25.0615 9.51041 24.9784 9.48408 24.8534 9.48408C24.8122 9.48237 24.7703 9.48099 24.7279 9.47959L24.7278 9.47959L24.7277 9.47959C24.1078 9.45916 23.3966 9.43572 23.3966 8.34387C23.3966 7.81336 23.6672 7.22999 24.3955 7.22999H25.7899V8.02556H24.4995C24.3749 8.02556 24.2914 8.02556 24.229 8.07842C24.1665 8.158 24.125 8.23758 24.125 8.3702C24.125 8.50283 24.1875 8.58241 24.2706 8.63565L24.2724 8.63622C24.3553 8.66236 24.4381 8.68851 24.5414 8.68851H24.9159C25.3113 8.68851 25.5612 8.79442 25.7277 8.98029C25.8523 9.16578 25.9356 9.4047 25.9356 9.77586ZM18.6932 10.1736H20.337V10.9424H18.0063V7.23038H20.337V7.99923H18.6932V8.68889H20.2955V9.43103H18.6932V10.1736ZM17.2569 7.41605C17.0279 7.2569 16.7574 7.23018 16.4036 7.23018H14.8012V10.9422H15.5086V9.58999H16.258C16.5075 9.58999 16.6534 9.61671 16.7575 9.74914C16.8824 9.93463 16.8824 10.2529 16.8824 10.4917V10.9422H17.569V10.2262C17.569 9.88158 17.5484 9.72243 17.4651 9.53694C17.4026 9.43065 17.278 9.29821 17.1114 9.21863C17.2985 9.13944 17.611 8.82114 17.611 8.23758C17.6108 7.81355 17.4859 7.57482 17.2569 7.41605ZM11.0756 7.23018H13.3026C13.8438 7.23018 14.4682 7.44239 14.4684 8.44997C14.4684 9.48408 13.8646 9.69629 13.2611 9.69629H12.387V10.9422H11.0341L10.1808 9.72243L9.28588 10.9422H6.51774V7.23018H9.32737L10.1807 8.44997L11.0756 7.23018ZM16.6949 8.76828C16.5909 8.82114 16.4868 8.82114 16.3619 8.82114L15.5086 8.84785V7.99904H16.3619C16.4868 7.99904 16.6118 7.99904 16.6949 8.07861C16.7783 8.13186 16.8405 8.23777 16.8405 8.39692C16.8405 8.55607 16.7783 8.6887 16.6949 8.76828ZM12.3868 8.95376H13.3026C13.5523 8.95376 13.7189 8.76828 13.7189 8.44997C13.7189 8.13186 13.5524 7.99904 13.3026 7.99904H12.3868V8.95376ZM10.6178 9.0862L11.6999 7.62807V10.6243L10.6178 9.0862ZM7.20449 10.1736H8.93194L9.7228 9.08639L8.95276 7.99923H7.20449V8.68889H8.74456V9.43103H7.20449V10.1736ZM15.0302 0.839844H15.7376V4.55207H15.0302V0.839844ZM14.2599 0.998997C14.0309 0.839844 13.7813 0.839844 13.4275 0.839844H11.8249V4.55207H12.5116V3.19965H13.2608C13.5107 3.19965 13.6772 3.22618 13.7812 3.3588C13.891 3.52212 13.8881 3.78803 13.8857 3.99397C13.8854 4.02218 13.8851 4.04926 13.8851 4.0748V4.55207H14.5925V3.80955C14.5925 3.49143 14.5719 3.33228 14.4679 3.1466C14.4055 3.0405 14.2805 2.90787 14.135 2.82849C14.322 2.72239 14.6345 2.4308 14.6345 1.84743C14.6346 1.42321 14.4887 1.18448 14.2599 0.998997ZM9.70198 3.78317H11.3253V4.55222H8.9944V0.839996H11.3253V1.60885H9.70198V2.2718H11.3045V3.04065H9.70198V3.78317ZM19.2757 1.47626L19.7545 2.93459H18.7971L19.2757 1.47626ZM13.7189 2.35141C13.6149 2.43099 13.5108 2.43099 13.3651 2.43099H12.5116V1.60908H13.3649C13.4898 1.60908 13.6353 1.60908 13.7187 1.66213C13.8018 1.74171 13.8436 1.84781 13.8436 2.00677C13.8436 2.16573 13.802 2.29817 13.7189 2.35141ZM2.70905 1.47626L2.23035 2.93459H3.18776L2.70905 1.47626Z" fill="#0077A6"/>
</svg>
