<svg width="20" height="28" viewBox="0 0 20 28" fill="none" xmlns="http://www.w3.org/2000/svg">
<path d="M17.8313 15.175L13.7813 13.15C15.3938 11.9 16.4313 9.95 16.4313 7.75C16.4313 3.9625 13.3438 0.875 9.55625 0.875C5.76875 0.875 2.68125 3.9625 2.68125 7.75C2.68125 10.4125 4.20625 12.725 6.43125 13.8625V17.9375C3.74375 17.3625 3.90625 17.3875 3.60625 17.3875C2.94375 17.3875 2.31875 17.65 1.84375 18.125L0.09375 19.9L6.45625 26.2625C6.99375 26.8125 7.74375 27.125 8.51875 27.125H16.3938C17.6188 27.125 18.6563 26.25 18.8563 25.0375L19.8563 19.15C20.1313 17.525 19.3188 15.925 17.8313 15.175ZM17.3938 18.7375L16.3938 24.625H8.51875C8.40625 24.625 8.30625 24.575 8.21875 24.5L3.61875 19.9L8.93125 21.0125V7.75C8.93125 7.4 9.20625 7.125 9.55625 7.125C9.90625 7.125 10.1813 7.4 10.1813 7.75V15.25H12.3813L16.7063 17.4125C17.2063 17.6625 17.4813 18.2 17.3938 18.7375ZM5.18125 7.75C5.18125 5.3375 7.14375 3.375 9.55625 3.375C11.9688 3.375 13.9313 5.3375 13.9313 7.75C13.9313 8.9375 13.4563 10.0125 12.6813 10.8V7.75C12.6813 6.025 11.2813 4.625 9.55625 4.625C7.83125 4.625 6.43125 6.025 6.43125 7.75V10.8C5.65625 10.0125 5.18125 8.9375 5.18125 7.75Z" fill="#1AA1E1"/>
</svg>
