<svg width="13" height="17" viewBox="0 0 13 17" fill="none" xmlns="http://www.w3.org/2000/svg">
<path d="M6.5 0.583008C3.11375 0.583008 0.375 3.06092 0.375 6.12467C0.375 10.2809 6.5 16.4163 6.5 16.4163C6.5 16.4163 12.625 10.2809 12.625 6.12467C12.625 3.06092 9.88625 0.583008 6.5 0.583008ZM2.125 6.12467C2.125 3.93967 4.085 2.16634 6.5 2.16634C8.915 2.16634 10.875 3.93967 10.875 6.12467C10.875 8.40467 8.355 11.8168 6.5 13.9463C4.68 11.8326 2.125 8.38092 2.125 6.12467Z" fill="white"/>
<path d="M6.5 8.10384C7.70812 8.10384 8.6875 7.21774 8.6875 6.12467C8.6875 5.03161 7.70812 4.14551 6.5 4.14551C5.29188 4.14551 4.3125 5.03161 4.3125 6.12467C4.3125 7.21774 5.29188 8.10384 6.5 8.10384Z" fill="white"/>
</svg>
