<svg width="19" height="19" viewBox="0 0 19 19" fill="none" xmlns="http://www.w3.org/2000/svg">
<path fill-rule="evenodd" clip-rule="evenodd" d="M7.63719 9.7908C7.63719 6.9685 8.47006 4.45572 9.76684 2.82958C8.8106 1.63047 7.60266 0.912598 6.28805 0.912598C3.19066 0.912598 0.679688 4.88754 0.679688 9.7908C0.679688 14.6941 3.19066 18.669 6.28805 18.669C7.60266 18.669 8.8106 17.9511 9.76684 16.752C8.47006 15.1259 7.63719 12.6131 7.63719 9.7908Z" fill="#EB001B"/>
<path fill-rule="evenodd" clip-rule="evenodd" d="M7.63672 9.79081C7.63672 12.6131 8.46959 15.1259 9.76636 16.752C11.0631 15.1259 11.8959 12.6131 11.8959 9.79081C11.8959 6.96851 11.0631 4.45573 9.76636 2.82959C8.46959 4.45573 7.63672 6.96851 7.63672 9.79081Z" fill="#FF5E00"/>
<path fill-rule="evenodd" clip-rule="evenodd" d="M13.2443 0.912598C11.9297 0.912598 10.7218 1.63047 9.76562 2.82958C11.0623 4.45584 11.8952 6.9685 11.8952 9.7908C11.8952 12.6131 11.0623 15.1259 9.76562 16.752C10.7218 17.9511 11.9297 18.669 13.2443 18.669C16.3417 18.669 18.8527 14.6941 18.8527 9.7908C18.8527 4.88754 16.3417 0.912598 13.2443 0.912598Z" fill="#F79E1C"/>
</svg>
