<svg width="14" height="15" viewBox="0 0 14 15" fill="none" xmlns="http://www.w3.org/2000/svg">
<path d="M6.5451 11.3328L7.89081 11.3425L7.90288 9.97842L6.55717 9.96866L6.5451 11.3328ZM7.3145 0.424745C3.60033 0.397825 0.558905 3.43159 0.525598 7.19654C0.492291 10.9615 3.47965 14.039 7.19382 14.0659C10.908 14.0928 13.9494 11.059 13.9827 7.29408C14.016 3.52913 11.0287 0.451665 7.3145 0.424745ZM7.20589 12.7018C4.23859 12.6803 1.8447 10.2142 1.87131 7.2063C1.89792 4.19843 4.33513 1.76735 7.30243 1.78886C10.2697 1.81037 12.6636 4.27646 12.637 7.28433C12.6104 10.2922 10.1732 12.7233 7.20589 12.7018ZM7.29036 3.15297C5.80335 3.14219 4.58814 4.35435 4.5748 5.86169L5.92051 5.87145C5.92715 5.12118 6.53815 4.51172 7.27829 4.51709C8.01843 4.52245 8.61857 5.14069 8.61194 5.89095C8.59987 7.25507 6.58281 7.06992 6.5632 9.28661L7.90891 9.29636C7.92249 7.76173 9.94256 7.60585 9.95765 5.90071C9.97098 4.39336 8.77737 3.16375 7.29036 3.15297Z" fill="white"/>
</svg>
