<svg width="55" height="55" viewBox="0 0 55 55" fill="none" xmlns="http://www.w3.org/2000/svg">
<path d="M19.1016 12.4997L23.2682 16.6663H41.6641V37.4997H8.33073V12.4997H19.1016ZM20.8307 8.33301H8.33073C6.03906 8.33301 4.1849 10.208 4.1849 12.4997L4.16406 37.4997C4.16406 39.7913 6.03906 41.6663 8.33073 41.6663H41.6641C43.9557 41.6663 45.8307 39.7913 45.8307 37.4997V16.6663C45.8307 14.3747 43.9557 12.4997 41.6641 12.4997H24.9974L20.8307 8.33301Z" fill="#1B376F"/>
<circle cx="40" cy="40" r="15" fill="#154C75"/>
<path d="M41.6693 31.667H35.0026C34.0859 31.667 33.3443 32.417 33.3443 33.3337L33.3359 46.667C33.3359 47.5837 34.0776 48.3337 34.9943 48.3337H45.0026C45.9193 48.3337 46.6693 47.5837 46.6693 46.667V36.667L41.6693 31.667ZM45.0026 46.667H35.0026V33.3337H40.8359V37.5003H45.0026V46.667ZM36.6693 42.5087L37.8443 43.6837L39.1693 42.367V45.8337H40.8359V42.367L42.1609 43.692L43.3359 42.5087L40.0109 39.167L36.6693 42.5087Z" fill="#F8F8F9"/>
</svg>
