<svg width="24" height="14" viewBox="0 0 24 14" fill="none" xmlns="http://www.w3.org/2000/svg">
<path fill-rule="evenodd" clip-rule="evenodd" d="M17.1193 1.3853L16.8467 3.91545C16.0292 3.19215 14.1687 3.02101 14.1686 4.35321C14.1686 4.88246 14.5895 5.24644 15.0969 5.68513C15.8663 6.35045 16.8345 7.18761 16.8345 9.03374C16.8345 11.9837 14.8679 13.0675 13.5642 13.0675C12.261 13.0675 11.408 12.4022 11.408 12.4022L11.692 9.75673C12.4742 10.7649 14.8441 11.0514 14.8441 9.45259C14.8441 8.78075 14.3776 8.38455 13.8366 7.92511C13.0901 7.29119 12.2019 6.53689 12.2019 4.77207C12.2019 1.5369 14.4531 0.871582 15.4011 0.871582C16.2781 0.871582 17.1193 1.3853 17.1193 1.3853ZM23.4932 12.8643H21.7391L21.5153 11.1141H19.0869L18.6887 12.8643H16.6973L19.5464 1.95985C19.5464 1.95985 19.7191 1.0818 20.4282 1.0818H21.9638L23.4932 12.8643ZM6.71362 1.08211L4.89242 9.18596L4.67692 7.44089L4.67711 7.44152L4.03433 2.14296C4.03433 2.14296 3.95661 1.08211 3.12815 1.08211H0.11736L0.0820312 1.28161C0.0820312 1.28161 1.00274 1.58921 2.08026 2.62831L3.73992 12.8646H5.7303L8.76955 1.08211H6.71362ZM10.231 12.8643H8.32068L9.51459 1.08211H11.4251L10.231 12.8643ZM19.637 8.69651L20.6408 4.28735L21.2054 8.69651H19.637Z" fill="#2566AF"/>
<path d="M4.67711 7.44144L4.03433 2.14288C4.03433 2.14288 3.9566 1.08203 3.12815 1.08203H0.11736L0.0820312 1.28153C0.0820312 1.28153 1.52913 1.7631 2.91716 3.56743C4.24434 5.29201 4.67711 7.44144 4.67711 7.44144Z" fill="#E6A540"/>
</svg>
