<svg width="47" height="48" viewBox="0 0 47 48" fill="none" xmlns="http://www.w3.org/2000/svg">
<path d="M35.1747 23.5116C35.1747 23.0604 35.1806 22.6103 35.1736 22.1591C35.1618 21.3484 34.5449 20.7233 33.733 20.6998C33.3641 20.6892 32.9951 20.7092 32.6273 20.6892C32.5357 20.6845 32.4076 20.594 32.3677 20.5094C32.1973 20.1487 32.0457 19.7786 31.9082 19.4038C31.8789 19.3239 31.9047 19.1817 31.9623 19.1182C32.2079 18.8445 32.4781 18.5918 32.7331 18.3263C33.3147 17.72 33.3135 16.8599 32.7237 16.2606C32.0986 15.6261 31.4676 14.9975 30.8308 14.3736C30.2115 13.7673 29.3714 13.7626 28.7428 14.356C28.4902 14.5945 28.2411 14.8389 28.0025 15.0927C27.8862 15.2161 27.7899 15.2396 27.6301 15.1632C27.2975 15.0057 26.9568 14.8624 26.609 14.7425C26.4292 14.6803 26.3728 14.5933 26.3799 14.41C26.394 14.0728 26.3869 13.7344 26.3822 13.396C26.3681 12.5288 25.7395 11.9073 24.8782 11.9073C24.0181 11.9073 23.1568 11.9073 22.2967 11.9096C21.3532 11.9131 20.7493 12.5241 20.7469 13.4735C20.7469 13.8014 20.761 14.1304 20.7387 14.4559C20.7328 14.5475 20.6423 14.6744 20.5566 14.7143C20.2052 14.88 19.8457 15.0304 19.4791 15.1585C19.3839 15.1914 19.2194 15.162 19.1442 15.0962C18.8751 14.8612 18.6319 14.5957 18.3746 14.3466C17.7847 13.7767 16.9164 13.7685 16.3313 14.3407C15.6791 14.9775 15.0364 15.6238 14.3972 16.2736C13.8356 16.8435 13.8109 17.6624 14.3432 18.2699C14.5793 18.539 14.8402 18.7857 15.101 19.0301C15.2538 19.1735 15.2996 19.2945 15.1892 19.5036C15.0223 19.8185 14.9213 20.1675 14.7662 20.4895C14.7215 20.5811 14.5887 20.6798 14.49 20.6869C14.1328 20.7115 13.7733 20.6916 13.4149 20.701C12.6042 20.7209 11.9802 21.3026 11.9591 22.1098C11.9344 23.0416 11.9332 23.9745 11.9614 24.9063C11.9873 25.7558 12.6018 26.3198 13.4596 26.3363C13.8074 26.3421 14.1563 26.3245 14.5041 26.3445C14.5958 26.3504 14.7227 26.4373 14.7626 26.5219C14.9283 26.8732 15.0799 27.2328 15.208 27.5994C15.242 27.6957 15.215 27.8602 15.1492 27.9366C14.9213 28.1986 14.6604 28.4313 14.4184 28.6816C13.8085 29.3149 13.8109 30.1703 14.4278 30.793C15.0399 31.4123 15.6556 32.028 16.2737 32.6401C16.9117 33.2723 17.7636 33.2782 18.4075 32.6566C18.6425 32.4298 18.8787 32.2007 19.0996 31.9598C19.2312 31.8165 19.351 31.7953 19.5273 31.8776C19.861 32.0327 20.2111 32.1537 20.5413 32.3147C20.6329 32.3593 20.7316 32.4933 20.7387 32.592C20.7634 32.9492 20.7434 33.3087 20.7516 33.6671C20.7704 34.5013 21.3861 35.1182 22.2215 35.1253C23.1228 35.1335 24.024 35.13 24.9264 35.1206C25.743 35.1123 26.3622 34.499 26.3834 33.6835C26.3928 33.3252 26.3951 32.9668 26.3834 32.6084C26.3775 32.4357 26.4374 32.3546 26.5996 32.2959C26.945 32.1701 27.2881 32.0327 27.6207 31.8752C27.7922 31.7941 27.8991 31.8212 28.0202 31.9528C28.2364 32.1842 28.462 32.4087 28.6911 32.6272C29.3749 33.284 30.1986 33.2887 30.8719 32.6296C31.5017 32.0139 32.1221 31.3888 32.7401 30.7613C33.3171 30.175 33.3077 29.2738 32.7284 28.691C32.4899 28.4513 32.2584 28.2045 32.0058 27.9801C31.8542 27.845 31.8507 27.7322 31.9341 27.5571C32.0927 27.2257 32.229 26.8815 32.3571 26.5372C32.4123 26.3891 32.4793 26.3316 32.6438 26.3386C32.981 26.3539 33.3194 26.3445 33.6578 26.3386C34.5696 26.321 35.1736 25.71 35.1771 24.8029C35.1794 24.3728 35.1771 23.9428 35.1771 23.5116H35.1747ZM13.5477 24.7418C13.5477 23.9557 13.5512 23.2202 13.5453 22.4834C13.5442 22.3025 13.6417 22.2907 13.7803 22.2919C14.3843 22.2966 14.9894 22.2813 15.5922 22.3025C15.8554 22.3119 15.9682 22.2367 16.0234 21.97C16.1879 21.1745 16.4629 20.4143 16.8753 19.7093C17.0139 19.4731 17.1538 19.2381 17.3418 18.9173C16.7742 18.385 16.2032 17.8481 15.6556 17.3334C16.2455 16.7436 16.8071 16.1831 17.4405 15.5498C17.5145 15.6567 17.5826 15.7883 17.6813 15.8893C18.0808 16.2994 18.4839 16.7071 18.8998 17.1008C18.9633 17.1607 19.136 17.1936 19.2006 17.1513C20.1065 16.5685 21.0794 16.1549 22.1369 15.9446C22.3273 15.907 22.3426 15.7871 22.3414 15.6308C22.3379 15.0057 22.339 14.3818 22.3414 13.7567C22.3414 13.6792 22.3555 13.6016 22.3625 13.5276H24.7854C24.7854 14.2396 24.7948 14.9247 24.7795 15.6097C24.7748 15.8294 24.8512 15.9187 25.058 15.961C25.9063 16.1349 26.71 16.4298 27.4573 16.8716C27.6665 16.995 27.8756 17.1184 28.1741 17.2946C28.7087 16.7295 29.2445 16.1608 29.7462 15.6308C30.3314 16.2066 30.8966 16.7635 31.5123 17.3698C30.9553 17.9068 30.3913 18.4485 29.8214 18.9972C30.4806 19.9736 30.9165 21.0041 31.1574 22.118C31.1739 22.192 31.3254 22.2825 31.4159 22.286C31.9482 22.3025 32.4805 22.2943 33.0127 22.2943C33.1925 22.2943 33.3723 22.2943 33.5568 22.2943V24.743C32.8494 24.743 32.1644 24.7535 31.4817 24.7371C31.2479 24.7312 31.1786 24.824 31.1116 25.0308C30.8825 25.7288 30.6428 26.4244 30.3678 27.1059C30.2362 27.4325 30.0188 27.7251 29.7932 28.1129C30.3561 28.6451 30.9248 29.1821 31.477 29.705C30.8883 30.2937 30.3279 30.8553 29.7298 31.4534C29.2939 31.0057 28.8368 30.5663 28.4161 30.0951C28.187 29.8378 28.0143 29.7896 27.71 29.9964C26.9662 30.5005 26.1402 30.8271 25.2613 31.0257C24.7795 31.135 24.783 31.1467 24.783 31.6426C24.783 32.0938 24.783 32.5438 24.783 32.995C24.783 33.1654 24.783 33.3346 24.783 33.5061H22.3367C22.3367 32.7952 22.3285 32.1102 22.3414 31.4252C22.3449 31.2125 22.2803 31.1209 22.0664 31.0762C21.0853 30.8694 20.1641 30.5075 19.3287 29.9494C19.1101 29.8037 18.9715 29.8143 18.7882 30.0128C18.3323 30.5063 17.8505 30.9775 17.4099 31.4275C16.8024 30.8353 16.229 30.276 15.6263 29.6874C16.1891 29.1422 16.746 28.6017 17.3042 28.06C17.2207 27.9178 17.1585 27.8003 17.0868 27.6899C16.5674 26.8897 16.2196 26.0178 16.0246 25.0884C15.9658 24.8064 15.8519 24.7277 15.5781 24.7347C14.9154 24.7535 14.2515 24.7406 13.5442 24.7406L13.5477 24.7418Z" fill="#1B376F"/>
<path d="M5.95609 25.1508C5.62592 24.9511 5.3404 24.7795 5.05722 24.6045C4.42977 24.2179 3.80467 23.8278 3.1784 23.4412C2.91637 23.2802 2.64025 23.2238 2.37117 23.4095C2.08095 23.6092 1.9282 23.8901 1.9752 24.252C2.0128 24.541 2.20315 24.7161 2.4405 24.863C3.78235 25.689 5.12185 26.5185 6.46252 27.3469C7.28032 27.8522 7.37549 27.8263 8.01352 27.1049C9.06397 25.9158 10.1262 24.7384 11.1872 23.5587C11.3881 23.3355 11.4668 23.0875 11.3905 22.795C11.3094 22.4801 11.1026 22.278 10.8018 22.1804C10.501 22.0829 10.2613 22.2098 10.0627 22.4307C9.52222 23.0323 8.98289 23.6351 8.44239 24.2367C8.17919 24.5304 7.91364 24.823 7.64927 25.1168C7.61755 25.1097 7.58582 25.1038 7.55527 25.0968C7.53295 24.5316 7.4789 23.9653 7.49535 23.4013C7.66337 17.6649 10.1226 13.1705 14.9037 10.0051C18.0104 7.94765 21.472 7.16628 25.1779 7.53523C28.9438 7.91123 32.1762 9.46223 34.8693 12.1072C36.8809 14.0823 38.2639 16.4488 39.0394 19.163C39.0735 19.2805 39.1017 19.4016 39.1475 19.5155C39.312 19.928 39.7127 20.1289 40.1157 20.0067C40.5234 19.8833 40.7831 19.4944 40.6562 19.0737C40.413 18.2618 40.1733 17.4417 39.8407 16.665C38.1546 12.7252 35.4039 9.74423 31.5899 7.79608C27.4081 5.65993 23.0218 5.26513 18.5239 6.59875C14.194 7.8842 10.8464 10.508 8.47999 14.3514C6.49072 17.5827 5.67645 21.1112 5.95609 24.8935C5.96079 24.9605 5.95609 25.0275 5.95609 25.1532V25.1508Z" fill="#1B376F"/>
<path d="M41.2086 24.6959C41.9195 25.3927 42.5681 26.0295 43.2167 26.6652C43.3624 26.8085 43.5069 26.9542 43.655 27.0952C44.0075 27.4325 44.4704 27.4278 44.8006 27.0835C45.1226 26.7474 45.1132 26.3068 44.7689 25.9614C44.3776 25.5701 43.9805 25.1847 43.5892 24.7946C42.7479 23.958 41.9089 23.119 41.07 22.2801C40.768 21.9781 40.4249 21.9722 40.0207 22.2648C39.5225 22.6244 39.0255 22.9827 38.5249 23.3388C37.666 23.9509 36.8083 24.5619 35.947 25.1694C35.6779 25.3586 35.5052 25.5924 35.524 25.9367C35.5428 26.2575 35.6885 26.5089 35.9634 26.6664C36.2384 26.8226 36.4957 26.731 36.7366 26.5594C37.4616 26.0424 38.1865 25.5278 38.9127 25.0131C39.076 24.898 39.2417 24.7864 39.4802 24.7123C39.3933 25.2305 39.3322 25.7557 39.2135 26.2669C38.0596 31.2524 35.343 35.1252 30.8722 37.6573C27.0522 39.8205 22.9856 40.1671 18.8167 38.8488C14.5032 37.4846 11.3037 34.7468 9.20398 30.7319C9.10763 30.5462 8.98543 30.3523 8.82328 30.2278C8.53188 30.0034 8.12885 30.0551 7.86095 30.2959C7.58365 30.545 7.49318 30.9293 7.69998 31.2747C8.29335 32.2652 8.83503 33.2981 9.53298 34.211C12.2625 37.7783 15.851 40.0261 20.269 40.8674C24.2217 41.6206 28.0298 41.1036 31.6042 39.2318C36.2913 36.7772 39.3181 32.9585 40.6834 27.8484C40.9255 26.9437 41.003 25.9954 41.1558 25.0672C41.1722 24.9685 41.184 24.8698 41.2075 24.6959H41.2086Z" fill="#1B376F"/>
<path d="M28.6922 23.5982C28.7545 20.7946 26.4926 18.454 23.6609 18.3917C20.8738 18.3318 18.4968 20.5866 18.4415 23.3444C18.384 26.2208 20.5906 28.5731 23.4083 28.6401C26.2917 28.7082 28.6276 26.4781 28.6922 23.5982ZM23.5199 19.9862C25.4316 19.9463 27.059 21.5067 27.0989 23.4196C27.1412 25.4077 25.582 27.0245 23.5939 27.055C21.6704 27.0844 20.0666 25.5169 20.029 23.5711C19.9902 21.6289 21.5494 20.0273 23.5199 19.9874V19.9862Z" fill="#1B376F"/>
</svg>
