<svg width="400" height="400" viewBox="0 0 400 400" fill="none" xmlns="http://www.w3.org/2000/svg">
<path d="M286.02 278.11C282.39 275.79 278.81 274 275.83 271.49C269.71 266.34 266.75 259.45 266.72 251.49C266.64 229.46 266.65 207.42 266.72 185.39C266.74 176.32 270.54 169.04 277.65 163.44C278.21 163 278.74 162.06 278.69 161.4C276.4 130.43 262.92 105.84 235.29 91.0401C207.22 76.0101 179.45 78.7801 154.06 97.9101C133.39 113.49 123.22 135.13 121.29 160.8C121.19 162.19 121.62 162.98 122.71 163.82C129.7 169.26 133.28 176.48 133.31 185.33C133.37 207.24 133.33 229.16 133.33 251.07C133.33 264.59 123.62 276.18 110.67 278.12C97.06 280.16 84.47 272.35 80.41 259.24C80 257.93 79.47 257.45 78.11 257.25C65.44 255.39 55.81 244.27 55.67 231.3C55.58 222.51 55.58 213.72 55.67 204.93C55.82 191.61 65.34 180.81 78.57 178.84C79.6 178.69 80.14 178.34 80.46 177.28C82.18 171.62 85.47 167.01 90.24 163.52C91.2 162.82 91.49 162.06 91.54 160.93C92.3 142.98 96.61 125.94 105.12 110.09C118.73 84.7401 138.64 66.3001 165.95 56.7801C192.47 47.5301 218.89 48.7301 244.22 60.9701C276.17 76.4101 295.86 102.2 304.98 136.29C307.13 144.33 308.23 152.56 308.5 160.88C308.54 162.09 308.92 162.88 309.91 163.61C314.64 167.07 317.83 171.66 319.59 177.24C319.91 178.26 320.35 178.69 321.42 178.85C334.85 180.77 344.51 192.1 344.41 205.64C344.35 214 344.41 222.36 344.39 230.73C344.35 244.28 334.98 255.21 321.6 257.31C320.56 257.47 320.07 257.84 319.74 258.88C316.46 269.16 309.54 275.51 299.05 278.01C298.43 278.16 297.6 278.77 297.44 279.33C293 294.89 283.46 306.78 270.77 316.33C256.9 326.76 241.15 332.91 224.18 335.96C218.32 337.01 212.34 337.43 206.4 338.03C205.22 338.15 204.6 338.48 204.07 339.56C200.94 345.98 195.76 349.25 188.62 349.32C183.8 349.37 178.99 349.34 174.17 349.32C164.79 349.28 157.43 341.96 157.37 332.63C157.31 323.4 164.77 315.9 174.1 315.85C178.92 315.82 183.74 315.78 188.55 315.85C195.73 315.96 201.01 319.2 204.11 325.74C204.64 326.86 205.35 326.86 206.28 326.81C219.6 326.09 232.49 323.44 244.81 318.25C255.84 313.6 265.75 307.31 273.92 298.46C279.06 292.89 283.11 286.63 285.6 279.42C285.8 278.85 285.97 278.28 286.02 278.12V278.11ZM309.57 218.48C309.57 207.49 309.6 196.5 309.57 185.52C309.54 177.64 304.25 171.09 296.92 169.73C286.8 167.84 277.99 175.16 277.97 185.57C277.93 207.36 277.96 229.15 277.97 250.95C277.97 251.5 277.97 252.05 278.03 252.6C278.61 258.7 281.63 263.2 287.17 265.76C297.76 270.66 309.46 263.09 309.57 251.27C309.67 240.34 309.59 229.42 309.59 218.49L309.57 218.48ZM90.48 218.19C90.48 229.3 90.44 240.41 90.49 251.52C90.52 258.81 95.49 265.05 102.44 266.75C112.63 269.24 122.06 261.74 122.08 251.04C122.11 229.25 122.08 207.46 122.08 185.66C122.08 185.05 122.06 184.44 122.01 183.83C121.45 176.85 116.1 170.94 109.21 169.68C99.32 167.88 90.57 175.15 90.49 185.41C90.4 196.34 90.47 207.26 90.47 218.19H90.48ZM110.17 158.25C110.24 157.73 110.31 157.31 110.34 156.9C111.12 148.28 112.89 139.87 115.97 131.79C125.66 106.32 142.37 87.1101 167.91 77.1101C201.33 64.0301 231.96 70.2501 258.68 93.8901C276.65 109.79 286.41 130.37 289.39 154.17C289.56 155.54 289.72 156.91 289.88 158.19H297C297 157.68 297.02 157.32 297 156.97C295.72 140.72 291.14 125.46 282.85 111.42C270.2 89.9701 252.5 74.2201 228.59 66.8201C194.13 56.1601 163.09 63.4601 136.36 87.5601C118.18 103.96 107.82 124.84 103.95 148.97C103.46 152 103.23 155.08 102.87 158.25H110.18H110.17ZM79.13 190.14C78.56 190.25 78.26 190.29 77.98 190.37C71.69 192.14 67.06 197.85 66.93 204.52C66.76 213.49 66.74 222.46 66.91 231.43C67.02 237.16 69.83 241.54 74.81 244.41C76.08 245.14 77.55 245.53 79.13 246.16V190.15V190.14ZM320.9 245.87C327.66 244.88 333.07 238.43 333.14 231.26C333.22 222.47 333.19 213.68 333.15 204.89C333.14 201.69 332.15 198.75 330.25 196.18C327.94 193.05 324.95 190.93 320.91 190.14V245.86L320.9 245.87ZM181.29 338.11C183.67 338.11 186.04 338.11 188.42 338.11C188.48 338.11 188.54 338.11 188.6 338.11C191.9 338.03 194.31 335.79 194.4 332.74C194.49 329.62 192.12 327.15 188.73 327.09C183.92 327 179.1 327 174.29 327.09C170.9 327.15 168.63 329.42 168.61 332.52C168.59 335.72 170.92 338.02 174.35 338.1C176.66 338.15 178.98 338.1 181.3 338.1L181.29 338.11Z" fill="#154C75"/>
</svg>
