<svg width="47" height="48" viewBox="0 0 47 48" fill="none" xmlns="http://www.w3.org/2000/svg">
<path d="M41.4845 23.5241C41.4845 24.222 41.4927 24.92 41.4821 25.6179C41.4633 26.8728 40.5092 27.841 39.252 27.8763C38.6809 27.8927 38.1087 27.861 37.54 27.8939C37.3978 27.9021 37.2004 28.0408 37.1381 28.1724C36.8749 28.7305 36.6399 29.3039 36.4273 29.8832C36.3814 30.0077 36.4226 30.2275 36.5107 30.3262C36.8914 30.7503 37.3085 31.1416 37.7033 31.5529C38.6034 32.4905 38.6022 33.823 37.688 34.75C36.7198 35.7323 35.7434 36.7064 34.7576 37.6711C33.7988 38.6099 32.4981 38.617 31.5252 37.6981C31.1339 37.328 30.7485 36.9508 30.3795 36.5584C30.1998 36.3668 30.0505 36.3316 29.8026 36.4491C29.288 36.6923 28.7604 36.9144 28.2222 37.1C27.9449 37.1964 27.8556 37.3303 27.8674 37.6147C27.8885 38.1376 27.8791 38.6616 27.8709 39.1845C27.8498 40.5263 26.8757 41.4887 25.5421 41.4898C24.2096 41.4898 22.8772 41.4898 21.5447 41.4863C20.0842 41.4816 19.1477 40.5357 19.1442 39.0646C19.143 38.557 19.1653 38.0483 19.1313 37.543C19.1219 37.4008 18.9809 37.2058 18.8493 37.1435C18.3052 36.8874 17.7483 36.6535 17.1808 36.455C17.0327 36.4033 16.7789 36.4491 16.6614 36.5513C16.2443 36.9144 15.8683 37.3256 15.47 37.711C14.557 38.5923 13.2128 38.6064 12.3057 37.7204C11.2964 36.7346 10.3023 35.7335 9.31178 34.7277C8.44228 33.8441 8.40468 32.5763 9.22953 31.6375C9.59496 31.2215 9.99915 30.8396 10.4034 30.4601C10.6395 30.2369 10.7112 30.0512 10.5397 29.7269C10.2823 29.2393 10.1249 28.6988 9.88401 28.2006C9.81468 28.0584 9.60905 27.9057 9.45513 27.8951C8.90288 27.8563 8.34593 27.8869 7.79133 27.8728C6.53525 27.841 5.57058 26.941 5.5365 25.692C5.49773 24.2502 5.49538 22.805 5.53885 21.3633C5.5788 20.0473 6.52938 19.1742 7.8583 19.1496C8.39763 19.139 8.93813 19.1684 9.4751 19.1366C9.61728 19.1284 9.8135 18.9921 9.8746 18.8629C10.1319 18.3188 10.3646 17.7619 10.5643 17.1955C10.6172 17.0463 10.5749 16.7913 10.4739 16.6738C10.1214 16.2685 9.71715 15.9089 9.3435 15.52C8.3988 14.5389 8.4035 13.2158 9.3576 12.25C10.3058 11.2923 11.2588 10.3382 12.2164 9.39001C13.2046 8.41124 14.5229 8.40301 15.5193 9.36416C15.8836 9.71666 16.249 10.0692 16.5909 10.4428C16.7942 10.6649 16.981 10.6966 17.2536 10.5697C17.7694 10.3288 18.3123 10.142 18.8234 9.89291C18.9656 9.82359 19.1172 9.61561 19.1277 9.46286C19.1653 8.91061 19.1348 8.35366 19.1477 7.79906C19.1771 6.50656 20.13 5.55364 21.4225 5.54189C22.8184 5.53014 24.2143 5.53484 25.609 5.54776C26.8745 5.56069 27.8333 6.51126 27.865 7.77204C27.8791 8.32664 27.8838 8.88241 27.865 9.43701C27.8556 9.70491 27.9485 9.83064 28.1999 9.92111C28.7357 10.1162 29.2668 10.3277 29.7803 10.5721C30.0458 10.6978 30.2115 10.6555 30.3995 10.4534C30.7344 10.095 31.0834 9.74839 31.4382 9.40881C32.4969 8.39244 33.7718 8.38539 34.814 9.40529C35.7881 10.3594 36.7504 11.3264 37.7057 12.2981C38.5987 13.2064 38.5846 14.6 37.6869 15.5035C37.3179 15.8748 36.9584 16.2567 36.5683 16.6033C36.3333 16.8125 36.3274 16.9864 36.4578 17.259C36.7034 17.7725 36.9149 18.3047 37.1123 18.8382C37.1969 19.0685 37.3003 19.1566 37.5564 19.146C38.0781 19.1225 38.6034 19.1378 39.1262 19.1472C40.5374 19.1742 41.4727 20.1213 41.4798 21.5242C41.4833 22.1905 41.4798 22.8567 41.4798 23.5229L41.4845 23.5241ZM8.00165 21.6206C8.00165 22.8379 8.00753 23.9776 7.99813 25.1162C7.99578 25.3959 8.14736 25.4147 8.36121 25.4135C9.29651 25.4064 10.233 25.4311 11.1671 25.397C11.5748 25.3829 11.7499 25.4981 11.8357 25.9105C12.0907 27.1431 12.516 28.3181 13.154 29.4097C13.3679 29.7751 13.5841 30.1405 13.8767 30.6352C12.9989 31.46 12.1142 32.2908 11.2658 33.0886C12.1788 34.0004 13.0483 34.8699 14.0294 35.8498C14.1446 35.6842 14.2503 35.4809 14.4031 35.3234C15.0211 34.6878 15.645 34.058 16.2889 33.4481C16.3876 33.3553 16.6544 33.3036 16.7554 33.3694C18.1584 34.2718 19.6647 34.911 21.3015 35.2377C21.5964 35.2964 21.6199 35.4821 21.6187 35.7241C21.6129 36.6911 21.6152 37.6582 21.6187 38.6252C21.6187 38.745 21.6399 38.8649 21.6516 38.9789H25.4034C25.4034 37.8767 25.4175 36.8157 25.3952 35.7547C25.3881 35.4151 25.5068 35.2753 25.8252 35.2106C27.1389 34.9427 28.3832 34.4845 29.5406 33.8006C29.8637 33.6091 30.188 33.4188 30.6498 33.1462C31.477 34.0215 32.3077 34.9016 33.0844 35.7229C33.9903 34.8311 34.8657 33.9687 35.8186 33.0298C34.9562 32.1991 34.0831 31.3602 33.2007 30.5106C34.2218 28.9984 34.8962 27.4039 35.2699 25.6779C35.2946 25.5639 35.5296 25.4229 35.6706 25.4182C36.4942 25.3935 37.3191 25.4053 38.1439 25.4053C38.4224 25.4053 38.7009 25.4053 38.9864 25.4053V21.6147C37.8913 21.6147 36.8315 21.5983 35.7728 21.6241C35.4109 21.6323 35.304 21.489 35.1994 21.1694C34.8457 20.0884 34.4732 19.0121 34.0479 17.9569C33.8434 17.4505 33.5074 16.9981 33.1596 16.3989C34.0303 15.5752 34.9115 14.7421 35.7669 13.9337C34.8563 13.0219 33.9868 12.1524 33.0609 11.2265C32.3853 11.9186 31.6791 12.5989 31.027 13.3286C30.6721 13.7258 30.4054 13.8021 29.933 13.4825C28.7827 12.7012 27.502 12.1959 26.1425 11.8881C25.3964 11.7189 25.4022 11.7012 25.4034 10.934C25.4046 10.236 25.4034 9.53806 25.4034 8.84129C25.4034 8.57809 25.4034 8.31489 25.4034 8.05051H21.6152C21.6152 9.15149 21.6035 10.2125 21.6223 11.2724C21.6281 11.6014 21.5271 11.7435 21.1957 11.8129C19.6776 12.1325 18.2512 12.6929 16.9575 13.5566C16.6191 13.7833 16.4041 13.7657 16.1209 13.459C15.4147 12.6941 14.6698 11.9644 13.9871 11.2688C13.0471 12.1865 12.16 13.0525 11.2259 13.9631C12.0965 14.8079 12.959 15.6434 13.825 16.4823C13.6957 16.7032 13.5994 16.8842 13.4877 17.0557C12.684 18.2942 12.1447 19.6442 11.8439 21.0824C11.7523 21.5184 11.5772 21.6406 11.1518 21.6288C10.1261 21.6006 9.0991 21.6194 8.00283 21.6194L8.00165 21.6206Z" fill="#1B376F"/>
<path d="M29.4054 30.4344H27.1729V19.252H29.4054V30.4344Z" fill="#1B376F"/>
<path d="M25.7243 30.4365H23.5V21.3408H25.7243V30.4365Z" fill="#1B376F"/>
<path d="M19.8223 23.5127H22.0465V30.4311H19.8223V23.5127Z" fill="#1B376F"/>
<path d="M26.024 15.9279C25.8254 15.5825 25.6339 15.25 25.4318 14.8975H29.2623C28.6231 16.0055 27.9933 17.1006 27.3482 18.2192C27.1426 17.8643 26.9487 17.5306 26.7455 17.1793C23.1511 18.9818 19.5662 20.7795 15.9801 22.5773C15.9754 22.569 15.9695 22.5608 15.9648 22.5514C19.3136 20.3459 22.6635 18.1405 26.024 15.9268V15.9279Z" fill="#1B376F"/>
<path d="M16.1362 25.9043H18.3711V30.4351H16.1362V25.9043Z" fill="#1B376F"/>
</svg>
