<svg width="47" height="48" viewBox="0 0 47 48" fill="none" xmlns="http://www.w3.org/2000/svg">
<path d="M33.6073 32.6907C33.1807 32.4181 32.7601 32.2077 32.4099 31.9128C31.6908 31.3077 31.343 30.4981 31.3395 29.5628C31.3301 26.9743 31.3313 24.3846 31.3395 21.7961C31.3419 20.7303 31.7884 19.8749 32.6238 19.2169C32.6896 19.1652 32.7519 19.0548 32.746 18.9772C32.4769 15.3383 30.893 12.4489 27.6465 10.7099C24.3483 8.94392 21.0853 9.2694 18.102 11.5172C15.6732 13.3478 14.4783 15.8905 14.2515 18.9067C14.2397 19.0701 14.2903 19.1629 14.4183 19.2616C15.2397 19.9008 15.6603 20.7491 15.6638 21.789C15.6709 24.3634 15.6662 26.939 15.6662 29.5135C15.6662 31.1021 14.5253 32.4639 13.0036 32.6918C11.4045 32.9315 9.92513 32.0139 9.44808 30.4734C9.39991 30.3195 9.33763 30.2631 9.17783 30.2396C7.68911 30.0211 6.55758 28.7145 6.54113 27.1905C6.53056 26.1577 6.53056 25.1248 6.54113 24.092C6.55876 22.5269 7.67736 21.2579 9.23188 21.0264C9.35291 21.0088 9.41636 20.9677 9.45396 20.8431C9.65606 20.1781 10.0426 19.6364 10.6031 19.2263C10.7159 19.1441 10.75 19.0548 10.7559 18.922C10.8452 16.8129 11.3516 14.8107 12.3515 12.9483C13.9507 9.9697 16.2901 7.803 19.499 6.6844C22.6151 5.59752 25.7195 5.73852 28.6958 7.17672C32.4499 8.99092 34.7635 12.0212 35.8351 16.0268C36.0877 16.9715 36.2169 17.9385 36.2487 18.9162C36.2534 19.0583 36.298 19.1511 36.4143 19.2369C36.9701 19.6435 37.3449 20.1828 37.5517 20.8384C37.5893 20.9583 37.641 21.0088 37.7668 21.0276C39.3448 21.2532 40.4798 22.5845 40.4681 24.1754C40.461 25.1577 40.4681 26.14 40.4657 27.1235C40.461 28.7156 39.3601 29.9999 37.7879 30.2467C37.6657 30.2655 37.6081 30.3089 37.5694 30.4311C37.184 31.639 36.3709 32.3852 35.1383 32.6789C35.0654 32.6965 34.9679 32.7682 34.9491 32.834C34.4274 34.6623 33.3065 36.0594 31.8154 37.1815C30.1857 38.407 28.335 39.1297 26.3411 39.488C25.6525 39.6114 24.9499 39.6608 24.2519 39.7313C24.1133 39.7454 24.0404 39.7841 23.9781 39.911C23.6104 40.6654 23.0017 41.0496 22.1628 41.0578C21.5964 41.0637 21.0312 41.0602 20.4649 41.0578C19.3627 41.0532 18.4979 40.193 18.4909 39.0968C18.4838 38.0122 19.3604 37.131 20.4567 37.1251C21.023 37.1216 21.5894 37.1169 22.1545 37.1251C22.9982 37.138 23.6186 37.5187 23.9828 38.2872C24.0451 38.4188 24.1285 38.4188 24.2378 38.4129C25.8029 38.3283 27.3175 38.0169 28.7651 37.4071C30.0611 36.8607 31.2255 36.1217 32.1855 35.0818C32.7895 34.4273 33.2653 33.6918 33.5579 32.8446C33.5814 32.7776 33.6014 32.7106 33.6073 32.6918V32.6907ZM36.3744 25.6841C36.3744 24.3928 36.3779 23.1015 36.3744 21.8113C36.3709 20.8854 35.7493 20.1158 34.888 19.956C33.6989 19.7339 32.6637 20.594 32.6614 21.8172C32.6567 24.3776 32.6602 26.9379 32.6614 29.4994C32.6614 29.564 32.6614 29.6286 32.6684 29.6932C32.7366 30.41 33.0914 30.9387 33.7424 31.2395C34.9867 31.8153 36.3615 30.9258 36.3744 29.537C36.3861 28.2527 36.3767 26.9696 36.3767 25.6853L36.3744 25.6841ZM10.6313 25.6501C10.6313 26.9555 10.6266 28.2609 10.6325 29.5663C10.636 30.4229 11.22 31.1561 12.0366 31.3559C13.2339 31.6484 14.342 30.7672 14.3443 29.5099C14.3478 26.9496 14.3443 24.3893 14.3443 21.8278C14.3443 21.7561 14.342 21.6844 14.3361 21.6128C14.2703 20.7926 13.6417 20.0982 12.8321 19.9501C11.67 19.7386 10.6419 20.5929 10.6325 21.7984C10.6219 23.0827 10.6301 24.3658 10.6301 25.6501H10.6313ZM12.9449 18.6071C12.9531 18.546 12.9613 18.4967 12.9649 18.4485C13.0565 17.4356 13.2645 16.4475 13.6264 15.4981C14.765 12.5053 16.7284 10.2482 19.7293 9.07317C23.6562 7.53627 27.2552 8.26712 30.3948 11.0448C32.5063 12.9131 33.6531 15.3312 34.0032 18.1277C34.0232 18.2887 34.042 18.4497 34.0608 18.6001H34.8974C34.8974 18.5401 34.8998 18.4978 34.8974 18.4567C34.747 16.5473 34.2089 14.7543 33.2348 13.1046C31.7484 10.5842 29.6687 8.7336 26.8592 7.8641C22.8102 6.61155 19.163 7.4693 16.0222 10.301C13.8861 12.228 12.6688 14.6814 12.214 17.5167C12.1565 17.8727 12.1294 18.2346 12.0871 18.6071H12.9461H12.9449ZM9.29768 22.3542C9.23071 22.3671 9.19546 22.3718 9.16256 22.3812C8.42348 22.5892 7.87946 23.2601 7.86418 24.0438C7.84421 25.0978 7.84186 26.1518 7.86184 27.2058C7.87476 27.879 8.20493 28.3937 8.79008 28.7309C8.93931 28.8167 9.11203 28.8625 9.29768 28.9365V22.3554V22.3542ZM37.7057 28.9025C38.5 28.7861 39.1356 28.0283 39.1439 27.1858C39.1533 26.153 39.1497 25.1201 39.145 24.0873C39.1439 23.7113 39.0275 23.3659 38.8043 23.0639C38.5329 22.6961 38.1815 22.447 37.7068 22.3542V28.9013L37.7057 28.9025ZM21.3015 39.7407C21.5811 39.7407 21.8596 39.7407 22.1393 39.7407C22.1463 39.7407 22.1534 39.7407 22.1604 39.7407C22.5482 39.7313 22.8313 39.4681 22.8419 39.1097C22.8525 38.7431 22.574 38.4529 22.1757 38.4458C21.6105 38.4352 21.0442 38.4352 20.479 38.4458C20.0807 38.4529 19.8139 38.7196 19.8116 39.0838C19.8092 39.4598 20.083 39.7301 20.486 39.7395C20.7575 39.7454 21.0301 39.7395 21.3027 39.7395L21.3015 39.7407Z" fill="#1B376F"/>
</svg>
