<svg width="400" height="400" viewBox="0 0 400 400" fill="none" xmlns="http://www.w3.org/2000/svg">
<path d="M353.06 200.1C353.06 206.04 353.13 211.98 353.04 217.92C352.88 228.6 344.76 236.84 334.06 237.14C329.2 237.28 324.33 237.01 319.49 237.29C318.28 237.36 316.6 238.54 316.07 239.66C313.83 244.41 311.83 249.29 310.02 254.22C309.63 255.28 309.98 257.15 310.73 257.99C313.97 261.6 317.52 264.93 320.88 268.43C328.54 276.41 328.53 287.75 320.75 295.64C312.51 304 304.2 312.29 295.81 320.5C287.65 328.49 276.58 328.55 268.3 320.73C264.97 317.58 261.69 314.37 258.55 311.03C257.02 309.4 255.75 309.1 253.64 310.1C249.26 312.17 244.77 314.06 240.19 315.64C237.83 316.46 237.07 317.6 237.17 320.02C237.35 324.47 237.27 328.93 237.2 333.38C237.02 344.8 228.73 352.99 217.38 353C206.04 353 194.7 353 183.36 352.97C170.93 352.93 162.96 344.88 162.93 332.36C162.92 328.04 163.11 323.71 162.82 319.41C162.74 318.2 161.54 316.54 160.42 316.01C155.79 313.83 151.05 311.84 146.22 310.15C144.96 309.71 142.8 310.1 141.8 310.97C138.25 314.06 135.05 317.56 131.66 320.84C123.89 328.34 112.45 328.46 104.73 320.92C96.1402 312.53 87.6802 304.01 79.2502 295.45C71.8502 287.93 71.5302 277.14 78.5502 269.15C81.6602 265.61 85.1002 262.36 88.5402 259.13C90.5502 257.23 91.1602 255.65 89.7002 252.89C87.5102 248.74 86.1702 244.14 84.1202 239.9C83.5302 238.69 81.7802 237.39 80.4702 237.3C75.7702 236.97 71.0302 237.23 66.3102 237.11C55.6202 236.84 47.4102 229.18 47.1202 218.55C46.7902 206.28 46.7702 193.98 47.1402 181.71C47.4802 170.51 55.5702 163.08 66.8802 162.87C71.4702 162.78 76.0702 163.03 80.6402 162.76C81.8502 162.69 83.5202 161.53 84.0402 160.43C86.2302 155.8 88.2102 151.06 89.9102 146.24C90.3602 144.97 90.0002 142.8 89.1402 141.8C86.1402 138.35 82.7002 135.29 79.5202 131.98C71.4802 123.63 71.5202 112.37 79.6402 104.15C87.7102 96.0002 95.8202 87.8802 103.97 79.8102C112.38 71.4802 123.6 71.4102 132.08 79.5902C135.18 82.5902 138.29 85.5902 141.2 88.7702C142.93 90.6602 144.52 90.9302 146.84 89.8502C151.23 87.8002 155.85 86.2102 160.2 84.0902C161.41 83.5002 162.7 81.7302 162.79 80.4302C163.11 75.7302 162.85 70.9902 162.96 66.2702C163.21 55.2702 171.32 47.1602 182.32 47.0602C194.2 46.9602 206.08 47.0002 217.95 47.1102C228.72 47.2202 236.88 55.3102 237.15 66.0402C237.27 70.7602 237.31 75.4902 237.15 80.2102C237.07 82.4902 237.86 83.5602 240 84.3302C244.56 85.9902 249.08 87.7902 253.45 89.8702C255.71 90.9402 257.12 90.5802 258.72 88.8602C261.57 85.8102 264.54 82.8602 267.56 79.9702C276.57 71.3202 287.42 71.2602 296.29 79.9402C304.58 88.0602 312.77 96.2902 320.9 104.56C328.5 112.29 328.38 124.15 320.74 131.84C317.6 135 314.54 138.25 311.22 141.2C309.22 142.98 309.17 144.46 310.28 146.78C312.37 151.15 314.17 155.68 315.85 160.22C316.57 162.18 317.45 162.93 319.63 162.84C324.07 162.64 328.54 162.77 332.99 162.85C345 163.08 352.96 171.14 353.02 183.08C353.05 188.75 353.02 194.42 353.02 200.09L353.06 200.1ZM68.1002 183.9C68.1002 194.26 68.1502 203.96 68.0702 213.65C68.0502 216.03 69.3402 216.19 71.1602 216.18C79.1202 216.12 87.0902 216.33 95.0402 216.04C98.5102 215.92 100 216.9 100.73 220.41C102.9 230.9 106.52 240.9 111.95 250.19C113.77 253.3 115.61 256.41 118.1 260.62C110.63 267.64 103.1 274.71 95.8802 281.5C103.65 289.26 111.05 296.66 119.4 305C120.38 303.59 121.28 301.86 122.58 300.52C127.84 295.11 133.15 289.75 138.63 284.56C139.47 283.77 141.74 283.33 142.6 283.89C154.54 291.57 167.36 297.01 181.29 299.79C183.8 300.29 184 301.87 183.99 303.93C183.94 312.16 183.96 320.39 183.99 328.62C183.99 329.64 184.17 330.66 184.27 331.63H216.2C216.2 322.25 216.32 313.22 216.13 304.19C216.07 301.3 217.08 300.11 219.79 299.56C230.97 297.28 241.56 293.38 251.41 287.56C254.16 285.93 256.92 284.31 260.85 281.99C267.89 289.44 274.96 296.93 281.57 303.92C289.28 296.33 296.73 288.99 304.84 281C297.5 273.93 290.07 266.79 282.56 259.56C291.25 246.69 296.99 233.12 300.17 218.43C300.38 217.46 302.38 216.26 303.58 216.22C310.59 216.01 317.61 216.11 324.63 216.11C327 216.11 329.37 216.11 331.8 216.11V183.85C322.48 183.85 313.46 183.71 304.45 183.93C301.37 184 300.46 182.78 299.57 180.06C296.56 170.86 293.39 161.7 289.77 152.72C288.03 148.41 285.17 144.56 282.21 139.46C289.62 132.45 297.12 125.36 304.4 118.48C296.65 110.72 289.25 103.32 281.37 95.4402C275.62 101.33 269.61 107.12 264.06 113.33C261.04 116.71 258.77 117.36 254.75 114.64C244.96 107.99 234.06 103.69 222.49 101.07C216.14 99.6302 216.19 99.4802 216.2 92.9502C216.21 87.0102 216.2 81.0702 216.2 75.1402C216.2 72.9002 216.2 70.6602 216.2 68.4102H183.96C183.96 77.7802 183.86 86.8102 184.02 95.8302C184.07 98.6302 183.21 99.8402 180.39 100.43C167.47 103.15 155.33 107.92 144.32 115.27C141.44 117.2 139.61 117.05 137.2 114.44C131.19 107.93 124.85 101.72 119.04 95.8002C111.04 103.61 103.49 110.98 95.5402 118.73C102.95 125.92 110.29 133.03 117.66 140.17C116.56 142.05 115.74 143.59 114.79 145.05C107.95 155.59 103.36 167.08 100.8 179.32C100.02 183.03 98.5302 184.07 94.9102 183.97C86.1802 183.73 77.4402 183.89 68.1102 183.89L68.1002 183.9Z" fill="#154C75"/>
<path d="M250.26 258.91H231.26V163.74H250.26V258.91Z" fill="#154C75"/>
<path d="M218.93 258.93H200V181.52H218.93V258.93Z" fill="#154C75"/>
<path d="M168.7 200H187.63V258.88H168.7V200Z" fill="#154C75"/>
<path d="M221.48 135.45C219.79 132.51 218.16 129.68 216.44 126.68H249.04C243.6 136.11 238.24 145.43 232.75 154.95C231 151.93 229.35 149.09 227.62 146.1C197.03 161.44 166.52 176.74 136 192.04C135.96 191.97 135.91 191.9 135.87 191.82C164.37 173.05 192.88 154.28 221.48 135.44V135.45Z" fill="#154C75"/>
<path d="M137.33 220.35H156.35V258.91H137.33V220.35Z" fill="#154C75"/>
</svg>
