<svg width="47" height="50" viewBox="0 0 47 50" fill="none" xmlns="http://www.w3.org/2000/svg">
<g filter="url(#filter0_d_99_406)">
<path d="M27.1719 19.2755C29.066 17.3603 30.9671 15.4521 32.8401 13.5157C32.9822 13.3688 32.9893 13.0128 32.9411 12.7766C32.7449 11.799 33.0527 10.9777 33.84 10.5253C34.619 10.0776 35.5285 10.1928 36.1688 10.819C36.8069 11.4441 36.9385 12.3512 36.5084 13.1444C36.0807 13.9316 35.2253 14.2677 34.2712 14.0855C34.0139 14.0362 33.6273 14.0562 33.464 14.2136C31.5393 16.0642 29.6464 17.9478 27.5796 19.9864C28.066 20.0158 28.3375 19.9864 28.5736 20.0628C28.7464 20.1192 28.8733 20.3177 29.0201 20.4529C28.885 20.5997 28.7569 20.8629 28.6124 20.8723C27.9403 20.9158 27.2635 20.8923 26.5891 20.8841C26.5103 20.8841 26.3646 20.8336 26.3635 20.803C26.3329 19.8936 26.3165 18.9829 26.2988 18.0723C26.5221 18.1851 26.8335 18.2427 26.9427 18.4236C27.0544 18.6069 26.9674 18.9113 26.9674 19.1627C27.0356 19.2003 27.1049 19.2379 27.173 19.2755H27.1719Z" fill="#1B376F"/>
<path d="M19.7777 19.243C20.048 18.7378 20.2747 18.0375 20.4404 18.0528C21.2465 18.1221 20.8528 18.8341 20.8646 19.256C20.9163 21.0361 21.0256 20.9033 19.2513 20.8998C19.0257 20.8998 18.7813 20.9538 18.5804 20.8845C18.3595 20.807 18.1774 20.6143 17.9788 20.4709C18.1774 20.3287 18.3607 20.1466 18.5804 20.0597C18.7484 19.9927 18.9634 20.0467 19.3559 20.0467C19.0375 19.7154 18.8377 19.5004 18.6309 19.2936C17.0012 17.6568 15.3644 16.0282 13.7464 14.3797C13.421 14.0484 13.1472 13.9097 12.6502 14.0636C11.7877 14.3304 10.917 13.9109 10.4893 13.1554C10.0511 12.381 10.1744 11.4469 10.7972 10.8195C11.4164 10.1955 12.3564 10.0675 13.1319 10.501C13.8874 10.9229 14.2458 11.7853 14.0966 12.6642C14.0472 12.9521 14.0331 13.3763 14.2 13.5502C16.0471 15.4795 17.9341 17.3724 19.7789 19.2442L19.7777 19.243Z" fill="#1B376F"/>
<path d="M19.184 27.2537C18.6952 26.967 18.0149 26.7238 18.0325 26.5511C18.1054 25.832 18.7669 26.154 19.1805 26.1469C21.0652 26.1152 20.8995 25.9636 20.8678 27.8706C20.8607 28.2595 20.7385 28.7366 20.4871 29.001C20.2956 29.2031 20.0876 28.9105 19.9572 27.7731C19.7433 27.9634 19.5541 28.1139 19.3838 28.2831C17.727 29.9292 16.0797 31.5848 14.4147 33.2228C14.0728 33.56 13.8765 33.8302 14.0575 34.379C14.336 35.2191 13.8812 36.1179 13.1292 36.528C12.3502 36.9534 11.4149 36.8159 10.8004 36.1885C10.207 35.581 10.0731 34.6845 10.4643 33.9254C10.8568 33.1652 11.758 32.6752 12.5911 32.9455C13.1657 33.1311 13.4571 32.9408 13.8201 32.5765C15.6214 30.7682 17.4427 28.9787 19.1852 27.2549L19.184 27.2537Z" fill="#1B376F"/>
<path d="M27.7324 27.2094C29.6347 29.0811 31.53 30.9623 33.4558 32.8106C33.6215 32.9692 34.0057 32.9962 34.2619 32.9481C35.223 32.7648 36.0667 33.0879 36.5061 33.8751C36.9409 34.653 36.814 35.5789 36.1865 36.2052C35.5567 36.8338 34.6437 36.9548 33.8588 36.513C33.0657 36.0665 32.7449 35.2346 32.9306 34.2699C32.9799 34.0138 32.9541 33.6296 32.7966 33.4651C30.9472 31.5416 29.0648 29.6487 27.0333 27.5865C27.0015 28.0871 27.0333 28.3632 26.9522 28.6017C26.8946 28.7721 26.689 28.892 26.5492 29.0353C26.407 28.8943 26.1544 28.7615 26.1438 28.6111C26.098 27.9672 26.1156 27.3175 26.1297 26.67C26.1332 26.5431 26.2237 26.3105 26.2813 26.3081C27.1555 26.2741 28.0297 26.2705 28.905 26.2588C28.8287 26.4973 28.8204 26.8545 28.6595 26.9462C28.4503 27.066 28.1213 26.9755 27.844 26.9755C27.8076 27.0531 27.7712 27.1318 27.7347 27.2094H27.7324Z" fill="#1B376F"/>
<path d="M9.4354 24.013C8.74215 25.2198 7.94902 25.678 6.99257 25.4054C6.15715 25.1681 5.54732 24.3914 5.53205 23.5454C5.5156 22.6771 6.15245 21.8487 7.0149 21.616C7.95372 21.3622 8.721 21.8123 9.46477 23.046H17.8684C17.8531 22.9532 17.859 22.8921 17.8331 22.8521C17.6157 22.5137 16.9871 22.2693 17.4747 21.7829C17.5664 21.6912 18.2032 21.9944 18.4594 22.247C19.9258 23.6911 19.9199 23.3233 18.4982 24.7709C18.3795 24.8908 18.2796 25.0588 18.1351 25.1164C17.9095 25.208 17.6533 25.2245 17.4101 25.2726C17.443 25.0259 17.436 24.7627 17.5206 24.5359C17.584 24.3679 17.7685 24.2445 17.98 24.013H9.43657H9.4354Z" fill="#1B376F"/>
<path d="M23.0451 37.5679V29.0245C22.7643 29.2736 22.5904 29.498 22.3625 29.6061C22.1944 29.686 21.9547 29.6132 21.7468 29.6085C21.755 29.4064 21.6821 29.135 21.7855 29.0151C22.2074 28.5275 22.6539 28.0493 23.1579 27.6521C23.3107 27.5311 23.7466 27.5851 23.9299 27.7226C24.3529 28.041 24.7371 28.43 25.0603 28.8494C25.2083 29.041 25.1778 29.3711 25.2283 29.639C24.978 29.5838 24.7148 29.5603 24.4822 29.4628C24.32 29.3946 24.199 29.2278 23.9276 28.9881C23.9276 30.9609 23.9276 32.7716 23.9276 34.5834C23.9276 35.1181 23.937 35.6515 23.9252 36.1861C23.9088 36.9616 23.8653 37.6149 24.7724 38.1214C25.7382 38.6607 25.6689 40.1189 24.8452 40.9214C24.0227 41.7216 22.7514 41.6511 22.0076 40.7628C21.2756 39.8886 21.4377 38.5914 22.3707 37.9451C22.5775 37.8018 22.8101 37.6972 23.0451 37.5668V37.5679Z" fill="#1B376F"/>
<path d="M23.9279 17.7518C24.4402 17.6296 24.8502 17.5321 25.2591 17.4346C25.0664 17.82 24.9525 18.2829 24.6669 18.5778C23.3627 19.9267 23.6341 19.9091 22.3275 18.5755C22.0326 18.2747 21.3581 18.0197 21.7905 17.4639C21.8951 17.3288 22.5649 17.6331 23.029 17.7483C23.0337 17.7001 23.0701 17.498 23.0713 17.2959C23.0748 14.9306 23.0607 12.5642 23.0854 10.1989C23.0901 9.70189 22.9996 9.39756 22.5108 9.14611C21.7106 8.73486 21.3781 7.79604 21.6249 6.98294C21.8798 6.14046 22.6612 5.54239 23.5049 5.54591C24.3556 5.54826 25.1287 6.14399 25.3802 6.98999C25.6234 7.80661 25.2873 8.73369 24.4883 9.15081C24.0454 9.38229 23.9138 9.64196 23.9185 10.1202C23.9408 12.7028 23.929 15.2855 23.929 17.7506L23.9279 17.7518Z" fill="#1B376F"/>
<path d="M29.2682 23.9731C29.3869 24.4537 29.6924 25.1164 29.5537 25.228C28.9956 25.678 28.7488 24.986 28.4527 24.6957C27.1074 23.3821 27.0909 23.6547 28.4257 22.361C28.7253 22.0708 29.1765 21.9368 29.5572 21.7312C29.4621 22.1589 29.3681 22.5866 29.2576 23.086C29.9873 23.086 30.8415 23.086 31.6969 23.086C33.4688 23.086 35.2407 23.1001 37.0126 23.0695C37.2605 23.0648 37.6001 22.9039 37.7329 22.7053C38.3744 21.75 39.1546 21.3634 40.0512 21.6443C40.8972 21.9086 41.4788 22.6818 41.4706 23.5325C41.4623 24.4008 40.802 25.2127 39.9337 25.4231C39.0571 25.6357 38.2393 25.1857 37.6941 24.194C37.6542 24.12 37.6013 24.053 37.5472 23.9719H29.2705L29.2682 23.9731Z" fill="#1B376F"/>
</g>
<defs>
<filter id="filter0_d_99_406" x="-4" y="0.0126953" width="55" height="55" filterUnits="userSpaceOnUse" color-interpolation-filters="sRGB">
<feFlood flood-opacity="0" result="BackgroundImageFix"/>
<feColorMatrix in="SourceAlpha" type="matrix" values="0 0 0 0 0 0 0 0 0 0 0 0 0 0 0 0 0 0 127 0" result="hardAlpha"/>
<feOffset dy="4"/>
<feGaussianBlur stdDeviation="2"/>
<feComposite in2="hardAlpha" operator="out"/>
<feColorMatrix type="matrix" values="0 0 0 0 0 0 0 0 0 0 0 0 0 0 0 0 0 0 0.25 0"/>
<feBlend mode="normal" in2="BackgroundImageFix" result="effect1_dropShadow_99_406"/>
<feBlend mode="normal" in="SourceGraphic" in2="effect1_dropShadow_99_406" result="shape"/>
</filter>
</defs>
</svg>
