<svg width="400" height="400" viewBox="0 0 400 400" fill="none" xmlns="http://www.w3.org/2000/svg">
<path d="M231.25 163.94C247.37 147.64 263.55 131.4 279.49 114.92C280.7 113.67 280.76 110.64 280.35 108.63C278.68 100.31 281.3 93.3203 288 89.4703C294.63 85.6603 302.37 86.6403 307.82 91.9703C313.25 97.2903 314.37 105.01 310.71 111.76C307.07 118.46 299.79 121.32 291.67 119.77C289.48 119.35 286.19 119.52 284.8 120.86C268.42 136.61 252.31 152.64 234.72 169.99C238.86 170.24 241.17 169.99 243.18 170.64C244.65 171.12 245.73 172.81 246.98 173.96C245.83 175.21 244.74 177.45 243.51 177.53C237.79 177.9 232.03 177.7 226.29 177.63C225.62 177.63 224.38 177.2 224.37 176.94C224.11 169.2 223.97 161.45 223.82 153.7C225.72 154.66 228.37 155.15 229.3 156.69C230.25 158.25 229.51 160.84 229.51 162.98C230.09 163.3 230.68 163.62 231.26 163.94H231.25Z" fill="#154C75"/>
<path d="M168.32 163.66C170.62 159.36 172.55 153.4 173.96 153.53C180.82 154.12 177.47 160.18 177.57 163.77C178.01 178.92 178.94 177.79 163.84 177.76C161.92 177.76 159.84 178.22 158.13 177.63C156.25 176.97 154.7 175.33 153.01 174.11C154.7 172.9 156.26 171.35 158.13 170.61C159.56 170.04 161.39 170.5 164.73 170.5C162.02 167.68 160.32 165.85 158.56 164.09C144.69 150.16 130.76 136.3 116.99 122.27C114.22 119.45 111.89 118.27 107.66 119.58C100.32 121.85 92.9102 118.28 89.2702 111.85C85.5402 105.26 86.5902 97.3096 91.8902 91.9696C97.1602 86.6596 105.16 85.5696 111.76 89.2596C118.19 92.8496 121.24 100.19 119.97 107.67C119.55 110.12 119.43 113.73 120.85 115.21C136.57 131.63 152.63 147.74 168.33 163.67L168.32 163.66Z" fill="#154C75"/>
<path d="M163.27 231.84C159.11 229.4 153.32 227.33 153.47 225.86C154.09 219.74 159.72 222.48 163.24 222.42C179.28 222.15 177.87 220.86 177.6 237.09C177.54 240.4 176.5 244.46 174.36 246.71C172.73 248.43 170.96 245.94 169.85 236.26C168.03 237.88 166.42 239.16 164.97 240.6C150.87 254.61 136.85 268.7 122.68 282.64C119.77 285.51 118.1 287.81 119.64 292.48C122.01 299.63 118.14 307.28 111.74 310.77C105.11 314.39 97.15 313.22 91.92 307.88C86.87 302.71 85.73 295.08 89.06 288.62C92.4 282.15 100.07 277.98 107.16 280.28C112.05 281.86 114.53 280.24 117.62 277.14C132.95 261.75 148.45 246.52 163.28 231.85L163.27 231.84Z" fill="#154C75"/>
<path d="M236.02 231.46C252.21 247.39 268.34 263.4 284.73 279.13C286.14 280.48 289.41 280.71 291.59 280.3C299.77 278.74 306.95 281.49 310.69 288.19C314.39 294.81 313.31 302.69 307.97 308.02C302.61 313.37 294.84 314.4 288.16 310.64C281.41 306.84 278.68 299.76 280.26 291.55C280.68 289.37 280.46 286.1 279.12 284.7C263.38 268.33 247.36 252.22 230.07 234.67C229.8 238.93 230.07 241.28 229.38 243.31C228.89 244.76 227.14 245.78 225.95 247C224.74 245.8 222.59 244.67 222.5 243.39C222.11 237.91 222.26 232.38 222.38 226.87C222.41 225.79 223.18 223.81 223.67 223.79C231.11 223.5 238.55 223.47 246 223.37C245.35 225.4 245.28 228.44 243.91 229.22C242.13 230.24 239.33 229.47 236.97 229.47C236.66 230.13 236.35 230.8 236.04 231.46H236.02Z" fill="#154C75"/>
<path d="M80.2998 204.26C74.3998 214.53 67.6498 218.43 59.5098 216.11C52.3998 214.09 47.2098 207.48 47.0798 200.28C46.9398 192.89 52.3598 185.84 59.6998 183.86C67.6898 181.7 74.2198 185.53 80.5498 196.03H152.07C151.94 195.24 151.99 194.72 151.77 194.38C149.92 191.5 144.57 189.42 148.72 185.28C149.5 184.5 154.92 187.08 157.1 189.23C169.58 201.52 169.53 198.39 157.43 210.71C156.42 211.73 155.57 213.16 154.34 213.65C152.42 214.43 150.24 214.57 148.17 214.98C148.45 212.88 148.39 210.64 149.11 208.71C149.65 207.28 151.22 206.23 153.02 204.26H80.3098H80.2998Z" fill="#154C75"/>
<path d="M196.13 319.62V246.91C193.74 249.03 192.26 250.94 190.32 251.86C188.89 252.54 186.85 251.92 185.08 251.88C185.15 250.16 184.53 247.85 185.41 246.83C189 242.68 192.8 238.61 197.09 235.23C198.39 234.2 202.1 234.66 203.66 235.83C207.26 238.54 210.53 241.85 213.28 245.42C214.54 247.05 214.28 249.86 214.71 252.14C212.58 251.67 210.34 251.47 208.36 250.64C206.98 250.06 205.95 248.64 203.64 246.6C203.64 263.39 203.64 278.8 203.64 294.22C203.64 298.77 203.72 303.31 203.62 307.86C203.48 314.46 203.11 320.02 210.83 324.33C219.05 328.92 218.46 341.33 211.45 348.16C204.45 354.97 193.63 354.37 187.3 346.81C181.07 339.37 182.45 328.33 190.39 322.83C192.15 321.61 194.13 320.72 196.13 319.61V319.62Z" fill="#154C75"/>
<path d="M203.64 150.97C208 149.93 211.49 149.1 214.97 148.27C213.33 151.55 212.36 155.49 209.93 158C198.83 169.48 201.14 169.33 190.02 157.98C187.51 155.42 181.77 153.25 185.45 148.52C186.34 147.37 192.04 149.96 195.99 150.94C196.03 150.53 196.34 148.81 196.35 147.09C196.38 126.96 196.26 106.82 196.47 86.69C196.51 82.46 195.74 79.87 191.58 77.73C184.77 74.23 181.94 66.24 184.04 59.32C186.21 52.15 192.86 47.06 200.04 47.09C207.28 47.11 213.86 52.18 216 59.38C218.07 66.33 215.21 74.22 208.41 77.77C204.64 79.74 203.52 81.95 203.56 86.02C203.75 108 203.65 129.98 203.65 150.96L203.64 150.97Z" fill="#154C75"/>
<path d="M249.09 203.92C250.1 208.01 252.7 213.65 251.52 214.6C246.77 218.43 244.67 212.54 242.15 210.07C230.7 198.89 230.56 201.21 241.92 190.2C244.47 187.73 248.31 186.59 251.55 184.84C250.74 188.48 249.94 192.12 249 196.37C255.21 196.37 262.48 196.37 269.76 196.37C284.84 196.37 299.92 196.49 315 196.23C317.11 196.19 320 194.82 321.13 193.13C326.59 185 333.23 181.71 340.86 184.1C348.06 186.35 353.01 192.93 352.94 200.17C352.87 207.56 347.25 214.47 339.86 216.26C332.4 218.07 325.44 214.24 320.8 205.8C320.46 205.17 320.01 204.6 319.55 203.91H249.11L249.09 203.92Z" fill="#154C75"/>
</svg>
