<svg width="400" height="400" viewBox="0 0 400 400" fill="none" xmlns="http://www.w3.org/2000/svg">
<path d="M299.36 200.01C299.36 203.85 299.41 207.68 299.35 211.52C299.25 218.42 294 223.74 287.09 223.94C283.95 224.03 280.81 223.86 277.68 224.03C276.9 224.07 275.81 224.84 275.47 225.56C274.02 228.63 272.73 231.78 271.56 234.97C271.31 235.65 271.53 236.86 272.02 237.4C274.11 239.73 276.41 241.88 278.58 244.14C283.53 249.3 283.52 256.62 278.5 261.72C273.18 267.12 267.81 272.47 262.39 277.78C257.12 282.94 249.97 282.98 244.62 277.93C242.47 275.9 240.35 273.82 238.32 271.66C237.33 270.61 236.51 270.41 235.15 271.06C232.32 272.4 229.42 273.62 226.46 274.64C224.93 275.17 224.45 275.91 224.51 277.47C224.63 280.34 224.57 283.22 224.53 286.1C224.41 293.48 219.06 298.77 211.73 298.77C204.41 298.77 197.08 298.77 189.76 298.75C181.73 298.72 176.59 293.52 176.57 285.44C176.57 282.65 176.69 279.85 176.5 277.08C176.45 276.3 175.68 275.22 174.95 274.88C171.96 273.47 168.9 272.19 165.78 271.1C164.97 270.82 163.57 271.07 162.93 271.63C160.64 273.63 158.57 275.89 156.38 278.01C151.36 282.86 143.97 282.93 138.99 278.06C133.44 272.64 127.97 267.14 122.53 261.61C117.75 256.76 117.54 249.79 122.07 244.62C124.08 242.33 126.3 240.23 128.52 238.15C129.82 236.93 130.21 235.9 129.27 234.12C127.85 231.44 126.99 228.47 125.67 225.73C125.29 224.95 124.16 224.11 123.32 224.05C120.28 223.84 117.22 224.01 114.17 223.93C107.27 223.76 101.96 218.81 101.78 211.94C101.57 204.01 101.56 196.07 101.8 188.14C102.02 180.91 107.25 176.11 114.55 175.97C117.51 175.92 120.48 176.07 123.44 175.9C124.22 175.85 125.3 175.11 125.64 174.39C127.05 171.4 128.34 168.34 129.43 165.22C129.72 164.4 129.49 163 128.93 162.35C126.99 160.12 124.77 158.14 122.71 156.01C117.52 150.62 117.54 143.34 122.79 138.04C128 132.77 133.24 127.53 138.5 122.32C143.93 116.94 151.18 116.89 156.66 122.18C158.66 124.11 160.67 126.06 162.55 128.11C163.67 129.33 164.69 129.51 166.19 128.81C169.03 127.49 172.01 126.46 174.82 125.09C175.6 124.71 176.44 123.57 176.5 122.73C176.71 119.69 176.54 116.63 176.61 113.58C176.77 106.48 182.01 101.23 189.12 101.17C196.79 101.1 204.46 101.13 212.14 101.21C219.09 101.28 224.36 106.5 224.54 113.44C224.62 116.49 224.64 119.54 224.54 122.59C224.49 124.06 225 124.75 226.38 125.25C229.32 126.32 232.24 127.49 235.07 128.83C236.53 129.52 237.44 129.29 238.47 128.17C240.31 126.2 242.23 124.29 244.18 122.43C250 116.84 257.01 116.8 262.74 122.41C268.1 127.65 273.38 132.97 278.64 138.31C283.55 143.3 283.47 150.97 278.54 155.93C276.51 157.97 274.54 160.07 272.39 161.98C271.1 163.13 271.07 164.09 271.78 165.58C273.13 168.4 274.29 171.33 275.38 174.26C275.85 175.52 276.42 176.01 277.82 175.95C280.69 175.82 283.57 175.9 286.45 175.95C294.21 176.1 299.35 181.3 299.38 189.02C299.4 192.68 299.38 196.34 299.38 200.01H299.36ZM115.3 189.54C115.3 196.23 115.33 202.49 115.28 208.76C115.27 210.3 116.1 210.4 117.28 210.39C122.42 210.35 127.57 210.48 132.7 210.3C134.94 210.22 135.9 210.86 136.37 213.13C137.77 219.9 140.11 226.37 143.62 232.37C144.8 234.38 145.99 236.38 147.59 239.11C142.76 243.64 137.9 248.21 133.24 252.59C138.26 257.61 143.04 262.38 148.43 267.77C149.06 266.86 149.64 265.74 150.48 264.88C153.88 261.39 157.31 257.92 160.85 254.57C161.39 254.06 162.86 253.78 163.41 254.14C171.12 259.1 179.4 262.62 188.4 264.41C190.02 264.73 190.15 265.75 190.14 267.08C190.11 272.4 190.12 277.71 190.14 283.03C190.14 283.69 190.26 284.35 190.32 284.98H210.94C210.94 278.92 211.02 273.09 210.89 267.26C210.85 265.39 211.5 264.63 213.26 264.27C220.48 262.79 227.32 260.28 233.68 256.52C235.46 255.47 237.24 254.42 239.78 252.92C244.33 257.73 248.89 262.57 253.16 267.08C258.14 262.18 262.95 257.44 268.19 252.28C263.45 247.71 258.65 243.1 253.8 238.43C259.41 230.12 263.12 221.35 265.17 211.87C265.31 211.24 266.6 210.47 267.37 210.44C271.9 210.3 276.43 210.37 280.96 210.37C282.49 210.37 284.02 210.37 285.59 210.37V189.53C279.57 189.53 273.74 189.44 267.93 189.58C265.94 189.63 265.35 188.84 264.78 187.08C262.83 181.14 260.79 175.22 258.45 169.42C257.33 166.64 255.48 164.15 253.56 160.85C258.35 156.32 263.19 151.75 267.89 147.3C262.88 142.29 258.11 137.51 253.02 132.42C249.31 136.23 245.42 139.97 241.84 143.98C239.89 146.17 238.42 146.58 235.83 144.82C229.5 140.53 222.47 137.75 214.99 136.06C210.89 135.13 210.92 135.03 210.92 130.81C210.92 126.97 210.92 123.14 210.92 119.3C210.92 117.85 210.92 116.41 210.92 114.95H190.1C190.1 121 190.03 126.83 190.14 132.66C190.17 134.47 189.62 135.25 187.8 135.63C179.45 137.39 171.61 140.47 164.5 145.22C162.64 146.46 161.46 146.37 159.9 144.68C156.02 140.48 151.92 136.47 148.17 132.64C143 137.68 138.12 142.44 132.99 147.45C137.78 152.09 142.52 156.69 147.27 161.3C146.56 162.51 146.03 163.51 145.42 164.45C141 171.26 138.04 178.68 136.38 186.59C135.88 188.99 134.91 189.66 132.58 189.6C126.94 189.44 121.29 189.55 115.27 189.55L115.3 189.54Z" fill="#154C75"/>
<path d="M50.6898 186.06C47.8798 187.76 45.4498 189.22 43.0398 190.71C37.6998 194 32.3798 197.32 27.0498 200.61C24.8198 201.98 22.4698 202.46 20.1798 200.88C17.7098 199.18 16.4098 196.79 16.8098 193.71C17.1298 191.25 18.7498 189.76 20.7698 188.51C32.1898 181.48 43.5898 174.42 54.9998 167.37C61.9598 163.07 62.7698 163.29 68.1998 169.43C77.1398 179.55 86.1798 189.57 95.2098 199.61C96.9198 201.51 97.5898 203.62 96.9398 206.11C96.2498 208.79 94.4898 210.51 91.9298 211.34C89.3698 212.17 87.3298 211.09 85.6398 209.21C81.0398 204.09 76.4498 198.96 71.8498 193.84C69.6098 191.34 67.3498 188.85 65.0998 186.35C64.8298 186.41 64.5598 186.46 64.2998 186.52C64.1098 191.33 63.6498 196.15 63.7898 200.95C65.2198 249.77 86.1498 288.02 126.84 314.96C153.28 332.47 182.74 339.12 214.28 335.98C246.33 332.78 273.84 319.58 296.76 297.07C313.88 280.26 325.65 260.12 332.25 237.02C332.54 236.02 332.78 234.99 333.17 234.02C334.57 230.51 337.98 228.8 341.41 229.84C344.88 230.89 347.09 234.2 346.01 237.78C343.94 244.69 341.9 251.67 339.07 258.28C324.72 291.81 301.31 317.18 268.85 333.76C233.26 351.94 195.93 355.3 157.65 343.95C120.8 333.01 92.3098 310.68 72.1698 277.97C55.2398 250.47 48.3098 220.44 50.6898 188.25C50.7298 187.68 50.6898 187.11 50.6898 186.04V186.06Z" fill="#154C75"/>
<path d="M350.71 189.93C356.76 184 362.28 178.58 367.8 173.17C369.04 171.95 370.27 170.71 371.53 169.51C374.53 166.64 378.47 166.68 381.28 169.61C384.02 172.47 383.94 176.22 381.01 179.16C377.68 182.49 374.3 185.77 370.97 189.09C363.81 196.21 356.67 203.35 349.53 210.49C346.96 213.06 344.04 213.11 340.6 210.62C336.36 207.56 332.13 204.51 327.87 201.48C320.56 196.27 313.26 191.07 305.93 185.9C303.64 184.29 302.17 182.3 302.33 179.37C302.49 176.64 303.73 174.5 306.07 173.16C308.41 171.83 310.6 172.61 312.65 174.07C318.82 178.47 324.99 182.85 331.17 187.23C332.56 188.21 333.97 189.16 336 189.79C335.26 185.38 334.74 180.91 333.73 176.56C323.91 134.13 300.79 101.17 262.74 79.62C230.23 61.21 195.62 58.26 160.14 69.48C123.43 81.09 96.2001 104.39 78.3301 138.56C77.5101 140.14 76.4701 141.79 75.0901 142.85C72.6101 144.76 69.1801 144.32 66.9001 142.27C64.5401 140.15 63.7701 136.88 65.5301 133.94C70.5801 125.51 75.1901 116.72 81.1301 108.95C104.36 78.59 134.9 59.46 172.5 52.3C206.14 45.89 238.55 50.29 268.97 66.22C308.86 87.11 334.62 119.61 346.24 163.1C348.3 170.8 348.96 178.87 350.26 186.77C350.4 187.61 350.5 188.45 350.7 189.93H350.71Z" fill="#154C75"/>
<path d="M244.19 199.27C244.72 223.13 225.47 243.05 201.37 243.58C177.65 244.09 157.42 224.9 156.95 201.43C156.46 176.95 175.24 156.93 199.22 156.36C223.76 155.78 243.64 174.76 244.19 199.27ZM200.17 230.01C216.44 230.35 230.29 217.07 230.63 200.79C230.99 183.87 217.72 170.11 200.8 169.85C184.43 169.6 170.78 182.94 170.46 199.5C170.13 216.03 183.4 229.66 200.17 230V230.01Z" fill="#154C75"/>
</svg>
