<?xml version="1.0" encoding="UTF-8"?><svg id="a" xmlns="http://www.w3.org/2000/svg" xmlns:xlink="http://www.w3.org/1999/xlink" viewBox="0 0 2000 1026.95"><defs><style>.i{fill:#fff;}.j{fill:#154c75;}.k{fill:url(#c);}.l{fill:url(#f);}.m{fill:url(#g);}.n{fill:url(#b);}.o{fill:url(#h);}.p{fill:url(#d);}.q{fill:url(#e);}</style><linearGradient id="b" x1="1180.55" y1="213.34" x2="1123.56" y2="475.9" gradientTransform="matrix(1, 0, 0, 1, 0, 0)" gradientUnits="userSpaceOnUse"><stop offset="0" stop-color="#00a9e6"/><stop offset=".3" stop-color="#00a6e3"/><stop offset=".51" stop-color="#029fd9"/><stop offset=".69" stop-color="#0592ca"/><stop offset=".85" stop-color="#0980b4"/><stop offset="1" stop-color="#0f6a9a"/></linearGradient><linearGradient id="c" x1="1075.36" y1="253.94" x2="735.25" y2="264.21" xlink:href="#b"/><linearGradient id="d" x1="741.62" y1="113.93" x2="1014.92" y2="409.65" xlink:href="#b"/><linearGradient id="e" x1="865.63" y1="506.36" x2="893.66" y2="275.57" xlink:href="#b"/><linearGradient id="f" x1="966.57" y1="285.54" x2="774.09" y2="268.72" xlink:href="#b"/><linearGradient id="g" x1="1044.79" y1="459.75" x2="1230.73" y2="92.54" xlink:href="#b"/><linearGradient id="h" x1="1296.93" y1="224.79" x2="705.46" y2="224.79" xlink:href="#b"/></defs><rect class="j" x=".33" width="1999.34" height="1026.95"/><g><g><g><path class="i" d="M120.82,942.95c-18.31,0-34.84-2.14-49.58-6.41-14.75-4.27-27.46-10.68-38.14-19.22-10.68-8.54-18.87-19.12-24.56-31.73-5.7-12.61-8.54-27.16-8.54-43.63s3-31.47,9-44.39c6-12.91,14.54-23.85,25.63-32.8,11.08-8.95,24.3-15.71,39.66-20.29,15.36-4.58,32.39-6.87,51.11-6.87,22.17,0,41.29,3.1,57.36,9.31,16.07,6.21,28.73,14.9,37.99,26.09,9.25,11.19,14.49,24.51,15.71,39.97h-39.06c-2.64-8.13-6.97-15.2-12.97-21.21-6-6-13.88-10.68-23.65-14.03-9.76-3.36-21.56-5.03-35.39-5.03-17.7,0-32.8,2.85-45.31,8.54-12.51,5.7-22.02,13.73-28.53,24.1-6.51,10.37-9.76,22.58-9.76,36.61s2.85,25.38,8.54,35.24c5.69,9.87,14.49,17.44,26.39,22.73,11.9,5.29,27.1,7.93,45.61,7.93,14.24,0,26.8-1.88,37.68-5.64,10.88-3.76,19.99-8.85,27.31-15.26,7.32-6.41,12.51-13.58,15.56-21.51l15.87-5.8c-2.65,26.24-12.56,46.68-29.75,61.33-17.19,14.65-39.92,21.97-68.19,21.97Zm87.57-3.97c0-6.3,.4-13.58,1.22-21.82,.81-8.24,1.83-16.58,3.05-25.02,1.22-8.44,2.34-16.22,3.36-23.34H125.71v-25.93h117.77v96.11h-35.09Z"/><path class="i" d="M325.13,856.6v48.51h152.25v33.87h-192.83v-197.41h192.52v33.87h-151.94v49.12h124.49v32.04h-124.49Z"/><path class="i" d="M498.55,872.46h41.19c.81,6.92,4.01,13.17,9.61,18.76,5.59,5.6,12.97,9.97,22.12,13.12,9.15,3.16,19.42,4.73,30.82,4.73,10.37,0,18.92-1.12,25.63-3.36,6.71-2.24,11.7-5.39,14.95-9.46,3.25-4.07,4.88-8.95,4.88-14.65s-2.04-9.71-6.1-12.66c-4.07-2.95-10.48-5.39-19.22-7.32-8.75-1.93-20.24-3.91-34.48-5.95-11.19-1.63-21.77-3.91-31.73-6.86-9.97-2.95-18.76-6.76-26.39-11.44-7.63-4.68-13.63-10.42-18-17.24-4.38-6.81-6.56-14.9-6.56-24.26,0-11.6,3.3-21.76,9.92-30.51,6.61-8.74,16.42-15.56,29.44-20.44,13.02-4.88,28.99-7.32,47.9-7.32,28.48,0,50.39,6.05,65.75,18.15,15.35,12.1,22.83,28.73,22.43,49.89h-39.66c-.81-12-5.85-20.64-15.1-25.93-9.26-5.29-20.9-7.93-34.94-7.93-13.02,0-23.75,1.94-32.19,5.8-8.44,3.87-12.66,10.48-12.66,19.83,0,3.66,1.01,6.87,3.05,9.61,2.03,2.75,5.49,5.14,10.37,7.17,4.88,2.04,11.49,3.97,19.83,5.8,8.34,1.83,18.71,3.66,31.12,5.49,11.59,1.63,22.12,3.81,31.58,6.56,9.46,2.75,17.59,6.31,24.41,10.68,6.81,4.38,12.05,9.92,15.71,16.63,3.66,6.71,5.49,14.95,5.49,24.71,0,12-3.1,22.43-9.31,31.27-6.21,8.85-15.77,15.71-28.68,20.6-12.92,4.88-29.65,7.32-50.19,7.32-14.65,0-27.56-1.58-38.75-4.73-11.19-3.15-20.85-7.37-28.98-12.66-8.14-5.29-14.75-11.08-19.83-17.39-5.09-6.3-8.7-12.61-10.83-18.92-2.14-6.3-3-12-2.59-17.09Z"/><path class="i" d="M701.61,741.57h208.09v33.87h-208.09v-33.87Zm83.91,29.6h40.58v167.81h-40.58v-167.81Z"/><path class="i" d="M937.27,741.57h40.58v197.41h-40.58v-197.41Z"/><path class="i" d="M1060.84,874.91v-32.34h90.31c10.78,0,19.32-2.9,25.63-8.7,6.3-5.8,9.46-13.88,9.46-24.26s-3.16-19.02-9.46-24.71c-6.31-5.69-14.85-8.54-25.63-8.54h-85.43v162.63h-40.58v-197.41h122.35c10.98,0,21.31,1.32,30.97,3.97,9.66,2.65,18.1,6.71,25.32,12.21,7.22,5.49,12.86,12.51,16.93,21.05,4.07,8.54,6.1,18.82,6.1,30.82s-2.04,21.87-6.1,30.21c-4.07,8.34-9.71,15.1-16.93,20.29-7.22,5.19-15.67,8.95-25.32,11.29-9.66,2.34-19.99,3.51-30.97,3.51h-86.65Z"/><path class="i" d="M1448.12,741.57l-86.65,135.16v62.24h-40.89v-62.24l-86.65-135.16h46.99l72.92,118.08h-24.41l71.7-118.08h46.99Z"/><path class="i" d="M1626.43,918.84h-19.22l113.5-177.27h40.58v197.41h-40.58v-143.4l9.76,2.75-90.62,140.66h-45.46l-90.62-140.05,9.76-2.75v142.79h-40.58v-197.41h40.58l112.89,177.27Z"/><path class="i" d="M1847.09,856.6v48.51h152.25v33.87h-192.83v-197.41h192.52v33.87h-151.94v49.12h124.49v32.04h-124.49Z"/></g><g><path class="i" d="M11.56,990.15v25.49H30.28v4.54H6.28v-30.03h5.28Z"/><path class="i" d="M45.34,990.15h5.28v30.03h-5.28v-30.03Z"/><path class="i" d="M67.07,1020.18v-30.03h15.29c3.68,0,6.5,.69,8.46,2.06,1.96,1.37,2.94,3.36,2.94,5.95,0,1.67-.38,2.99-1.14,3.96-.76,.97-1.83,1.7-3.22,2.18-1.39,.48-3.03,.78-4.91,.9l.18-.28c1.36,.03,2.65,.15,3.87,.35s2.3,.55,3.24,1.04c.94,.49,1.68,1.18,2.22,2.06,.54,.88,.81,2.02,.81,3.41,0,1.85-.46,3.38-1.39,4.59s-2.21,2.12-3.85,2.76c-1.64,.63-3.52,.98-5.65,1.04h-16.87Zm5.28-17.05h9.68c2.01,0,3.56-.35,4.66-1.04,1.1-.7,1.65-1.8,1.65-3.31s-.55-2.54-1.65-3.17c-1.1-.63-2.53-.95-4.29-.95h-10.05v8.48Zm0,12.56h10.8c2.01,0,3.57-.35,4.68-1.04,1.11-.7,1.67-1.78,1.67-3.27,0-1.17-.34-2.03-1.02-2.57-.68-.54-1.55-.89-2.62-1.04-1.07-.15-2.2-.23-3.4-.23h-10.1v8.16Z"/><path class="i" d="M114.02,1007.39v8.25h21.08v4.54h-26.37v-30.03h26.32v4.54h-21.04v8.34h17.24v4.36h-17.24Z"/><path class="i" d="M149.84,1020.18v-30.03h17.75c2.22,0,4.15,.32,5.79,.95,1.64,.63,2.9,1.61,3.8,2.92,.9,1.31,1.34,2.99,1.34,5.03,0,1.36-.23,2.53-.69,3.5-.46,.97-1.11,1.77-1.95,2.39s-1.8,1.1-2.9,1.44c-1.1,.34-2.26,.56-3.5,.65l-.46-.32c1.98,.03,3.61,.21,4.91,.53,1.3,.32,2.29,.93,2.97,1.81,.68,.88,1.02,2.17,1.02,3.87v7.28h-5.24v-7c0-1.17-.21-2.09-.63-2.76-.42-.66-1.13-1.13-2.13-1.39s-2.43-.39-4.29-.39h-10.52v11.54h-5.28Zm5.28-15.85h12.47c1.85,0,3.26-.46,4.22-1.39,.96-.93,1.44-2.15,1.44-3.66s-.48-2.57-1.44-3.36c-.96-.79-2.36-1.18-4.22-1.18h-12.47v9.59Z"/><path class="i" d="M190.52,1020.18l13.11-30.03h5.65l13.21,30.03h-5.7l-11.49-27.11h2.32l-11.45,27.11h-5.65Zm6.95-7.04v-4.5h17.89v4.5h-17.89Z"/><path class="i" d="M249.7,990.15h28.82v4.54h-28.82v-4.54Zm11.82,3.99h5.24v26.04h-5.24v-26.04Z"/><path class="i" d="M316.48,1007.53v-17.38h5.24v17.79c0,1.89-.25,3.54-.77,4.96-.51,1.42-1.23,2.63-2.15,3.61-.93,.99-2.02,1.8-3.29,2.43-1.27,.63-2.65,1.09-4.15,1.37-1.5,.28-3.08,.42-4.75,.42s-3.37-.14-4.91-.42c-1.55-.28-2.95-.73-4.22-1.37-1.27-.63-2.36-1.44-3.27-2.43-.91-.99-1.62-2.19-2.13-3.61-.51-1.42-.77-3.07-.77-4.96v-17.79h5.28v17.38c0,2.35,.44,4.13,1.32,5.35,.88,1.22,2.08,2.06,3.59,2.53s3.21,.69,5.1,.69,3.48-.23,4.96-.69c1.48-.46,2.67-1.3,3.57-2.53,.9-1.22,1.34-3,1.34-5.35Z"/><path class="i" d="M351.65,990.15h28.82v4.54h-28.82v-4.54Zm11.82,3.99h5.24v26.04h-5.24v-26.04Z"/><path class="i" d="M394.14,990.15h5.28v30.03h-5.28v-30.03Z"/><path class="i" d="M421.16,1007.39v8.25h21.08v4.54h-26.37v-30.03h26.32v4.54h-21.04v8.34h17.24v4.36h-17.24Z"/><path class="i" d="M478.11,1017.45h-2.36l15.94-27.29h5.24v30.03h-5.24v-22.48l1.2,.32-13.07,22.15h-5.75l-13.07-22.06,1.25-.37v22.43h-5.28v-30.03h5.28l15.85,27.29Z"/><path class="i" d="M516.94,1010.13v-4.4h12.14c1.7,0,3.07-.49,4.1-1.48,1.03-.99,1.55-2.32,1.55-3.99s-.52-3.08-1.55-4.05-2.4-1.46-4.1-1.46h-11.4v25.44h-5.28v-30.03h16.31c1.58,0,3.04,.21,4.4,.63,1.36,.42,2.56,1.04,3.59,1.88,1.03,.83,1.84,1.88,2.41,3.13,.57,1.25,.86,2.74,.86,4.47s-.29,3.17-.86,4.43c-.57,1.25-1.37,2.28-2.41,3.08-1.04,.8-2.23,1.4-3.59,1.78-1.36,.39-2.83,.58-4.4,.58h-11.77Z"/><path class="i" d="M569.4,1020.74c-3.52,0-6.59-.63-9.2-1.9-2.61-1.27-4.63-3.06-6.07-5.38s-2.15-5.08-2.15-8.29,.72-5.99,2.15-8.32c1.44-2.33,3.46-4.12,6.07-5.38,2.61-1.25,5.68-1.88,9.2-1.88s6.63,.63,9.22,1.88c2.6,1.25,4.61,3.04,6.05,5.38,1.44,2.33,2.15,5.11,2.15,8.32s-.72,5.98-2.15,8.29-3.45,4.11-6.05,5.38c-2.6,1.27-5.67,1.9-9.22,1.9Zm0-4.63c2.35,0,4.42-.4,6.21-1.2,1.79-.8,3.2-2.02,4.24-3.64,1.04-1.62,1.55-3.65,1.55-6.09s-.52-4.43-1.55-6.05c-1.03-1.62-2.45-2.84-4.24-3.66-1.79-.82-3.86-1.23-6.21-1.23s-4.39,.41-6.21,1.23c-1.82,.82-3.26,2.04-4.31,3.66s-1.58,3.64-1.58,6.05,.53,4.47,1.58,6.09,2.49,2.84,4.31,3.64c1.82,.8,3.89,1.2,6.21,1.2Z"/><path class="i" d="M598.96,1026.95l-.93-1.34c.5-.74,.95-1.54,1.37-2.39,.42-.85,.64-1.69,.67-2.53l-2.46-.51v-5h6.35v3.57c0,2.1-.47,3.79-1.41,5.07-.94,1.28-2.14,2.32-3.59,3.13Z"/><path class="i" d="M636.82,990.15h5.28v30.03h-5.28v-30.03Zm4.68,12.74h22.06v4.5h-22.06v-4.5Zm21.32-12.74h5.24v30.03h-5.24v-30.03Z"/><path class="i" d="M680.85,1020.18l13.11-30.03h5.65l13.21,30.03h-5.7l-11.49-27.11h2.32l-11.45,27.11h-5.65Zm6.95-7.04v-4.5h17.89v4.5h-17.89Z"/><path class="i" d="M724.92,990.15h29.38v4.54l-24.56,22.52-.6-1.58h25.16v4.54h-29.38v-4.54l24.61-22.52,.56,1.58h-25.16v-4.54Z"/><path class="i" d="M819.77,1009.66c-.31,2.32-1.13,4.3-2.45,5.95-1.33,1.65-3.1,2.92-5.31,3.8s-4.78,1.32-7.72,1.32c-2.53,0-4.86-.34-6.97-1.02-2.12-.68-3.95-1.68-5.52-2.99-1.56-1.31-2.76-2.93-3.61-4.87-.85-1.93-1.27-4.15-1.27-6.65s.42-4.76,1.27-6.67c.85-1.91,2.05-3.54,3.61-4.89,1.56-1.34,3.4-2.36,5.52-3.04,2.12-.68,4.44-1.02,6.97-1.02,2.97,0,5.55,.45,7.76,1.34,2.21,.9,3.98,2.18,5.3,3.85,1.33,1.67,2.13,3.68,2.41,6.02h-5.1c-.43-1.39-1.11-2.57-2.04-3.54-.93-.97-2.09-1.72-3.5-2.25-1.41-.53-3.02-.79-4.84-.79-2.29,0-4.34,.42-6.16,1.27-1.82,.85-3.25,2.09-4.29,3.71-1.03,1.62-1.55,3.62-1.55,6s.52,4.33,1.55,5.96c1.04,1.62,2.46,2.85,4.29,3.68s3.88,1.25,6.16,1.25c1.82,0,3.43-.25,4.82-.76,1.39-.51,2.55-1.25,3.48-2.22,.93-.97,1.61-2.12,2.04-3.45h5.14Z"/><path class="i" d="M834.14,1020.18v-30.03h17.75c2.22,0,4.15,.32,5.79,.95,1.64,.63,2.9,1.61,3.8,2.92,.9,1.31,1.34,2.99,1.34,5.03,0,1.36-.23,2.53-.69,3.5-.46,.97-1.11,1.77-1.95,2.39s-1.8,1.1-2.9,1.44c-1.1,.34-2.26,.56-3.5,.65l-.46-.32c1.98,.03,3.61,.21,4.91,.53,1.3,.32,2.29,.93,2.97,1.81,.68,.88,1.02,2.17,1.02,3.87v7.28h-5.24v-7c0-1.17-.21-2.09-.63-2.76-.42-.66-1.13-1.13-2.13-1.39s-2.43-.39-4.29-.39h-10.52v11.54h-5.28Zm5.28-15.85h12.47c1.85,0,3.26-.46,4.22-1.39,.96-.93,1.44-2.15,1.44-3.66s-.48-2.57-1.44-3.36c-.96-.79-2.36-1.18-4.22-1.18h-12.47v9.59Z"/><path class="i" d="M882.89,1007.39v8.25h21.08v4.54h-26.37v-30.03h26.32v4.54h-21.04v8.34h17.24v4.36h-17.24Z"/><path class="i" d="M950.17,1009.66c-.31,2.32-1.13,4.3-2.45,5.95-1.33,1.65-3.1,2.92-5.31,3.8-2.21,.88-4.78,1.32-7.72,1.32-2.53,0-4.86-.34-6.97-1.02-2.12-.68-3.95-1.68-5.52-2.99-1.56-1.31-2.76-2.93-3.61-4.87-.85-1.93-1.27-4.15-1.27-6.65s.42-4.76,1.27-6.67c.85-1.91,2.05-3.54,3.61-4.89,1.56-1.34,3.4-2.36,5.52-3.04,2.12-.68,4.44-1.02,6.97-1.02,2.97,0,5.55,.45,7.76,1.34,2.21,.9,3.98,2.18,5.3,3.85,1.33,1.67,2.13,3.68,2.41,6.02h-5.1c-.43-1.39-1.11-2.57-2.04-3.54-.93-.97-2.09-1.72-3.5-2.25-1.41-.53-3.02-.79-4.84-.79-2.29,0-4.34,.42-6.16,1.27-1.82,.85-3.25,2.09-4.29,3.71-1.03,1.62-1.55,3.62-1.55,6s.52,4.33,1.55,5.96c1.04,1.62,2.46,2.85,4.29,3.68s3.88,1.25,6.16,1.25c1.82,0,3.43-.25,4.82-.76,1.39-.51,2.55-1.25,3.48-2.22,.93-.97,1.61-2.12,2.04-3.45h5.14Z"/><path class="i" d="M969.82,1007.39v8.25h21.08v4.54h-26.37v-30.03h26.32v4.54h-21.04v8.34h17.24v4.36h-17.24Z"/><path class="i" d="M1005.64,1020.18v-30.03h17.75c2.22,0,4.15,.32,5.79,.95,1.64,.63,2.9,1.61,3.8,2.92,.9,1.31,1.34,2.99,1.34,5.03,0,1.36-.23,2.53-.69,3.5-.46,.97-1.11,1.77-1.95,2.39s-1.8,1.1-2.9,1.44c-1.1,.34-2.26,.56-3.5,.65l-.46-.32c1.98,.03,3.61,.21,4.91,.53,1.3,.32,2.29,.93,2.97,1.81,.68,.88,1.02,2.17,1.02,3.87v7.28h-5.24v-7c0-1.17-.21-2.09-.63-2.76-.42-.66-1.13-1.13-2.13-1.39s-2.43-.39-4.29-.39h-10.52v11.54h-5.28Zm5.28-15.85h12.47c1.85,0,3.26-.46,4.22-1.39,.96-.93,1.44-2.15,1.44-3.66s-.48-2.57-1.44-3.36c-.96-.79-2.36-1.18-4.22-1.18h-12.47v9.59Z"/><path class="i" d="M1063.47,990.15h28.82v4.54h-28.82v-4.54Zm11.82,3.99h5.24v26.04h-5.24v-26.04Z"/><path class="i" d="M1130.25,1007.53v-17.38h5.24v17.79c0,1.89-.25,3.54-.77,4.96-.51,1.42-1.23,2.63-2.15,3.61-.93,.99-2.02,1.8-3.29,2.43-1.27,.63-2.65,1.09-4.15,1.37-1.5,.28-3.08,.42-4.75,.42s-3.37-.14-4.91-.42c-1.55-.28-2.95-.73-4.22-1.37-1.27-.63-2.36-1.44-3.27-2.43-.91-.99-1.62-2.19-2.13-3.61-.51-1.42-.77-3.07-.77-4.96v-17.79h5.28v17.38c0,2.35,.44,4.13,1.32,5.35,.88,1.22,2.08,2.06,3.59,2.53s3.21,.69,5.1,.69,3.48-.23,4.96-.69c1.48-.46,2.67-1.3,3.57-2.53,.9-1.22,1.34-3,1.34-5.35Z"/><path class="i" d="M1197.81,1014.72l-1.58,.6v-25.16h5.24v30.03h-5.24l-22.52-24.42,1.62-.6v25.02h-5.28v-30.03h5.28l22.48,24.56Z"/><path class="i" d="M1222.33,1007.39v8.25h21.08v4.54h-26.37v-30.03h26.32v4.54h-21.04v8.34h17.24v4.36h-17.24Z"/><path class="i" d="M1273.58,1020.74c-2.57,0-4.88-.34-6.95-1.02-2.07-.68-3.84-1.68-5.3-2.99-1.47-1.31-2.6-2.93-3.38-4.84-.79-1.92-1.18-4.08-1.18-6.49s.42-4.63,1.25-6.58,2.02-3.61,3.57-4.98c1.54-1.37,3.38-2.43,5.51-3.15,2.13-.73,4.48-1.09,7.04-1.09,3,0,5.59,.46,7.79,1.39,2.19,.93,3.94,2.22,5.24,3.87,1.3,1.65,2.04,3.61,2.22,5.86h-4.86c-.4-1.33-1.06-2.47-1.97-3.43-.91-.96-2.07-1.71-3.48-2.25-1.41-.54-3.05-.81-4.94-.81-2.47,0-4.61,.47-6.42,1.41-1.81,.94-3.19,2.25-4.15,3.94-.96,1.68-1.44,3.62-1.44,5.82s.42,4.09,1.27,5.68c.85,1.59,2.14,2.83,3.87,3.71,1.73,.88,3.88,1.32,6.44,1.32,1.98,0,3.71-.3,5.21-.9,1.5-.6,2.74-1.44,3.73-2.53,.99-1.08,1.68-2.33,2.08-3.75l2.36-.56c-.43,3.99-1.85,7.04-4.24,9.18-2.4,2.13-5.49,3.2-9.29,3.2Zm12.28-.56c0-.99,.05-2.11,.14-3.36s.21-2.53,.35-3.85c.14-1.31,.27-2.49,.39-3.55h-12.42v-3.8h16.22v14.55h-4.68Z"/><path class="i" d="M1321.59,1020.74c-3.52,0-6.59-.63-9.2-1.9-2.61-1.27-4.63-3.06-6.07-5.38s-2.15-5.08-2.15-8.29,.72-5.99,2.15-8.32c1.44-2.33,3.46-4.12,6.07-5.38,2.61-1.25,5.68-1.88,9.2-1.88s6.63,.63,9.22,1.88c2.6,1.25,4.61,3.04,6.05,5.38,1.44,2.33,2.15,5.11,2.15,8.32s-.72,5.98-2.15,8.29-3.45,4.11-6.05,5.38c-2.6,1.27-5.67,1.9-9.22,1.9Zm0-4.63c2.35,0,4.42-.4,6.21-1.2,1.79-.8,3.2-2.02,4.24-3.64,1.04-1.62,1.55-3.65,1.55-6.09s-.52-4.43-1.55-6.05c-1.03-1.62-2.45-2.84-4.24-3.66-1.79-.82-3.86-1.23-6.21-1.23s-4.39,.41-6.21,1.23c-1.82,.82-3.26,2.04-4.31,3.66s-1.58,3.64-1.58,6.05,.53,4.47,1.58,6.09,2.49,2.84,4.31,3.64c1.82,.8,3.89,1.2,6.21,1.2Z"/><path class="i" d="M1385.02,1009.66c-.31,2.32-1.13,4.3-2.45,5.95-1.33,1.65-3.1,2.92-5.31,3.8s-4.78,1.32-7.72,1.32c-2.53,0-4.86-.34-6.97-1.02-2.12-.68-3.95-1.68-5.52-2.99-1.56-1.31-2.76-2.93-3.61-4.87-.85-1.93-1.27-4.15-1.27-6.65s.42-4.76,1.27-6.67c.85-1.91,2.05-3.54,3.61-4.89,1.56-1.34,3.4-2.36,5.52-3.04,2.12-.68,4.44-1.02,6.97-1.02,2.97,0,5.55,.45,7.76,1.34,2.21,.9,3.98,2.18,5.3,3.85,1.33,1.67,2.13,3.68,2.41,6.02h-5.1c-.43-1.39-1.11-2.57-2.04-3.54-.93-.97-2.09-1.72-3.5-2.25-1.41-.53-3.02-.79-4.84-.79-2.29,0-4.34,.42-6.16,1.27-1.82,.85-3.25,2.09-4.29,3.71-1.03,1.62-1.55,3.62-1.55,6s.52,4.33,1.55,5.96c1.04,1.62,2.46,2.85,4.29,3.68s3.88,1.25,6.16,1.25c1.82,0,3.43-.25,4.82-.76,1.39-.51,2.55-1.25,3.48-2.22,.93-.97,1.61-2.12,2.04-3.45h5.14Z"/><path class="i" d="M1400.27,990.15h5.28v30.03h-5.28v-30.03Z"/><path class="i" d="M1438.22,1020.74c-3.52,0-6.59-.63-9.2-1.9-2.61-1.27-4.63-3.06-6.07-5.38s-2.15-5.08-2.15-8.29,.72-5.99,2.15-8.32c1.44-2.33,3.46-4.12,6.07-5.38,2.61-1.25,5.68-1.88,9.2-1.88s6.63,.63,9.22,1.88c2.6,1.25,4.61,3.04,6.05,5.38,1.44,2.33,2.15,5.11,2.15,8.32s-.72,5.98-2.15,8.29-3.45,4.11-6.05,5.38c-2.6,1.27-5.67,1.9-9.22,1.9Zm0-4.63c2.35,0,4.42-.4,6.21-1.2,1.79-.8,3.2-2.02,4.24-3.64,1.04-1.62,1.55-3.65,1.55-6.09s-.52-4.43-1.55-6.05c-1.03-1.62-2.45-2.84-4.24-3.66-1.79-.82-3.86-1.23-6.21-1.23s-4.39,.41-6.21,1.23c-1.82,.82-3.26,2.04-4.31,3.66s-1.58,3.64-1.58,6.05,.53,4.47,1.58,6.09,2.49,2.84,4.31,3.64c1.82,.8,3.89,1.2,6.21,1.2Z"/><path class="i" d="M1520.66,1009.66c-.31,2.32-1.13,4.3-2.45,5.95-1.33,1.65-3.1,2.92-5.31,3.8s-4.78,1.32-7.72,1.32c-2.53,0-4.86-.34-6.97-1.02-2.12-.68-3.95-1.68-5.52-2.99-1.56-1.31-2.76-2.93-3.61-4.87-.85-1.93-1.27-4.15-1.27-6.65s.42-4.76,1.27-6.67c.85-1.91,2.05-3.54,3.61-4.89,1.56-1.34,3.4-2.36,5.52-3.04,2.12-.68,4.44-1.02,6.97-1.02,2.97,0,5.55,.45,7.76,1.34,2.21,.9,3.98,2.18,5.3,3.85,1.33,1.67,2.13,3.68,2.41,6.02h-5.1c-.43-1.39-1.11-2.57-2.04-3.54-.93-.97-2.09-1.72-3.5-2.25-1.41-.53-3.02-.79-4.84-.79-2.29,0-4.34,.42-6.16,1.27-1.82,.85-3.25,2.09-4.29,3.71-1.03,1.62-1.55,3.62-1.55,6s.52,4.33,1.55,5.96c1.04,1.62,2.46,2.85,4.29,3.68s3.88,1.25,6.16,1.25c1.82,0,3.43-.25,4.82-.76,1.39-.51,2.55-1.25,3.48-2.22,.93-.97,1.61-2.12,2.04-3.45h5.14Z"/><path class="i" d="M1551.25,1020.74c-3.52,0-6.59-.63-9.2-1.9-2.61-1.27-4.63-3.06-6.07-5.38s-2.15-5.08-2.15-8.29,.72-5.99,2.15-8.32c1.44-2.33,3.46-4.12,6.07-5.38,2.61-1.25,5.68-1.88,9.2-1.88s6.63,.63,9.22,1.88c2.6,1.25,4.61,3.04,6.05,5.38,1.44,2.33,2.15,5.11,2.15,8.32s-.72,5.98-2.15,8.29-3.45,4.11-6.05,5.38c-2.6,1.27-5.67,1.9-9.22,1.9Zm0-4.63c2.35,0,4.42-.4,6.21-1.2,1.79-.8,3.2-2.02,4.24-3.64,1.04-1.62,1.55-3.65,1.55-6.09s-.52-4.43-1.55-6.05c-1.03-1.62-2.45-2.84-4.24-3.66-1.79-.82-3.86-1.23-6.21-1.23s-4.39,.41-6.21,1.23c-1.82,.82-3.26,2.04-4.31,3.66s-1.58,3.64-1.58,6.05,.53,4.47,1.58,6.09,2.49,2.84,4.31,3.64c1.82,.8,3.89,1.2,6.21,1.2Z"/><path class="i" d="M1610.79,1014.72l-1.58,.6v-25.16h5.24v30.03h-5.24l-22.52-24.42,1.62-.6v25.02h-5.28v-30.03h5.28l22.48,24.56Z"/><path class="i" d="M1664.64,1020.74c-2.57,0-4.88-.34-6.95-1.02-2.07-.68-3.84-1.68-5.3-2.99-1.47-1.31-2.6-2.93-3.38-4.84-.79-1.92-1.18-4.08-1.18-6.49s.42-4.63,1.25-6.58,2.02-3.61,3.57-4.98c1.54-1.37,3.38-2.43,5.51-3.15,2.13-.73,4.48-1.09,7.04-1.09,3,0,5.59,.46,7.79,1.39,2.19,.93,3.94,2.22,5.24,3.87,1.3,1.65,2.04,3.61,2.22,5.86h-4.86c-.4-1.33-1.06-2.47-1.97-3.43-.91-.96-2.07-1.71-3.48-2.25-1.41-.54-3.05-.81-4.94-.81-2.47,0-4.61,.47-6.42,1.41-1.81,.94-3.19,2.25-4.15,3.94-.96,1.68-1.44,3.62-1.44,5.82s.42,4.09,1.27,5.68c.85,1.59,2.14,2.83,3.87,3.71,1.73,.88,3.88,1.32,6.44,1.32,1.98,0,3.71-.3,5.21-.9,1.5-.6,2.74-1.44,3.73-2.53,.99-1.08,1.68-2.33,2.08-3.75l2.36-.56c-.43,3.99-1.85,7.04-4.24,9.18-2.4,2.13-5.49,3.2-9.29,3.2Zm12.28-.56c0-.99,.05-2.11,.14-3.36s.21-2.53,.35-3.85c.14-1.31,.27-2.49,.39-3.55h-12.42v-3.8h16.22v14.55h-4.68Z"/><path class="i" d="M1701.71,1007.39v8.25h21.08v4.54h-26.37v-30.03h26.32v4.54h-21.04v8.34h17.24v4.36h-17.24Z"/><path class="i" d="M1735.54,1010.22h5.14c.12,1.14,.58,2.17,1.37,3.08,.79,.91,1.84,1.62,3.15,2.13,1.31,.51,2.82,.76,4.52,.76,1.51,0,2.76-.19,3.75-.56,.99-.37,1.72-.89,2.2-1.55,.48-.66,.72-1.44,.72-2.34s-.29-1.6-.86-2.11c-.57-.51-1.45-.94-2.62-1.3-1.17-.35-2.67-.7-4.5-1.04-1.51-.28-2.98-.65-4.4-1.11-1.42-.46-2.7-1.05-3.82-1.76-1.13-.71-2.02-1.58-2.67-2.62-.65-1.03-.97-2.26-.97-3.68,0-1.61,.46-3.06,1.37-4.36,.91-1.3,2.26-2.32,4.05-3.06,1.79-.74,3.97-1.11,6.53-1.11,3.92,0,6.92,.9,8.99,2.71,2.07,1.81,3.07,4.26,3.01,7.34h-5.05c-.09-1.95-.8-3.35-2.13-4.22-1.33-.86-3.01-1.3-5.05-1.3-1.82,0-3.35,.32-4.59,.97s-1.85,1.7-1.85,3.15c0,.62,.15,1.15,.44,1.6,.29,.45,.78,.85,1.46,1.21,.68,.36,1.61,.69,2.8,1.02,1.19,.32,2.65,.67,4.38,1.04,1.48,.25,2.87,.59,4.17,1.02s2.43,.97,3.41,1.62c.97,.65,1.74,1.48,2.29,2.5s.83,2.27,.83,3.75c0,1.7-.43,3.21-1.3,4.52-.87,1.31-2.19,2.35-3.96,3.1-1.78,.76-4.07,1.14-6.88,1.14-2.13,0-3.99-.25-5.58-.76-1.59-.51-2.94-1.17-4.05-1.99-1.11-.82-2-1.71-2.67-2.66-.66-.96-1.13-1.89-1.39-2.8-.26-.91-.35-1.69-.25-2.34Z"/><path class="i" d="M1772.66,990.15h28.82v4.54h-28.82v-4.54Zm11.82,3.99h5.24v26.04h-5.24v-26.04Z"/><path class="i" d="M1815.15,990.15h5.28v30.03h-5.28v-30.03Z"/><path class="i" d="M1841.33,1010.13v-4.4h12.14c1.7,0,3.07-.49,4.1-1.48,1.03-.99,1.55-2.32,1.55-3.99s-.52-3.08-1.55-4.05-2.4-1.46-4.1-1.46h-11.4v25.44h-5.28v-30.03h16.31c1.58,0,3.04,.21,4.4,.63,1.36,.42,2.56,1.04,3.59,1.88,1.03,.83,1.84,1.88,2.41,3.13,.57,1.25,.86,2.74,.86,4.47s-.29,3.17-.86,4.43c-.57,1.25-1.37,2.28-2.41,3.08-1.04,.8-2.23,1.4-3.59,1.78-1.36,.39-2.83,.58-4.4,.58h-11.77Z"/><path class="i" d="M1905.14,990.15l-12.23,20.25v9.78h-5.28v-9.78l-12.23-20.25h6.07l10.33,17.7h-2.87l10.2-17.7h6.02Z"/><path class="i" d="M1939.25,1017.45h-2.36l15.94-27.29h5.24v30.03h-5.24v-22.48l1.2,.32-13.07,22.15h-5.75l-13.07-22.06,1.25-.37v22.43h-5.28v-30.03h5.28l15.85,27.29Z"/><path class="i" d="M1978.92,1007.39v8.25h21.08v4.54h-26.37v-30.03h26.32v4.54h-21.04v8.34h17.24v4.36h-17.24Z"/></g></g><g><path class="n" d="M1370.74,258.4c0,71.11-25.42,132.63-75.6,182.79-2.89,2.89-5.8,5.68-8.77,8.4-48.15,44.28-106.11,66.87-172.5,67.2l-7.82,.04v81.28c0,3.26-2.64,5.9-5.9,5.9h-75.03c-3.26,0-5.9-2.64-5.9-5.9V223.74c0-3.26,2.64-5.9,5.9-5.9h75.03c3.26,0,5.9,2.64,5.9,5.9v199.54c0,4.35,3.5,7.84,7.82,7.86h.1c23.32-.18,45.12-4.54,65.23-13.02,20.13-8.47,38.57-21.06,55.19-37.67,33.66-33.38,50.72-74.46,50.72-122.05s-17.07-88.67-50.74-122.07c-33.62-33.64-74.69-50.71-122.03-50.71l-87.23-.52c-3.24-.02-5.86-2.65-5.86-5.9V5.9c0-3.26,2.64-5.9,5.9-5.9h87.2c71.13,0,132.63,25.44,182.81,75.6,50.17,50.17,75.6,111.67,75.6,182.81Z"/><path class="k" d="M982.25,227.67V505c0,6.52-5.28,11.8-11.8,11.8l-82.87-.02c-50-.26-95.24-13.13-135.09-38.42-16.3-10.32-31.69-22.73-46.14-37.18-50.17-50.15-75.61-111.67-75.61-182.79s25.44-132.63,75.61-182.81C756.52,25.44,818.02,0,889.13,0h87.2c3.26,0,5.9,2.64,5.9,5.9V79.21c0,3.24-2.62,5.88-5.86,5.9l-87.27,.52c-47.3,0-88.37,17.07-122.01,50.72-33.64,33.38-50.7,74.46-50.7,122.05,0,35.7,9.59,67.73,28.61,95.61,.26,.39,.53,.77,.81,1.14,6.13,8.87,13.25,17.32,21.31,25.32,30.24,30.24,73.08,47.15,115.7,50.23,6.82,.49,12.64-4.93,12.64-11.8v-114.96c0-5.43-4.4-9.83-9.83-9.83h-66.28c-3.26,0-5.9-2.64-5.9-5.9v-64.49c0-3.26,2.64-5.9,5.9-5.9h153.08c5.43,0,9.83,4.4,9.83,9.83Z"/><path class="p" d="M982.25,227.67V505c0,6.52-5.28,11.8-11.8,11.8l-82.87-.02c-50-.26-95.24-13.13-135.09-38.42-16.3-10.32-31.69-22.73-46.14-37.18-50.17-50.15-75.61-111.67-75.61-182.79s25.44-132.63,75.61-182.81C756.52,25.44,818.02,0,889.13,0h85.23c-266.81,0-306.14,248.06-229.38,354.01,.26,.39,.53,.77,.81,1.14,6.13,8.87,13.25,17.32,21.31,25.32,30.24,30.24,73.08,47.15,115.7,50.23,6.82,.49,12.64-4.93,12.64-11.8v-114.96c0-5.43-4.4-9.83-9.83-9.83h-66.28c-3.26,0-5.9-2.64-5.9-5.9v-64.49c0-3.26,2.64-5.9,5.9-5.9h153.08c5.43,0,9.83,4.4,9.83,9.83Z"/><path class="q" d="M982.25,227.67V505c0,6.52-5.28,11.8-11.8,11.8l-82.87-.02c-50-.26-95.24-13.13-135.09-38.42,76.24,46.12,142.95-15.26,142.95-59.45v-114.96c0-5.43-4.4-9.83-9.83-9.83h-66.28c-3.26,0-5.9-2.64-5.9-5.9v-64.49c0-3.26,2.64-5.9,5.9-5.9h153.08c5.43,0,9.83,4.4,9.83,9.83Z"/><path class="l" d="M972.42,217.84c5.43,0,9.83,4.4,9.83,9.83v127.48c0-55.36-53.01-61.03-96.63-61.03h-66.28c-3.26,0-5.9-2.64-5.9-5.9v-64.49c0-3.26,2.64-5.9,5.9-5.9h153.08Z"/><path class="m" d="M1370.74,258.4c0,71.11-25.42,132.63-75.6,182.79-2.89,2.89-5.8,5.68-8.77,8.4-48.15,44.28-106.11,66.87-172.5,67.2l-7.82,.04v81.28c0,3.26-2.64,5.9-5.9,5.9h-75.03c-3.26,0-5.9-2.64-5.9-5.9v-239.64c0,49.05,40.58,72.68,94.65,72.68h.1c23.32-.18,45.12-4.54,65.23-13.02,20.13-8.47,38.57-21.06,55.19-37.67,33.66-33.38,50.72-74.46,50.72-122.05s-17.07-88.67-50.74-122.07c-33.62-33.64-74.69-50.71-122.03-50.71l-87.23-.52c-3.24-.02-5.86-2.65-5.86-5.9V5.9c0-3.26,2.64-5.9,5.9-5.9h87.2c71.13,0,132.63,25.44,182.81,75.6,50.17,50.17,75.6,111.67,75.6,182.81Z"/><path class="o" d="M1370.74,258.4c0,71.11-25.42,132.63-75.6,182.79-2.89,2.89-5.8,5.68-8.77,8.4,128.95-124.94,53.99-363.96-174.04-363.96l-87.23-.52c-3.24-.02-5.86-2.65-5.86-5.9V5.9c0-3.26,2.64-5.9,5.9-5.9h87.2c71.13,0,132.63,25.44,182.81,75.6,50.17,50.17,75.6,111.67,75.6,182.81Z"/></g></g></svg>