<?xml version="1.0" encoding="UTF-8"?><svg id="a" xmlns="http://www.w3.org/2000/svg" xmlns:xlink="http://www.w3.org/1999/xlink" viewBox="0 0 2000 943.56"><defs><style>.i{fill:#fff;}.j{fill:#154c75;}.k{fill:url(#c);}.l{fill:url(#f);}.m{fill:url(#g);}.n{fill:url(#b);}.o{fill:url(#h);}.p{fill:url(#d);}.q{fill:url(#e);}</style><linearGradient id="b" x1="1180.94" y1="213.41" x2="1123.93" y2="476.06" gradientTransform="matrix(1, 0, 0, 1, 0, 0)" gradientUnits="userSpaceOnUse"><stop offset="0" stop-color="#00a9e6"/><stop offset=".3" stop-color="#00a6e3"/><stop offset=".51" stop-color="#029fd9"/><stop offset=".69" stop-color="#0592ca"/><stop offset=".85" stop-color="#0980b4"/><stop offset="1" stop-color="#0f6a9a"/></linearGradient><linearGradient id="c" x1="1075.71" y1="254.02" x2="735.49" y2="264.3" xlink:href="#b"/><linearGradient id="d" x1="741.87" y1="113.96" x2="1015.26" y2="409.79" xlink:href="#b"/><linearGradient id="e" x1="865.92" y1="506.53" x2="893.96" y2="275.66" xlink:href="#b"/><linearGradient id="f" x1="966.89" y1="285.63" x2="774.34" y2="268.81" xlink:href="#b"/><linearGradient id="g" x1="1045.13" y1="459.9" x2="1231.13" y2="92.57" xlink:href="#b"/><linearGradient id="h" x1="1297.36" y1="224.87" x2="705.69" y2="224.87" xlink:href="#b"/></defs><rect class="j" width="2000" height="943.56"/><g><g><path class="i" d="M120.86,943.26c-18.31,0-34.85-2.14-49.6-6.41-14.76-4.27-27.47-10.68-38.15-19.23-10.68-8.55-18.88-19.12-24.57-31.74-5.7-12.61-8.55-27.16-8.55-43.65s3-31.48,9-44.41c6-12.92,14.55-23.85,25.64-32.81,11.09-8.95,24.31-15.72,39.68-20.3,15.36-4.58,32.4-6.87,51.12-6.87,22.18,0,41.3,3.11,57.38,9.31,16.07,6.21,28.74,14.91,38,26.1,9.26,11.19,14.5,24.52,15.72,39.98h-39.07c-2.65-8.14-6.97-15.21-12.97-21.21-6-6-13.89-10.68-23.65-14.04-9.77-3.36-21.57-5.04-35.41-5.04-17.7,0-32.81,2.85-45.32,8.55-12.51,5.7-22.03,13.73-28.54,24.11-6.51,10.38-9.77,22.58-9.77,36.62s2.85,25.39,8.55,35.25c5.69,9.87,14.5,17.45,26.4,22.74,11.9,5.29,27.11,7.94,45.63,7.94,14.24,0,26.81-1.88,37.69-5.65,10.88-3.76,19.99-8.85,27.32-15.26,7.33-6.41,12.51-13.58,15.57-21.52l15.87-5.8c-2.65,26.25-12.57,46.7-29.76,61.35-17.2,14.65-39.94,21.97-68.21,21.97Zm87.6-3.97c0-6.3,.4-13.58,1.22-21.82,.81-8.24,1.83-16.58,3.05-25.03,1.22-8.44,2.34-16.22,3.36-23.35H125.75v-25.94h117.81v96.14h-35.1Z"/><path class="i" d="M325.23,856.88v48.53h152.3v33.88h-192.89v-197.47h192.59v33.88h-152v49.14h124.53v32.05h-124.53Z"/><path class="i" d="M498.72,872.75h41.2c.81,6.92,4.01,13.18,9.61,18.77,5.59,5.6,12.97,9.97,22.13,13.13,9.16,3.16,19.43,4.73,30.83,4.73,10.38,0,18.92-1.12,25.64-3.36,6.71-2.24,11.7-5.39,14.96-9.46,3.25-4.07,4.88-8.95,4.88-14.65s-2.04-9.71-6.1-12.67c-4.07-2.95-10.48-5.39-19.23-7.32-8.75-1.93-20.25-3.92-34.49-5.95-11.19-1.63-21.78-3.92-31.74-6.87-9.97-2.95-18.77-6.76-26.4-11.45-7.63-4.68-13.63-10.43-18.01-17.25-4.38-6.81-6.56-14.9-6.56-24.26,0-11.6,3.3-21.77,9.92-30.52,6.61-8.75,16.43-15.57,29.45-20.45,13.02-4.88,28.99-7.33,47.92-7.33,28.49,0,50.41,6.06,65.77,18.16,15.36,12.11,22.84,28.74,22.43,49.9h-39.68c-.82-12-5.85-20.65-15.11-25.94-9.26-5.29-20.91-7.94-34.95-7.94-13.02,0-23.76,1.94-32.2,5.8-8.45,3.87-12.67,10.48-12.67,19.84,0,3.66,1.02,6.87,3.05,9.61,2.03,2.75,5.49,5.14,10.38,7.17,4.88,2.04,11.49,3.97,19.84,5.8,8.34,1.83,18.72,3.66,31.13,5.49,11.6,1.63,22.13,3.82,31.59,6.56s17.6,6.31,24.42,10.68c6.81,4.38,12.06,9.92,15.72,16.63,3.66,6.71,5.49,14.96,5.49,24.72,0,12.01-3.1,22.43-9.31,31.28-6.21,8.85-15.77,15.72-28.69,20.6-12.92,4.88-29.66,7.33-50.21,7.33-14.65,0-27.57-1.58-38.76-4.73-11.19-3.15-20.86-7.37-28.99-12.66-8.14-5.29-14.76-11.09-19.84-17.4-5.09-6.3-8.7-12.61-10.84-18.92-2.14-6.3-3-12-2.59-17.09Z"/><path class="i" d="M701.84,741.82h208.16v33.88h-208.16v-33.88Zm83.93,29.61h40.59v167.87h-40.59v-167.87Z"/><path class="i" d="M937.58,741.82h40.59v197.47h-40.59v-197.47Z"/><path class="i" d="M1061.19,875.19v-32.35h90.34c10.78,0,19.33-2.9,25.64-8.7,6.3-5.8,9.46-13.89,9.46-24.26s-3.16-19.02-9.46-24.72c-6.31-5.7-14.86-8.55-25.64-8.55h-85.46v162.68h-40.59v-197.47h122.39c10.99,0,21.31,1.33,30.98,3.97,9.66,2.65,18.11,6.71,25.33,12.21,7.22,5.49,12.87,12.51,16.94,21.06,4.07,8.55,6.1,18.82,6.1,30.83s-2.04,21.88-6.1,30.22c-4.07,8.35-9.72,15.11-16.94,20.3-7.23,5.19-15.67,8.96-25.33,11.29-9.67,2.34-19.99,3.51-30.98,3.51h-86.68Z"/><path class="i" d="M1448.6,741.82l-86.68,135.21v62.26h-40.9v-62.26l-86.68-135.21h47l72.95,118.12h-24.42l71.73-118.12h47Z"/><path class="i" d="M1626.97,919.15h-19.23l113.54-177.33h40.59v197.47h-40.59v-143.45l9.77,2.75-90.65,140.7h-45.48l-90.65-140.09,9.77-2.75v142.84h-40.59v-197.47h40.59l112.93,177.33Z"/><path class="i" d="M1847.7,856.88v48.53h152.3v33.88h-192.89v-197.47h192.59v33.88h-152v49.14h124.53v32.05h-124.53Z"/></g><g><path class="n" d="M1371.19,258.49c0,71.14-25.43,132.68-75.62,182.85-2.89,2.89-5.8,5.68-8.77,8.4-48.16,44.29-106.14,66.89-172.56,67.22l-7.83,.04v81.3c0,3.26-2.64,5.9-5.9,5.9h-75.05c-3.26,0-5.9-2.64-5.9-5.9V223.81c0-3.26,2.64-5.9,5.9-5.9h75.05c3.26,0,5.9,2.64,5.9,5.9v199.6c0,4.35,3.5,7.85,7.83,7.87h.1c23.33-.18,45.14-4.54,65.26-13.02,20.14-8.48,38.59-21.06,55.21-37.68,33.67-33.39,50.74-74.48,50.74-122.09s-17.07-88.7-50.76-122.11c-33.63-33.65-74.72-50.72-122.07-50.72l-87.26-.52c-3.24-.02-5.87-2.66-5.87-5.9V5.9c0-3.26,2.64-5.9,5.9-5.9h87.22c71.16,0,132.67,25.45,182.87,75.62,50.19,50.19,75.62,111.71,75.62,182.87Z"/><path class="k" d="M982.57,227.75V505.17c0,6.52-5.28,11.8-11.8,11.8l-82.89-.02c-50.01-.26-95.27-13.14-135.13-38.43-16.3-10.33-31.7-22.74-46.16-37.19-50.19-50.17-75.64-111.71-75.64-182.85s25.45-132.67,75.64-182.87C756.77,25.45,818.29,0,889.43,0h87.22c3.26,0,5.9,2.64,5.9,5.9V79.23c0,3.24-2.62,5.88-5.87,5.9l-87.3,.52c-47.32,0-88.4,17.07-122.05,50.74-33.65,33.4-50.72,74.48-50.72,122.09,0,35.72,9.6,67.75,28.62,95.64,.26,.39,.53,.77,.81,1.14,6.14,8.87,13.26,17.33,21.32,25.33,30.25,30.25,73.1,47.16,115.74,50.25,6.82,.49,12.65-4.94,12.65-11.8v-114.99c0-5.43-4.4-9.83-9.83-9.83h-66.3c-3.26,0-5.9-2.64-5.9-5.9v-64.51c0-3.26,2.64-5.9,5.9-5.9h153.13c5.43,0,9.83,4.4,9.83,9.83Z"/><path class="p" d="M982.57,227.75V505.17c0,6.52-5.28,11.8-11.8,11.8l-82.89-.02c-50.01-.26-95.27-13.14-135.13-38.43-16.3-10.33-31.7-22.74-46.16-37.19-50.19-50.17-75.64-111.71-75.64-182.85s25.45-132.67,75.64-182.87C756.77,25.45,818.29,0,889.43,0h85.26c-266.9,0-306.24,248.14-229.46,354.13,.26,.39,.53,.77,.81,1.14,6.14,8.87,13.26,17.33,21.32,25.33,30.25,30.25,73.1,47.16,115.74,50.25,6.82,.49,12.65-4.94,12.65-11.8v-114.99c0-5.43-4.4-9.83-9.83-9.83h-66.3c-3.26,0-5.9-2.64-5.9-5.9v-64.51c0-3.26,2.64-5.9,5.9-5.9h153.13c5.43,0,9.83,4.4,9.83,9.83Z"/><path class="q" d="M982.57,227.75V505.17c0,6.52-5.28,11.8-11.8,11.8l-82.89-.02c-50.01-.26-95.27-13.14-135.13-38.43,76.27,46.14,143-15.26,143-59.47v-114.99c0-5.43-4.4-9.83-9.83-9.83h-66.3c-3.26,0-5.9-2.64-5.9-5.9v-64.51c0-3.26,2.64-5.9,5.9-5.9h153.13c5.43,0,9.83,4.4,9.83,9.83Z"/><path class="l" d="M972.74,217.91c5.43,0,9.83,4.4,9.83,9.83v127.52c0-55.38-53.02-61.05-96.66-61.05h-66.3c-3.26,0-5.9-2.64-5.9-5.9v-64.51c0-3.26,2.64-5.9,5.9-5.9h153.13Z"/><path class="m" d="M1371.19,258.49c0,71.14-25.43,132.68-75.62,182.85-2.89,2.89-5.8,5.68-8.77,8.4-48.16,44.29-106.14,66.89-172.56,67.22l-7.83,.04v81.3c0,3.26-2.64,5.9-5.9,5.9h-75.05c-3.26,0-5.9-2.64-5.9-5.9v-239.72c0,49.06,40.6,72.71,94.68,72.71h.1c23.33-.18,45.14-4.54,65.26-13.02,20.14-8.48,38.59-21.06,55.21-37.68,33.67-33.39,50.74-74.48,50.74-122.09s-17.07-88.7-50.76-122.11c-33.63-33.65-74.72-50.72-122.07-50.72l-87.26-.52c-3.24-.02-5.87-2.66-5.87-5.9V5.9c0-3.26,2.64-5.9,5.9-5.9h87.22c71.16,0,132.67,25.45,182.87,75.62,50.19,50.19,75.62,111.71,75.62,182.87Z"/><path class="o" d="M1371.19,258.49c0,71.14-25.43,132.68-75.62,182.85-2.89,2.89-5.8,5.68-8.77,8.4,129-124.99,54.01-364.08-174.09-364.08l-87.26-.52c-3.24-.02-5.87-2.66-5.87-5.9V5.9c0-3.26,2.64-5.9,5.9-5.9h87.22c71.16,0,132.67,25.45,182.87,75.62,50.19,50.19,75.62,111.71,75.62,182.87Z"/></g></g></svg>