<?xml version="1.0" encoding="UTF-8"?><svg id="a" xmlns="http://www.w3.org/2000/svg" xmlns:xlink="http://www.w3.org/1999/xlink" viewBox="0 0 2000 226.56"><defs><style>.i{fill:#fff;}.j{fill:#154c75;}.k{fill:url(#c);}.l{fill:url(#f);}.m{fill:url(#g);}.n{fill:url(#b);}.o{fill:url(#h);}.p{fill:url(#d);}.q{fill:url(#e);}</style><linearGradient id="b" x1="206.24" y1="80.03" x2="184.86" y2="178.51" gradientTransform="matrix(1, 0, 0, 1, 0, 0)" gradientUnits="userSpaceOnUse"><stop offset="0" stop-color="#00a9e6"/><stop offset=".3" stop-color="#00a6e3"/><stop offset=".51" stop-color="#029fd9"/><stop offset=".69" stop-color="#0592ca"/><stop offset=".85" stop-color="#0980b4"/><stop offset="1" stop-color="#0f6a9a"/></linearGradient><linearGradient id="c" x1="166.78" y1="95.25" x2="39.2" y2="99.11" xlink:href="#b"/><linearGradient id="d" x1="41.59" y1="42.73" x2="144.11" y2="153.66" xlink:href="#b"/><linearGradient id="e" x1="88.11" y1="189.94" x2="98.63" y2="103.37" xlink:href="#b"/><linearGradient id="f" x1="125.97" y1="107.11" x2="53.77" y2="100.8" xlink:href="#b"/><linearGradient id="g" x1="155.31" y1="172.46" x2="225.06" y2="34.71" xlink:href="#b"/><linearGradient id="h" x1="249.9" y1="84.32" x2="28.03" y2="84.32" xlink:href="#b"/></defs><rect class="j" width="2000" height="226.56"/><g><g><path class="i" d="M440.7,178.98c-15.2,0-28.92-1.77-41.16-5.32-12.24-3.55-22.79-8.86-31.66-15.96s-15.66-15.87-20.39-26.34c-4.73-10.47-7.09-22.54-7.09-36.22s2.49-26.13,7.47-36.85c4.98-10.72,12.07-19.8,21.27-27.23,9.2-7.43,20.17-13.04,32.93-16.84,12.75-3.8,26.89-5.7,42.42-5.7,18.4,0,34.27,2.58,47.61,7.72,13.34,5.15,23.85,12.37,31.53,21.65,7.68,9.29,12.03,20.35,13.04,33.18h-32.42c-2.2-6.75-5.79-12.62-10.76-17.6-4.98-4.98-11.52-8.86-19.63-11.65-8.11-2.79-17.9-4.18-29.38-4.18-14.69,0-27.23,2.37-37.61,7.09-10.38,4.73-18.28,11.4-23.68,20.01-5.4,8.61-8.1,18.74-8.1,30.39s2.36,21.06,7.09,29.25c4.73,8.19,12.03,14.48,21.91,18.87,9.88,4.39,22.5,6.59,37.86,6.59,11.82,0,22.24-1.56,31.28-4.69,9.03-3.12,16.59-7.35,22.67-12.66,6.08-5.32,10.38-11.27,12.92-17.86l13.17-4.81c-2.2,21.78-10.43,38.75-24.69,50.91-14.27,12.16-33.14,18.24-56.6,18.24Zm72.69-3.29c0-5.23,.34-11.27,1.01-18.11,.67-6.84,1.52-13.76,2.53-20.77,1.01-7,1.94-13.46,2.79-19.37h-74.97v-21.53h97.76v79.78h-29.13Z"/><path class="i" d="M610.28,107.31v40.27h126.38v28.11h-160.06V11.83h159.81v28.11h-126.13v40.78h103.33v26.59h-103.33Z"/><path class="i" d="M754.24,120.48h34.19c.67,5.74,3.33,10.93,7.98,15.58,4.64,4.64,10.76,8.27,18.36,10.89,7.6,2.62,16.12,3.93,25.58,3.93,8.61,0,15.7-.93,21.27-2.79,5.57-1.86,9.71-4.47,12.41-7.85,2.7-3.38,4.05-7.43,4.05-12.16s-1.69-8.06-5.07-10.51c-3.38-2.45-8.7-4.47-15.96-6.08-7.26-1.6-16.8-3.25-28.62-4.94-9.29-1.35-18.07-3.25-26.34-5.7-8.28-2.45-15.58-5.61-21.91-9.5-6.33-3.88-11.31-8.65-14.94-14.31-3.63-5.65-5.45-12.37-5.45-20.14,0-9.62,2.74-18.06,8.23-25.33,5.48-7.26,13.63-12.92,24.44-16.97,10.8-4.05,24.06-6.08,39.76-6.08,23.64,0,41.83,5.03,54.58,15.07,12.75,10.05,18.95,23.85,18.61,41.41h-32.92c-.68-9.96-4.86-17.14-12.54-21.53-7.69-4.39-17.35-6.58-29-6.58-10.81,0-19.71,1.61-26.72,4.81-7.01,3.21-10.51,8.7-10.51,16.46,0,3.04,.84,5.7,2.53,7.98,1.69,2.28,4.56,4.27,8.61,5.95,4.05,1.69,9.54,3.29,16.46,4.81,6.92,1.52,15.53,3.04,25.83,4.56,9.62,1.35,18.36,3.17,26.21,5.45,7.85,2.28,14.6,5.24,20.26,8.86,5.66,3.63,10,8.23,13.04,13.8s4.56,12.41,4.56,20.51c0,9.97-2.58,18.62-7.72,25.96-5.15,7.35-13.09,13.04-23.81,17.1-10.72,4.05-24.61,6.08-41.66,6.08-12.16,0-22.88-1.31-32.16-3.93-9.29-2.62-17.31-6.12-24.06-10.51-6.75-4.39-12.24-9.2-16.46-14.43-4.22-5.23-7.22-10.47-8.99-15.7-1.77-5.23-2.49-9.96-2.15-14.18Z"/><path class="i" d="M922.79,11.83h172.73v28.11h-172.73V11.83Zm69.65,24.57h33.68V175.69h-33.68V36.4Z"/><path class="i" d="M1118.41,11.83h33.69V175.69h-33.69V11.83Z"/><path class="i" d="M1220.98,122.5v-26.85h74.97c8.95,0,16.04-2.41,21.28-7.22,5.23-4.81,7.85-11.52,7.85-20.14s-2.62-15.79-7.85-20.51c-5.24-4.73-12.33-7.09-21.28-7.09h-70.91V175.69h-33.68V11.83h101.56c9.12,0,17.69,1.1,25.71,3.29,8.02,2.2,15.03,5.57,21.02,10.13,5.99,4.56,10.68,10.38,14.06,17.48,3.38,7.09,5.07,15.62,5.07,25.58s-1.69,18.15-5.07,25.07c-3.38,6.92-8.06,12.54-14.06,16.84-6,4.31-13,7.43-21.02,9.37-8.02,1.94-16.59,2.91-25.71,2.91h-71.93Z"/><path class="i" d="M1542.45,11.83l-71.93,112.2v51.67h-33.94v-51.67l-71.93-112.2h39l60.53,98.01h-20.26l59.52-98.01h39Z"/><path class="i" d="M1690.46,158.98h-15.96L1768.72,11.83h33.69V175.69h-33.69V56.66l8.11,2.28-75.22,116.76h-37.74l-75.22-116.25,8.1-2.28v118.53h-33.68V11.83h33.68l93.71,147.15Z"/><path class="i" d="M1873.62,107.31v40.27h126.38v28.11h-160.06V11.83h159.81v28.11h-126.13v40.78h103.33v26.59h-103.33Z"/></g><g><path class="n" d="M277.58,96.93c0,26.67-9.54,49.75-28.36,68.56-1.08,1.08-2.18,2.13-3.29,3.15-18.06,16.61-39.8,25.08-64.71,25.21h-2.94v30.5c0,1.22-.99,2.21-2.21,2.21h-28.14c-1.22,0-2.21-.99-2.21-2.21V83.93c0-1.22,.99-2.21,2.21-2.21h28.14c1.22,0,2.21,.99,2.21,2.21v74.85c0,1.63,1.31,2.94,2.94,2.95h.04c8.75-.07,16.93-1.7,24.47-4.88,7.55-3.18,14.47-7.9,20.7-14.13,12.63-12.52,19.03-27.93,19.03-45.78s-6.4-33.26-19.03-45.79c-12.61-12.62-28.02-19.02-45.78-19.02l-32.72-.19c-1.22,0-2.2-1-2.2-2.21V2.21c0-1.22,.99-2.21,2.21-2.21h32.71c26.68,0,49.75,9.54,68.57,28.36,18.82,18.82,28.36,41.89,28.36,68.57Z"/><path class="k" d="M131.86,85.4v104.03c0,2.44-1.98,4.43-4.43,4.42h-31.08c-18.75-.1-35.72-4.93-50.67-14.42-6.11-3.87-11.89-8.53-17.31-13.95C9.54,146.68,0,123.6,0,96.93S9.54,47.18,28.36,28.36C47.18,9.54,70.25,0,96.93,0h32.71c1.22,0,2.21,.99,2.21,2.21V29.71c0,1.22-.98,2.21-2.2,2.21l-32.74,.19c-17.74,0-33.15,6.4-45.77,19.03-12.62,12.52-19.02,27.93-19.02,45.78,0,13.39,3.6,25.41,10.73,35.86,.1,.15,.2,.29,.3,.43,2.3,3.33,4.97,6.5,7.99,9.5,11.34,11.34,27.41,17.68,43.4,18.84,2.56,.18,4.74-1.85,4.74-4.42v-43.12c0-2.04-1.65-3.69-3.69-3.69h-24.86c-1.22,0-2.21-.99-2.21-2.21v-24.19c0-1.22,.99-2.21,2.21-2.21h57.42c2.04,0,3.69,1.65,3.69,3.69Z"/><path class="p" d="M131.86,85.4v104.03c0,2.44-1.98,4.43-4.43,4.42h-31.08c-18.75-.1-35.72-4.93-50.67-14.42-6.11-3.87-11.89-8.53-17.31-13.95C9.54,146.68,0,123.6,0,96.93S9.54,47.18,28.36,28.36C47.18,9.54,70.25,0,96.93,0h31.97C28.82,0,14.06,93.05,42.86,132.79c.1,.15,.2,.29,.3,.43,2.3,3.33,4.97,6.5,7.99,9.5,11.34,11.34,27.41,17.68,43.4,18.84,2.56,.18,4.74-1.85,4.74-4.42v-43.12c0-2.04-1.65-3.69-3.69-3.69h-24.86c-1.22,0-2.21-.99-2.21-2.21v-24.19c0-1.22,.99-2.21,2.21-2.21h57.42c2.04,0,3.69,1.65,3.69,3.69Z"/><path class="q" d="M131.86,85.4v104.03c0,2.44-1.98,4.43-4.43,4.42h-31.08c-18.75-.1-35.72-4.93-50.67-14.42,28.6,17.3,53.62-5.72,53.62-22.3v-43.12c0-2.04-1.65-3.69-3.69-3.69h-24.86c-1.22,0-2.21-.99-2.21-2.21v-24.19c0-1.22,.99-2.21,2.21-2.21h57.42c2.04,0,3.69,1.65,3.69,3.69Z"/><path class="l" d="M128.17,81.71c2.04,0,3.69,1.65,3.69,3.69v47.82c0-20.77-19.88-22.89-36.25-22.89h-24.86c-1.22,0-2.21-.99-2.21-2.21v-24.19c0-1.22,.99-2.21,2.21-2.21h57.42Z"/><path class="m" d="M277.58,96.93c0,26.67-9.54,49.75-28.36,68.56-1.08,1.08-2.18,2.13-3.29,3.15-18.06,16.61-39.8,25.08-64.71,25.21h-2.94v30.5c0,1.22-.99,2.21-2.21,2.21h-28.14c-1.22,0-2.21-.99-2.21-2.21v-89.89c0,18.4,15.22,27.26,35.5,27.26h.04c8.75-.07,16.93-1.7,24.47-4.88,7.55-3.18,14.47-7.9,20.7-14.13,12.63-12.52,19.03-27.93,19.03-45.78s-6.4-33.26-19.03-45.79c-12.61-12.62-28.02-19.02-45.78-19.02l-32.72-.19c-1.22,0-2.2-1-2.2-2.21V2.21c0-1.22,.99-2.21,2.21-2.21h32.71c26.68,0,49.75,9.54,68.57,28.36,18.82,18.82,28.36,41.89,28.36,68.57Z"/><path class="o" d="M277.58,96.93c0,26.67-9.54,49.75-28.36,68.56-1.08,1.08-2.18,2.13-3.29,3.15,48.37-46.87,20.25-136.52-65.28-136.52l-32.72-.19c-1.22,0-2.2-1-2.2-2.21V2.21c0-1.22,.99-2.21,2.21-2.21h32.71c26.68,0,49.75,9.54,68.57,28.36,18.82,18.82,28.36,41.89,28.36,68.57Z"/></g></g></svg>